G04*
G04 #@! TF.GenerationSoftware,Altium Limited,Altium Designer,24.10.1 (45)*
G04*
G04 Layer_Color=16711935*
%FSLAX44Y44*%
%MOMM*%
G71*
G04*
G04 #@! TF.SameCoordinates,58AE560C-37F5-4C9B-8F18-908462E99DB1*
G04*
G04*
G04 #@! TF.FilePolarity,Negative*
G04*
G01*
G75*
%ADD28C,1.0000*%
%ADD126C,4.7752*%
%ADD127R,1.5712X1.5712*%
%ADD128C,1.5712*%
%ADD129R,1.7112X1.7112*%
%ADD130C,1.7112*%
%ADD131C,1.8032*%
%ADD132R,1.8032X1.8032*%
%ADD133R,1.7112X1.7112*%
%ADD134C,0.8382*%
%ADD135C,0.4532*%
%ADD136C,0.4572*%
%ADD160R,1.4732X5.2832*%
%ADD161C,7.8232*%
G04:AMPARAMS|DCode=162|XSize=2.8956mm|YSize=0.8382mm|CornerRadius=0.235mm|HoleSize=0mm|Usage=FLASHONLY|Rotation=180.000|XOffset=0mm|YOffset=0mm|HoleType=Round|Shape=RoundedRectangle|*
%AMROUNDEDRECTD162*
21,1,2.8956,0.3683,0,0,180.0*
21,1,2.4257,0.8382,0,0,180.0*
1,1,0.4699,-1.2129,0.1842*
1,1,0.4699,1.2129,0.1842*
1,1,0.4699,1.2129,-0.1842*
1,1,0.4699,-1.2129,-0.1842*
%
%ADD162ROUNDEDRECTD162*%
G36*
X208092Y44670D02*
X208432Y44640D01*
X208772Y44600D01*
X209102Y44540D01*
X209432Y44460D01*
X209762Y44360D01*
X210082Y44250D01*
X210392Y44120D01*
X210702Y43970D01*
X211002Y43810D01*
X211292Y43630D01*
X211572Y43440D01*
X211842Y43230D01*
X212102Y43010D01*
X212352Y42780D01*
X212582Y42530D01*
X212802Y42270D01*
X213012Y42000D01*
X213202Y41720D01*
X213382Y41430D01*
X213542Y41130D01*
X213692Y40820D01*
X213822Y40510D01*
X213932Y40190D01*
X214032Y39860D01*
X214112Y39530D01*
X214172Y39200D01*
X214212Y38860D01*
X214242Y38520D01*
X214252Y38180D01*
Y32180D01*
X214242Y31840D01*
X214212Y31500D01*
X214172Y31160D01*
X214112Y30830D01*
X214032Y30500D01*
X213932Y30170D01*
X213822Y29850D01*
X213692Y29540D01*
X213542Y29230D01*
X213382Y28930D01*
X213202Y28640D01*
X213012Y28360D01*
X212802Y28090D01*
X212582Y27830D01*
X212352Y27580D01*
X212102Y27350D01*
X211842Y27130D01*
X211572Y26920D01*
X211292Y26730D01*
X211002Y26550D01*
X210702Y26390D01*
X210392Y26240D01*
X210082Y26110D01*
X209762Y26000D01*
X209432Y25900D01*
X209102Y25820D01*
X208772Y25760D01*
X208432Y25720D01*
X208092Y25690D01*
X207752Y25680D01*
X207412Y25690D01*
X207072Y25720D01*
X206732Y25760D01*
X206402Y25820D01*
X206072Y25900D01*
X205742Y26000D01*
X205422Y26110D01*
X205112Y26240D01*
X204802Y26390D01*
X204502Y26550D01*
X204212Y26730D01*
X203932Y26920D01*
X203662Y27130D01*
X203402Y27350D01*
X203152Y27580D01*
X202922Y27830D01*
X202702Y28090D01*
X202492Y28360D01*
X202302Y28640D01*
X202122Y28930D01*
X201962Y29230D01*
X201812Y29540D01*
X201682Y29850D01*
X201572Y30170D01*
X201472Y30500D01*
X201392Y30830D01*
X201332Y31160D01*
X201292Y31500D01*
X201262Y31840D01*
X201252Y32180D01*
Y38180D01*
X201262Y38520D01*
X201292Y38860D01*
X201332Y39200D01*
X201392Y39530D01*
X201472Y39860D01*
X201572Y40190D01*
X201682Y40510D01*
X201812Y40820D01*
X201962Y41130D01*
X202122Y41430D01*
X202302Y41720D01*
X202492Y42000D01*
X202702Y42270D01*
X202922Y42530D01*
X203152Y42780D01*
X203402Y43010D01*
X203662Y43230D01*
X203932Y43440D01*
X204212Y43630D01*
X204502Y43810D01*
X204802Y43970D01*
X205112Y44120D01*
X205422Y44250D01*
X205742Y44360D01*
X206072Y44460D01*
X206402Y44540D01*
X206732Y44600D01*
X207072Y44640D01*
X207412Y44670D01*
X207752Y44680D01*
X208092Y44670D01*
D02*
G37*
G36*
Y82670D02*
X208432Y82640D01*
X208772Y82600D01*
X209102Y82540D01*
X209432Y82460D01*
X209762Y82360D01*
X210082Y82250D01*
X210392Y82120D01*
X210702Y81970D01*
X211002Y81810D01*
X211292Y81630D01*
X211572Y81440D01*
X211842Y81230D01*
X212102Y81010D01*
X212352Y80780D01*
X212582Y80530D01*
X212802Y80270D01*
X213012Y80000D01*
X213202Y79720D01*
X213382Y79430D01*
X213542Y79130D01*
X213692Y78820D01*
X213822Y78510D01*
X213932Y78190D01*
X214032Y77860D01*
X214112Y77530D01*
X214172Y77200D01*
X214212Y76860D01*
X214242Y76520D01*
X214252Y76180D01*
Y70180D01*
X214242Y69840D01*
X214212Y69500D01*
X214172Y69160D01*
X214112Y68830D01*
X214032Y68500D01*
X213932Y68170D01*
X213822Y67850D01*
X213692Y67540D01*
X213542Y67230D01*
X213382Y66930D01*
X213202Y66640D01*
X213012Y66360D01*
X212802Y66090D01*
X212582Y65830D01*
X212352Y65580D01*
X212102Y65350D01*
X211842Y65130D01*
X211572Y64920D01*
X211292Y64730D01*
X211002Y64550D01*
X210702Y64390D01*
X210392Y64240D01*
X210082Y64110D01*
X209762Y64000D01*
X209432Y63900D01*
X209102Y63820D01*
X208772Y63760D01*
X208432Y63720D01*
X208092Y63690D01*
X207752Y63680D01*
X207412Y63690D01*
X207072Y63720D01*
X206732Y63760D01*
X206402Y63820D01*
X206072Y63900D01*
X205742Y64000D01*
X205422Y64110D01*
X205112Y64240D01*
X204802Y64390D01*
X204502Y64550D01*
X204212Y64730D01*
X203932Y64920D01*
X203662Y65130D01*
X203402Y65350D01*
X203152Y65580D01*
X202922Y65830D01*
X202702Y66090D01*
X202492Y66360D01*
X202302Y66640D01*
X202122Y66930D01*
X201962Y67230D01*
X201812Y67540D01*
X201682Y67850D01*
X201572Y68170D01*
X201472Y68500D01*
X201392Y68830D01*
X201332Y69160D01*
X201292Y69500D01*
X201262Y69840D01*
X201252Y70180D01*
Y76180D01*
X201262Y76520D01*
X201292Y76860D01*
X201332Y77200D01*
X201392Y77530D01*
X201472Y77860D01*
X201572Y78190D01*
X201682Y78510D01*
X201812Y78820D01*
X201962Y79130D01*
X202122Y79430D01*
X202302Y79720D01*
X202492Y80000D01*
X202702Y80270D01*
X202922Y80530D01*
X203152Y80780D01*
X203402Y81010D01*
X203662Y81230D01*
X203932Y81440D01*
X204212Y81630D01*
X204502Y81810D01*
X204802Y81970D01*
X205112Y82120D01*
X205422Y82250D01*
X205742Y82360D01*
X206072Y82460D01*
X206402Y82540D01*
X206732Y82600D01*
X207072Y82640D01*
X207412Y82670D01*
X207752Y82680D01*
X208092Y82670D01*
D02*
G37*
G36*
X294492Y44670D02*
X294832Y44640D01*
X295172Y44600D01*
X295502Y44540D01*
X295832Y44460D01*
X296162Y44360D01*
X296482Y44250D01*
X296792Y44120D01*
X297102Y43970D01*
X297402Y43810D01*
X297692Y43630D01*
X297972Y43440D01*
X298242Y43230D01*
X298502Y43010D01*
X298752Y42780D01*
X298982Y42530D01*
X299202Y42270D01*
X299412Y42000D01*
X299602Y41720D01*
X299782Y41430D01*
X299942Y41130D01*
X300092Y40820D01*
X300222Y40510D01*
X300332Y40190D01*
X300432Y39860D01*
X300512Y39530D01*
X300572Y39200D01*
X300612Y38860D01*
X300642Y38520D01*
X300652Y38180D01*
Y32180D01*
X300642Y31840D01*
X300612Y31500D01*
X300572Y31160D01*
X300512Y30830D01*
X300432Y30500D01*
X300332Y30170D01*
X300222Y29850D01*
X300092Y29540D01*
X299942Y29230D01*
X299782Y28930D01*
X299602Y28640D01*
X299412Y28360D01*
X299202Y28090D01*
X298982Y27830D01*
X298752Y27580D01*
X298502Y27350D01*
X298242Y27130D01*
X297972Y26920D01*
X297692Y26730D01*
X297402Y26550D01*
X297102Y26390D01*
X296792Y26240D01*
X296482Y26110D01*
X296162Y26000D01*
X295832Y25900D01*
X295502Y25820D01*
X295172Y25760D01*
X294832Y25720D01*
X294492Y25690D01*
X294152Y25680D01*
X293812Y25690D01*
X293472Y25720D01*
X293132Y25760D01*
X292802Y25820D01*
X292472Y25900D01*
X292142Y26000D01*
X291822Y26110D01*
X291512Y26240D01*
X291202Y26390D01*
X290902Y26550D01*
X290612Y26730D01*
X290332Y26920D01*
X290062Y27130D01*
X289802Y27350D01*
X289552Y27580D01*
X289322Y27830D01*
X289102Y28090D01*
X288892Y28360D01*
X288702Y28640D01*
X288522Y28930D01*
X288362Y29230D01*
X288212Y29540D01*
X288082Y29850D01*
X287972Y30170D01*
X287872Y30500D01*
X287792Y30830D01*
X287732Y31160D01*
X287692Y31500D01*
X287662Y31840D01*
X287652Y32180D01*
Y38180D01*
X287662Y38520D01*
X287692Y38860D01*
X287732Y39200D01*
X287792Y39530D01*
X287872Y39860D01*
X287972Y40190D01*
X288082Y40510D01*
X288212Y40820D01*
X288362Y41130D01*
X288522Y41430D01*
X288702Y41720D01*
X288892Y42000D01*
X289102Y42270D01*
X289322Y42530D01*
X289552Y42780D01*
X289802Y43010D01*
X290062Y43230D01*
X290332Y43440D01*
X290612Y43630D01*
X290902Y43810D01*
X291202Y43970D01*
X291512Y44120D01*
X291822Y44250D01*
X292142Y44360D01*
X292472Y44460D01*
X292802Y44540D01*
X293132Y44600D01*
X293472Y44640D01*
X293812Y44670D01*
X294152Y44680D01*
X294492Y44670D01*
D02*
G37*
G36*
Y82670D02*
X294832Y82640D01*
X295172Y82600D01*
X295502Y82540D01*
X295832Y82460D01*
X296162Y82360D01*
X296482Y82250D01*
X296792Y82120D01*
X297102Y81970D01*
X297402Y81810D01*
X297692Y81630D01*
X297972Y81440D01*
X298242Y81230D01*
X298502Y81010D01*
X298752Y80780D01*
X298982Y80530D01*
X299202Y80270D01*
X299412Y80000D01*
X299602Y79720D01*
X299782Y79430D01*
X299942Y79130D01*
X300092Y78820D01*
X300222Y78510D01*
X300332Y78190D01*
X300432Y77860D01*
X300512Y77530D01*
X300572Y77200D01*
X300612Y76860D01*
X300642Y76520D01*
X300652Y76180D01*
Y70180D01*
X300642Y69840D01*
X300612Y69500D01*
X300572Y69160D01*
X300512Y68830D01*
X300432Y68500D01*
X300332Y68170D01*
X300222Y67850D01*
X300092Y67540D01*
X299942Y67230D01*
X299782Y66930D01*
X299602Y66640D01*
X299412Y66360D01*
X299202Y66090D01*
X298982Y65830D01*
X298752Y65580D01*
X298502Y65350D01*
X298242Y65130D01*
X297972Y64920D01*
X297692Y64730D01*
X297402Y64550D01*
X297102Y64390D01*
X296792Y64240D01*
X296482Y64110D01*
X296162Y64000D01*
X295832Y63900D01*
X295502Y63820D01*
X295172Y63760D01*
X294832Y63720D01*
X294492Y63690D01*
X294152Y63680D01*
X293812Y63690D01*
X293472Y63720D01*
X293132Y63760D01*
X292802Y63820D01*
X292472Y63900D01*
X292142Y64000D01*
X291822Y64110D01*
X291512Y64240D01*
X291202Y64390D01*
X290902Y64550D01*
X290612Y64730D01*
X290332Y64920D01*
X290062Y65130D01*
X289802Y65350D01*
X289552Y65580D01*
X289322Y65830D01*
X289102Y66090D01*
X288892Y66360D01*
X288702Y66640D01*
X288522Y66930D01*
X288362Y67230D01*
X288212Y67540D01*
X288082Y67850D01*
X287972Y68170D01*
X287872Y68500D01*
X287792Y68830D01*
X287732Y69160D01*
X287692Y69500D01*
X287662Y69840D01*
X287652Y70180D01*
Y76180D01*
X287662Y76520D01*
X287692Y76860D01*
X287732Y77200D01*
X287792Y77530D01*
X287872Y77860D01*
X287972Y78190D01*
X288082Y78510D01*
X288212Y78820D01*
X288362Y79130D01*
X288522Y79430D01*
X288702Y79720D01*
X288892Y80000D01*
X289102Y80270D01*
X289322Y80530D01*
X289552Y80780D01*
X289802Y81010D01*
X290062Y81230D01*
X290332Y81440D01*
X290612Y81630D01*
X290902Y81810D01*
X291202Y81970D01*
X291512Y82120D01*
X291822Y82250D01*
X292142Y82360D01*
X292472Y82460D01*
X292802Y82540D01*
X293132Y82600D01*
X293472Y82640D01*
X293812Y82670D01*
X294152Y82680D01*
X294492Y82670D01*
D02*
G37*
D28*
X543564Y610434D02*
D03*
Y622880D02*
D03*
Y635072D02*
D03*
X543814Y823468D02*
D03*
Y835660D02*
D03*
Y811022D02*
D03*
X516890Y211074D02*
D03*
Y198882D02*
D03*
Y186436D02*
D03*
X544830Y186690D02*
D03*
Y199136D02*
D03*
Y211328D02*
D03*
X516890Y424434D02*
D03*
Y412242D02*
D03*
Y399796D02*
D03*
X544830Y400050D02*
D03*
Y412496D02*
D03*
Y424688D02*
D03*
X516640Y633294D02*
D03*
Y621102D02*
D03*
Y608656D02*
D03*
X516890Y809244D02*
D03*
Y821690D02*
D03*
Y833882D02*
D03*
D126*
X38354Y842772D02*
D03*
X578358Y786384D02*
D03*
X895096Y714248D02*
D03*
X481076Y534416D02*
D03*
X141478Y83566D02*
D03*
D127*
X464980Y43600D02*
D03*
X29624Y40298D02*
D03*
D128*
X484980Y43600D02*
D03*
X49624Y40298D02*
D03*
D129*
X888854Y599694D02*
D03*
D130*
X863854D02*
D03*
X838854D02*
D03*
X442552Y329184D02*
D03*
Y304184D02*
D03*
X442044Y448056D02*
D03*
Y423056D02*
D03*
D131*
X358140Y152146D02*
D03*
D132*
X332740D02*
D03*
D133*
X442552Y354184D02*
D03*
X442044Y473056D02*
D03*
D134*
X53594Y713486D02*
D03*
X267208Y148336D02*
D03*
X29464Y138430D02*
D03*
X309372Y315722D02*
D03*
D135*
X49784Y698144D02*
D03*
X57404D02*
D03*
D136*
X684196Y709996D02*
D03*
X690696Y716496D02*
D03*
X684196Y722996D02*
D03*
X677696Y716496D02*
D03*
X166078Y583702D02*
D03*
X172578Y590202D02*
D03*
X166078Y596702D02*
D03*
X159578Y590202D02*
D03*
X256540Y244990D02*
D03*
X248790Y252740D02*
D03*
X256540Y260490D02*
D03*
X264290Y252740D02*
D03*
X256540D02*
D03*
D160*
X575574Y617220D02*
D03*
X795274D02*
D03*
D161*
X685424D02*
D03*
D162*
X175006Y493776D02*
D03*
X134366D02*
D03*
X175006Y481076D02*
D03*
X134366D02*
D03*
X175006Y468376D02*
D03*
X134366D02*
D03*
X175006Y455676D02*
D03*
X134366D02*
D03*
X175006Y442976D02*
D03*
X134366D02*
D03*
M02*
