G04*
G04 #@! TF.GenerationSoftware,Altium Limited,Altium Designer,24.10.1 (45)*
G04*
G04 Layer_Physical_Order=2*
G04 Layer_Color=16711680*
%FSLAX44Y44*%
%MOMM*%
G71*
G04*
G04 #@! TF.SameCoordinates,58AE560C-37F5-4C9B-8F18-908462E99DB1*
G04*
G04*
G04 #@! TF.FilePolarity,Positive*
G04*
G01*
G75*
%ADD15C,0.1524*%
%ADD17C,0.2540*%
%ADD28C,1.0000*%
%ADD145C,4.5720*%
%ADD146R,1.3680X1.3680*%
%ADD147C,1.3680*%
%ADD148R,1.5080X1.5080*%
%ADD149C,1.5080*%
%ADD150O,1.0000X1.6000*%
%ADD151C,1.6000*%
%ADD152R,1.6000X1.6000*%
%ADD153R,1.5080X1.5080*%
%ADD154C,0.6350*%
%ADD155C,0.2500*%
%ADD156C,0.2540*%
%ADD157R,1.2700X5.0800*%
%ADD158C,7.6200*%
G04:AMPARAMS|DCode=159|XSize=2.794mm|YSize=0.7366mm|CornerRadius=0.1842mm|HoleSize=0mm|Usage=FLASHONLY|Rotation=180.000|XOffset=0mm|YOffset=0mm|HoleType=Round|Shape=RoundedRectangle|*
%AMROUNDEDRECTD159*
21,1,2.7940,0.3683,0,0,180.0*
21,1,2.4257,0.7366,0,0,180.0*
1,1,0.3683,-1.2129,0.1842*
1,1,0.3683,1.2129,0.1842*
1,1,0.3683,1.2129,-0.1842*
1,1,0.3683,-1.2129,-0.1842*
%
%ADD159ROUNDEDRECTD159*%
G36*
X110744Y911606D02*
X508000D01*
Y17469D01*
X9595D01*
Y1010723D01*
X110744D01*
Y911606D01*
D02*
G37*
G36*
X632714Y910844D02*
X923340D01*
Y515874D01*
X551989D01*
Y582295D01*
Y584159D01*
X551950Y584359D01*
Y584563D01*
X551434Y587155D01*
Y655324D01*
X551942Y657878D01*
Y658082D01*
X551982Y658282D01*
Y660146D01*
Y783717D01*
Y785581D01*
X551942Y785781D01*
Y785985D01*
X551434Y788539D01*
Y854079D01*
X551942Y856633D01*
Y856837D01*
X551982Y857037D01*
Y858901D01*
Y989711D01*
Y991575D01*
X551942Y991775D01*
Y991979D01*
X551434Y994533D01*
Y1010970D01*
X632714D01*
Y910844D01*
D02*
G37*
%LPC*%
G36*
X57404Y701146D02*
X55281Y700267D01*
X54401Y698144D01*
X55281Y696021D01*
X57404Y695142D01*
X59527Y696021D01*
X60406Y698144D01*
X59527Y700267D01*
X57404Y701146D01*
D02*
G37*
G36*
X49784D02*
X47661Y700267D01*
X46782Y698144D01*
X47661Y696021D01*
X49784Y695142D01*
X51907Y696021D01*
X52786Y698144D01*
X51907Y700267D01*
X49784Y701146D01*
D02*
G37*
G36*
X42926Y610622D02*
X39330Y609132D01*
X37840Y605536D01*
X39330Y601940D01*
X42926Y600450D01*
X46522Y601940D01*
X46564Y602039D01*
X71409D01*
X71842Y600994D01*
X75438Y599505D01*
X79035Y600994D01*
X80524Y604591D01*
X79035Y608187D01*
X75438Y609677D01*
X71842Y608187D01*
X71800Y608088D01*
X46955D01*
X46522Y609132D01*
X42926Y610622D01*
D02*
G37*
G36*
X36830Y566680D02*
X33233Y565191D01*
X31744Y561594D01*
X33233Y557998D01*
X36830Y556508D01*
X40427Y557998D01*
X40645Y558524D01*
X41148Y558316D01*
X85066D01*
X85303Y557743D01*
X88900Y556254D01*
X92497Y557743D01*
X93986Y561340D01*
X92497Y564936D01*
X88900Y566426D01*
X85303Y564936D01*
X85066Y564364D01*
X41507D01*
X40894Y564618D01*
X40663D01*
X40427Y565191D01*
X36830Y566680D01*
D02*
G37*
G36*
X230759Y562414D02*
X227162Y560924D01*
X225673Y557328D01*
X227162Y553731D01*
X227162Y552746D01*
X225673Y549149D01*
X227090Y545728D01*
X227162Y545008D01*
Y544653D01*
X227090Y543933D01*
X225673Y540512D01*
X227162Y536916D01*
X227162Y536159D01*
X225673Y532562D01*
X227162Y528966D01*
X230759Y527476D01*
X234018Y528826D01*
X235142D01*
X236982Y528064D01*
X266553D01*
X267116Y526704D01*
X270713Y525214D01*
X274309Y526704D01*
X275799Y530300D01*
X274309Y533897D01*
X273634Y534176D01*
X273550Y535861D01*
X274325Y536277D01*
X275641Y535731D01*
X279238Y537221D01*
X280728Y540817D01*
X279238Y544414D01*
X279186Y544435D01*
X279186Y545806D01*
X280676Y549402D01*
X279186Y552999D01*
X275692Y554446D01*
X275501Y554567D01*
X274506Y555563D01*
X275215Y557276D01*
X273725Y560872D01*
X270129Y562362D01*
X266532Y560872D01*
X266085Y559792D01*
X234824D01*
X234356Y560924D01*
X230759Y562414D01*
D02*
G37*
G36*
X363982Y544836D02*
X360386Y543346D01*
X358896Y539750D01*
X360386Y536153D01*
X363982Y534664D01*
X364453Y534859D01*
X375684Y523629D01*
X376387Y521930D01*
X379984Y520440D01*
X383581Y521930D01*
X385070Y525526D01*
X383581Y529123D01*
X379984Y530612D01*
X379153Y530268D01*
X368642Y540780D01*
X367579Y543346D01*
X363982Y544836D01*
D02*
G37*
G36*
X146495Y500360D02*
X135636D01*
Y495046D01*
X151237D01*
Y495617D01*
X149848Y498971D01*
X146495Y500360D01*
D02*
G37*
G36*
X133096D02*
X122238D01*
X118884Y498971D01*
X117495Y495617D01*
Y495046D01*
X133096D01*
Y500360D01*
D02*
G37*
G36*
X152908Y514102D02*
X149312Y512612D01*
X147822Y509016D01*
X149312Y505420D01*
X150063Y505108D01*
Y504858D01*
X151110Y502331D01*
X159235Y494206D01*
Y491935D01*
X159312Y491748D01*
X158465Y490481D01*
X152284D01*
X151237Y491935D01*
Y492506D01*
X134366D01*
X117495D01*
Y491935D01*
X118884Y488581D01*
X121009Y487701D01*
X121009Y486051D01*
X119662Y485493D01*
X119393Y484844D01*
X117782D01*
X117642Y485181D01*
X114046Y486670D01*
X110449Y485181D01*
X108960Y481584D01*
X109493Y480297D01*
X108327Y479130D01*
X106680Y479812D01*
X103083Y478322D01*
X101594Y474726D01*
X103083Y471129D01*
X106680Y469640D01*
X108073Y470217D01*
X109157Y469177D01*
X108816Y467941D01*
X107416Y466912D01*
X106934Y467112D01*
X103337Y465622D01*
X101848Y462026D01*
X103337Y458429D01*
X106934Y456940D01*
X107252Y457071D01*
X108329Y455994D01*
X108198Y455676D01*
X109688Y452080D01*
X113284Y450590D01*
X116881Y452080D01*
X117118Y452652D01*
X119085D01*
X119662Y451259D01*
X122238Y450192D01*
X146495D01*
X149070Y451259D01*
X150137Y453834D01*
Y457518D01*
X150047Y457735D01*
X150894Y459002D01*
X157116D01*
X159235Y456883D01*
Y453834D01*
X160302Y451259D01*
X162878Y450192D01*
X187134D01*
X189710Y451259D01*
X190777Y453834D01*
Y457518D01*
X189710Y460093D01*
X187134Y461160D01*
X164868D01*
X164729Y461368D01*
X165544Y462892D01*
X187134D01*
X189710Y463959D01*
X190340Y465479D01*
X192815D01*
X192999Y465033D01*
X196596Y463544D01*
X200193Y465033D01*
X201682Y468630D01*
X200193Y472226D01*
X196596Y473716D01*
X192999Y472226D01*
X192710Y471527D01*
X190235D01*
X189710Y472793D01*
X187134Y473860D01*
X164868D01*
X164729Y474068D01*
X165544Y475592D01*
X187134D01*
X189710Y476659D01*
X190287Y478052D01*
X192763D01*
X192999Y477480D01*
X196596Y475990D01*
X200193Y477480D01*
X201682Y481076D01*
X200193Y484673D01*
X196959Y486012D01*
Y487570D01*
X200193Y488909D01*
X201682Y492506D01*
X200193Y496102D01*
X196596Y497592D01*
X192999Y496102D01*
X192301Y494417D01*
X190777Y494720D01*
Y495617D01*
X189710Y498193D01*
X187134Y499260D01*
X164289D01*
X157211Y506339D01*
Y507125D01*
X157994Y509016D01*
X156504Y512612D01*
X152908Y514102D01*
D02*
G37*
G36*
X451108Y482120D02*
X432980D01*
Y463992D01*
X451108D01*
Y482120D01*
D02*
G37*
G36*
X230759Y487518D02*
X227162Y486028D01*
X225673Y482431D01*
X227162Y478835D01*
X227162Y478154D01*
X225673Y474557D01*
X227162Y470961D01*
X227162Y470280D01*
X225673Y466683D01*
X227162Y463087D01*
X227162Y462406D01*
X225673Y458809D01*
X227162Y455213D01*
X227162Y454325D01*
X225673Y450729D01*
X227162Y447132D01*
X230759Y445643D01*
X234356Y447132D01*
X234748Y448080D01*
X238881D01*
X240721Y448842D01*
X269471D01*
X269708Y448270D01*
X273304Y446780D01*
X276901Y448270D01*
X278390Y451866D01*
X276901Y455462D01*
X273304Y456952D01*
X269708Y455462D01*
X269471Y454890D01*
X255994D01*
X254976Y456414D01*
X256038Y458978D01*
X254751Y462084D01*
X255506Y463608D01*
X268694D01*
X268946Y463002D01*
X272542Y461512D01*
X276138Y463002D01*
X277628Y466598D01*
X276138Y470194D01*
X275801Y471984D01*
X276815Y474430D01*
X275325Y478026D01*
Y478537D01*
X275824Y478743D01*
X277313Y482340D01*
X275824Y485936D01*
X272227Y487426D01*
X268631Y485936D01*
X268413Y485410D01*
X234611D01*
X234356Y486028D01*
X230759Y487518D01*
D02*
G37*
G36*
X187134Y448460D02*
X162878D01*
X160302Y447393D01*
X159235Y444818D01*
Y441303D01*
X158801Y440956D01*
X157827Y440556D01*
X153268Y445114D01*
X151130Y446000D01*
X149647D01*
X149070Y447393D01*
X146495Y448460D01*
X122238D01*
X119662Y447393D01*
X118595Y444818D01*
Y441134D01*
X119662Y438559D01*
X122238Y437492D01*
X146495D01*
X149070Y438559D01*
X149083Y438590D01*
X150881Y438948D01*
X159235Y430594D01*
X158998Y430022D01*
X160487Y426426D01*
X164084Y424936D01*
X167680Y426426D01*
X169170Y430022D01*
X167680Y433619D01*
X164084Y435108D01*
X163512Y434871D01*
X162299Y436084D01*
X162700Y437058D01*
X163046Y437492D01*
X183348D01*
Y435420D01*
X184234Y433281D01*
X185905Y431610D01*
X185668Y431038D01*
X187157Y427441D01*
X190754Y425952D01*
X194350Y427441D01*
X195840Y431038D01*
X194350Y434635D01*
X190754Y436124D01*
X190681Y436094D01*
X189490Y437021D01*
X189578Y438504D01*
X189710Y438559D01*
X190777Y441134D01*
Y444818D01*
X189710Y447393D01*
X187134Y448460D01*
D02*
G37*
G36*
X442044Y432298D02*
X438507Y431594D01*
X435509Y429591D01*
X433506Y426593D01*
X432802Y423056D01*
X433506Y419519D01*
X435509Y416521D01*
X438507Y414518D01*
X442044Y413814D01*
X445581Y414518D01*
X448579Y416521D01*
X450582Y419519D01*
X451286Y423056D01*
X450582Y426593D01*
X448579Y429591D01*
X445581Y431594D01*
X442044Y432298D01*
D02*
G37*
G36*
X162306Y411740D02*
X158709Y410251D01*
X158242Y409122D01*
X156718D01*
X156250Y410251D01*
X152654Y411740D01*
X149058Y410251D01*
X147568Y406654D01*
X149058Y403058D01*
X149334Y402943D01*
Y394832D01*
X148076Y391795D01*
X149565Y388199D01*
X153162Y386709D01*
X154529Y386085D01*
X155915Y382738D01*
X159512Y381248D01*
X163109Y382738D01*
X164598Y386334D01*
X163874Y388081D01*
X164314Y389143D01*
Y402400D01*
X165903Y403058D01*
X167392Y406654D01*
X165903Y410251D01*
X162306Y411740D01*
D02*
G37*
G36*
X451616Y363248D02*
X433488D01*
Y345120D01*
X451616D01*
Y363248D01*
D02*
G37*
G36*
X442552Y313426D02*
X439015Y312722D01*
X436017Y310719D01*
X434014Y307721D01*
X433310Y304184D01*
X434014Y300647D01*
X436017Y297649D01*
X439015Y295646D01*
X442552Y294942D01*
X446089Y295646D01*
X449087Y297649D01*
X451090Y300647D01*
X451794Y304184D01*
X451090Y307721D01*
X449087Y310719D01*
X446089Y312722D01*
X442552Y313426D01*
D02*
G37*
G36*
X342264Y161670D02*
X323216D01*
Y142622D01*
X342264D01*
Y161670D01*
D02*
G37*
G36*
X358140Y161857D02*
X354424Y161117D01*
X351273Y159012D01*
X349169Y155862D01*
X348429Y152146D01*
X349169Y148430D01*
X351273Y145280D01*
X354424Y143175D01*
X358140Y142435D01*
X361856Y143175D01*
X365006Y145280D01*
X367111Y148430D01*
X367850Y152146D01*
X367111Y155862D01*
X365006Y159012D01*
X361856Y161117D01*
X358140Y161857D01*
D02*
G37*
G36*
X209022Y83615D02*
Y74450D01*
X215440D01*
Y76180D01*
X214855Y79122D01*
X213188Y81616D01*
X210694Y83282D01*
X209022Y83615D01*
D02*
G37*
G36*
X206482Y83615D02*
X204810Y83282D01*
X202316Y81616D01*
X200650Y79122D01*
X200064Y76180D01*
Y74450D01*
X206482D01*
Y83615D01*
D02*
G37*
G36*
X295422D02*
Y74450D01*
X301840D01*
Y76180D01*
X301255Y79122D01*
X299588Y81616D01*
X297094Y83282D01*
X295422Y83615D01*
D02*
G37*
G36*
X292882Y83615D02*
X291210Y83282D01*
X288716Y81616D01*
X287050Y79122D01*
X286464Y76180D01*
Y74450D01*
X292882D01*
Y83615D01*
D02*
G37*
G36*
X301840Y71910D02*
X295422D01*
Y62745D01*
X297094Y63078D01*
X299588Y64744D01*
X301255Y67238D01*
X301840Y70180D01*
Y71910D01*
D02*
G37*
G36*
X206482Y71910D02*
X200064D01*
Y70180D01*
X200650Y67238D01*
X202316Y64744D01*
X204810Y63078D01*
X206482Y62745D01*
Y71910D01*
D02*
G37*
G36*
X215440D02*
X209022D01*
Y62745D01*
X210694Y63078D01*
X213188Y64744D01*
X214855Y67238D01*
X215440Y70180D01*
Y71910D01*
D02*
G37*
G36*
X292882Y71910D02*
X286464D01*
Y70180D01*
X287050Y67238D01*
X288716Y64744D01*
X291210Y63078D01*
X292882Y62745D01*
Y71910D01*
D02*
G37*
G36*
X209022Y45615D02*
Y36450D01*
X215440D01*
Y38180D01*
X214855Y41122D01*
X213188Y43616D01*
X210694Y45283D01*
X209022Y45615D01*
D02*
G37*
G36*
X206482Y45615D02*
X204810Y45283D01*
X202316Y43616D01*
X200650Y41122D01*
X200064Y38180D01*
Y36450D01*
X206482D01*
Y45615D01*
D02*
G37*
G36*
X295422D02*
Y36450D01*
X301840D01*
Y38180D01*
X301255Y41122D01*
X299588Y43616D01*
X297094Y45283D01*
X295422Y45615D01*
D02*
G37*
G36*
X292882Y45615D02*
X291210Y45283D01*
X288716Y43616D01*
X287050Y41122D01*
X286464Y38180D01*
Y36450D01*
X292882D01*
Y45615D01*
D02*
G37*
G36*
X473344Y51964D02*
X456616D01*
Y35236D01*
X473344D01*
Y51964D01*
D02*
G37*
G36*
X37988Y48662D02*
X21260D01*
Y31934D01*
X37988D01*
Y48662D01*
D02*
G37*
G36*
X301840Y33910D02*
X295422D01*
Y24745D01*
X297094Y25078D01*
X299588Y26744D01*
X301255Y29238D01*
X301840Y32180D01*
Y33910D01*
D02*
G37*
G36*
X206482Y33910D02*
X200064D01*
Y32180D01*
X200650Y29238D01*
X202316Y26744D01*
X204810Y25078D01*
X206482Y24745D01*
Y33910D01*
D02*
G37*
G36*
X215440D02*
X209022D01*
Y24745D01*
X210694Y25078D01*
X213188Y26744D01*
X214855Y29238D01*
X215440Y32180D01*
Y33910D01*
D02*
G37*
G36*
X292882Y33910D02*
X286464D01*
Y32180D01*
X287050Y29238D01*
X288716Y26744D01*
X291210Y25078D01*
X292882Y24745D01*
Y33910D01*
D02*
G37*
G36*
X626110Y753583D02*
X624277Y753218D01*
X622722Y752180D01*
X622043Y751164D01*
X621370D01*
X619815Y752202D01*
X617982Y752567D01*
X616149Y752202D01*
X614594Y751164D01*
X613556Y749609D01*
X613191Y747776D01*
X613556Y745943D01*
X614594Y744388D01*
X616149Y743350D01*
X616983Y743184D01*
X617416Y742535D01*
X623767Y736184D01*
X623687Y735364D01*
X622648Y733810D01*
X622284Y731976D01*
X622648Y730143D01*
X623687Y728589D01*
X625241Y727550D01*
X627075Y727186D01*
X628908Y727550D01*
X630462Y728589D01*
X631501Y730143D01*
X631866Y731976D01*
X631501Y733810D01*
X631447Y733890D01*
X632363Y734806D01*
X632969Y734401D01*
X633907Y734214D01*
X634712Y733010D01*
X636266Y731971D01*
X638100Y731607D01*
X639933Y731971D01*
X641487Y733010D01*
X642526Y734564D01*
X642891Y736397D01*
X642526Y738231D01*
X641487Y739785D01*
X639933Y740824D01*
X638100Y741189D01*
X636266Y740824D01*
X635086Y740035D01*
X629585Y745535D01*
X630536Y746959D01*
X630901Y748792D01*
X630536Y750625D01*
X629498Y752180D01*
X627943Y753218D01*
X626110Y753583D01*
D02*
G37*
G36*
X765603Y671795D02*
X763770Y671430D01*
X762215Y670392D01*
X761177Y668837D01*
X760812Y667004D01*
X761177Y665171D01*
X762096Y663795D01*
Y640966D01*
X760898Y640166D01*
X759860Y638611D01*
X759495Y636778D01*
X759860Y634945D01*
X760898Y633390D01*
X762453Y632352D01*
X763803Y632083D01*
X764495Y630832D01*
X764432Y630737D01*
X764067Y628904D01*
X764432Y627071D01*
X765470Y625516D01*
X767025Y624478D01*
X768858Y624113D01*
X770691Y624478D01*
X772246Y625516D01*
X773284Y627071D01*
X773649Y628904D01*
X773284Y630737D01*
X772596Y631768D01*
Y655804D01*
X774024Y656758D01*
X775062Y658313D01*
X775427Y660146D01*
X775062Y661979D01*
X774024Y663534D01*
X772469Y664572D01*
X771159Y664833D01*
X770616Y664995D01*
X770224Y666150D01*
X770394Y667004D01*
X770029Y668837D01*
X768991Y670392D01*
X767437Y671430D01*
X765603Y671795D01*
D02*
G37*
G36*
X803148Y644144D02*
X787400D01*
Y590296D01*
X803148D01*
Y612583D01*
X806096D01*
X806110Y612562D01*
X807665Y611524D01*
X809498Y611159D01*
X811331Y611524D01*
X812886Y612562D01*
X813924Y614117D01*
X814289Y615950D01*
X813924Y617783D01*
X812886Y619338D01*
X811331Y620376D01*
X809498Y620741D01*
X807665Y620376D01*
X806110Y619338D01*
X806096Y619317D01*
X803148D01*
Y644144D01*
D02*
G37*
G36*
X897918Y608758D02*
X879790D01*
Y590630D01*
X897918D01*
Y608758D01*
D02*
G37*
G36*
X838854Y608836D02*
X836488Y608525D01*
X834283Y607611D01*
X832390Y606158D01*
X830937Y604265D01*
X830023Y602060D01*
X829712Y599694D01*
X830023Y597328D01*
X830937Y595123D01*
X832390Y593229D01*
X834283Y591777D01*
X836488Y590863D01*
X838854Y590552D01*
X841220Y590863D01*
X843425Y591777D01*
X845319Y593229D01*
X846771Y595123D01*
X847685Y597328D01*
X847996Y599694D01*
X847685Y602060D01*
X846771Y604265D01*
X845319Y606158D01*
X843425Y607611D01*
X841220Y608525D01*
X838854Y608836D01*
D02*
G37*
G36*
X583448Y644144D02*
X567700D01*
Y590296D01*
X583448D01*
Y644144D01*
D02*
G37*
%LPD*%
D15*
X617982Y746470D02*
Y747776D01*
X619431Y744549D02*
Y745022D01*
X627075Y731976D02*
X627435Y732337D01*
Y736545D01*
X617982Y746470D02*
X619431Y745022D01*
Y744549D02*
X627435Y736545D01*
X634059Y737032D02*
X637464D01*
X626543Y744549D02*
X634059Y737032D01*
X637464D02*
X638100Y736397D01*
X626543Y744549D02*
Y748360D01*
X626110Y748792D02*
X626543Y748360D01*
X239643Y451866D02*
X273304D01*
X238881Y451104D02*
X239643Y451866D01*
X230759Y450729D02*
X231134Y451104D01*
X238881D01*
X106680Y474726D02*
X158369D01*
X164592Y468503D01*
X196469D01*
X36830Y561594D02*
X40894D01*
X41148Y561340D01*
X88900D01*
X230843Y458894D02*
X250868D01*
X250952Y458978D01*
X230759Y458809D02*
X230843Y458894D01*
X236220Y539750D02*
X236982Y538988D01*
X236220Y531850D02*
X236982Y531088D01*
X231471Y531850D02*
X236220D01*
X230759Y474557D02*
X230810Y474506D01*
X230759Y466683D02*
X230810Y466632D01*
X230759Y482431D02*
X230805Y482385D01*
X231521Y539750D02*
X236220D01*
X236982Y531088D02*
X269925D01*
X230810Y474506D02*
X264727D01*
X236982Y538988D02*
X272506D01*
X230759Y532562D02*
X231471Y531850D01*
X230759Y549149D02*
X230886Y549276D01*
X230810Y466632D02*
X272508D01*
X230759Y540512D02*
X231521Y539750D01*
X230805Y482385D02*
X272181D01*
X230759Y557328D02*
X231319Y556768D01*
X269621D01*
X230886Y549276D02*
X275464D01*
X175006Y442976D02*
X183534D01*
X186373Y435420D02*
X190754Y431038D01*
X186373Y435420D02*
Y440137D01*
X183534Y442976D02*
X186373Y440137D01*
X272506Y538988D02*
X274336Y540817D01*
X275641D01*
X269925Y531088D02*
X270713Y530300D01*
X269621Y556768D02*
X270129Y557276D01*
X275464Y549276D02*
X275590Y549402D01*
X264762Y474472D02*
X271686D01*
X272181Y482385D02*
X272227Y482340D01*
X271686Y474472D02*
X271728Y474430D01*
X264727Y474506D02*
X264762Y474472D01*
X43398Y605064D02*
X74966D01*
X42926Y605536D02*
X43398Y605064D01*
X74966D02*
X75438Y604591D01*
X159512Y387365D02*
X161290Y389143D01*
Y403261D01*
X161577Y403548D01*
Y405925D02*
X162306Y406654D01*
X159512Y386334D02*
Y387365D01*
X161577Y403548D02*
Y405925D01*
X175006Y481076D02*
X196596D01*
X191547Y487457D02*
X196596Y492506D01*
X151034Y487457D02*
X191547D01*
X144653Y481076D02*
X151034Y487457D01*
X134366Y481076D02*
X144653D01*
X158369Y462026D02*
X164719Y455676D01*
X175006D01*
X106934Y462026D02*
X158369D01*
X134112Y481330D02*
X134366Y481076D01*
X114300Y481330D02*
X134112D01*
X114046Y481584D02*
X114300Y481330D01*
X134366Y442976D02*
X151130D01*
X164084Y430022D01*
X113284Y455676D02*
X134366D01*
X114173Y467995D02*
X133985D01*
X113792Y467614D02*
X114173Y467995D01*
X133985D02*
X134366Y468376D01*
X363982Y539750D02*
X364617D01*
X363474D02*
X363982D01*
X378841Y525526D02*
X379984D01*
X764945Y637436D02*
Y666346D01*
X764286Y636778D02*
X764945Y637436D01*
Y666346D02*
X765603Y667004D01*
X769747Y629793D02*
Y659257D01*
X770636Y660146D01*
X768858Y628904D02*
X769747Y629793D01*
D17*
X152908Y392049D02*
Y406400D01*
Y392049D02*
X153162Y391795D01*
X800476Y615950D02*
X809498D01*
X196469Y468503D02*
X196596Y468630D01*
X153637Y504858D02*
X164719Y493776D01*
X153637Y504858D02*
Y508287D01*
X164719Y493776D02*
X175006D01*
X152908Y509016D02*
X153637Y508287D01*
X152654Y406654D02*
X152908Y406400D01*
X364617Y539750D02*
X378841Y525526D01*
X795396Y610870D02*
X800476Y615950D01*
X795396Y610616D02*
Y610870D01*
D28*
X543564Y610434D02*
D03*
Y622880D02*
D03*
Y635072D02*
D03*
X543814Y823468D02*
D03*
Y835660D02*
D03*
Y811022D02*
D03*
X516890Y211074D02*
D03*
Y198882D02*
D03*
Y186436D02*
D03*
X544830Y186690D02*
D03*
Y199136D02*
D03*
Y211328D02*
D03*
X516890Y424434D02*
D03*
Y412242D02*
D03*
Y399796D02*
D03*
X544830Y400050D02*
D03*
Y412496D02*
D03*
Y424688D02*
D03*
X516640Y633294D02*
D03*
Y621102D02*
D03*
Y608656D02*
D03*
X516890Y809244D02*
D03*
Y821690D02*
D03*
Y833882D02*
D03*
D145*
X38354Y842772D02*
D03*
X578358Y786384D02*
D03*
X895096Y714248D02*
D03*
X481076Y534416D02*
D03*
X141478Y83566D02*
D03*
D146*
X464980Y43600D02*
D03*
X29624Y40298D02*
D03*
D147*
X484980Y43600D02*
D03*
X49624Y40298D02*
D03*
D148*
X888854Y599694D02*
D03*
D149*
X863854D02*
D03*
X838854D02*
D03*
X442552Y329184D02*
D03*
Y304184D02*
D03*
X442044Y448056D02*
D03*
Y423056D02*
D03*
D150*
X207752Y73180D02*
D03*
Y35180D02*
D03*
X294152D02*
D03*
Y73180D02*
D03*
D151*
X358140Y152146D02*
D03*
D152*
X332740D02*
D03*
D153*
X442552Y354184D02*
D03*
X442044Y473056D02*
D03*
D154*
X220472Y92202D02*
D03*
X221234Y104140D02*
D03*
X53594Y713486D02*
D03*
X46990Y715010D02*
D03*
X256959Y294386D02*
D03*
X626110Y748792D02*
D03*
X638100Y736397D02*
D03*
X617982Y747776D02*
D03*
X36830Y561594D02*
D03*
X88900Y561340D02*
D03*
X153670Y625983D02*
D03*
X654304Y741426D02*
D03*
X627075Y731976D02*
D03*
X763778Y732790D02*
D03*
X733552Y729742D02*
D03*
X729742Y754634D02*
D03*
X172002Y617528D02*
D03*
X282827Y264289D02*
D03*
X111760Y258318D02*
D03*
X245110Y522478D02*
D03*
X244983Y490474D02*
D03*
X245110Y565912D02*
D03*
X256032Y490728D02*
D03*
X256032Y522224D02*
D03*
X250952Y458978D02*
D03*
X254889Y443103D02*
D03*
X153162Y391795D02*
D03*
X230759Y549149D02*
D03*
Y474557D02*
D03*
Y532562D02*
D03*
Y466683D02*
D03*
Y450729D02*
D03*
Y557328D02*
D03*
Y458809D02*
D03*
Y482431D02*
D03*
Y540512D02*
D03*
X190754Y431038D02*
D03*
X275641Y540817D02*
D03*
X270713Y530300D02*
D03*
X287528Y548386D02*
D03*
X256794Y565912D02*
D03*
X275590Y549402D02*
D03*
X271728Y474430D02*
D03*
X272227Y482340D02*
D03*
X272542Y466598D02*
D03*
X273304Y451866D02*
D03*
X270129Y557276D02*
D03*
X245110Y604126D02*
D03*
Y443484D02*
D03*
X141554Y789432D02*
D03*
X153670Y776732D02*
D03*
X659130Y661416D02*
D03*
X645922Y661162D02*
D03*
X260096Y652018D02*
D03*
X331216Y651510D02*
D03*
X355346Y642620D02*
D03*
X305816Y638302D02*
D03*
X653796Y628142D02*
D03*
X373888Y618744D02*
D03*
X293370Y606806D02*
D03*
X355600Y588264D02*
D03*
X379984Y525526D02*
D03*
X485140Y137414D02*
D03*
X311912Y355092D02*
D03*
X281178Y315214D02*
D03*
X257048Y314452D02*
D03*
X309626Y211328D02*
D03*
X262128Y199644D02*
D03*
X323596Y189484D02*
D03*
X289814Y183134D02*
D03*
X262128Y182118D02*
D03*
X284988Y233934D02*
D03*
X276098Y228346D02*
D03*
X186690Y776732D02*
D03*
X173990Y764032D02*
D03*
X186690D02*
D03*
Y751332D02*
D03*
X173990D02*
D03*
Y738632D02*
D03*
X186690D02*
D03*
Y725932D02*
D03*
X173990D02*
D03*
Y713232D02*
D03*
X186690D02*
D03*
Y700532D02*
D03*
X173990D02*
D03*
X153670D02*
D03*
X186690Y687832D02*
D03*
X173990D02*
D03*
Y675132D02*
D03*
X186690Y662432D02*
D03*
X173990D02*
D03*
X153670D02*
D03*
X173990Y649732D02*
D03*
X219202Y639318D02*
D03*
X173990Y637032D02*
D03*
X211074Y627634D02*
D03*
X217170Y608838D02*
D03*
X186690Y675132D02*
D03*
X141554Y776732D02*
D03*
X153670Y764032D02*
D03*
X141554D02*
D03*
X153670Y751332D02*
D03*
X141554D02*
D03*
X153670Y738632D02*
D03*
X141554D02*
D03*
X153670Y725932D02*
D03*
X141554D02*
D03*
Y713232D02*
D03*
X97536Y704850D02*
D03*
X141554Y700532D02*
D03*
X153670Y713232D02*
D03*
Y687832D02*
D03*
X141554D02*
D03*
X153670Y675132D02*
D03*
X141554D02*
D03*
X91694Y665480D02*
D03*
X141554Y662432D02*
D03*
X153670Y649732D02*
D03*
X114300Y637540D02*
D03*
X153670Y637032D02*
D03*
X114046Y624332D02*
D03*
X42926Y605536D02*
D03*
X75438Y604591D02*
D03*
X155194Y526796D02*
D03*
X167894D02*
D03*
X162306Y406654D02*
D03*
X159512Y386334D02*
D03*
X161290Y277114D02*
D03*
X244602Y275844D02*
D03*
X191516Y267970D02*
D03*
X231394Y266192D02*
D03*
X236220Y148590D02*
D03*
X113030Y361696D02*
D03*
X64008Y347218D02*
D03*
X149860Y337820D02*
D03*
X90424Y288544D02*
D03*
X101600Y267462D02*
D03*
X51562Y252984D02*
D03*
X83820Y233680D02*
D03*
X94234Y138430D02*
D03*
X138176Y128524D02*
D03*
X82296Y381762D02*
D03*
X86614Y373888D02*
D03*
X104140Y566674D02*
D03*
X118040Y553495D02*
D03*
X128016Y528066D02*
D03*
X113792Y467614D02*
D03*
X113284Y455676D02*
D03*
X82042Y407924D02*
D03*
X140970Y528066D02*
D03*
X262890Y893572D02*
D03*
X250190D02*
D03*
X237490D02*
D03*
X224790D02*
D03*
X212090D02*
D03*
X199390D02*
D03*
X186690D02*
D03*
X173990D02*
D03*
X153670D02*
D03*
X140970D02*
D03*
X128270D02*
D03*
X115570D02*
D03*
X102870D02*
D03*
X90170D02*
D03*
X313690Y868172D02*
D03*
X300990Y893572D02*
D03*
Y880872D02*
D03*
Y868172D02*
D03*
X288290Y880872D02*
D03*
Y868172D02*
D03*
X275590Y880872D02*
D03*
Y868172D02*
D03*
X262890Y880872D02*
D03*
Y868172D02*
D03*
X250190Y880872D02*
D03*
Y868172D02*
D03*
X237490Y880872D02*
D03*
Y868172D02*
D03*
X224790Y880872D02*
D03*
Y868172D02*
D03*
X212090Y880872D02*
D03*
Y868172D02*
D03*
X199390Y880872D02*
D03*
X186690D02*
D03*
X173990D02*
D03*
X153670D02*
D03*
X140970D02*
D03*
X128270D02*
D03*
X115570D02*
D03*
X102870D02*
D03*
X90170D02*
D03*
X77470Y893572D02*
D03*
Y880872D02*
D03*
Y868172D02*
D03*
X64770Y893572D02*
D03*
Y880872D02*
D03*
X199390Y868172D02*
D03*
X186690D02*
D03*
Y855472D02*
D03*
Y840232D02*
D03*
Y802132D02*
D03*
Y814832D02*
D03*
Y827532D02*
D03*
Y789432D02*
D03*
X173990Y868172D02*
D03*
Y855472D02*
D03*
Y840232D02*
D03*
Y814832D02*
D03*
Y789432D02*
D03*
Y802132D02*
D03*
X153670Y868172D02*
D03*
Y855472D02*
D03*
Y840232D02*
D03*
Y827532D02*
D03*
Y814832D02*
D03*
Y789432D02*
D03*
Y802132D02*
D03*
X141554Y868172D02*
D03*
Y855472D02*
D03*
Y840232D02*
D03*
Y802132D02*
D03*
Y814832D02*
D03*
Y827532D02*
D03*
X128270Y868172D02*
D03*
X115570D02*
D03*
X102870D02*
D03*
X90170D02*
D03*
X64770D02*
D03*
X899414Y892556D02*
D03*
X912114D02*
D03*
X886714D02*
D03*
X874014D02*
D03*
X861314D02*
D03*
X848614D02*
D03*
X835914D02*
D03*
X823214D02*
D03*
X810514D02*
D03*
X912114Y879856D02*
D03*
X899414D02*
D03*
X886714D02*
D03*
X874014D02*
D03*
X861314D02*
D03*
X848614D02*
D03*
X835914D02*
D03*
X823214D02*
D03*
X797814Y892556D02*
D03*
X785114D02*
D03*
X772414D02*
D03*
X675894D02*
D03*
X759714D02*
D03*
X663194D02*
D03*
X650494D02*
D03*
X747014D02*
D03*
X721614D02*
D03*
X708914D02*
D03*
X734314D02*
D03*
X696214D02*
D03*
X810514Y879856D02*
D03*
X797814D02*
D03*
X785114D02*
D03*
X772414D02*
D03*
X650494D02*
D03*
X734314D02*
D03*
X721614D02*
D03*
X675894D02*
D03*
X759714D02*
D03*
X747014D02*
D03*
X708914D02*
D03*
X696214D02*
D03*
X708914Y867664D02*
D03*
X835914Y867156D02*
D03*
X848614D02*
D03*
X785114D02*
D03*
X899414D02*
D03*
X797814D02*
D03*
X912114D02*
D03*
X772414D02*
D03*
X823214D02*
D03*
X861314D02*
D03*
X874014D02*
D03*
X810514D02*
D03*
X747014D02*
D03*
X759714D02*
D03*
X886714D02*
D03*
X734314D02*
D03*
X721614D02*
D03*
X696214D02*
D03*
X708914Y855472D02*
D03*
X696214D02*
D03*
X708914Y842772D02*
D03*
Y830072D02*
D03*
X696214D02*
D03*
X708914Y817372D02*
D03*
X696214D02*
D03*
X708914Y804672D02*
D03*
Y791972D02*
D03*
X696214D02*
D03*
X675894Y817372D02*
D03*
Y842772D02*
D03*
Y791972D02*
D03*
Y867156D02*
D03*
Y804672D02*
D03*
Y830072D02*
D03*
Y855472D02*
D03*
X663194Y879856D02*
D03*
Y804672D02*
D03*
Y817372D02*
D03*
Y867156D02*
D03*
Y791972D02*
D03*
Y830072D02*
D03*
Y855472D02*
D03*
Y842772D02*
D03*
X650494Y867156D02*
D03*
X453390Y868172D02*
D03*
X440690D02*
D03*
X427990D02*
D03*
X415290D02*
D03*
X402590D02*
D03*
X389890D02*
D03*
X377190D02*
D03*
X364490D02*
D03*
X351790D02*
D03*
X339090D02*
D03*
X326390D02*
D03*
X625094Y879856D02*
D03*
X637794D02*
D03*
Y867156D02*
D03*
X504190Y893572D02*
D03*
X402590D02*
D03*
X389890D02*
D03*
X377190D02*
D03*
X288290D02*
D03*
X275590D02*
D03*
X637794Y892556D02*
D03*
X625094D02*
D03*
X612394D02*
D03*
X599694D02*
D03*
X586994D02*
D03*
X504190Y880872D02*
D03*
X491490Y893572D02*
D03*
Y880872D02*
D03*
X478790Y893572D02*
D03*
Y880872D02*
D03*
X466090Y893572D02*
D03*
Y880872D02*
D03*
X453390Y893572D02*
D03*
X440690D02*
D03*
Y880872D02*
D03*
X427990Y893572D02*
D03*
Y880872D02*
D03*
X415290Y893572D02*
D03*
Y880872D02*
D03*
X402590D02*
D03*
X389890D02*
D03*
X377190D02*
D03*
X364490Y893572D02*
D03*
Y880872D02*
D03*
X351790Y893572D02*
D03*
Y880872D02*
D03*
X339090Y893572D02*
D03*
Y880872D02*
D03*
X326390Y893572D02*
D03*
Y880872D02*
D03*
X313690Y893572D02*
D03*
Y880872D02*
D03*
X491490Y868172D02*
D03*
X478790D02*
D03*
X466090D02*
D03*
X453390Y880872D02*
D03*
X504190Y868172D02*
D03*
X625094Y867156D02*
D03*
X612394D02*
D03*
Y879856D02*
D03*
X599694Y867156D02*
D03*
Y879856D02*
D03*
X586994D02*
D03*
Y867156D02*
D03*
X725678Y668274D02*
D03*
X765603Y667004D02*
D03*
X800100Y663702D02*
D03*
X663194Y779272D02*
D03*
X685038Y661416D02*
D03*
X770636Y660146D02*
D03*
X819658Y639318D02*
D03*
X696468Y637540D02*
D03*
X764286Y636778D02*
D03*
X768858Y628904D02*
D03*
X757428Y559816D02*
D03*
X634492Y762762D02*
D03*
X675894Y779272D02*
D03*
X616204Y711962D02*
D03*
X671576Y680720D02*
D03*
X629920Y675132D02*
D03*
X696214Y779272D02*
D03*
X769620Y771398D02*
D03*
X741934Y764794D02*
D03*
X814324Y762508D02*
D03*
X708914Y779272D02*
D03*
X808736Y739648D02*
D03*
X822452Y708660D02*
D03*
X725424Y681736D02*
D03*
X49276Y595376D02*
D03*
X49530Y615442D02*
D03*
X48768Y552450D02*
D03*
Y571500D02*
D03*
X106680Y474726D02*
D03*
X196596Y492506D02*
D03*
Y468630D02*
D03*
Y481076D02*
D03*
X106934Y462026D02*
D03*
X164084Y430022D02*
D03*
X114046Y481584D02*
D03*
X152908Y509016D02*
D03*
X152654Y406654D02*
D03*
X363982Y539750D02*
D03*
X757936Y647700D02*
D03*
X102870Y1007110D02*
D03*
X90170D02*
D03*
X77470D02*
D03*
X64770D02*
D03*
X313690Y906272D02*
D03*
X326390D02*
D03*
X339090D02*
D03*
X351790D02*
D03*
X364490D02*
D03*
X377190D02*
D03*
X389890D02*
D03*
X402590D02*
D03*
X415290D02*
D03*
X427990D02*
D03*
X440690D02*
D03*
X453390D02*
D03*
X466090D02*
D03*
X478790D02*
D03*
X491490D02*
D03*
X504190D02*
D03*
X64770Y906526D02*
D03*
Y919226D02*
D03*
Y931926D02*
D03*
Y970026D02*
D03*
Y995426D02*
D03*
Y982726D02*
D03*
Y957326D02*
D03*
Y944626D02*
D03*
X77470Y919226D02*
D03*
Y931926D02*
D03*
Y995426D02*
D03*
Y982726D02*
D03*
Y970026D02*
D03*
Y957326D02*
D03*
Y944626D02*
D03*
X90170Y906526D02*
D03*
X77470D02*
D03*
X102870D02*
D03*
X115570D02*
D03*
X122428D02*
D03*
X130048D02*
D03*
X173990Y906272D02*
D03*
X186690D02*
D03*
X199390D02*
D03*
X212090D02*
D03*
X224790D02*
D03*
X237490D02*
D03*
X250190D02*
D03*
X262890D02*
D03*
X275590D02*
D03*
X288290D02*
D03*
X300990D02*
D03*
X90170Y919226D02*
D03*
Y931926D02*
D03*
Y995426D02*
D03*
Y944626D02*
D03*
Y970026D02*
D03*
Y957326D02*
D03*
Y982726D02*
D03*
X102870Y919226D02*
D03*
Y931926D02*
D03*
Y944626D02*
D03*
Y957326D02*
D03*
Y970026D02*
D03*
Y982726D02*
D03*
Y995426D02*
D03*
X140970Y906526D02*
D03*
X153670D02*
D03*
X696214Y753872D02*
D03*
X675894D02*
D03*
Y766572D02*
D03*
X809498Y615950D02*
D03*
X776986Y647700D02*
D03*
X599694Y981710D02*
D03*
Y994410D02*
D03*
X586994D02*
D03*
X612394D02*
D03*
Y981710D02*
D03*
X625094Y994410D02*
D03*
Y981710D02*
D03*
X586994D02*
D03*
X637794Y905510D02*
D03*
X586994D02*
D03*
Y918210D02*
D03*
X599694Y905510D02*
D03*
X612394D02*
D03*
X625094D02*
D03*
X644652D02*
D03*
X586994Y969010D02*
D03*
Y930910D02*
D03*
Y943610D02*
D03*
Y956310D02*
D03*
X599694Y969010D02*
D03*
X612394Y918210D02*
D03*
Y930910D02*
D03*
Y943610D02*
D03*
Y956310D02*
D03*
Y969010D02*
D03*
X625094Y930910D02*
D03*
Y943610D02*
D03*
Y969010D02*
D03*
Y918210D02*
D03*
X599694D02*
D03*
Y930910D02*
D03*
Y943610D02*
D03*
Y956310D02*
D03*
X625094D02*
D03*
X797814Y905256D02*
D03*
X810514D02*
D03*
X823214D02*
D03*
X835914D02*
D03*
X848614D02*
D03*
X861314D02*
D03*
X899414D02*
D03*
X874014D02*
D03*
X886714D02*
D03*
X912114D02*
D03*
X708914D02*
D03*
X586994Y1004062D02*
D03*
X599694D02*
D03*
X612394D02*
D03*
X625348D02*
D03*
X696214Y905256D02*
D03*
X759714D02*
D03*
X734314D02*
D03*
X721614D02*
D03*
X747014D02*
D03*
X772414D02*
D03*
X785114D02*
D03*
X675894Y905510D02*
D03*
X663194D02*
D03*
X652272D02*
D03*
X186690Y649732D02*
D03*
X141554D02*
D03*
X173990Y624332D02*
D03*
X267208Y148336D02*
D03*
X29464Y138430D02*
D03*
X418338Y136652D02*
D03*
X309372Y315722D02*
D03*
D155*
X49784Y698144D02*
D03*
X57404D02*
D03*
D156*
X684196Y709996D02*
D03*
X690696Y716496D02*
D03*
X684196Y722996D02*
D03*
X677696Y716496D02*
D03*
X166078Y583702D02*
D03*
X172578Y590202D02*
D03*
X166078Y596702D02*
D03*
X159578Y590202D02*
D03*
X256540Y244990D02*
D03*
X248790Y252740D02*
D03*
X256540Y260490D02*
D03*
X264290Y252740D02*
D03*
X256540D02*
D03*
D157*
X575574Y617220D02*
D03*
X795274D02*
D03*
D158*
X685424D02*
D03*
D159*
X175006Y493776D02*
D03*
X134366D02*
D03*
X175006Y481076D02*
D03*
X134366D02*
D03*
X175006Y468376D02*
D03*
X134366D02*
D03*
X175006Y455676D02*
D03*
X134366D02*
D03*
X175006Y442976D02*
D03*
X134366D02*
D03*
M02*
