G04*
G04 #@! TF.GenerationSoftware,Altium Limited,Altium Designer,24.10.1 (45)*
G04*
G04 Layer_Color=128*
%FSLAX44Y44*%
%MOMM*%
G71*
G04*
G04 #@! TF.SameCoordinates,58AE560C-37F5-4C9B-8F18-908462E99DB1*
G04*
G04*
G04 #@! TF.FilePolarity,Positive*
G04*
G01*
G75*
%ADD19C,0.1270*%
D19*
X20574Y842772D02*
X56134D01*
X38354Y824992D02*
Y860552D01*
X560578Y786384D02*
X596138D01*
X578358Y768604D02*
Y804164D01*
X877316Y714248D02*
X912876D01*
X895096Y696468D02*
Y732028D01*
X460680Y43600D02*
X469280D01*
X464980Y39300D02*
Y47900D01*
X480680Y43600D02*
X489280D01*
X484980Y39300D02*
Y47900D01*
X883854Y599694D02*
X893854D01*
X888854Y594694D02*
Y604694D01*
X858854Y599694D02*
X868854D01*
X863854Y594694D02*
Y604694D01*
X833854Y599694D02*
X843854D01*
X838854Y594694D02*
Y604694D01*
X538564Y610434D02*
X548564D01*
X543564Y605434D02*
Y615434D01*
X538564Y622880D02*
X548564D01*
X543564Y617880D02*
Y627880D01*
X538564Y635072D02*
X548564D01*
X543564Y630072D02*
Y640072D01*
X538814Y823468D02*
X548814D01*
X543814Y818468D02*
Y828468D01*
X538814Y835660D02*
X548814D01*
X543814Y830660D02*
Y840660D01*
X538814Y811022D02*
X548814D01*
X543814Y806022D02*
Y816022D01*
X204752Y73180D02*
X210752D01*
X207752Y70180D02*
Y76180D01*
X204752Y35180D02*
X210752D01*
X207752Y32180D02*
Y38180D01*
X291152Y35180D02*
X297152D01*
X294152Y32180D02*
Y38180D01*
X291152Y73180D02*
X297152D01*
X294152Y70180D02*
Y76180D01*
X511890Y211074D02*
X521890D01*
X516890Y206074D02*
Y216074D01*
X511890Y198882D02*
X521890D01*
X516890Y193882D02*
Y203882D01*
X511890Y186436D02*
X521890D01*
X516890Y181436D02*
Y191436D01*
X539830Y186690D02*
X549830D01*
X544830Y181690D02*
Y191690D01*
X539830Y199136D02*
X549830D01*
X544830Y194136D02*
Y204136D01*
X539830Y211328D02*
X549830D01*
X544830Y206328D02*
Y216328D01*
X511890Y424434D02*
X521890D01*
X516890Y419434D02*
Y429434D01*
X511890Y412242D02*
X521890D01*
X516890Y407242D02*
Y417242D01*
X511890Y399796D02*
X521890D01*
X516890Y394796D02*
Y404796D01*
X539830Y400050D02*
X549830D01*
X544830Y395050D02*
Y405050D01*
X539830Y412496D02*
X549830D01*
X544830Y407496D02*
Y417496D01*
X539830Y424688D02*
X549830D01*
X544830Y419688D02*
Y429688D01*
X511640Y633294D02*
X521640D01*
X516640Y628294D02*
Y638294D01*
X511640Y621102D02*
X521640D01*
X516640Y616102D02*
Y626102D01*
X511640Y608656D02*
X521640D01*
X516640Y603656D02*
Y613656D01*
X511890Y809244D02*
X521890D01*
X516890Y804244D02*
Y814244D01*
X511890Y821690D02*
X521890D01*
X516890Y816690D02*
Y826690D01*
X511890Y833882D02*
X521890D01*
X516890Y828882D02*
Y838882D01*
X463296Y534416D02*
X498856D01*
X481076Y516636D02*
Y552196D01*
X353040Y152146D02*
X363240D01*
X358140Y147046D02*
Y157246D01*
X327640Y152146D02*
X337840D01*
X332740Y147046D02*
Y157246D01*
X123698Y83566D02*
X159258D01*
X141478Y65786D02*
Y101346D01*
X437552Y354184D02*
X447552D01*
X442552Y349184D02*
Y359184D01*
X437552Y329184D02*
X447552D01*
X442552Y324184D02*
Y334184D01*
X437552Y304184D02*
X447552D01*
X442552Y299184D02*
Y309184D01*
X437044Y473056D02*
X447044D01*
X442044Y468056D02*
Y478056D01*
X437044Y448056D02*
X447044D01*
X442044Y443056D02*
Y453056D01*
X437044Y423056D02*
X447044D01*
X442044Y418056D02*
Y428056D01*
X25324Y40298D02*
X33924D01*
X29624Y35998D02*
Y44598D01*
X45324Y40298D02*
X53924D01*
X49624Y35998D02*
Y44598D01*
X218821Y92202D02*
X222123D01*
X220472Y90551D02*
Y93853D01*
X219583Y104140D02*
X222885D01*
X221234Y102489D02*
Y105791D01*
X51943Y713486D02*
X55245D01*
X53594Y711835D02*
Y715137D01*
X45339Y715010D02*
X48641D01*
X46990Y713359D02*
Y716661D01*
X49034Y698144D02*
X50534D01*
X49784Y697394D02*
Y698894D01*
X56654Y698144D02*
X58154D01*
X57404Y697394D02*
Y698894D01*
X255308Y294386D02*
X258610D01*
X256959Y292735D02*
Y296037D01*
X624459Y748792D02*
X627761D01*
X626110Y747141D02*
Y750443D01*
X636449Y736397D02*
X639751D01*
X638100Y734746D02*
Y738048D01*
X616331Y747776D02*
X619633D01*
X617982Y746125D02*
Y749427D01*
X35179Y561594D02*
X38481D01*
X36830Y559943D02*
Y563245D01*
X87249Y561340D02*
X90551D01*
X88900Y559689D02*
Y562991D01*
X152019Y625983D02*
X155321D01*
X153670Y624332D02*
Y627634D01*
X652653Y741426D02*
X655955D01*
X654304Y739775D02*
Y743077D01*
X625424Y731976D02*
X628726D01*
X627075Y730325D02*
Y733627D01*
X762127Y732790D02*
X765429D01*
X763778Y731139D02*
Y734441D01*
X731901Y729742D02*
X735203D01*
X733552Y728091D02*
Y731393D01*
X728091Y754634D02*
X731393D01*
X729742Y752983D02*
Y756285D01*
X170351Y617528D02*
X173653D01*
X172002Y615877D02*
Y619179D01*
X281176Y264289D02*
X284478D01*
X282827Y262638D02*
Y265940D01*
X110109Y258318D02*
X113411D01*
X111760Y256667D02*
Y259969D01*
X243459Y522478D02*
X246761D01*
X245110Y520827D02*
Y524129D01*
X243332Y490474D02*
X246634D01*
X244983Y488823D02*
Y492125D01*
X243459Y565912D02*
X246761D01*
X245110Y564261D02*
Y567563D01*
X254381Y490728D02*
X257683D01*
X256032Y489077D02*
Y492379D01*
X254381Y522224D02*
X257683D01*
X256032Y520573D02*
Y523875D01*
X249301Y458978D02*
X252603D01*
X250952Y457327D02*
Y460629D01*
X253238Y443103D02*
X256540D01*
X254889Y441452D02*
Y444754D01*
X151511Y391795D02*
X154813D01*
X153162Y390144D02*
Y393446D01*
X229108Y549149D02*
X232410D01*
X230759Y547498D02*
Y550800D01*
X229108Y474557D02*
X232410D01*
X230759Y472906D02*
Y476208D01*
X229108Y532562D02*
X232410D01*
X230759Y530911D02*
Y534213D01*
X229108Y466683D02*
X232410D01*
X230759Y465032D02*
Y468334D01*
X229108Y450729D02*
X232410D01*
X230759Y449078D02*
Y452380D01*
X229108Y557328D02*
X232410D01*
X230759Y555677D02*
Y558979D01*
X229108Y458809D02*
X232410D01*
X230759Y457158D02*
Y460460D01*
X229108Y482431D02*
X232410D01*
X230759Y480780D02*
Y484082D01*
X229108Y540512D02*
X232410D01*
X230759Y538861D02*
Y542163D01*
X189230Y431038D02*
X192278D01*
X190754Y429514D02*
Y432562D01*
X273990Y540817D02*
X277292D01*
X275641Y539166D02*
Y542468D01*
X269062Y530300D02*
X272363D01*
X270713Y528649D02*
Y531951D01*
X285877Y548386D02*
X289179D01*
X287528Y546735D02*
Y550037D01*
X255143Y565912D02*
X258445D01*
X256794Y564261D02*
Y567563D01*
X273939Y549402D02*
X277241D01*
X275590Y547751D02*
Y551053D01*
X270077Y474430D02*
X273379D01*
X271728Y472779D02*
Y476081D01*
X270576Y482340D02*
X273878D01*
X272227Y480689D02*
Y483991D01*
X270891Y466598D02*
X274193D01*
X272542Y464947D02*
Y468249D01*
X271653Y451866D02*
X274955D01*
X273304Y450215D02*
Y453517D01*
X268478Y557276D02*
X271780D01*
X270129Y555625D02*
Y558927D01*
X243459Y604126D02*
X246761D01*
X245110Y602475D02*
Y605777D01*
X243459Y443484D02*
X246761D01*
X245110Y441833D02*
Y445135D01*
X139903Y789432D02*
X143205D01*
X141554Y787781D02*
Y791083D01*
X152019Y776732D02*
X155321D01*
X153670Y775081D02*
Y778383D01*
X657479Y661416D02*
X660781D01*
X659130Y659765D02*
Y663067D01*
X644271Y661162D02*
X647573D01*
X645922Y659511D02*
Y662813D01*
X258445Y652018D02*
X261747D01*
X260096Y650367D02*
Y653669D01*
X329565Y651510D02*
X332867D01*
X331216Y649859D02*
Y653161D01*
X353695Y642620D02*
X356997D01*
X355346Y640969D02*
Y644271D01*
X304165Y638302D02*
X307467D01*
X305816Y636651D02*
Y639953D01*
X652145Y628142D02*
X655447D01*
X653796Y626491D02*
Y629793D01*
X372237Y618744D02*
X375539D01*
X373888Y617093D02*
Y620395D01*
X291719Y606806D02*
X295021D01*
X293370Y605155D02*
Y608457D01*
X353949Y588264D02*
X357251D01*
X355600Y586613D02*
Y589915D01*
X378333Y525526D02*
X381635D01*
X379984Y523875D02*
Y527177D01*
X483489Y137414D02*
X486791D01*
X485140Y135763D02*
Y139065D01*
X310261Y355092D02*
X313563D01*
X311912Y353441D02*
Y356743D01*
X279527Y315214D02*
X282829D01*
X281178Y313563D02*
Y316865D01*
X255397Y314452D02*
X258699D01*
X257048Y312801D02*
Y316103D01*
X307975Y211328D02*
X311277D01*
X309626Y209677D02*
Y212979D01*
X260477Y199644D02*
X263779D01*
X262128Y197993D02*
Y201295D01*
X321945Y189484D02*
X325247D01*
X323596Y187833D02*
Y191135D01*
X288163Y183134D02*
X291465D01*
X289814Y181483D02*
Y184785D01*
X260477Y182118D02*
X263779D01*
X262128Y180467D02*
Y183769D01*
X283337Y233934D02*
X286639D01*
X284988Y232283D02*
Y235585D01*
X274447Y228346D02*
X277749D01*
X276098Y226695D02*
Y229997D01*
X185039Y776732D02*
X188341D01*
X186690Y775081D02*
Y778383D01*
X172339Y764032D02*
X175641D01*
X173990Y762381D02*
Y765683D01*
X185039Y764032D02*
X188341D01*
X186690Y762381D02*
Y765683D01*
X185039Y751332D02*
X188341D01*
X186690Y749681D02*
Y752983D01*
X172339Y751332D02*
X175641D01*
X173990Y749681D02*
Y752983D01*
X172339Y738632D02*
X175641D01*
X173990Y736981D02*
Y740283D01*
X185039Y738632D02*
X188341D01*
X186690Y736981D02*
Y740283D01*
X185039Y725932D02*
X188341D01*
X186690Y724281D02*
Y727583D01*
X172339Y725932D02*
X175641D01*
X173990Y724281D02*
Y727583D01*
X172339Y713232D02*
X175641D01*
X173990Y711581D02*
Y714883D01*
X185039Y713232D02*
X188341D01*
X186690Y711581D02*
Y714883D01*
X185039Y700532D02*
X188341D01*
X186690Y698881D02*
Y702183D01*
X172339Y700532D02*
X175641D01*
X173990Y698881D02*
Y702183D01*
X152019Y700532D02*
X155321D01*
X153670Y698881D02*
Y702183D01*
X185039Y687832D02*
X188341D01*
X186690Y686181D02*
Y689483D01*
X172339Y687832D02*
X175641D01*
X173990Y686181D02*
Y689483D01*
X172339Y675132D02*
X175641D01*
X173990Y673481D02*
Y676783D01*
X185039Y662432D02*
X188341D01*
X186690Y660781D02*
Y664083D01*
X172339Y662432D02*
X175641D01*
X173990Y660781D02*
Y664083D01*
X152019Y662432D02*
X155321D01*
X153670Y660781D02*
Y664083D01*
X172339Y649732D02*
X175641D01*
X173990Y648081D02*
Y651383D01*
X217551Y639318D02*
X220853D01*
X219202Y637667D02*
Y640969D01*
X172339Y637032D02*
X175641D01*
X173990Y635381D02*
Y638683D01*
X209423Y627634D02*
X212725D01*
X211074Y625983D02*
Y629285D01*
X215519Y608838D02*
X218821D01*
X217170Y607187D02*
Y610489D01*
X185039Y675132D02*
X188341D01*
X186690Y673481D02*
Y676783D01*
X139903Y776732D02*
X143205D01*
X141554Y775081D02*
Y778383D01*
X152019Y764032D02*
X155321D01*
X153670Y762381D02*
Y765683D01*
X139903Y764032D02*
X143205D01*
X141554Y762381D02*
Y765683D01*
X152019Y751332D02*
X155321D01*
X153670Y749681D02*
Y752983D01*
X139903Y751332D02*
X143205D01*
X141554Y749681D02*
Y752983D01*
X152019Y738632D02*
X155321D01*
X153670Y736981D02*
Y740283D01*
X139903Y738632D02*
X143205D01*
X141554Y736981D02*
Y740283D01*
X152019Y725932D02*
X155321D01*
X153670Y724281D02*
Y727583D01*
X139903Y725932D02*
X143205D01*
X141554Y724281D02*
Y727583D01*
X139903Y713232D02*
X143205D01*
X141554Y711581D02*
Y714883D01*
X95885Y704850D02*
X99187D01*
X97536Y703199D02*
Y706501D01*
X139903Y700532D02*
X143205D01*
X141554Y698881D02*
Y702183D01*
X152019Y713232D02*
X155321D01*
X153670Y711581D02*
Y714883D01*
X152019Y687832D02*
X155321D01*
X153670Y686181D02*
Y689483D01*
X139903Y687832D02*
X143205D01*
X141554Y686181D02*
Y689483D01*
X152019Y675132D02*
X155321D01*
X153670Y673481D02*
Y676783D01*
X139903Y675132D02*
X143205D01*
X141554Y673481D02*
Y676783D01*
X90043Y665480D02*
X93345D01*
X91694Y663829D02*
Y667131D01*
X139903Y662432D02*
X143205D01*
X141554Y660781D02*
Y664083D01*
X152019Y649732D02*
X155321D01*
X153670Y648081D02*
Y651383D01*
X112649Y637540D02*
X115951D01*
X114300Y635889D02*
Y639191D01*
X152019Y637032D02*
X155321D01*
X153670Y635381D02*
Y638683D01*
X112395Y624332D02*
X115697D01*
X114046Y622681D02*
Y625983D01*
X41275Y605536D02*
X44577D01*
X42926Y603885D02*
Y607187D01*
X73787Y604591D02*
X77089D01*
X75438Y602940D02*
Y606242D01*
X153543Y526796D02*
X156845D01*
X155194Y525145D02*
Y528447D01*
X166243Y526796D02*
X169545D01*
X167894Y525145D02*
Y528447D01*
X160655Y406654D02*
X163957D01*
X162306Y405003D02*
Y408305D01*
X157861Y386334D02*
X161163D01*
X159512Y384683D02*
Y387985D01*
X159639Y277114D02*
X162941D01*
X161290Y275463D02*
Y278765D01*
X242951Y275844D02*
X246253D01*
X244602Y274193D02*
Y277495D01*
X189865Y267970D02*
X193167D01*
X191516Y266319D02*
Y269621D01*
X229743Y266192D02*
X233045D01*
X231394Y264541D02*
Y267843D01*
X234569Y148590D02*
X237871D01*
X236220Y146939D02*
Y150241D01*
X111379Y361696D02*
X114681D01*
X113030Y360045D02*
Y363347D01*
X62357Y347218D02*
X65659D01*
X64008Y345567D02*
Y348869D01*
X148209Y337820D02*
X151511D01*
X149860Y336169D02*
Y339471D01*
X88773Y288544D02*
X92075D01*
X90424Y286893D02*
Y290195D01*
X99949Y267462D02*
X103251D01*
X101600Y265811D02*
Y269113D01*
X49911Y252984D02*
X53213D01*
X51562Y251333D02*
Y254635D01*
X82169Y233680D02*
X85471D01*
X83820Y232029D02*
Y235331D01*
X92583Y138430D02*
X95885D01*
X94234Y136779D02*
Y140081D01*
X136525Y128524D02*
X139827D01*
X138176Y126873D02*
Y130175D01*
X80645Y381762D02*
X83947D01*
X82296Y380111D02*
Y383413D01*
X84963Y373888D02*
X88265D01*
X86614Y372237D02*
Y375539D01*
X102489Y566674D02*
X105791D01*
X104140Y565023D02*
Y568325D01*
X116389Y553495D02*
X119691D01*
X118040Y551844D02*
Y555146D01*
X126365Y528066D02*
X129667D01*
X128016Y526415D02*
Y529717D01*
X112141Y467614D02*
X115443D01*
X113792Y465963D02*
Y469265D01*
X111633Y455676D02*
X114935D01*
X113284Y454025D02*
Y457327D01*
X80391Y407924D02*
X83693D01*
X82042Y406273D02*
Y409575D01*
X139319Y528066D02*
X142621D01*
X140970Y526415D02*
Y529717D01*
X261239Y893572D02*
X264541D01*
X262890Y891921D02*
Y895223D01*
X248539Y893572D02*
X251841D01*
X250190Y891921D02*
Y895223D01*
X235839Y893572D02*
X239141D01*
X237490Y891921D02*
Y895223D01*
X223139Y893572D02*
X226441D01*
X224790Y891921D02*
Y895223D01*
X210439Y893572D02*
X213741D01*
X212090Y891921D02*
Y895223D01*
X197739Y893572D02*
X201041D01*
X199390Y891921D02*
Y895223D01*
X185039Y893572D02*
X188341D01*
X186690Y891921D02*
Y895223D01*
X172339Y893572D02*
X175641D01*
X173990Y891921D02*
Y895223D01*
X152019Y893572D02*
X155321D01*
X153670Y891921D02*
Y895223D01*
X139319Y893572D02*
X142621D01*
X140970Y891921D02*
Y895223D01*
X126619Y893572D02*
X129921D01*
X128270Y891921D02*
Y895223D01*
X113919Y893572D02*
X117221D01*
X115570Y891921D02*
Y895223D01*
X101219Y893572D02*
X104521D01*
X102870Y891921D02*
Y895223D01*
X88519Y893572D02*
X91821D01*
X90170Y891921D02*
Y895223D01*
X312039Y868172D02*
X315341D01*
X313690Y866521D02*
Y869823D01*
X299339Y893572D02*
X302641D01*
X300990Y891921D02*
Y895223D01*
X299339Y880872D02*
X302641D01*
X300990Y879221D02*
Y882523D01*
X299339Y868172D02*
X302641D01*
X300990Y866521D02*
Y869823D01*
X286639Y880872D02*
X289941D01*
X288290Y879221D02*
Y882523D01*
X286639Y868172D02*
X289941D01*
X288290Y866521D02*
Y869823D01*
X273939Y880872D02*
X277241D01*
X275590Y879221D02*
Y882523D01*
X273939Y868172D02*
X277241D01*
X275590Y866521D02*
Y869823D01*
X261239Y880872D02*
X264541D01*
X262890Y879221D02*
Y882523D01*
X261239Y868172D02*
X264541D01*
X262890Y866521D02*
Y869823D01*
X248539Y880872D02*
X251841D01*
X250190Y879221D02*
Y882523D01*
X248539Y868172D02*
X251841D01*
X250190Y866521D02*
Y869823D01*
X235839Y880872D02*
X239141D01*
X237490Y879221D02*
Y882523D01*
X235839Y868172D02*
X239141D01*
X237490Y866521D02*
Y869823D01*
X223139Y880872D02*
X226441D01*
X224790Y879221D02*
Y882523D01*
X223139Y868172D02*
X226441D01*
X224790Y866521D02*
Y869823D01*
X210439Y880872D02*
X213741D01*
X212090Y879221D02*
Y882523D01*
X210439Y868172D02*
X213741D01*
X212090Y866521D02*
Y869823D01*
X197739Y880872D02*
X201041D01*
X199390Y879221D02*
Y882523D01*
X185039Y880872D02*
X188341D01*
X186690Y879221D02*
Y882523D01*
X172339Y880872D02*
X175641D01*
X173990Y879221D02*
Y882523D01*
X152019Y880872D02*
X155321D01*
X153670Y879221D02*
Y882523D01*
X139319Y880872D02*
X142621D01*
X140970Y879221D02*
Y882523D01*
X126619Y880872D02*
X129921D01*
X128270Y879221D02*
Y882523D01*
X113919Y880872D02*
X117221D01*
X115570Y879221D02*
Y882523D01*
X101219Y880872D02*
X104521D01*
X102870Y879221D02*
Y882523D01*
X88519Y880872D02*
X91821D01*
X90170Y879221D02*
Y882523D01*
X75819Y893572D02*
X79121D01*
X77470Y891921D02*
Y895223D01*
X75819Y880872D02*
X79121D01*
X77470Y879221D02*
Y882523D01*
X75819Y868172D02*
X79121D01*
X77470Y866521D02*
Y869823D01*
X63119Y893572D02*
X66421D01*
X64770Y891921D02*
Y895223D01*
X63119Y880872D02*
X66421D01*
X64770Y879221D02*
Y882523D01*
X197739Y868172D02*
X201041D01*
X199390Y866521D02*
Y869823D01*
X185039Y868172D02*
X188341D01*
X186690Y866521D02*
Y869823D01*
X185039Y855472D02*
X188341D01*
X186690Y853821D02*
Y857123D01*
X185039Y840232D02*
X188341D01*
X186690Y838581D02*
Y841883D01*
X185039Y802132D02*
X188341D01*
X186690Y800481D02*
Y803783D01*
X185039Y814832D02*
X188341D01*
X186690Y813181D02*
Y816483D01*
X185039Y827532D02*
X188341D01*
X186690Y825881D02*
Y829183D01*
X185039Y789432D02*
X188341D01*
X186690Y787781D02*
Y791083D01*
X172339Y868172D02*
X175641D01*
X173990Y866521D02*
Y869823D01*
X172339Y855472D02*
X175641D01*
X173990Y853821D02*
Y857123D01*
X172339Y840232D02*
X175641D01*
X173990Y838581D02*
Y841883D01*
X172339Y814832D02*
X175641D01*
X173990Y813181D02*
Y816483D01*
X172339Y789432D02*
X175641D01*
X173990Y787781D02*
Y791083D01*
X172339Y802132D02*
X175641D01*
X173990Y800481D02*
Y803783D01*
X152019Y868172D02*
X155321D01*
X153670Y866521D02*
Y869823D01*
X152019Y855472D02*
X155321D01*
X153670Y853821D02*
Y857123D01*
X152019Y840232D02*
X155321D01*
X153670Y838581D02*
Y841883D01*
X152019Y827532D02*
X155321D01*
X153670Y825881D02*
Y829183D01*
X152019Y814832D02*
X155321D01*
X153670Y813181D02*
Y816483D01*
X152019Y789432D02*
X155321D01*
X153670Y787781D02*
Y791083D01*
X152019Y802132D02*
X155321D01*
X153670Y800481D02*
Y803783D01*
X139903Y868172D02*
X143205D01*
X141554Y866521D02*
Y869823D01*
X139903Y855472D02*
X143205D01*
X141554Y853821D02*
Y857123D01*
X139903Y840232D02*
X143205D01*
X141554Y838581D02*
Y841883D01*
X139903Y802132D02*
X143205D01*
X141554Y800481D02*
Y803783D01*
X139903Y814832D02*
X143205D01*
X141554Y813181D02*
Y816483D01*
X139903Y827532D02*
X143205D01*
X141554Y825881D02*
Y829183D01*
X126619Y868172D02*
X129921D01*
X128270Y866521D02*
Y869823D01*
X113919Y868172D02*
X117221D01*
X115570Y866521D02*
Y869823D01*
X101219Y868172D02*
X104521D01*
X102870Y866521D02*
Y869823D01*
X88519Y868172D02*
X91821D01*
X90170Y866521D02*
Y869823D01*
X63119Y868172D02*
X66421D01*
X64770Y866521D02*
Y869823D01*
X897763Y892556D02*
X901065D01*
X899414Y890905D02*
Y894207D01*
X910463Y892556D02*
X913765D01*
X912114Y890905D02*
Y894207D01*
X885063Y892556D02*
X888365D01*
X886714Y890905D02*
Y894207D01*
X872363Y892556D02*
X875665D01*
X874014Y890905D02*
Y894207D01*
X859663Y892556D02*
X862965D01*
X861314Y890905D02*
Y894207D01*
X846963Y892556D02*
X850265D01*
X848614Y890905D02*
Y894207D01*
X834263Y892556D02*
X837565D01*
X835914Y890905D02*
Y894207D01*
X821563Y892556D02*
X824865D01*
X823214Y890905D02*
Y894207D01*
X808863Y892556D02*
X812165D01*
X810514Y890905D02*
Y894207D01*
X910463Y879856D02*
X913765D01*
X912114Y878205D02*
Y881507D01*
X897763Y879856D02*
X901065D01*
X899414Y878205D02*
Y881507D01*
X885063Y879856D02*
X888365D01*
X886714Y878205D02*
Y881507D01*
X872363Y879856D02*
X875665D01*
X874014Y878205D02*
Y881507D01*
X859663Y879856D02*
X862965D01*
X861314Y878205D02*
Y881507D01*
X846963Y879856D02*
X850265D01*
X848614Y878205D02*
Y881507D01*
X834263Y879856D02*
X837565D01*
X835914Y878205D02*
Y881507D01*
X821563Y879856D02*
X824865D01*
X823214Y878205D02*
Y881507D01*
X796163Y892556D02*
X799465D01*
X797814Y890905D02*
Y894207D01*
X783463Y892556D02*
X786765D01*
X785114Y890905D02*
Y894207D01*
X770763Y892556D02*
X774065D01*
X772414Y890905D02*
Y894207D01*
X674243Y892556D02*
X677545D01*
X675894Y890905D02*
Y894207D01*
X758063Y892556D02*
X761365D01*
X759714Y890905D02*
Y894207D01*
X661543Y892556D02*
X664845D01*
X663194Y890905D02*
Y894207D01*
X648843Y892556D02*
X652145D01*
X650494Y890905D02*
Y894207D01*
X745363Y892556D02*
X748665D01*
X747014Y890905D02*
Y894207D01*
X719963Y892556D02*
X723265D01*
X721614Y890905D02*
Y894207D01*
X707263Y892556D02*
X710565D01*
X708914Y890905D02*
Y894207D01*
X732663Y892556D02*
X735965D01*
X734314Y890905D02*
Y894207D01*
X694563Y892556D02*
X697865D01*
X696214Y890905D02*
Y894207D01*
X808863Y879856D02*
X812165D01*
X810514Y878205D02*
Y881507D01*
X796163Y879856D02*
X799465D01*
X797814Y878205D02*
Y881507D01*
X783463Y879856D02*
X786765D01*
X785114Y878205D02*
Y881507D01*
X770763Y879856D02*
X774065D01*
X772414Y878205D02*
Y881507D01*
X648843Y879856D02*
X652145D01*
X650494Y878205D02*
Y881507D01*
X732663Y879856D02*
X735965D01*
X734314Y878205D02*
Y881507D01*
X719963Y879856D02*
X723265D01*
X721614Y878205D02*
Y881507D01*
X674243Y879856D02*
X677545D01*
X675894Y878205D02*
Y881507D01*
X758063Y879856D02*
X761365D01*
X759714Y878205D02*
Y881507D01*
X745363Y879856D02*
X748665D01*
X747014Y878205D02*
Y881507D01*
X707263Y879856D02*
X710565D01*
X708914Y878205D02*
Y881507D01*
X694563Y879856D02*
X697865D01*
X696214Y878205D02*
Y881507D01*
X707263Y867664D02*
X710565D01*
X708914Y866013D02*
Y869315D01*
X834263Y867156D02*
X837565D01*
X835914Y865505D02*
Y868807D01*
X846963Y867156D02*
X850265D01*
X848614Y865505D02*
Y868807D01*
X783463Y867156D02*
X786765D01*
X785114Y865505D02*
Y868807D01*
X897763Y867156D02*
X901065D01*
X899414Y865505D02*
Y868807D01*
X796163Y867156D02*
X799465D01*
X797814Y865505D02*
Y868807D01*
X910463Y867156D02*
X913765D01*
X912114Y865505D02*
Y868807D01*
X770763Y867156D02*
X774065D01*
X772414Y865505D02*
Y868807D01*
X821563Y867156D02*
X824865D01*
X823214Y865505D02*
Y868807D01*
X859663Y867156D02*
X862965D01*
X861314Y865505D02*
Y868807D01*
X872363Y867156D02*
X875665D01*
X874014Y865505D02*
Y868807D01*
X808863Y867156D02*
X812165D01*
X810514Y865505D02*
Y868807D01*
X745363Y867156D02*
X748665D01*
X747014Y865505D02*
Y868807D01*
X758063Y867156D02*
X761365D01*
X759714Y865505D02*
Y868807D01*
X885063Y867156D02*
X888365D01*
X886714Y865505D02*
Y868807D01*
X732663Y867156D02*
X735965D01*
X734314Y865505D02*
Y868807D01*
X719963Y867156D02*
X723265D01*
X721614Y865505D02*
Y868807D01*
X694563Y867156D02*
X697865D01*
X696214Y865505D02*
Y868807D01*
X707263Y855472D02*
X710565D01*
X708914Y853821D02*
Y857123D01*
X694563Y855472D02*
X697865D01*
X696214Y853821D02*
Y857123D01*
X707263Y842772D02*
X710565D01*
X708914Y841121D02*
Y844423D01*
X707263Y830072D02*
X710565D01*
X708914Y828421D02*
Y831723D01*
X694563Y830072D02*
X697865D01*
X696214Y828421D02*
Y831723D01*
X707263Y817372D02*
X710565D01*
X708914Y815721D02*
Y819023D01*
X694563Y817372D02*
X697865D01*
X696214Y815721D02*
Y819023D01*
X707263Y804672D02*
X710565D01*
X708914Y803021D02*
Y806323D01*
X707263Y791972D02*
X710565D01*
X708914Y790321D02*
Y793623D01*
X694563Y791972D02*
X697865D01*
X696214Y790321D02*
Y793623D01*
X674243Y817372D02*
X677545D01*
X675894Y815721D02*
Y819023D01*
X674243Y842772D02*
X677545D01*
X675894Y841121D02*
Y844423D01*
X674243Y791972D02*
X677545D01*
X675894Y790321D02*
Y793623D01*
X674243Y867156D02*
X677545D01*
X675894Y865505D02*
Y868807D01*
X674243Y804672D02*
X677545D01*
X675894Y803021D02*
Y806323D01*
X674243Y830072D02*
X677545D01*
X675894Y828421D02*
Y831723D01*
X674243Y855472D02*
X677545D01*
X675894Y853821D02*
Y857123D01*
X661543Y879856D02*
X664845D01*
X663194Y878205D02*
Y881507D01*
X661543Y804672D02*
X664845D01*
X663194Y803021D02*
Y806323D01*
X661543Y817372D02*
X664845D01*
X663194Y815721D02*
Y819023D01*
X661543Y867156D02*
X664845D01*
X663194Y865505D02*
Y868807D01*
X661543Y791972D02*
X664845D01*
X663194Y790321D02*
Y793623D01*
X661543Y830072D02*
X664845D01*
X663194Y828421D02*
Y831723D01*
X661543Y855472D02*
X664845D01*
X663194Y853821D02*
Y857123D01*
X661543Y842772D02*
X664845D01*
X663194Y841121D02*
Y844423D01*
X648843Y867156D02*
X652145D01*
X650494Y865505D02*
Y868807D01*
X451739Y868172D02*
X455041D01*
X453390Y866521D02*
Y869823D01*
X439039Y868172D02*
X442341D01*
X440690Y866521D02*
Y869823D01*
X426339Y868172D02*
X429641D01*
X427990Y866521D02*
Y869823D01*
X413639Y868172D02*
X416941D01*
X415290Y866521D02*
Y869823D01*
X400939Y868172D02*
X404241D01*
X402590Y866521D02*
Y869823D01*
X388239Y868172D02*
X391541D01*
X389890Y866521D02*
Y869823D01*
X375539Y868172D02*
X378841D01*
X377190Y866521D02*
Y869823D01*
X362839Y868172D02*
X366141D01*
X364490Y866521D02*
Y869823D01*
X350139Y868172D02*
X353441D01*
X351790Y866521D02*
Y869823D01*
X337439Y868172D02*
X340741D01*
X339090Y866521D02*
Y869823D01*
X324739Y868172D02*
X328041D01*
X326390Y866521D02*
Y869823D01*
X623443Y879856D02*
X626745D01*
X625094Y878205D02*
Y881507D01*
X636143Y879856D02*
X639445D01*
X637794Y878205D02*
Y881507D01*
X636143Y867156D02*
X639445D01*
X637794Y865505D02*
Y868807D01*
X502539Y893572D02*
X505841D01*
X504190Y891921D02*
Y895223D01*
X400939Y893572D02*
X404241D01*
X402590Y891921D02*
Y895223D01*
X388239Y893572D02*
X391541D01*
X389890Y891921D02*
Y895223D01*
X375539Y893572D02*
X378841D01*
X377190Y891921D02*
Y895223D01*
X286639Y893572D02*
X289941D01*
X288290Y891921D02*
Y895223D01*
X273939Y893572D02*
X277241D01*
X275590Y891921D02*
Y895223D01*
X636143Y892556D02*
X639445D01*
X637794Y890905D02*
Y894207D01*
X623443Y892556D02*
X626745D01*
X625094Y890905D02*
Y894207D01*
X610743Y892556D02*
X614045D01*
X612394Y890905D02*
Y894207D01*
X598043Y892556D02*
X601345D01*
X599694Y890905D02*
Y894207D01*
X585343Y892556D02*
X588645D01*
X586994Y890905D02*
Y894207D01*
X502539Y880872D02*
X505841D01*
X504190Y879221D02*
Y882523D01*
X489839Y893572D02*
X493141D01*
X491490Y891921D02*
Y895223D01*
X489839Y880872D02*
X493141D01*
X491490Y879221D02*
Y882523D01*
X477139Y893572D02*
X480441D01*
X478790Y891921D02*
Y895223D01*
X477139Y880872D02*
X480441D01*
X478790Y879221D02*
Y882523D01*
X464439Y893572D02*
X467741D01*
X466090Y891921D02*
Y895223D01*
X464439Y880872D02*
X467741D01*
X466090Y879221D02*
Y882523D01*
X451739Y893572D02*
X455041D01*
X453390Y891921D02*
Y895223D01*
X439039Y893572D02*
X442341D01*
X440690Y891921D02*
Y895223D01*
X439039Y880872D02*
X442341D01*
X440690Y879221D02*
Y882523D01*
X426339Y893572D02*
X429641D01*
X427990Y891921D02*
Y895223D01*
X426339Y880872D02*
X429641D01*
X427990Y879221D02*
Y882523D01*
X413639Y893572D02*
X416941D01*
X415290Y891921D02*
Y895223D01*
X413639Y880872D02*
X416941D01*
X415290Y879221D02*
Y882523D01*
X400939Y880872D02*
X404241D01*
X402590Y879221D02*
Y882523D01*
X388239Y880872D02*
X391541D01*
X389890Y879221D02*
Y882523D01*
X375539Y880872D02*
X378841D01*
X377190Y879221D02*
Y882523D01*
X362839Y893572D02*
X366141D01*
X364490Y891921D02*
Y895223D01*
X362839Y880872D02*
X366141D01*
X364490Y879221D02*
Y882523D01*
X350139Y893572D02*
X353441D01*
X351790Y891921D02*
Y895223D01*
X350139Y880872D02*
X353441D01*
X351790Y879221D02*
Y882523D01*
X337439Y893572D02*
X340741D01*
X339090Y891921D02*
Y895223D01*
X337439Y880872D02*
X340741D01*
X339090Y879221D02*
Y882523D01*
X324739Y893572D02*
X328041D01*
X326390Y891921D02*
Y895223D01*
X324739Y880872D02*
X328041D01*
X326390Y879221D02*
Y882523D01*
X312039Y893572D02*
X315341D01*
X313690Y891921D02*
Y895223D01*
X312039Y880872D02*
X315341D01*
X313690Y879221D02*
Y882523D01*
X489839Y868172D02*
X493141D01*
X491490Y866521D02*
Y869823D01*
X477139Y868172D02*
X480441D01*
X478790Y866521D02*
Y869823D01*
X464439Y868172D02*
X467741D01*
X466090Y866521D02*
Y869823D01*
X451739Y880872D02*
X455041D01*
X453390Y879221D02*
Y882523D01*
X502539Y868172D02*
X505841D01*
X504190Y866521D02*
Y869823D01*
X623443Y867156D02*
X626745D01*
X625094Y865505D02*
Y868807D01*
X610743Y867156D02*
X614045D01*
X612394Y865505D02*
Y868807D01*
X610743Y879856D02*
X614045D01*
X612394Y878205D02*
Y881507D01*
X598043Y867156D02*
X601345D01*
X599694Y865505D02*
Y868807D01*
X598043Y879856D02*
X601345D01*
X599694Y878205D02*
Y881507D01*
X585343Y879856D02*
X588645D01*
X586994Y878205D02*
Y881507D01*
X585343Y867156D02*
X588645D01*
X586994Y865505D02*
Y868807D01*
X724027Y668274D02*
X727329D01*
X725678Y666623D02*
Y669925D01*
X763952Y667004D02*
X767254D01*
X765603Y665353D02*
Y668655D01*
X798449Y663702D02*
X801751D01*
X800100Y662051D02*
Y665353D01*
X661543Y779272D02*
X664845D01*
X663194Y777621D02*
Y780923D01*
X683387Y661416D02*
X686689D01*
X685038Y659765D02*
Y663067D01*
X768985Y660146D02*
X772287D01*
X770636Y658495D02*
Y661797D01*
X818007Y639318D02*
X821309D01*
X819658Y637667D02*
Y640969D01*
X694817Y637540D02*
X698119D01*
X696468Y635889D02*
Y639191D01*
X762635Y636778D02*
X765937D01*
X764286Y635127D02*
Y638429D01*
X767207Y628904D02*
X770509D01*
X768858Y627253D02*
Y630555D01*
X755777Y559816D02*
X759079D01*
X757428Y558165D02*
Y561467D01*
X632841Y762762D02*
X636143D01*
X634492Y761111D02*
Y764413D01*
X674243Y779272D02*
X677545D01*
X675894Y777621D02*
Y780923D01*
X614553Y711962D02*
X617855D01*
X616204Y710311D02*
Y713613D01*
X669925Y680720D02*
X673227D01*
X671576Y679069D02*
Y682371D01*
X628269Y675132D02*
X631571D01*
X629920Y673481D02*
Y676783D01*
X694563Y779272D02*
X697865D01*
X696214Y777621D02*
Y780923D01*
X767969Y771398D02*
X771271D01*
X769620Y769747D02*
Y773049D01*
X740283Y764794D02*
X743585D01*
X741934Y763143D02*
Y766445D01*
X812673Y762508D02*
X815975D01*
X814324Y760857D02*
Y764159D01*
X707263Y779272D02*
X710565D01*
X708914Y777621D02*
Y780923D01*
X807085Y739648D02*
X810387D01*
X808736Y737997D02*
Y741299D01*
X820801Y708660D02*
X824103D01*
X822452Y707009D02*
Y710311D01*
X723773Y681736D02*
X727075D01*
X725424Y680085D02*
Y683387D01*
X47625Y595376D02*
X50927D01*
X49276Y593725D02*
Y597027D01*
X47879Y615442D02*
X51181D01*
X49530Y613791D02*
Y617093D01*
X47117Y552450D02*
X50419D01*
X48768Y550799D02*
Y554101D01*
X47117Y571500D02*
X50419D01*
X48768Y569849D02*
Y573151D01*
X105029Y474726D02*
X108331D01*
X106680Y473075D02*
Y476377D01*
X195072Y492506D02*
X198120D01*
X196596Y490982D02*
Y494030D01*
X195072Y468630D02*
X198120D01*
X196596Y467106D02*
Y470154D01*
X195072Y481076D02*
X198120D01*
X196596Y479552D02*
Y482600D01*
X105283Y462026D02*
X108585D01*
X106934Y460375D02*
Y463677D01*
X162560Y430022D02*
X165608D01*
X164084Y428498D02*
Y431546D01*
X112395Y481584D02*
X115697D01*
X114046Y479933D02*
Y483235D01*
X151257Y509016D02*
X154559D01*
X152908Y507365D02*
Y510667D01*
X151003Y406654D02*
X154305D01*
X152654Y405003D02*
Y408305D01*
X362331Y539750D02*
X365633D01*
X363982Y538099D02*
Y541401D01*
X756285Y647700D02*
X759587D01*
X757936Y646049D02*
Y649351D01*
X101219Y1007110D02*
X104521D01*
X102870Y1005459D02*
Y1008761D01*
X88519Y1007110D02*
X91821D01*
X90170Y1005459D02*
Y1008761D01*
X75819Y1007110D02*
X79121D01*
X77470Y1005459D02*
Y1008761D01*
X63119Y1007110D02*
X66421D01*
X64770Y1005459D02*
Y1008761D01*
X312039Y906272D02*
X315341D01*
X313690Y904621D02*
Y907923D01*
X324739Y906272D02*
X328041D01*
X326390Y904621D02*
Y907923D01*
X337439Y906272D02*
X340741D01*
X339090Y904621D02*
Y907923D01*
X350139Y906272D02*
X353441D01*
X351790Y904621D02*
Y907923D01*
X362839Y906272D02*
X366141D01*
X364490Y904621D02*
Y907923D01*
X375539Y906272D02*
X378841D01*
X377190Y904621D02*
Y907923D01*
X388239Y906272D02*
X391541D01*
X389890Y904621D02*
Y907923D01*
X400939Y906272D02*
X404241D01*
X402590Y904621D02*
Y907923D01*
X413639Y906272D02*
X416941D01*
X415290Y904621D02*
Y907923D01*
X426339Y906272D02*
X429641D01*
X427990Y904621D02*
Y907923D01*
X439039Y906272D02*
X442341D01*
X440690Y904621D02*
Y907923D01*
X451739Y906272D02*
X455041D01*
X453390Y904621D02*
Y907923D01*
X464439Y906272D02*
X467741D01*
X466090Y904621D02*
Y907923D01*
X477139Y906272D02*
X480441D01*
X478790Y904621D02*
Y907923D01*
X489839Y906272D02*
X493141D01*
X491490Y904621D02*
Y907923D01*
X502539Y906272D02*
X505841D01*
X504190Y904621D02*
Y907923D01*
X63119Y906526D02*
X66421D01*
X64770Y904875D02*
Y908177D01*
X63119Y919226D02*
X66421D01*
X64770Y917575D02*
Y920877D01*
X63119Y931926D02*
X66421D01*
X64770Y930275D02*
Y933577D01*
X63119Y970026D02*
X66421D01*
X64770Y968375D02*
Y971677D01*
X63119Y995426D02*
X66421D01*
X64770Y993775D02*
Y997077D01*
X63119Y982726D02*
X66421D01*
X64770Y981075D02*
Y984377D01*
X63119Y957326D02*
X66421D01*
X64770Y955675D02*
Y958977D01*
X63119Y944626D02*
X66421D01*
X64770Y942975D02*
Y946277D01*
X75819Y919226D02*
X79121D01*
X77470Y917575D02*
Y920877D01*
X75819Y931926D02*
X79121D01*
X77470Y930275D02*
Y933577D01*
X75819Y995426D02*
X79121D01*
X77470Y993775D02*
Y997077D01*
X75819Y982726D02*
X79121D01*
X77470Y981075D02*
Y984377D01*
X75819Y970026D02*
X79121D01*
X77470Y968375D02*
Y971677D01*
X75819Y957326D02*
X79121D01*
X77470Y955675D02*
Y958977D01*
X75819Y944626D02*
X79121D01*
X77470Y942975D02*
Y946277D01*
X88519Y906526D02*
X91821D01*
X90170Y904875D02*
Y908177D01*
X75819Y906526D02*
X79121D01*
X77470Y904875D02*
Y908177D01*
X101219Y906526D02*
X104521D01*
X102870Y904875D02*
Y908177D01*
X113919Y906526D02*
X117221D01*
X115570Y904875D02*
Y908177D01*
X120777Y906526D02*
X124079D01*
X122428Y904875D02*
Y908177D01*
X128397Y906526D02*
X131699D01*
X130048Y904875D02*
Y908177D01*
X172339Y906272D02*
X175641D01*
X173990Y904621D02*
Y907923D01*
X185039Y906272D02*
X188341D01*
X186690Y904621D02*
Y907923D01*
X197739Y906272D02*
X201041D01*
X199390Y904621D02*
Y907923D01*
X210439Y906272D02*
X213741D01*
X212090Y904621D02*
Y907923D01*
X223139Y906272D02*
X226441D01*
X224790Y904621D02*
Y907923D01*
X235839Y906272D02*
X239141D01*
X237490Y904621D02*
Y907923D01*
X248539Y906272D02*
X251841D01*
X250190Y904621D02*
Y907923D01*
X261239Y906272D02*
X264541D01*
X262890Y904621D02*
Y907923D01*
X273939Y906272D02*
X277241D01*
X275590Y904621D02*
Y907923D01*
X286639Y906272D02*
X289941D01*
X288290Y904621D02*
Y907923D01*
X299339Y906272D02*
X302641D01*
X300990Y904621D02*
Y907923D01*
X88519Y919226D02*
X91821D01*
X90170Y917575D02*
Y920877D01*
X88519Y931926D02*
X91821D01*
X90170Y930275D02*
Y933577D01*
X88519Y995426D02*
X91821D01*
X90170Y993775D02*
Y997077D01*
X88519Y944626D02*
X91821D01*
X90170Y942975D02*
Y946277D01*
X88519Y970026D02*
X91821D01*
X90170Y968375D02*
Y971677D01*
X88519Y957326D02*
X91821D01*
X90170Y955675D02*
Y958977D01*
X88519Y982726D02*
X91821D01*
X90170Y981075D02*
Y984377D01*
X101219Y919226D02*
X104521D01*
X102870Y917575D02*
Y920877D01*
X101219Y931926D02*
X104521D01*
X102870Y930275D02*
Y933577D01*
X101219Y944626D02*
X104521D01*
X102870Y942975D02*
Y946277D01*
X101219Y957326D02*
X104521D01*
X102870Y955675D02*
Y958977D01*
X101219Y970026D02*
X104521D01*
X102870Y968375D02*
Y971677D01*
X101219Y982726D02*
X104521D01*
X102870Y981075D02*
Y984377D01*
X101219Y995426D02*
X104521D01*
X102870Y993775D02*
Y997077D01*
X139319Y906526D02*
X142621D01*
X140970Y904875D02*
Y908177D01*
X152019Y906526D02*
X155321D01*
X153670Y904875D02*
Y908177D01*
X683434Y709996D02*
X684958D01*
X684196Y709234D02*
Y710758D01*
X689934Y716496D02*
X691458D01*
X690696Y715734D02*
Y717258D01*
X683434Y722996D02*
X684958D01*
X684196Y722234D02*
Y723758D01*
X676934Y716496D02*
X678458D01*
X677696Y715734D02*
Y717258D01*
X694563Y753872D02*
X697865D01*
X696214Y752221D02*
Y755523D01*
X674243Y753872D02*
X677545D01*
X675894Y752221D02*
Y755523D01*
X674243Y766572D02*
X677545D01*
X675894Y764921D02*
Y768223D01*
X807847Y615950D02*
X811149D01*
X809498Y614299D02*
Y617601D01*
X775335Y647700D02*
X778637D01*
X776986Y646049D02*
Y649351D01*
X598043Y981710D02*
X601345D01*
X599694Y980059D02*
Y983361D01*
X598043Y994410D02*
X601345D01*
X599694Y992759D02*
Y996061D01*
X585343Y994410D02*
X588645D01*
X586994Y992759D02*
Y996061D01*
X610743Y994410D02*
X614045D01*
X612394Y992759D02*
Y996061D01*
X610743Y981710D02*
X614045D01*
X612394Y980059D02*
Y983361D01*
X623443Y994410D02*
X626745D01*
X625094Y992759D02*
Y996061D01*
X623443Y981710D02*
X626745D01*
X625094Y980059D02*
Y983361D01*
X585343Y981710D02*
X588645D01*
X586994Y980059D02*
Y983361D01*
X636143Y905510D02*
X639445D01*
X637794Y903859D02*
Y907161D01*
X585343Y905510D02*
X588645D01*
X586994Y903859D02*
Y907161D01*
X585343Y918210D02*
X588645D01*
X586994Y916559D02*
Y919861D01*
X598043Y905510D02*
X601345D01*
X599694Y903859D02*
Y907161D01*
X610743Y905510D02*
X614045D01*
X612394Y903859D02*
Y907161D01*
X623443Y905510D02*
X626745D01*
X625094Y903859D02*
Y907161D01*
X643001Y905510D02*
X646303D01*
X644652Y903859D02*
Y907161D01*
X585343Y969010D02*
X588645D01*
X586994Y967359D02*
Y970661D01*
X585343Y930910D02*
X588645D01*
X586994Y929259D02*
Y932561D01*
X585343Y943610D02*
X588645D01*
X586994Y941959D02*
Y945261D01*
X585343Y956310D02*
X588645D01*
X586994Y954659D02*
Y957961D01*
X598043Y969010D02*
X601345D01*
X599694Y967359D02*
Y970661D01*
X610743Y918210D02*
X614045D01*
X612394Y916559D02*
Y919861D01*
X610743Y930910D02*
X614045D01*
X612394Y929259D02*
Y932561D01*
X610743Y943610D02*
X614045D01*
X612394Y941959D02*
Y945261D01*
X610743Y956310D02*
X614045D01*
X612394Y954659D02*
Y957961D01*
X610743Y969010D02*
X614045D01*
X612394Y967359D02*
Y970661D01*
X623443Y930910D02*
X626745D01*
X625094Y929259D02*
Y932561D01*
X623443Y943610D02*
X626745D01*
X625094Y941959D02*
Y945261D01*
X623443Y969010D02*
X626745D01*
X625094Y967359D02*
Y970661D01*
X623443Y918210D02*
X626745D01*
X625094Y916559D02*
Y919861D01*
X598043Y918210D02*
X601345D01*
X599694Y916559D02*
Y919861D01*
X598043Y930910D02*
X601345D01*
X599694Y929259D02*
Y932561D01*
X598043Y943610D02*
X601345D01*
X599694Y941959D02*
Y945261D01*
X598043Y956310D02*
X601345D01*
X599694Y954659D02*
Y957961D01*
X623443Y956310D02*
X626745D01*
X625094Y954659D02*
Y957961D01*
X796163Y905256D02*
X799465D01*
X797814Y903605D02*
Y906907D01*
X808863Y905256D02*
X812165D01*
X810514Y903605D02*
Y906907D01*
X821563Y905256D02*
X824865D01*
X823214Y903605D02*
Y906907D01*
X834263Y905256D02*
X837565D01*
X835914Y903605D02*
Y906907D01*
X846963Y905256D02*
X850265D01*
X848614Y903605D02*
Y906907D01*
X859663Y905256D02*
X862965D01*
X861314Y903605D02*
Y906907D01*
X897763Y905256D02*
X901065D01*
X899414Y903605D02*
Y906907D01*
X872363Y905256D02*
X875665D01*
X874014Y903605D02*
Y906907D01*
X885063Y905256D02*
X888365D01*
X886714Y903605D02*
Y906907D01*
X910463Y905256D02*
X913765D01*
X912114Y903605D02*
Y906907D01*
X707263Y905256D02*
X710565D01*
X708914Y903605D02*
Y906907D01*
X585343Y1004062D02*
X588645D01*
X586994Y1002411D02*
Y1005713D01*
X598043Y1004062D02*
X601345D01*
X599694Y1002411D02*
Y1005713D01*
X610743Y1004062D02*
X614045D01*
X612394Y1002411D02*
Y1005713D01*
X623697Y1004062D02*
X626999D01*
X625348Y1002411D02*
Y1005713D01*
X694563Y905256D02*
X697865D01*
X696214Y903605D02*
Y906907D01*
X758063Y905256D02*
X761365D01*
X759714Y903605D02*
Y906907D01*
X732663Y905256D02*
X735965D01*
X734314Y903605D02*
Y906907D01*
X719963Y905256D02*
X723265D01*
X721614Y903605D02*
Y906907D01*
X745363Y905256D02*
X748665D01*
X747014Y903605D02*
Y906907D01*
X770763Y905256D02*
X774065D01*
X772414Y903605D02*
Y906907D01*
X783463Y905256D02*
X786765D01*
X785114Y903605D02*
Y906907D01*
X674243Y905510D02*
X677545D01*
X675894Y903859D02*
Y907161D01*
X661543Y905510D02*
X664845D01*
X663194Y903859D02*
Y907161D01*
X650621Y905510D02*
X653923D01*
X652272Y903859D02*
Y907161D01*
X185039Y649732D02*
X188341D01*
X186690Y648081D02*
Y651383D01*
X139903Y649732D02*
X143205D01*
X141554Y648081D02*
Y651383D01*
X172339Y624332D02*
X175641D01*
X173990Y622681D02*
Y625983D01*
X265557Y148336D02*
X268859D01*
X267208Y146685D02*
Y149987D01*
X27813Y138430D02*
X31115D01*
X29464Y136779D02*
Y140081D01*
X416687Y136652D02*
X419989D01*
X418338Y135001D02*
Y138303D01*
X307848Y315722D02*
X310896D01*
X309372Y314198D02*
Y317246D01*
X165316Y583702D02*
X166840D01*
X166078Y582940D02*
Y584464D01*
X171816Y590202D02*
X173340D01*
X172578Y589440D02*
Y590964D01*
X165316Y596702D02*
X166840D01*
X166078Y595940D02*
Y597464D01*
X158816Y590202D02*
X160340D01*
X159578Y589440D02*
Y590964D01*
X255778Y244990D02*
X257302D01*
X256540Y244228D02*
Y245752D01*
X248028Y252740D02*
X249552D01*
X248790Y251978D02*
Y253502D01*
X255778Y260490D02*
X257302D01*
X256540Y259728D02*
Y261252D01*
X263528Y252740D02*
X265052D01*
X264290Y251978D02*
Y253502D01*
X255778Y252740D02*
X257302D01*
X256540Y251978D02*
Y253502D01*
M02*
