G04*
G04 #@! TF.GenerationSoftware,Altium Limited,Altium Designer,24.10.1 (45)*
G04*
G04 Layer_Color=2752767*
%FSLAX44Y44*%
%MOMM*%
G71*
G04*
G04 #@! TF.SameCoordinates,58AE560C-37F5-4C9B-8F18-908462E99DB1*
G04*
G04*
G04 #@! TF.FilePolarity,Positive*
G04*
G01*
G75*
%ADD19C,0.1270*%
%ADD167C,0.1016*%
%ADD170C,0.1693*%
D19*
X33274Y842772D02*
X38354Y847852D01*
X43434Y842772D01*
X38354Y837692D01*
X33274Y842772D01*
X573278Y786384D02*
X578358Y791464D01*
X583438Y786384D01*
X578358Y781304D01*
X573278Y786384D01*
X890016Y714248D02*
X895096Y719328D01*
X900176Y714248D01*
X895096Y709168D01*
X890016Y714248D01*
X459900Y38520D02*
Y48680D01*
X470060D01*
Y38520D01*
X459900D01*
X479900D02*
Y48680D01*
X490060D01*
Y38520D01*
X479900D01*
X888854Y594614D02*
X883774Y604774D01*
X893934D01*
X888854Y594614D01*
X863854D02*
X858774Y604774D01*
X868934D01*
X863854Y594614D01*
X838854D02*
X833774Y604774D01*
X843934D01*
X838854Y594614D01*
X538484Y605354D02*
Y615514D01*
X548644D01*
Y605354D01*
X538484D01*
X540516Y607386D02*
Y613482D01*
X546612D01*
Y607386D01*
X540516D01*
X538484Y617800D02*
Y627960D01*
X548644D01*
Y617800D01*
X538484D01*
X540516Y619832D02*
Y625928D01*
X546612D01*
Y619832D01*
X540516D01*
X538484Y629992D02*
Y640152D01*
X548644D01*
Y629992D01*
X538484D01*
X540516Y632024D02*
Y638120D01*
X546612D01*
Y632024D01*
X540516D01*
X538734Y818388D02*
Y828548D01*
X548894D01*
Y818388D01*
X538734D01*
X540766Y820420D02*
Y826516D01*
X546862D01*
Y820420D01*
X540766D01*
X538734Y830580D02*
Y840740D01*
X548894D01*
Y830580D01*
X538734D01*
X540766Y832612D02*
Y838708D01*
X546862D01*
Y832612D01*
X540766D01*
X538734Y805942D02*
Y816102D01*
X548894D01*
Y805942D01*
X538734D01*
X540766Y807974D02*
Y814070D01*
X546862D01*
Y807974D01*
X540766D01*
X511810Y205994D02*
Y216154D01*
X521970D01*
Y205994D01*
X511810D01*
X513842Y208026D02*
Y214122D01*
X519938D01*
Y208026D01*
X513842D01*
X511810Y193802D02*
Y203962D01*
X521970D01*
Y193802D01*
X511810D01*
X513842Y195834D02*
Y201930D01*
X519938D01*
Y195834D01*
X513842D01*
X511810Y181356D02*
Y191516D01*
X521970D01*
Y181356D01*
X511810D01*
X513842Y183388D02*
Y189484D01*
X519938D01*
Y183388D01*
X513842D01*
X539750Y181610D02*
Y191770D01*
X549910D01*
Y181610D01*
X539750D01*
X541782Y183642D02*
Y189738D01*
X547878D01*
Y183642D01*
X541782D01*
X539750Y194056D02*
Y204216D01*
X549910D01*
Y194056D01*
X539750D01*
X541782Y196088D02*
Y202184D01*
X547878D01*
Y196088D01*
X541782D01*
X539750Y206248D02*
Y216408D01*
X549910D01*
Y206248D01*
X539750D01*
X541782Y208280D02*
Y214376D01*
X547878D01*
Y208280D01*
X541782D01*
X511810Y419354D02*
Y429514D01*
X521970D01*
Y419354D01*
X511810D01*
X513842Y421386D02*
Y427482D01*
X519938D01*
Y421386D01*
X513842D01*
X511810Y407162D02*
Y417322D01*
X521970D01*
Y407162D01*
X511810D01*
X513842Y409194D02*
Y415290D01*
X519938D01*
Y409194D01*
X513842D01*
X511810Y394716D02*
Y404876D01*
X521970D01*
Y394716D01*
X511810D01*
X513842Y396748D02*
Y402844D01*
X519938D01*
Y396748D01*
X513842D01*
X539750Y394970D02*
Y405130D01*
X549910D01*
Y394970D01*
X539750D01*
X541782Y397002D02*
Y403098D01*
X547878D01*
Y397002D01*
X541782D01*
X539750Y407416D02*
Y417576D01*
X549910D01*
Y407416D01*
X539750D01*
X541782Y409448D02*
Y415544D01*
X547878D01*
Y409448D01*
X541782D01*
X539750Y419608D02*
Y429768D01*
X549910D01*
Y419608D01*
X539750D01*
X541782Y421640D02*
Y427736D01*
X547878D01*
Y421640D01*
X541782D01*
X511560Y628214D02*
Y638374D01*
X521720D01*
Y628214D01*
X511560D01*
X513592Y630246D02*
Y636342D01*
X519688D01*
Y630246D01*
X513592D01*
X511560Y616022D02*
Y626182D01*
X521720D01*
Y616022D01*
X511560D01*
X513592Y618054D02*
Y624150D01*
X519688D01*
Y618054D01*
X513592D01*
X511560Y603576D02*
Y613736D01*
X521720D01*
Y603576D01*
X511560D01*
X513592Y605608D02*
Y611704D01*
X519688D01*
Y605608D01*
X513592D01*
X511810Y804164D02*
Y814324D01*
X521970D01*
Y804164D01*
X511810D01*
X513842Y806196D02*
Y812292D01*
X519938D01*
Y806196D01*
X513842D01*
X511810Y816610D02*
Y826770D01*
X521970D01*
Y816610D01*
X511810D01*
X513842Y818642D02*
Y824738D01*
X519938D01*
Y818642D01*
X513842D01*
X511810Y828802D02*
Y838962D01*
X521970D01*
Y828802D01*
X511810D01*
X513842Y830834D02*
Y836930D01*
X519938D01*
Y830834D01*
X513842D01*
X475996Y534416D02*
X481076Y539496D01*
X486156Y534416D01*
X481076Y529336D01*
X475996Y534416D01*
X353060Y147066D02*
X355600D01*
X358140Y149606D01*
X360680Y147066D01*
X363220D01*
Y149606D01*
X360680Y152146D01*
X363220Y154686D01*
Y157226D01*
X360680D01*
X358140Y154686D01*
X355600Y157226D01*
X353060D01*
Y154686D01*
X355600Y152146D01*
X353060Y149606D01*
Y147066D01*
X327660D02*
X330200D01*
X332740Y149606D01*
X335280Y147066D01*
X337820D01*
Y149606D01*
X335280Y152146D01*
X337820Y154686D01*
Y157226D01*
X335280D01*
X332740Y154686D01*
X330200Y157226D01*
X327660D01*
Y154686D01*
X330200Y152146D01*
X327660Y149606D01*
Y147066D01*
X136398Y83566D02*
X141478Y88646D01*
X146558Y83566D01*
X141478Y78486D01*
X136398Y83566D01*
X442552Y349104D02*
X437472Y359264D01*
X447632D01*
X442552Y349104D01*
Y324104D02*
X437472Y334264D01*
X447632D01*
X442552Y324104D01*
Y299104D02*
X437472Y309264D01*
X447632D01*
X442552Y299104D01*
X442044Y467976D02*
X436964Y478136D01*
X447124D01*
X442044Y467976D01*
Y442976D02*
X436964Y453136D01*
X447124D01*
X442044Y442976D01*
Y417976D02*
X436964Y428136D01*
X447124D01*
X442044Y417976D01*
X24544Y35218D02*
Y45378D01*
X34704D01*
Y35218D01*
X24544D01*
X44544D02*
Y45378D01*
X54704D01*
Y35218D01*
X44544D01*
X217932Y89662D02*
Y87122D01*
X223012D01*
Y89662D01*
X225552D01*
Y94742D01*
X223012D01*
Y97282D01*
X217932D01*
Y94742D01*
X215392D01*
Y89662D01*
X217932D01*
X218694Y101600D02*
Y99060D01*
X223774D01*
Y101600D01*
X226314D01*
Y106680D01*
X223774D01*
Y109220D01*
X218694D01*
Y106680D01*
X216154D01*
Y101600D01*
X218694D01*
X51054Y710946D02*
Y708406D01*
X56134D01*
Y710946D01*
X58674D01*
Y716026D01*
X56134D01*
Y718566D01*
X51054D01*
Y716026D01*
X48514D01*
Y710946D01*
X51054D01*
X44450Y712470D02*
Y709930D01*
X49530D01*
Y712470D01*
X52070D01*
Y717550D01*
X49530D01*
Y720090D01*
X44450D01*
Y717550D01*
X41910D01*
Y712470D01*
X44450D01*
X254419Y291846D02*
Y289306D01*
X259499D01*
Y291846D01*
X262039D01*
Y296926D01*
X259499D01*
Y299466D01*
X254419D01*
Y296926D01*
X251879D01*
Y291846D01*
X254419D01*
X623570Y746252D02*
Y743712D01*
X628650D01*
Y746252D01*
X631190D01*
Y751332D01*
X628650D01*
Y753872D01*
X623570D01*
Y751332D01*
X621030D01*
Y746252D01*
X623570D01*
X635560Y733857D02*
Y731318D01*
X640639D01*
Y733857D01*
X643179D01*
Y738938D01*
X640639D01*
Y741478D01*
X635560D01*
Y738938D01*
X633019D01*
Y733857D01*
X635560D01*
X615442Y745236D02*
Y742696D01*
X620522D01*
Y745236D01*
X623062D01*
Y750316D01*
X620522D01*
Y752856D01*
X615442D01*
Y750316D01*
X612902D01*
Y745236D01*
X615442D01*
X34290Y559054D02*
Y556514D01*
X39370D01*
Y559054D01*
X41910D01*
Y564134D01*
X39370D01*
Y566674D01*
X34290D01*
Y564134D01*
X31750D01*
Y559054D01*
X34290D01*
X86360Y558800D02*
Y556260D01*
X91440D01*
Y558800D01*
X93980D01*
Y563880D01*
X91440D01*
Y566420D01*
X86360D01*
Y563880D01*
X83820D01*
Y558800D01*
X86360D01*
X151130Y623443D02*
Y620903D01*
X156210D01*
Y623443D01*
X158750D01*
Y628523D01*
X156210D01*
Y631063D01*
X151130D01*
Y628523D01*
X148590D01*
Y623443D01*
X151130D01*
X651764Y738886D02*
Y736346D01*
X656844D01*
Y738886D01*
X659384D01*
Y743966D01*
X656844D01*
Y746506D01*
X651764D01*
Y743966D01*
X649224D01*
Y738886D01*
X651764D01*
X624534Y729436D02*
Y726897D01*
X629614D01*
Y729436D01*
X632155D01*
Y734517D01*
X629614D01*
Y737057D01*
X624534D01*
Y734517D01*
X621995D01*
Y729436D01*
X624534D01*
X761238Y730250D02*
Y727710D01*
X766318D01*
Y730250D01*
X768858D01*
Y735330D01*
X766318D01*
Y737870D01*
X761238D01*
Y735330D01*
X758698D01*
Y730250D01*
X761238D01*
X731012Y727202D02*
Y724662D01*
X736092D01*
Y727202D01*
X738632D01*
Y732282D01*
X736092D01*
Y734822D01*
X731012D01*
Y732282D01*
X728472D01*
Y727202D01*
X731012D01*
X727202Y752094D02*
Y749554D01*
X732282D01*
Y752094D01*
X734822D01*
Y757174D01*
X732282D01*
Y759714D01*
X727202D01*
Y757174D01*
X724662D01*
Y752094D01*
X727202D01*
X169462Y614988D02*
Y612448D01*
X174542D01*
Y614988D01*
X177082D01*
Y620068D01*
X174542D01*
Y622608D01*
X169462D01*
Y620068D01*
X166922D01*
Y614988D01*
X169462D01*
X280287Y261749D02*
Y259209D01*
X285367D01*
Y261749D01*
X287907D01*
Y266829D01*
X285367D01*
Y269369D01*
X280287D01*
Y266829D01*
X277747D01*
Y261749D01*
X280287D01*
X109220Y255778D02*
Y253238D01*
X114300D01*
Y255778D01*
X116840D01*
Y260858D01*
X114300D01*
Y263398D01*
X109220D01*
Y260858D01*
X106680D01*
Y255778D01*
X109220D01*
X242570Y519938D02*
Y517398D01*
X247650D01*
Y519938D01*
X250190D01*
Y525018D01*
X247650D01*
Y527558D01*
X242570D01*
Y525018D01*
X240030D01*
Y519938D01*
X242570D01*
X242443Y487934D02*
Y485394D01*
X247523D01*
Y487934D01*
X250063D01*
Y493014D01*
X247523D01*
Y495554D01*
X242443D01*
Y493014D01*
X239903D01*
Y487934D01*
X242443D01*
X242570Y563372D02*
Y560832D01*
X247650D01*
Y563372D01*
X250190D01*
Y568452D01*
X247650D01*
Y570992D01*
X242570D01*
Y568452D01*
X240030D01*
Y563372D01*
X242570D01*
X253492Y488188D02*
Y485648D01*
X258572D01*
Y488188D01*
X261112D01*
Y493268D01*
X258572D01*
Y495808D01*
X253492D01*
Y493268D01*
X250952D01*
Y488188D01*
X253492D01*
X253492Y519684D02*
Y517144D01*
X258572D01*
Y519684D01*
X261112D01*
Y524764D01*
X258572D01*
Y527304D01*
X253492D01*
Y524764D01*
X250952D01*
Y519684D01*
X253492D01*
X248412Y456438D02*
Y453898D01*
X253492D01*
Y456438D01*
X256032D01*
Y461518D01*
X253492D01*
Y464058D01*
X248412D01*
Y461518D01*
X245872D01*
Y456438D01*
X248412D01*
X252349Y440563D02*
Y438023D01*
X257429D01*
Y440563D01*
X259969D01*
Y445643D01*
X257429D01*
Y448183D01*
X252349D01*
Y445643D01*
X249809D01*
Y440563D01*
X252349D01*
X150622Y389255D02*
Y386715D01*
X155702D01*
Y389255D01*
X158242D01*
Y394335D01*
X155702D01*
Y396875D01*
X150622D01*
Y394335D01*
X148082D01*
Y389255D01*
X150622D01*
X228219Y546609D02*
Y544069D01*
X233299D01*
Y546609D01*
X235839D01*
Y551689D01*
X233299D01*
Y554229D01*
X228219D01*
Y551689D01*
X225679D01*
Y546609D01*
X228219D01*
Y472017D02*
Y469477D01*
X233299D01*
Y472017D01*
X235839D01*
Y477097D01*
X233299D01*
Y479637D01*
X228219D01*
Y477097D01*
X225679D01*
Y472017D01*
X228219D01*
Y530023D02*
Y527482D01*
X233299D01*
Y530023D01*
X235839D01*
Y535103D01*
X233299D01*
Y537643D01*
X228219D01*
Y535103D01*
X225679D01*
Y530023D01*
X228219D01*
Y464143D02*
Y461603D01*
X233299D01*
Y464143D01*
X235839D01*
Y469223D01*
X233299D01*
Y471763D01*
X228219D01*
Y469223D01*
X225679D01*
Y464143D01*
X228219D01*
Y448189D02*
Y445649D01*
X233299D01*
Y448189D01*
X235839D01*
Y453269D01*
X233299D01*
Y455809D01*
X228219D01*
Y453269D01*
X225679D01*
Y448189D01*
X228219D01*
Y554788D02*
Y552248D01*
X233299D01*
Y554788D01*
X235839D01*
Y559868D01*
X233299D01*
Y562408D01*
X228219D01*
Y559868D01*
X225679D01*
Y554788D01*
X228219D01*
Y456269D02*
Y453729D01*
X233299D01*
Y456269D01*
X235839D01*
Y461349D01*
X233299D01*
Y463889D01*
X228219D01*
Y461349D01*
X225679D01*
Y456269D01*
X228219D01*
Y479891D02*
Y477351D01*
X233299D01*
Y479891D01*
X235839D01*
Y484971D01*
X233299D01*
Y487511D01*
X228219D01*
Y484971D01*
X225679D01*
Y479891D01*
X228219D01*
Y537972D02*
Y535432D01*
X233299D01*
Y537972D01*
X235839D01*
Y543052D01*
X233299D01*
Y545592D01*
X228219D01*
Y543052D01*
X225679D01*
Y537972D01*
X228219D01*
X185674Y425958D02*
X188214Y431038D01*
X185674Y436118D01*
X190754Y433578D01*
X195834Y436118D01*
X193294Y431038D01*
X195834Y425958D01*
X190754Y428498D01*
X185674Y425958D01*
X273102Y538278D02*
Y535737D01*
X278181D01*
Y538278D01*
X280721D01*
Y543358D01*
X278181D01*
Y545897D01*
X273102D01*
Y543358D01*
X270562D01*
Y538278D01*
X273102D01*
X268172Y527761D02*
Y525220D01*
X273253D01*
Y527761D01*
X275793D01*
Y532840D01*
X273253D01*
Y535381D01*
X268172D01*
Y532840D01*
X265632D01*
Y527761D01*
X268172D01*
X284988Y545846D02*
Y543306D01*
X290068D01*
Y545846D01*
X292608D01*
Y550926D01*
X290068D01*
Y553466D01*
X284988D01*
Y550926D01*
X282448D01*
Y545846D01*
X284988D01*
X254254Y563372D02*
Y560832D01*
X259334D01*
Y563372D01*
X261874D01*
Y568452D01*
X259334D01*
Y570992D01*
X254254D01*
Y568452D01*
X251714D01*
Y563372D01*
X254254D01*
X273050Y546862D02*
Y544322D01*
X278130D01*
Y546862D01*
X280670D01*
Y551942D01*
X278130D01*
Y554482D01*
X273050D01*
Y551942D01*
X270510D01*
Y546862D01*
X273050D01*
X269188Y471890D02*
Y469350D01*
X274268D01*
Y471890D01*
X276808D01*
Y476970D01*
X274268D01*
Y479510D01*
X269188D01*
Y476970D01*
X266649D01*
Y471890D01*
X269188D01*
X269687Y479800D02*
Y477260D01*
X274767D01*
Y479800D01*
X277307D01*
Y484880D01*
X274767D01*
Y487420D01*
X269687D01*
Y484880D01*
X267147D01*
Y479800D01*
X269687D01*
X270002Y464058D02*
Y461518D01*
X275082D01*
Y464058D01*
X277622D01*
Y469138D01*
X275082D01*
Y471678D01*
X270002D01*
Y469138D01*
X267462D01*
Y464058D01*
X270002D01*
X270764Y449326D02*
Y446786D01*
X275844D01*
Y449326D01*
X278384D01*
Y454406D01*
X275844D01*
Y456946D01*
X270764D01*
Y454406D01*
X268224D01*
Y449326D01*
X270764D01*
X267589Y554736D02*
Y552196D01*
X272669D01*
Y554736D01*
X275209D01*
Y559816D01*
X272669D01*
Y562356D01*
X267589D01*
Y559816D01*
X265049D01*
Y554736D01*
X267589D01*
X242570Y601586D02*
Y599046D01*
X247650D01*
Y601586D01*
X250190D01*
Y606666D01*
X247650D01*
Y609206D01*
X242570D01*
Y606666D01*
X240030D01*
Y601586D01*
X242570D01*
Y440944D02*
Y438404D01*
X247650D01*
Y440944D01*
X250190D01*
Y446024D01*
X247650D01*
Y448564D01*
X242570D01*
Y446024D01*
X240030D01*
Y440944D01*
X242570D01*
X139014Y786892D02*
Y784352D01*
X144094D01*
Y786892D01*
X146634D01*
Y791972D01*
X144094D01*
Y794512D01*
X139014D01*
Y791972D01*
X136474D01*
Y786892D01*
X139014D01*
X151130Y774192D02*
Y771652D01*
X156210D01*
Y774192D01*
X158750D01*
Y779272D01*
X156210D01*
Y781812D01*
X151130D01*
Y779272D01*
X148590D01*
Y774192D01*
X151130D01*
X656590Y658876D02*
Y656336D01*
X661670D01*
Y658876D01*
X664210D01*
Y663956D01*
X661670D01*
Y666496D01*
X656590D01*
Y663956D01*
X654050D01*
Y658876D01*
X656590D01*
X643382Y658622D02*
Y656082D01*
X648462D01*
Y658622D01*
X651002D01*
Y663702D01*
X648462D01*
Y666242D01*
X643382D01*
Y663702D01*
X640842D01*
Y658622D01*
X643382D01*
X257556Y649478D02*
Y646938D01*
X262636D01*
Y649478D01*
X265176D01*
Y654558D01*
X262636D01*
Y657098D01*
X257556D01*
Y654558D01*
X255016D01*
Y649478D01*
X257556D01*
X328676Y648970D02*
Y646430D01*
X333756D01*
Y648970D01*
X336296D01*
Y654050D01*
X333756D01*
Y656590D01*
X328676D01*
Y654050D01*
X326136D01*
Y648970D01*
X328676D01*
X352806Y640080D02*
Y637540D01*
X357886D01*
Y640080D01*
X360426D01*
Y645160D01*
X357886D01*
Y647700D01*
X352806D01*
Y645160D01*
X350266D01*
Y640080D01*
X352806D01*
X303276Y635762D02*
Y633222D01*
X308356D01*
Y635762D01*
X310896D01*
Y640842D01*
X308356D01*
Y643382D01*
X303276D01*
Y640842D01*
X300736D01*
Y635762D01*
X303276D01*
X651256Y625602D02*
Y623062D01*
X656336D01*
Y625602D01*
X658876D01*
Y630682D01*
X656336D01*
Y633222D01*
X651256D01*
Y630682D01*
X648716D01*
Y625602D01*
X651256D01*
X371348Y616204D02*
Y613664D01*
X376428D01*
Y616204D01*
X378968D01*
Y621284D01*
X376428D01*
Y623824D01*
X371348D01*
Y621284D01*
X368808D01*
Y616204D01*
X371348D01*
X290830Y604266D02*
Y601726D01*
X295910D01*
Y604266D01*
X298450D01*
Y609346D01*
X295910D01*
Y611886D01*
X290830D01*
Y609346D01*
X288290D01*
Y604266D01*
X290830D01*
X353060Y585724D02*
Y583184D01*
X358140D01*
Y585724D01*
X360680D01*
Y590804D01*
X358140D01*
Y593344D01*
X353060D01*
Y590804D01*
X350520D01*
Y585724D01*
X353060D01*
X377444Y522986D02*
Y520446D01*
X382524D01*
Y522986D01*
X385064D01*
Y528066D01*
X382524D01*
Y530606D01*
X377444D01*
Y528066D01*
X374904D01*
Y522986D01*
X377444D01*
X482600Y134874D02*
Y132334D01*
X487680D01*
Y134874D01*
X490220D01*
Y139954D01*
X487680D01*
Y142494D01*
X482600D01*
Y139954D01*
X480060D01*
Y134874D01*
X482600D01*
X309372Y352552D02*
Y350012D01*
X314452D01*
Y352552D01*
X316992D01*
Y357632D01*
X314452D01*
Y360172D01*
X309372D01*
Y357632D01*
X306832D01*
Y352552D01*
X309372D01*
X278638Y312674D02*
Y310134D01*
X283718D01*
Y312674D01*
X286258D01*
Y317754D01*
X283718D01*
Y320294D01*
X278638D01*
Y317754D01*
X276098D01*
Y312674D01*
X278638D01*
X254508Y311912D02*
Y309372D01*
X259588D01*
Y311912D01*
X262128D01*
Y316992D01*
X259588D01*
Y319532D01*
X254508D01*
Y316992D01*
X251968D01*
Y311912D01*
X254508D01*
X307086Y208788D02*
Y206248D01*
X312166D01*
Y208788D01*
X314706D01*
Y213868D01*
X312166D01*
Y216408D01*
X307086D01*
Y213868D01*
X304546D01*
Y208788D01*
X307086D01*
X259588Y197104D02*
Y194564D01*
X264668D01*
Y197104D01*
X267208D01*
Y202184D01*
X264668D01*
Y204724D01*
X259588D01*
Y202184D01*
X257048D01*
Y197104D01*
X259588D01*
X321056Y186944D02*
Y184404D01*
X326136D01*
Y186944D01*
X328676D01*
Y192024D01*
X326136D01*
Y194564D01*
X321056D01*
Y192024D01*
X318516D01*
Y186944D01*
X321056D01*
X287274Y180594D02*
Y178054D01*
X292354D01*
Y180594D01*
X294894D01*
Y185674D01*
X292354D01*
Y188214D01*
X287274D01*
Y185674D01*
X284734D01*
Y180594D01*
X287274D01*
X259588Y179578D02*
Y177038D01*
X264668D01*
Y179578D01*
X267208D01*
Y184658D01*
X264668D01*
Y187198D01*
X259588D01*
Y184658D01*
X257048D01*
Y179578D01*
X259588D01*
X282448Y231394D02*
Y228854D01*
X287528D01*
Y231394D01*
X290068D01*
Y236474D01*
X287528D01*
Y239014D01*
X282448D01*
Y236474D01*
X279908D01*
Y231394D01*
X282448D01*
X273558Y225806D02*
Y223266D01*
X278638D01*
Y225806D01*
X281178D01*
Y230886D01*
X278638D01*
Y233426D01*
X273558D01*
Y230886D01*
X271018D01*
Y225806D01*
X273558D01*
X184150Y774192D02*
Y771652D01*
X189230D01*
Y774192D01*
X191770D01*
Y779272D01*
X189230D01*
Y781812D01*
X184150D01*
Y779272D01*
X181610D01*
Y774192D01*
X184150D01*
X171450Y761492D02*
Y758952D01*
X176530D01*
Y761492D01*
X179070D01*
Y766572D01*
X176530D01*
Y769112D01*
X171450D01*
Y766572D01*
X168910D01*
Y761492D01*
X171450D01*
X184150D02*
Y758952D01*
X189230D01*
Y761492D01*
X191770D01*
Y766572D01*
X189230D01*
Y769112D01*
X184150D01*
Y766572D01*
X181610D01*
Y761492D01*
X184150D01*
Y748792D02*
Y746252D01*
X189230D01*
Y748792D01*
X191770D01*
Y753872D01*
X189230D01*
Y756412D01*
X184150D01*
Y753872D01*
X181610D01*
Y748792D01*
X184150D01*
X171450D02*
Y746252D01*
X176530D01*
Y748792D01*
X179070D01*
Y753872D01*
X176530D01*
Y756412D01*
X171450D01*
Y753872D01*
X168910D01*
Y748792D01*
X171450D01*
Y736092D02*
Y733552D01*
X176530D01*
Y736092D01*
X179070D01*
Y741172D01*
X176530D01*
Y743712D01*
X171450D01*
Y741172D01*
X168910D01*
Y736092D01*
X171450D01*
X184150D02*
Y733552D01*
X189230D01*
Y736092D01*
X191770D01*
Y741172D01*
X189230D01*
Y743712D01*
X184150D01*
Y741172D01*
X181610D01*
Y736092D01*
X184150D01*
Y723392D02*
Y720852D01*
X189230D01*
Y723392D01*
X191770D01*
Y728472D01*
X189230D01*
Y731012D01*
X184150D01*
Y728472D01*
X181610D01*
Y723392D01*
X184150D01*
X171450D02*
Y720852D01*
X176530D01*
Y723392D01*
X179070D01*
Y728472D01*
X176530D01*
Y731012D01*
X171450D01*
Y728472D01*
X168910D01*
Y723392D01*
X171450D01*
Y710692D02*
Y708152D01*
X176530D01*
Y710692D01*
X179070D01*
Y715772D01*
X176530D01*
Y718312D01*
X171450D01*
Y715772D01*
X168910D01*
Y710692D01*
X171450D01*
X184150D02*
Y708152D01*
X189230D01*
Y710692D01*
X191770D01*
Y715772D01*
X189230D01*
Y718312D01*
X184150D01*
Y715772D01*
X181610D01*
Y710692D01*
X184150D01*
Y697992D02*
Y695452D01*
X189230D01*
Y697992D01*
X191770D01*
Y703072D01*
X189230D01*
Y705612D01*
X184150D01*
Y703072D01*
X181610D01*
Y697992D01*
X184150D01*
X171450D02*
Y695452D01*
X176530D01*
Y697992D01*
X179070D01*
Y703072D01*
X176530D01*
Y705612D01*
X171450D01*
Y703072D01*
X168910D01*
Y697992D01*
X171450D01*
X151130D02*
Y695452D01*
X156210D01*
Y697992D01*
X158750D01*
Y703072D01*
X156210D01*
Y705612D01*
X151130D01*
Y703072D01*
X148590D01*
Y697992D01*
X151130D01*
X184150Y685292D02*
Y682752D01*
X189230D01*
Y685292D01*
X191770D01*
Y690372D01*
X189230D01*
Y692912D01*
X184150D01*
Y690372D01*
X181610D01*
Y685292D01*
X184150D01*
X171450D02*
Y682752D01*
X176530D01*
Y685292D01*
X179070D01*
Y690372D01*
X176530D01*
Y692912D01*
X171450D01*
Y690372D01*
X168910D01*
Y685292D01*
X171450D01*
Y672592D02*
Y670052D01*
X176530D01*
Y672592D01*
X179070D01*
Y677672D01*
X176530D01*
Y680212D01*
X171450D01*
Y677672D01*
X168910D01*
Y672592D01*
X171450D01*
X184150Y659892D02*
Y657352D01*
X189230D01*
Y659892D01*
X191770D01*
Y664972D01*
X189230D01*
Y667512D01*
X184150D01*
Y664972D01*
X181610D01*
Y659892D01*
X184150D01*
X171450D02*
Y657352D01*
X176530D01*
Y659892D01*
X179070D01*
Y664972D01*
X176530D01*
Y667512D01*
X171450D01*
Y664972D01*
X168910D01*
Y659892D01*
X171450D01*
X151130D02*
Y657352D01*
X156210D01*
Y659892D01*
X158750D01*
Y664972D01*
X156210D01*
Y667512D01*
X151130D01*
Y664972D01*
X148590D01*
Y659892D01*
X151130D01*
X171450Y647192D02*
Y644652D01*
X176530D01*
Y647192D01*
X179070D01*
Y652272D01*
X176530D01*
Y654812D01*
X171450D01*
Y652272D01*
X168910D01*
Y647192D01*
X171450D01*
X216662Y636778D02*
Y634238D01*
X221742D01*
Y636778D01*
X224282D01*
Y641858D01*
X221742D01*
Y644398D01*
X216662D01*
Y641858D01*
X214122D01*
Y636778D01*
X216662D01*
X171450Y634492D02*
Y631952D01*
X176530D01*
Y634492D01*
X179070D01*
Y639572D01*
X176530D01*
Y642112D01*
X171450D01*
Y639572D01*
X168910D01*
Y634492D01*
X171450D01*
X208534Y625094D02*
Y622554D01*
X213614D01*
Y625094D01*
X216154D01*
Y630174D01*
X213614D01*
Y632714D01*
X208534D01*
Y630174D01*
X205994D01*
Y625094D01*
X208534D01*
X214630Y606298D02*
Y603758D01*
X219710D01*
Y606298D01*
X222250D01*
Y611378D01*
X219710D01*
Y613918D01*
X214630D01*
Y611378D01*
X212090D01*
Y606298D01*
X214630D01*
X184150Y672592D02*
Y670052D01*
X189230D01*
Y672592D01*
X191770D01*
Y677672D01*
X189230D01*
Y680212D01*
X184150D01*
Y677672D01*
X181610D01*
Y672592D01*
X184150D01*
X139014Y774192D02*
Y771652D01*
X144094D01*
Y774192D01*
X146634D01*
Y779272D01*
X144094D01*
Y781812D01*
X139014D01*
Y779272D01*
X136474D01*
Y774192D01*
X139014D01*
X151130Y761492D02*
Y758952D01*
X156210D01*
Y761492D01*
X158750D01*
Y766572D01*
X156210D01*
Y769112D01*
X151130D01*
Y766572D01*
X148590D01*
Y761492D01*
X151130D01*
X139014D02*
Y758952D01*
X144094D01*
Y761492D01*
X146634D01*
Y766572D01*
X144094D01*
Y769112D01*
X139014D01*
Y766572D01*
X136474D01*
Y761492D01*
X139014D01*
X151130Y748792D02*
Y746252D01*
X156210D01*
Y748792D01*
X158750D01*
Y753872D01*
X156210D01*
Y756412D01*
X151130D01*
Y753872D01*
X148590D01*
Y748792D01*
X151130D01*
X139014D02*
Y746252D01*
X144094D01*
Y748792D01*
X146634D01*
Y753872D01*
X144094D01*
Y756412D01*
X139014D01*
Y753872D01*
X136474D01*
Y748792D01*
X139014D01*
X151130Y736092D02*
Y733552D01*
X156210D01*
Y736092D01*
X158750D01*
Y741172D01*
X156210D01*
Y743712D01*
X151130D01*
Y741172D01*
X148590D01*
Y736092D01*
X151130D01*
X139014D02*
Y733552D01*
X144094D01*
Y736092D01*
X146634D01*
Y741172D01*
X144094D01*
Y743712D01*
X139014D01*
Y741172D01*
X136474D01*
Y736092D01*
X139014D01*
X151130Y723392D02*
Y720852D01*
X156210D01*
Y723392D01*
X158750D01*
Y728472D01*
X156210D01*
Y731012D01*
X151130D01*
Y728472D01*
X148590D01*
Y723392D01*
X151130D01*
X139014D02*
Y720852D01*
X144094D01*
Y723392D01*
X146634D01*
Y728472D01*
X144094D01*
Y731012D01*
X139014D01*
Y728472D01*
X136474D01*
Y723392D01*
X139014D01*
Y710692D02*
Y708152D01*
X144094D01*
Y710692D01*
X146634D01*
Y715772D01*
X144094D01*
Y718312D01*
X139014D01*
Y715772D01*
X136474D01*
Y710692D01*
X139014D01*
X94996Y702310D02*
Y699770D01*
X100076D01*
Y702310D01*
X102616D01*
Y707390D01*
X100076D01*
Y709930D01*
X94996D01*
Y707390D01*
X92456D01*
Y702310D01*
X94996D01*
X139014Y697992D02*
Y695452D01*
X144094D01*
Y697992D01*
X146634D01*
Y703072D01*
X144094D01*
Y705612D01*
X139014D01*
Y703072D01*
X136474D01*
Y697992D01*
X139014D01*
X151130Y710692D02*
Y708152D01*
X156210D01*
Y710692D01*
X158750D01*
Y715772D01*
X156210D01*
Y718312D01*
X151130D01*
Y715772D01*
X148590D01*
Y710692D01*
X151130D01*
Y685292D02*
Y682752D01*
X156210D01*
Y685292D01*
X158750D01*
Y690372D01*
X156210D01*
Y692912D01*
X151130D01*
Y690372D01*
X148590D01*
Y685292D01*
X151130D01*
X139014D02*
Y682752D01*
X144094D01*
Y685292D01*
X146634D01*
Y690372D01*
X144094D01*
Y692912D01*
X139014D01*
Y690372D01*
X136474D01*
Y685292D01*
X139014D01*
X151130Y672592D02*
Y670052D01*
X156210D01*
Y672592D01*
X158750D01*
Y677672D01*
X156210D01*
Y680212D01*
X151130D01*
Y677672D01*
X148590D01*
Y672592D01*
X151130D01*
X139014D02*
Y670052D01*
X144094D01*
Y672592D01*
X146634D01*
Y677672D01*
X144094D01*
Y680212D01*
X139014D01*
Y677672D01*
X136474D01*
Y672592D01*
X139014D01*
X89154Y662940D02*
Y660400D01*
X94234D01*
Y662940D01*
X96774D01*
Y668020D01*
X94234D01*
Y670560D01*
X89154D01*
Y668020D01*
X86614D01*
Y662940D01*
X89154D01*
X139014Y659892D02*
Y657352D01*
X144094D01*
Y659892D01*
X146634D01*
Y664972D01*
X144094D01*
Y667512D01*
X139014D01*
Y664972D01*
X136474D01*
Y659892D01*
X139014D01*
X151130Y647192D02*
Y644652D01*
X156210D01*
Y647192D01*
X158750D01*
Y652272D01*
X156210D01*
Y654812D01*
X151130D01*
Y652272D01*
X148590D01*
Y647192D01*
X151130D01*
X111760Y635000D02*
Y632460D01*
X116840D01*
Y635000D01*
X119380D01*
Y640080D01*
X116840D01*
Y642620D01*
X111760D01*
Y640080D01*
X109220D01*
Y635000D01*
X111760D01*
X151130Y634492D02*
Y631952D01*
X156210D01*
Y634492D01*
X158750D01*
Y639572D01*
X156210D01*
Y642112D01*
X151130D01*
Y639572D01*
X148590D01*
Y634492D01*
X151130D01*
X111506Y621792D02*
Y619252D01*
X116586D01*
Y621792D01*
X119126D01*
Y626872D01*
X116586D01*
Y629412D01*
X111506D01*
Y626872D01*
X108966D01*
Y621792D01*
X111506D01*
X40386Y602996D02*
Y600456D01*
X45466D01*
Y602996D01*
X48006D01*
Y608076D01*
X45466D01*
Y610616D01*
X40386D01*
Y608076D01*
X37846D01*
Y602996D01*
X40386D01*
X72898Y602051D02*
Y599511D01*
X77978D01*
Y602051D01*
X80518D01*
Y607131D01*
X77978D01*
Y609671D01*
X72898D01*
Y607131D01*
X70358D01*
Y602051D01*
X72898D01*
X152654Y524256D02*
Y521716D01*
X157734D01*
Y524256D01*
X160274D01*
Y529336D01*
X157734D01*
Y531876D01*
X152654D01*
Y529336D01*
X150114D01*
Y524256D01*
X152654D01*
X165354D02*
Y521716D01*
X170434D01*
Y524256D01*
X172974D01*
Y529336D01*
X170434D01*
Y531876D01*
X165354D01*
Y529336D01*
X162814D01*
Y524256D01*
X165354D01*
X159766Y404114D02*
Y401574D01*
X164846D01*
Y404114D01*
X167386D01*
Y409194D01*
X164846D01*
Y411734D01*
X159766D01*
Y409194D01*
X157226D01*
Y404114D01*
X159766D01*
X156972Y383794D02*
Y381254D01*
X162052D01*
Y383794D01*
X164592D01*
Y388874D01*
X162052D01*
Y391414D01*
X156972D01*
Y388874D01*
X154432D01*
Y383794D01*
X156972D01*
X158750Y274574D02*
Y272034D01*
X163830D01*
Y274574D01*
X166370D01*
Y279654D01*
X163830D01*
Y282194D01*
X158750D01*
Y279654D01*
X156210D01*
Y274574D01*
X158750D01*
X242062Y273304D02*
Y270764D01*
X247142D01*
Y273304D01*
X249682D01*
Y278384D01*
X247142D01*
Y280924D01*
X242062D01*
Y278384D01*
X239522D01*
Y273304D01*
X242062D01*
X188976Y265430D02*
Y262890D01*
X194056D01*
Y265430D01*
X196596D01*
Y270510D01*
X194056D01*
Y273050D01*
X188976D01*
Y270510D01*
X186436D01*
Y265430D01*
X188976D01*
X228854Y263652D02*
Y261112D01*
X233934D01*
Y263652D01*
X236474D01*
Y268732D01*
X233934D01*
Y271272D01*
X228854D01*
Y268732D01*
X226314D01*
Y263652D01*
X228854D01*
X233680Y146050D02*
Y143510D01*
X238760D01*
Y146050D01*
X241300D01*
Y151130D01*
X238760D01*
Y153670D01*
X233680D01*
Y151130D01*
X231140D01*
Y146050D01*
X233680D01*
X110490Y359156D02*
Y356616D01*
X115570D01*
Y359156D01*
X118110D01*
Y364236D01*
X115570D01*
Y366776D01*
X110490D01*
Y364236D01*
X107950D01*
Y359156D01*
X110490D01*
X61468Y344678D02*
Y342138D01*
X66548D01*
Y344678D01*
X69088D01*
Y349758D01*
X66548D01*
Y352298D01*
X61468D01*
Y349758D01*
X58928D01*
Y344678D01*
X61468D01*
X147320Y335280D02*
Y332740D01*
X152400D01*
Y335280D01*
X154940D01*
Y340360D01*
X152400D01*
Y342900D01*
X147320D01*
Y340360D01*
X144780D01*
Y335280D01*
X147320D01*
X87884Y286004D02*
Y283464D01*
X92964D01*
Y286004D01*
X95504D01*
Y291084D01*
X92964D01*
Y293624D01*
X87884D01*
Y291084D01*
X85344D01*
Y286004D01*
X87884D01*
X99060Y264922D02*
Y262382D01*
X104140D01*
Y264922D01*
X106680D01*
Y270002D01*
X104140D01*
Y272542D01*
X99060D01*
Y270002D01*
X96520D01*
Y264922D01*
X99060D01*
X49022Y250444D02*
Y247904D01*
X54102D01*
Y250444D01*
X56642D01*
Y255524D01*
X54102D01*
Y258064D01*
X49022D01*
Y255524D01*
X46482D01*
Y250444D01*
X49022D01*
X81280Y231140D02*
Y228600D01*
X86360D01*
Y231140D01*
X88900D01*
Y236220D01*
X86360D01*
Y238760D01*
X81280D01*
Y236220D01*
X78740D01*
Y231140D01*
X81280D01*
X91694Y135890D02*
Y133350D01*
X96774D01*
Y135890D01*
X99314D01*
Y140970D01*
X96774D01*
Y143510D01*
X91694D01*
Y140970D01*
X89154D01*
Y135890D01*
X91694D01*
X135636Y125984D02*
Y123444D01*
X140716D01*
Y125984D01*
X143256D01*
Y131064D01*
X140716D01*
Y133604D01*
X135636D01*
Y131064D01*
X133096D01*
Y125984D01*
X135636D01*
X79756Y379222D02*
Y376682D01*
X84836D01*
Y379222D01*
X87376D01*
Y384302D01*
X84836D01*
Y386842D01*
X79756D01*
Y384302D01*
X77216D01*
Y379222D01*
X79756D01*
X84074Y371348D02*
Y368808D01*
X89154D01*
Y371348D01*
X91694D01*
Y376428D01*
X89154D01*
Y378968D01*
X84074D01*
Y376428D01*
X81534D01*
Y371348D01*
X84074D01*
X101600Y564134D02*
Y561594D01*
X106680D01*
Y564134D01*
X109220D01*
Y569214D01*
X106680D01*
Y571754D01*
X101600D01*
Y569214D01*
X99060D01*
Y564134D01*
X101600D01*
X115500Y550955D02*
Y548415D01*
X120580D01*
Y550955D01*
X123120D01*
Y556035D01*
X120580D01*
Y558575D01*
X115500D01*
Y556035D01*
X112960D01*
Y550955D01*
X115500D01*
X125476Y525526D02*
Y522986D01*
X130556D01*
Y525526D01*
X133096D01*
Y530606D01*
X130556D01*
Y533146D01*
X125476D01*
Y530606D01*
X122936D01*
Y525526D01*
X125476D01*
X111252Y465074D02*
Y462534D01*
X116332D01*
Y465074D01*
X118872D01*
Y470154D01*
X116332D01*
Y472694D01*
X111252D01*
Y470154D01*
X108712D01*
Y465074D01*
X111252D01*
X110744Y453136D02*
Y450596D01*
X115824D01*
Y453136D01*
X118364D01*
Y458216D01*
X115824D01*
Y460756D01*
X110744D01*
Y458216D01*
X108204D01*
Y453136D01*
X110744D01*
X79502Y405384D02*
Y402844D01*
X84582D01*
Y405384D01*
X87122D01*
Y410464D01*
X84582D01*
Y413004D01*
X79502D01*
Y410464D01*
X76962D01*
Y405384D01*
X79502D01*
X138430Y525526D02*
Y522986D01*
X143510D01*
Y525526D01*
X146050D01*
Y530606D01*
X143510D01*
Y533146D01*
X138430D01*
Y530606D01*
X135890D01*
Y525526D01*
X138430D01*
X260350Y891032D02*
Y888492D01*
X265430D01*
Y891032D01*
X267970D01*
Y896112D01*
X265430D01*
Y898652D01*
X260350D01*
Y896112D01*
X257810D01*
Y891032D01*
X260350D01*
X247650D02*
Y888492D01*
X252730D01*
Y891032D01*
X255270D01*
Y896112D01*
X252730D01*
Y898652D01*
X247650D01*
Y896112D01*
X245110D01*
Y891032D01*
X247650D01*
X234950D02*
Y888492D01*
X240030D01*
Y891032D01*
X242570D01*
Y896112D01*
X240030D01*
Y898652D01*
X234950D01*
Y896112D01*
X232410D01*
Y891032D01*
X234950D01*
X222250D02*
Y888492D01*
X227330D01*
Y891032D01*
X229870D01*
Y896112D01*
X227330D01*
Y898652D01*
X222250D01*
Y896112D01*
X219710D01*
Y891032D01*
X222250D01*
X209550D02*
Y888492D01*
X214630D01*
Y891032D01*
X217170D01*
Y896112D01*
X214630D01*
Y898652D01*
X209550D01*
Y896112D01*
X207010D01*
Y891032D01*
X209550D01*
X196850D02*
Y888492D01*
X201930D01*
Y891032D01*
X204470D01*
Y896112D01*
X201930D01*
Y898652D01*
X196850D01*
Y896112D01*
X194310D01*
Y891032D01*
X196850D01*
X184150D02*
Y888492D01*
X189230D01*
Y891032D01*
X191770D01*
Y896112D01*
X189230D01*
Y898652D01*
X184150D01*
Y896112D01*
X181610D01*
Y891032D01*
X184150D01*
X171450D02*
Y888492D01*
X176530D01*
Y891032D01*
X179070D01*
Y896112D01*
X176530D01*
Y898652D01*
X171450D01*
Y896112D01*
X168910D01*
Y891032D01*
X171450D01*
X151130D02*
Y888492D01*
X156210D01*
Y891032D01*
X158750D01*
Y896112D01*
X156210D01*
Y898652D01*
X151130D01*
Y896112D01*
X148590D01*
Y891032D01*
X151130D01*
X138430D02*
Y888492D01*
X143510D01*
Y891032D01*
X146050D01*
Y896112D01*
X143510D01*
Y898652D01*
X138430D01*
Y896112D01*
X135890D01*
Y891032D01*
X138430D01*
X125730D02*
Y888492D01*
X130810D01*
Y891032D01*
X133350D01*
Y896112D01*
X130810D01*
Y898652D01*
X125730D01*
Y896112D01*
X123190D01*
Y891032D01*
X125730D01*
X113030D02*
Y888492D01*
X118110D01*
Y891032D01*
X120650D01*
Y896112D01*
X118110D01*
Y898652D01*
X113030D01*
Y896112D01*
X110490D01*
Y891032D01*
X113030D01*
X100330D02*
Y888492D01*
X105410D01*
Y891032D01*
X107950D01*
Y896112D01*
X105410D01*
Y898652D01*
X100330D01*
Y896112D01*
X97790D01*
Y891032D01*
X100330D01*
X87630D02*
Y888492D01*
X92710D01*
Y891032D01*
X95250D01*
Y896112D01*
X92710D01*
Y898652D01*
X87630D01*
Y896112D01*
X85090D01*
Y891032D01*
X87630D01*
X311150Y865632D02*
Y863092D01*
X316230D01*
Y865632D01*
X318770D01*
Y870712D01*
X316230D01*
Y873252D01*
X311150D01*
Y870712D01*
X308610D01*
Y865632D01*
X311150D01*
X298450Y891032D02*
Y888492D01*
X303530D01*
Y891032D01*
X306070D01*
Y896112D01*
X303530D01*
Y898652D01*
X298450D01*
Y896112D01*
X295910D01*
Y891032D01*
X298450D01*
Y878332D02*
Y875792D01*
X303530D01*
Y878332D01*
X306070D01*
Y883412D01*
X303530D01*
Y885952D01*
X298450D01*
Y883412D01*
X295910D01*
Y878332D01*
X298450D01*
Y865632D02*
Y863092D01*
X303530D01*
Y865632D01*
X306070D01*
Y870712D01*
X303530D01*
Y873252D01*
X298450D01*
Y870712D01*
X295910D01*
Y865632D01*
X298450D01*
X285750Y878332D02*
Y875792D01*
X290830D01*
Y878332D01*
X293370D01*
Y883412D01*
X290830D01*
Y885952D01*
X285750D01*
Y883412D01*
X283210D01*
Y878332D01*
X285750D01*
Y865632D02*
Y863092D01*
X290830D01*
Y865632D01*
X293370D01*
Y870712D01*
X290830D01*
Y873252D01*
X285750D01*
Y870712D01*
X283210D01*
Y865632D01*
X285750D01*
X273050Y878332D02*
Y875792D01*
X278130D01*
Y878332D01*
X280670D01*
Y883412D01*
X278130D01*
Y885952D01*
X273050D01*
Y883412D01*
X270510D01*
Y878332D01*
X273050D01*
Y865632D02*
Y863092D01*
X278130D01*
Y865632D01*
X280670D01*
Y870712D01*
X278130D01*
Y873252D01*
X273050D01*
Y870712D01*
X270510D01*
Y865632D01*
X273050D01*
X260350Y878332D02*
Y875792D01*
X265430D01*
Y878332D01*
X267970D01*
Y883412D01*
X265430D01*
Y885952D01*
X260350D01*
Y883412D01*
X257810D01*
Y878332D01*
X260350D01*
Y865632D02*
Y863092D01*
X265430D01*
Y865632D01*
X267970D01*
Y870712D01*
X265430D01*
Y873252D01*
X260350D01*
Y870712D01*
X257810D01*
Y865632D01*
X260350D01*
X247650Y878332D02*
Y875792D01*
X252730D01*
Y878332D01*
X255270D01*
Y883412D01*
X252730D01*
Y885952D01*
X247650D01*
Y883412D01*
X245110D01*
Y878332D01*
X247650D01*
Y865632D02*
Y863092D01*
X252730D01*
Y865632D01*
X255270D01*
Y870712D01*
X252730D01*
Y873252D01*
X247650D01*
Y870712D01*
X245110D01*
Y865632D01*
X247650D01*
X234950Y878332D02*
Y875792D01*
X240030D01*
Y878332D01*
X242570D01*
Y883412D01*
X240030D01*
Y885952D01*
X234950D01*
Y883412D01*
X232410D01*
Y878332D01*
X234950D01*
Y865632D02*
Y863092D01*
X240030D01*
Y865632D01*
X242570D01*
Y870712D01*
X240030D01*
Y873252D01*
X234950D01*
Y870712D01*
X232410D01*
Y865632D01*
X234950D01*
X222250Y878332D02*
Y875792D01*
X227330D01*
Y878332D01*
X229870D01*
Y883412D01*
X227330D01*
Y885952D01*
X222250D01*
Y883412D01*
X219710D01*
Y878332D01*
X222250D01*
Y865632D02*
Y863092D01*
X227330D01*
Y865632D01*
X229870D01*
Y870712D01*
X227330D01*
Y873252D01*
X222250D01*
Y870712D01*
X219710D01*
Y865632D01*
X222250D01*
X209550Y878332D02*
Y875792D01*
X214630D01*
Y878332D01*
X217170D01*
Y883412D01*
X214630D01*
Y885952D01*
X209550D01*
Y883412D01*
X207010D01*
Y878332D01*
X209550D01*
Y865632D02*
Y863092D01*
X214630D01*
Y865632D01*
X217170D01*
Y870712D01*
X214630D01*
Y873252D01*
X209550D01*
Y870712D01*
X207010D01*
Y865632D01*
X209550D01*
X196850Y878332D02*
Y875792D01*
X201930D01*
Y878332D01*
X204470D01*
Y883412D01*
X201930D01*
Y885952D01*
X196850D01*
Y883412D01*
X194310D01*
Y878332D01*
X196850D01*
X184150D02*
Y875792D01*
X189230D01*
Y878332D01*
X191770D01*
Y883412D01*
X189230D01*
Y885952D01*
X184150D01*
Y883412D01*
X181610D01*
Y878332D01*
X184150D01*
X171450D02*
Y875792D01*
X176530D01*
Y878332D01*
X179070D01*
Y883412D01*
X176530D01*
Y885952D01*
X171450D01*
Y883412D01*
X168910D01*
Y878332D01*
X171450D01*
X151130D02*
Y875792D01*
X156210D01*
Y878332D01*
X158750D01*
Y883412D01*
X156210D01*
Y885952D01*
X151130D01*
Y883412D01*
X148590D01*
Y878332D01*
X151130D01*
X138430D02*
Y875792D01*
X143510D01*
Y878332D01*
X146050D01*
Y883412D01*
X143510D01*
Y885952D01*
X138430D01*
Y883412D01*
X135890D01*
Y878332D01*
X138430D01*
X125730D02*
Y875792D01*
X130810D01*
Y878332D01*
X133350D01*
Y883412D01*
X130810D01*
Y885952D01*
X125730D01*
Y883412D01*
X123190D01*
Y878332D01*
X125730D01*
X113030D02*
Y875792D01*
X118110D01*
Y878332D01*
X120650D01*
Y883412D01*
X118110D01*
Y885952D01*
X113030D01*
Y883412D01*
X110490D01*
Y878332D01*
X113030D01*
X100330D02*
Y875792D01*
X105410D01*
Y878332D01*
X107950D01*
Y883412D01*
X105410D01*
Y885952D01*
X100330D01*
Y883412D01*
X97790D01*
Y878332D01*
X100330D01*
X87630D02*
Y875792D01*
X92710D01*
Y878332D01*
X95250D01*
Y883412D01*
X92710D01*
Y885952D01*
X87630D01*
Y883412D01*
X85090D01*
Y878332D01*
X87630D01*
X74930Y891032D02*
Y888492D01*
X80010D01*
Y891032D01*
X82550D01*
Y896112D01*
X80010D01*
Y898652D01*
X74930D01*
Y896112D01*
X72390D01*
Y891032D01*
X74930D01*
Y878332D02*
Y875792D01*
X80010D01*
Y878332D01*
X82550D01*
Y883412D01*
X80010D01*
Y885952D01*
X74930D01*
Y883412D01*
X72390D01*
Y878332D01*
X74930D01*
Y865632D02*
Y863092D01*
X80010D01*
Y865632D01*
X82550D01*
Y870712D01*
X80010D01*
Y873252D01*
X74930D01*
Y870712D01*
X72390D01*
Y865632D01*
X74930D01*
X62230Y891032D02*
Y888492D01*
X67310D01*
Y891032D01*
X69850D01*
Y896112D01*
X67310D01*
Y898652D01*
X62230D01*
Y896112D01*
X59690D01*
Y891032D01*
X62230D01*
Y878332D02*
Y875792D01*
X67310D01*
Y878332D01*
X69850D01*
Y883412D01*
X67310D01*
Y885952D01*
X62230D01*
Y883412D01*
X59690D01*
Y878332D01*
X62230D01*
X196850Y865632D02*
Y863092D01*
X201930D01*
Y865632D01*
X204470D01*
Y870712D01*
X201930D01*
Y873252D01*
X196850D01*
Y870712D01*
X194310D01*
Y865632D01*
X196850D01*
X184150D02*
Y863092D01*
X189230D01*
Y865632D01*
X191770D01*
Y870712D01*
X189230D01*
Y873252D01*
X184150D01*
Y870712D01*
X181610D01*
Y865632D01*
X184150D01*
Y852932D02*
Y850392D01*
X189230D01*
Y852932D01*
X191770D01*
Y858012D01*
X189230D01*
Y860552D01*
X184150D01*
Y858012D01*
X181610D01*
Y852932D01*
X184150D01*
Y837692D02*
Y835152D01*
X189230D01*
Y837692D01*
X191770D01*
Y842772D01*
X189230D01*
Y845312D01*
X184150D01*
Y842772D01*
X181610D01*
Y837692D01*
X184150D01*
Y799592D02*
Y797052D01*
X189230D01*
Y799592D01*
X191770D01*
Y804672D01*
X189230D01*
Y807212D01*
X184150D01*
Y804672D01*
X181610D01*
Y799592D01*
X184150D01*
Y812292D02*
Y809752D01*
X189230D01*
Y812292D01*
X191770D01*
Y817372D01*
X189230D01*
Y819912D01*
X184150D01*
Y817372D01*
X181610D01*
Y812292D01*
X184150D01*
Y824992D02*
Y822452D01*
X189230D01*
Y824992D01*
X191770D01*
Y830072D01*
X189230D01*
Y832612D01*
X184150D01*
Y830072D01*
X181610D01*
Y824992D01*
X184150D01*
Y786892D02*
Y784352D01*
X189230D01*
Y786892D01*
X191770D01*
Y791972D01*
X189230D01*
Y794512D01*
X184150D01*
Y791972D01*
X181610D01*
Y786892D01*
X184150D01*
X171450Y865632D02*
Y863092D01*
X176530D01*
Y865632D01*
X179070D01*
Y870712D01*
X176530D01*
Y873252D01*
X171450D01*
Y870712D01*
X168910D01*
Y865632D01*
X171450D01*
Y852932D02*
Y850392D01*
X176530D01*
Y852932D01*
X179070D01*
Y858012D01*
X176530D01*
Y860552D01*
X171450D01*
Y858012D01*
X168910D01*
Y852932D01*
X171450D01*
Y837692D02*
Y835152D01*
X176530D01*
Y837692D01*
X179070D01*
Y842772D01*
X176530D01*
Y845312D01*
X171450D01*
Y842772D01*
X168910D01*
Y837692D01*
X171450D01*
Y812292D02*
Y809752D01*
X176530D01*
Y812292D01*
X179070D01*
Y817372D01*
X176530D01*
Y819912D01*
X171450D01*
Y817372D01*
X168910D01*
Y812292D01*
X171450D01*
Y786892D02*
Y784352D01*
X176530D01*
Y786892D01*
X179070D01*
Y791972D01*
X176530D01*
Y794512D01*
X171450D01*
Y791972D01*
X168910D01*
Y786892D01*
X171450D01*
Y799592D02*
Y797052D01*
X176530D01*
Y799592D01*
X179070D01*
Y804672D01*
X176530D01*
Y807212D01*
X171450D01*
Y804672D01*
X168910D01*
Y799592D01*
X171450D01*
X151130Y865632D02*
Y863092D01*
X156210D01*
Y865632D01*
X158750D01*
Y870712D01*
X156210D01*
Y873252D01*
X151130D01*
Y870712D01*
X148590D01*
Y865632D01*
X151130D01*
Y852932D02*
Y850392D01*
X156210D01*
Y852932D01*
X158750D01*
Y858012D01*
X156210D01*
Y860552D01*
X151130D01*
Y858012D01*
X148590D01*
Y852932D01*
X151130D01*
Y837692D02*
Y835152D01*
X156210D01*
Y837692D01*
X158750D01*
Y842772D01*
X156210D01*
Y845312D01*
X151130D01*
Y842772D01*
X148590D01*
Y837692D01*
X151130D01*
Y824992D02*
Y822452D01*
X156210D01*
Y824992D01*
X158750D01*
Y830072D01*
X156210D01*
Y832612D01*
X151130D01*
Y830072D01*
X148590D01*
Y824992D01*
X151130D01*
Y812292D02*
Y809752D01*
X156210D01*
Y812292D01*
X158750D01*
Y817372D01*
X156210D01*
Y819912D01*
X151130D01*
Y817372D01*
X148590D01*
Y812292D01*
X151130D01*
Y786892D02*
Y784352D01*
X156210D01*
Y786892D01*
X158750D01*
Y791972D01*
X156210D01*
Y794512D01*
X151130D01*
Y791972D01*
X148590D01*
Y786892D01*
X151130D01*
Y799592D02*
Y797052D01*
X156210D01*
Y799592D01*
X158750D01*
Y804672D01*
X156210D01*
Y807212D01*
X151130D01*
Y804672D01*
X148590D01*
Y799592D01*
X151130D01*
X139014Y865632D02*
Y863092D01*
X144094D01*
Y865632D01*
X146634D01*
Y870712D01*
X144094D01*
Y873252D01*
X139014D01*
Y870712D01*
X136474D01*
Y865632D01*
X139014D01*
Y852932D02*
Y850392D01*
X144094D01*
Y852932D01*
X146634D01*
Y858012D01*
X144094D01*
Y860552D01*
X139014D01*
Y858012D01*
X136474D01*
Y852932D01*
X139014D01*
Y837692D02*
Y835152D01*
X144094D01*
Y837692D01*
X146634D01*
Y842772D01*
X144094D01*
Y845312D01*
X139014D01*
Y842772D01*
X136474D01*
Y837692D01*
X139014D01*
Y799592D02*
Y797052D01*
X144094D01*
Y799592D01*
X146634D01*
Y804672D01*
X144094D01*
Y807212D01*
X139014D01*
Y804672D01*
X136474D01*
Y799592D01*
X139014D01*
Y812292D02*
Y809752D01*
X144094D01*
Y812292D01*
X146634D01*
Y817372D01*
X144094D01*
Y819912D01*
X139014D01*
Y817372D01*
X136474D01*
Y812292D01*
X139014D01*
Y824992D02*
Y822452D01*
X144094D01*
Y824992D01*
X146634D01*
Y830072D01*
X144094D01*
Y832612D01*
X139014D01*
Y830072D01*
X136474D01*
Y824992D01*
X139014D01*
X125730Y865632D02*
Y863092D01*
X130810D01*
Y865632D01*
X133350D01*
Y870712D01*
X130810D01*
Y873252D01*
X125730D01*
Y870712D01*
X123190D01*
Y865632D01*
X125730D01*
X113030D02*
Y863092D01*
X118110D01*
Y865632D01*
X120650D01*
Y870712D01*
X118110D01*
Y873252D01*
X113030D01*
Y870712D01*
X110490D01*
Y865632D01*
X113030D01*
X100330D02*
Y863092D01*
X105410D01*
Y865632D01*
X107950D01*
Y870712D01*
X105410D01*
Y873252D01*
X100330D01*
Y870712D01*
X97790D01*
Y865632D01*
X100330D01*
X87630D02*
Y863092D01*
X92710D01*
Y865632D01*
X95250D01*
Y870712D01*
X92710D01*
Y873252D01*
X87630D01*
Y870712D01*
X85090D01*
Y865632D01*
X87630D01*
X62230D02*
Y863092D01*
X67310D01*
Y865632D01*
X69850D01*
Y870712D01*
X67310D01*
Y873252D01*
X62230D01*
Y870712D01*
X59690D01*
Y865632D01*
X62230D01*
X896874Y890016D02*
Y887476D01*
X901954D01*
Y890016D01*
X904494D01*
Y895096D01*
X901954D01*
Y897636D01*
X896874D01*
Y895096D01*
X894334D01*
Y890016D01*
X896874D01*
X909574D02*
Y887476D01*
X914654D01*
Y890016D01*
X917194D01*
Y895096D01*
X914654D01*
Y897636D01*
X909574D01*
Y895096D01*
X907034D01*
Y890016D01*
X909574D01*
X884174D02*
Y887476D01*
X889254D01*
Y890016D01*
X891794D01*
Y895096D01*
X889254D01*
Y897636D01*
X884174D01*
Y895096D01*
X881634D01*
Y890016D01*
X884174D01*
X871474D02*
Y887476D01*
X876554D01*
Y890016D01*
X879094D01*
Y895096D01*
X876554D01*
Y897636D01*
X871474D01*
Y895096D01*
X868934D01*
Y890016D01*
X871474D01*
X858774D02*
Y887476D01*
X863854D01*
Y890016D01*
X866394D01*
Y895096D01*
X863854D01*
Y897636D01*
X858774D01*
Y895096D01*
X856234D01*
Y890016D01*
X858774D01*
X846074D02*
Y887476D01*
X851154D01*
Y890016D01*
X853694D01*
Y895096D01*
X851154D01*
Y897636D01*
X846074D01*
Y895096D01*
X843534D01*
Y890016D01*
X846074D01*
X833374D02*
Y887476D01*
X838454D01*
Y890016D01*
X840994D01*
Y895096D01*
X838454D01*
Y897636D01*
X833374D01*
Y895096D01*
X830834D01*
Y890016D01*
X833374D01*
X820674D02*
Y887476D01*
X825754D01*
Y890016D01*
X828294D01*
Y895096D01*
X825754D01*
Y897636D01*
X820674D01*
Y895096D01*
X818134D01*
Y890016D01*
X820674D01*
X807974D02*
Y887476D01*
X813054D01*
Y890016D01*
X815594D01*
Y895096D01*
X813054D01*
Y897636D01*
X807974D01*
Y895096D01*
X805434D01*
Y890016D01*
X807974D01*
X909574Y877316D02*
Y874776D01*
X914654D01*
Y877316D01*
X917194D01*
Y882396D01*
X914654D01*
Y884936D01*
X909574D01*
Y882396D01*
X907034D01*
Y877316D01*
X909574D01*
X896874D02*
Y874776D01*
X901954D01*
Y877316D01*
X904494D01*
Y882396D01*
X901954D01*
Y884936D01*
X896874D01*
Y882396D01*
X894334D01*
Y877316D01*
X896874D01*
X884174D02*
Y874776D01*
X889254D01*
Y877316D01*
X891794D01*
Y882396D01*
X889254D01*
Y884936D01*
X884174D01*
Y882396D01*
X881634D01*
Y877316D01*
X884174D01*
X871474D02*
Y874776D01*
X876554D01*
Y877316D01*
X879094D01*
Y882396D01*
X876554D01*
Y884936D01*
X871474D01*
Y882396D01*
X868934D01*
Y877316D01*
X871474D01*
X858774D02*
Y874776D01*
X863854D01*
Y877316D01*
X866394D01*
Y882396D01*
X863854D01*
Y884936D01*
X858774D01*
Y882396D01*
X856234D01*
Y877316D01*
X858774D01*
X846074D02*
Y874776D01*
X851154D01*
Y877316D01*
X853694D01*
Y882396D01*
X851154D01*
Y884936D01*
X846074D01*
Y882396D01*
X843534D01*
Y877316D01*
X846074D01*
X833374D02*
Y874776D01*
X838454D01*
Y877316D01*
X840994D01*
Y882396D01*
X838454D01*
Y884936D01*
X833374D01*
Y882396D01*
X830834D01*
Y877316D01*
X833374D01*
X820674D02*
Y874776D01*
X825754D01*
Y877316D01*
X828294D01*
Y882396D01*
X825754D01*
Y884936D01*
X820674D01*
Y882396D01*
X818134D01*
Y877316D01*
X820674D01*
X795274Y890016D02*
Y887476D01*
X800354D01*
Y890016D01*
X802894D01*
Y895096D01*
X800354D01*
Y897636D01*
X795274D01*
Y895096D01*
X792734D01*
Y890016D01*
X795274D01*
X782574D02*
Y887476D01*
X787654D01*
Y890016D01*
X790194D01*
Y895096D01*
X787654D01*
Y897636D01*
X782574D01*
Y895096D01*
X780034D01*
Y890016D01*
X782574D01*
X769874D02*
Y887476D01*
X774954D01*
Y890016D01*
X777494D01*
Y895096D01*
X774954D01*
Y897636D01*
X769874D01*
Y895096D01*
X767334D01*
Y890016D01*
X769874D01*
X673354D02*
Y887476D01*
X678434D01*
Y890016D01*
X680974D01*
Y895096D01*
X678434D01*
Y897636D01*
X673354D01*
Y895096D01*
X670814D01*
Y890016D01*
X673354D01*
X757174D02*
Y887476D01*
X762254D01*
Y890016D01*
X764794D01*
Y895096D01*
X762254D01*
Y897636D01*
X757174D01*
Y895096D01*
X754634D01*
Y890016D01*
X757174D01*
X660654D02*
Y887476D01*
X665734D01*
Y890016D01*
X668274D01*
Y895096D01*
X665734D01*
Y897636D01*
X660654D01*
Y895096D01*
X658114D01*
Y890016D01*
X660654D01*
X647954D02*
Y887476D01*
X653034D01*
Y890016D01*
X655574D01*
Y895096D01*
X653034D01*
Y897636D01*
X647954D01*
Y895096D01*
X645414D01*
Y890016D01*
X647954D01*
X744474D02*
Y887476D01*
X749554D01*
Y890016D01*
X752094D01*
Y895096D01*
X749554D01*
Y897636D01*
X744474D01*
Y895096D01*
X741934D01*
Y890016D01*
X744474D01*
X719074D02*
Y887476D01*
X724154D01*
Y890016D01*
X726694D01*
Y895096D01*
X724154D01*
Y897636D01*
X719074D01*
Y895096D01*
X716534D01*
Y890016D01*
X719074D01*
X706374D02*
Y887476D01*
X711454D01*
Y890016D01*
X713994D01*
Y895096D01*
X711454D01*
Y897636D01*
X706374D01*
Y895096D01*
X703834D01*
Y890016D01*
X706374D01*
X731774D02*
Y887476D01*
X736854D01*
Y890016D01*
X739394D01*
Y895096D01*
X736854D01*
Y897636D01*
X731774D01*
Y895096D01*
X729234D01*
Y890016D01*
X731774D01*
X693674D02*
Y887476D01*
X698754D01*
Y890016D01*
X701294D01*
Y895096D01*
X698754D01*
Y897636D01*
X693674D01*
Y895096D01*
X691134D01*
Y890016D01*
X693674D01*
X807974Y877316D02*
Y874776D01*
X813054D01*
Y877316D01*
X815594D01*
Y882396D01*
X813054D01*
Y884936D01*
X807974D01*
Y882396D01*
X805434D01*
Y877316D01*
X807974D01*
X795274D02*
Y874776D01*
X800354D01*
Y877316D01*
X802894D01*
Y882396D01*
X800354D01*
Y884936D01*
X795274D01*
Y882396D01*
X792734D01*
Y877316D01*
X795274D01*
X782574D02*
Y874776D01*
X787654D01*
Y877316D01*
X790194D01*
Y882396D01*
X787654D01*
Y884936D01*
X782574D01*
Y882396D01*
X780034D01*
Y877316D01*
X782574D01*
X769874D02*
Y874776D01*
X774954D01*
Y877316D01*
X777494D01*
Y882396D01*
X774954D01*
Y884936D01*
X769874D01*
Y882396D01*
X767334D01*
Y877316D01*
X769874D01*
X647954D02*
Y874776D01*
X653034D01*
Y877316D01*
X655574D01*
Y882396D01*
X653034D01*
Y884936D01*
X647954D01*
Y882396D01*
X645414D01*
Y877316D01*
X647954D01*
X731774D02*
Y874776D01*
X736854D01*
Y877316D01*
X739394D01*
Y882396D01*
X736854D01*
Y884936D01*
X731774D01*
Y882396D01*
X729234D01*
Y877316D01*
X731774D01*
X719074D02*
Y874776D01*
X724154D01*
Y877316D01*
X726694D01*
Y882396D01*
X724154D01*
Y884936D01*
X719074D01*
Y882396D01*
X716534D01*
Y877316D01*
X719074D01*
X673354D02*
Y874776D01*
X678434D01*
Y877316D01*
X680974D01*
Y882396D01*
X678434D01*
Y884936D01*
X673354D01*
Y882396D01*
X670814D01*
Y877316D01*
X673354D01*
X757174D02*
Y874776D01*
X762254D01*
Y877316D01*
X764794D01*
Y882396D01*
X762254D01*
Y884936D01*
X757174D01*
Y882396D01*
X754634D01*
Y877316D01*
X757174D01*
X744474D02*
Y874776D01*
X749554D01*
Y877316D01*
X752094D01*
Y882396D01*
X749554D01*
Y884936D01*
X744474D01*
Y882396D01*
X741934D01*
Y877316D01*
X744474D01*
X706374D02*
Y874776D01*
X711454D01*
Y877316D01*
X713994D01*
Y882396D01*
X711454D01*
Y884936D01*
X706374D01*
Y882396D01*
X703834D01*
Y877316D01*
X706374D01*
X693674D02*
Y874776D01*
X698754D01*
Y877316D01*
X701294D01*
Y882396D01*
X698754D01*
Y884936D01*
X693674D01*
Y882396D01*
X691134D01*
Y877316D01*
X693674D01*
X706374Y865124D02*
Y862584D01*
X711454D01*
Y865124D01*
X713994D01*
Y870204D01*
X711454D01*
Y872744D01*
X706374D01*
Y870204D01*
X703834D01*
Y865124D01*
X706374D01*
X833374Y864616D02*
Y862076D01*
X838454D01*
Y864616D01*
X840994D01*
Y869696D01*
X838454D01*
Y872236D01*
X833374D01*
Y869696D01*
X830834D01*
Y864616D01*
X833374D01*
X846074D02*
Y862076D01*
X851154D01*
Y864616D01*
X853694D01*
Y869696D01*
X851154D01*
Y872236D01*
X846074D01*
Y869696D01*
X843534D01*
Y864616D01*
X846074D01*
X782574D02*
Y862076D01*
X787654D01*
Y864616D01*
X790194D01*
Y869696D01*
X787654D01*
Y872236D01*
X782574D01*
Y869696D01*
X780034D01*
Y864616D01*
X782574D01*
X896874D02*
Y862076D01*
X901954D01*
Y864616D01*
X904494D01*
Y869696D01*
X901954D01*
Y872236D01*
X896874D01*
Y869696D01*
X894334D01*
Y864616D01*
X896874D01*
X795274D02*
Y862076D01*
X800354D01*
Y864616D01*
X802894D01*
Y869696D01*
X800354D01*
Y872236D01*
X795274D01*
Y869696D01*
X792734D01*
Y864616D01*
X795274D01*
X909574D02*
Y862076D01*
X914654D01*
Y864616D01*
X917194D01*
Y869696D01*
X914654D01*
Y872236D01*
X909574D01*
Y869696D01*
X907034D01*
Y864616D01*
X909574D01*
X769874D02*
Y862076D01*
X774954D01*
Y864616D01*
X777494D01*
Y869696D01*
X774954D01*
Y872236D01*
X769874D01*
Y869696D01*
X767334D01*
Y864616D01*
X769874D01*
X820674D02*
Y862076D01*
X825754D01*
Y864616D01*
X828294D01*
Y869696D01*
X825754D01*
Y872236D01*
X820674D01*
Y869696D01*
X818134D01*
Y864616D01*
X820674D01*
X858774D02*
Y862076D01*
X863854D01*
Y864616D01*
X866394D01*
Y869696D01*
X863854D01*
Y872236D01*
X858774D01*
Y869696D01*
X856234D01*
Y864616D01*
X858774D01*
X871474D02*
Y862076D01*
X876554D01*
Y864616D01*
X879094D01*
Y869696D01*
X876554D01*
Y872236D01*
X871474D01*
Y869696D01*
X868934D01*
Y864616D01*
X871474D01*
X807974D02*
Y862076D01*
X813054D01*
Y864616D01*
X815594D01*
Y869696D01*
X813054D01*
Y872236D01*
X807974D01*
Y869696D01*
X805434D01*
Y864616D01*
X807974D01*
X744474D02*
Y862076D01*
X749554D01*
Y864616D01*
X752094D01*
Y869696D01*
X749554D01*
Y872236D01*
X744474D01*
Y869696D01*
X741934D01*
Y864616D01*
X744474D01*
X757174D02*
Y862076D01*
X762254D01*
Y864616D01*
X764794D01*
Y869696D01*
X762254D01*
Y872236D01*
X757174D01*
Y869696D01*
X754634D01*
Y864616D01*
X757174D01*
X884174D02*
Y862076D01*
X889254D01*
Y864616D01*
X891794D01*
Y869696D01*
X889254D01*
Y872236D01*
X884174D01*
Y869696D01*
X881634D01*
Y864616D01*
X884174D01*
X731774D02*
Y862076D01*
X736854D01*
Y864616D01*
X739394D01*
Y869696D01*
X736854D01*
Y872236D01*
X731774D01*
Y869696D01*
X729234D01*
Y864616D01*
X731774D01*
X719074D02*
Y862076D01*
X724154D01*
Y864616D01*
X726694D01*
Y869696D01*
X724154D01*
Y872236D01*
X719074D01*
Y869696D01*
X716534D01*
Y864616D01*
X719074D01*
X693674D02*
Y862076D01*
X698754D01*
Y864616D01*
X701294D01*
Y869696D01*
X698754D01*
Y872236D01*
X693674D01*
Y869696D01*
X691134D01*
Y864616D01*
X693674D01*
X706374Y852932D02*
Y850392D01*
X711454D01*
Y852932D01*
X713994D01*
Y858012D01*
X711454D01*
Y860552D01*
X706374D01*
Y858012D01*
X703834D01*
Y852932D01*
X706374D01*
X693674D02*
Y850392D01*
X698754D01*
Y852932D01*
X701294D01*
Y858012D01*
X698754D01*
Y860552D01*
X693674D01*
Y858012D01*
X691134D01*
Y852932D01*
X693674D01*
X706374Y840232D02*
Y837692D01*
X711454D01*
Y840232D01*
X713994D01*
Y845312D01*
X711454D01*
Y847852D01*
X706374D01*
Y845312D01*
X703834D01*
Y840232D01*
X706374D01*
Y827532D02*
Y824992D01*
X711454D01*
Y827532D01*
X713994D01*
Y832612D01*
X711454D01*
Y835152D01*
X706374D01*
Y832612D01*
X703834D01*
Y827532D01*
X706374D01*
X693674D02*
Y824992D01*
X698754D01*
Y827532D01*
X701294D01*
Y832612D01*
X698754D01*
Y835152D01*
X693674D01*
Y832612D01*
X691134D01*
Y827532D01*
X693674D01*
X706374Y814832D02*
Y812292D01*
X711454D01*
Y814832D01*
X713994D01*
Y819912D01*
X711454D01*
Y822452D01*
X706374D01*
Y819912D01*
X703834D01*
Y814832D01*
X706374D01*
X693674D02*
Y812292D01*
X698754D01*
Y814832D01*
X701294D01*
Y819912D01*
X698754D01*
Y822452D01*
X693674D01*
Y819912D01*
X691134D01*
Y814832D01*
X693674D01*
X706374Y802132D02*
Y799592D01*
X711454D01*
Y802132D01*
X713994D01*
Y807212D01*
X711454D01*
Y809752D01*
X706374D01*
Y807212D01*
X703834D01*
Y802132D01*
X706374D01*
Y789432D02*
Y786892D01*
X711454D01*
Y789432D01*
X713994D01*
Y794512D01*
X711454D01*
Y797052D01*
X706374D01*
Y794512D01*
X703834D01*
Y789432D01*
X706374D01*
X693674D02*
Y786892D01*
X698754D01*
Y789432D01*
X701294D01*
Y794512D01*
X698754D01*
Y797052D01*
X693674D01*
Y794512D01*
X691134D01*
Y789432D01*
X693674D01*
X673354Y814832D02*
Y812292D01*
X678434D01*
Y814832D01*
X680974D01*
Y819912D01*
X678434D01*
Y822452D01*
X673354D01*
Y819912D01*
X670814D01*
Y814832D01*
X673354D01*
Y840232D02*
Y837692D01*
X678434D01*
Y840232D01*
X680974D01*
Y845312D01*
X678434D01*
Y847852D01*
X673354D01*
Y845312D01*
X670814D01*
Y840232D01*
X673354D01*
Y789432D02*
Y786892D01*
X678434D01*
Y789432D01*
X680974D01*
Y794512D01*
X678434D01*
Y797052D01*
X673354D01*
Y794512D01*
X670814D01*
Y789432D01*
X673354D01*
Y864616D02*
Y862076D01*
X678434D01*
Y864616D01*
X680974D01*
Y869696D01*
X678434D01*
Y872236D01*
X673354D01*
Y869696D01*
X670814D01*
Y864616D01*
X673354D01*
Y802132D02*
Y799592D01*
X678434D01*
Y802132D01*
X680974D01*
Y807212D01*
X678434D01*
Y809752D01*
X673354D01*
Y807212D01*
X670814D01*
Y802132D01*
X673354D01*
Y827532D02*
Y824992D01*
X678434D01*
Y827532D01*
X680974D01*
Y832612D01*
X678434D01*
Y835152D01*
X673354D01*
Y832612D01*
X670814D01*
Y827532D01*
X673354D01*
Y852932D02*
Y850392D01*
X678434D01*
Y852932D01*
X680974D01*
Y858012D01*
X678434D01*
Y860552D01*
X673354D01*
Y858012D01*
X670814D01*
Y852932D01*
X673354D01*
X660654Y877316D02*
Y874776D01*
X665734D01*
Y877316D01*
X668274D01*
Y882396D01*
X665734D01*
Y884936D01*
X660654D01*
Y882396D01*
X658114D01*
Y877316D01*
X660654D01*
Y802132D02*
Y799592D01*
X665734D01*
Y802132D01*
X668274D01*
Y807212D01*
X665734D01*
Y809752D01*
X660654D01*
Y807212D01*
X658114D01*
Y802132D01*
X660654D01*
Y814832D02*
Y812292D01*
X665734D01*
Y814832D01*
X668274D01*
Y819912D01*
X665734D01*
Y822452D01*
X660654D01*
Y819912D01*
X658114D01*
Y814832D01*
X660654D01*
Y864616D02*
Y862076D01*
X665734D01*
Y864616D01*
X668274D01*
Y869696D01*
X665734D01*
Y872236D01*
X660654D01*
Y869696D01*
X658114D01*
Y864616D01*
X660654D01*
Y789432D02*
Y786892D01*
X665734D01*
Y789432D01*
X668274D01*
Y794512D01*
X665734D01*
Y797052D01*
X660654D01*
Y794512D01*
X658114D01*
Y789432D01*
X660654D01*
Y827532D02*
Y824992D01*
X665734D01*
Y827532D01*
X668274D01*
Y832612D01*
X665734D01*
Y835152D01*
X660654D01*
Y832612D01*
X658114D01*
Y827532D01*
X660654D01*
Y852932D02*
Y850392D01*
X665734D01*
Y852932D01*
X668274D01*
Y858012D01*
X665734D01*
Y860552D01*
X660654D01*
Y858012D01*
X658114D01*
Y852932D01*
X660654D01*
Y840232D02*
Y837692D01*
X665734D01*
Y840232D01*
X668274D01*
Y845312D01*
X665734D01*
Y847852D01*
X660654D01*
Y845312D01*
X658114D01*
Y840232D01*
X660654D01*
X647954Y864616D02*
Y862076D01*
X653034D01*
Y864616D01*
X655574D01*
Y869696D01*
X653034D01*
Y872236D01*
X647954D01*
Y869696D01*
X645414D01*
Y864616D01*
X647954D01*
X450850Y865632D02*
Y863092D01*
X455930D01*
Y865632D01*
X458470D01*
Y870712D01*
X455930D01*
Y873252D01*
X450850D01*
Y870712D01*
X448310D01*
Y865632D01*
X450850D01*
X438150D02*
Y863092D01*
X443230D01*
Y865632D01*
X445770D01*
Y870712D01*
X443230D01*
Y873252D01*
X438150D01*
Y870712D01*
X435610D01*
Y865632D01*
X438150D01*
X425450D02*
Y863092D01*
X430530D01*
Y865632D01*
X433070D01*
Y870712D01*
X430530D01*
Y873252D01*
X425450D01*
Y870712D01*
X422910D01*
Y865632D01*
X425450D01*
X412750D02*
Y863092D01*
X417830D01*
Y865632D01*
X420370D01*
Y870712D01*
X417830D01*
Y873252D01*
X412750D01*
Y870712D01*
X410210D01*
Y865632D01*
X412750D01*
X400050D02*
Y863092D01*
X405130D01*
Y865632D01*
X407670D01*
Y870712D01*
X405130D01*
Y873252D01*
X400050D01*
Y870712D01*
X397510D01*
Y865632D01*
X400050D01*
X387350D02*
Y863092D01*
X392430D01*
Y865632D01*
X394970D01*
Y870712D01*
X392430D01*
Y873252D01*
X387350D01*
Y870712D01*
X384810D01*
Y865632D01*
X387350D01*
X374650D02*
Y863092D01*
X379730D01*
Y865632D01*
X382270D01*
Y870712D01*
X379730D01*
Y873252D01*
X374650D01*
Y870712D01*
X372110D01*
Y865632D01*
X374650D01*
X361950D02*
Y863092D01*
X367030D01*
Y865632D01*
X369570D01*
Y870712D01*
X367030D01*
Y873252D01*
X361950D01*
Y870712D01*
X359410D01*
Y865632D01*
X361950D01*
X349250D02*
Y863092D01*
X354330D01*
Y865632D01*
X356870D01*
Y870712D01*
X354330D01*
Y873252D01*
X349250D01*
Y870712D01*
X346710D01*
Y865632D01*
X349250D01*
X336550D02*
Y863092D01*
X341630D01*
Y865632D01*
X344170D01*
Y870712D01*
X341630D01*
Y873252D01*
X336550D01*
Y870712D01*
X334010D01*
Y865632D01*
X336550D01*
X323850D02*
Y863092D01*
X328930D01*
Y865632D01*
X331470D01*
Y870712D01*
X328930D01*
Y873252D01*
X323850D01*
Y870712D01*
X321310D01*
Y865632D01*
X323850D01*
X622554Y877316D02*
Y874776D01*
X627634D01*
Y877316D01*
X630174D01*
Y882396D01*
X627634D01*
Y884936D01*
X622554D01*
Y882396D01*
X620014D01*
Y877316D01*
X622554D01*
X635254D02*
Y874776D01*
X640334D01*
Y877316D01*
X642874D01*
Y882396D01*
X640334D01*
Y884936D01*
X635254D01*
Y882396D01*
X632714D01*
Y877316D01*
X635254D01*
Y864616D02*
Y862076D01*
X640334D01*
Y864616D01*
X642874D01*
Y869696D01*
X640334D01*
Y872236D01*
X635254D01*
Y869696D01*
X632714D01*
Y864616D01*
X635254D01*
X501650Y891032D02*
Y888492D01*
X506730D01*
Y891032D01*
X509270D01*
Y896112D01*
X506730D01*
Y898652D01*
X501650D01*
Y896112D01*
X499110D01*
Y891032D01*
X501650D01*
X400050D02*
Y888492D01*
X405130D01*
Y891032D01*
X407670D01*
Y896112D01*
X405130D01*
Y898652D01*
X400050D01*
Y896112D01*
X397510D01*
Y891032D01*
X400050D01*
X387350D02*
Y888492D01*
X392430D01*
Y891032D01*
X394970D01*
Y896112D01*
X392430D01*
Y898652D01*
X387350D01*
Y896112D01*
X384810D01*
Y891032D01*
X387350D01*
X374650D02*
Y888492D01*
X379730D01*
Y891032D01*
X382270D01*
Y896112D01*
X379730D01*
Y898652D01*
X374650D01*
Y896112D01*
X372110D01*
Y891032D01*
X374650D01*
X285750D02*
Y888492D01*
X290830D01*
Y891032D01*
X293370D01*
Y896112D01*
X290830D01*
Y898652D01*
X285750D01*
Y896112D01*
X283210D01*
Y891032D01*
X285750D01*
X273050D02*
Y888492D01*
X278130D01*
Y891032D01*
X280670D01*
Y896112D01*
X278130D01*
Y898652D01*
X273050D01*
Y896112D01*
X270510D01*
Y891032D01*
X273050D01*
X635254Y890016D02*
Y887476D01*
X640334D01*
Y890016D01*
X642874D01*
Y895096D01*
X640334D01*
Y897636D01*
X635254D01*
Y895096D01*
X632714D01*
Y890016D01*
X635254D01*
X622554D02*
Y887476D01*
X627634D01*
Y890016D01*
X630174D01*
Y895096D01*
X627634D01*
Y897636D01*
X622554D01*
Y895096D01*
X620014D01*
Y890016D01*
X622554D01*
X609854D02*
Y887476D01*
X614934D01*
Y890016D01*
X617474D01*
Y895096D01*
X614934D01*
Y897636D01*
X609854D01*
Y895096D01*
X607314D01*
Y890016D01*
X609854D01*
X597154D02*
Y887476D01*
X602234D01*
Y890016D01*
X604774D01*
Y895096D01*
X602234D01*
Y897636D01*
X597154D01*
Y895096D01*
X594614D01*
Y890016D01*
X597154D01*
X584454D02*
Y887476D01*
X589534D01*
Y890016D01*
X592074D01*
Y895096D01*
X589534D01*
Y897636D01*
X584454D01*
Y895096D01*
X581914D01*
Y890016D01*
X584454D01*
X501650Y878332D02*
Y875792D01*
X506730D01*
Y878332D01*
X509270D01*
Y883412D01*
X506730D01*
Y885952D01*
X501650D01*
Y883412D01*
X499110D01*
Y878332D01*
X501650D01*
X488950Y891032D02*
Y888492D01*
X494030D01*
Y891032D01*
X496570D01*
Y896112D01*
X494030D01*
Y898652D01*
X488950D01*
Y896112D01*
X486410D01*
Y891032D01*
X488950D01*
Y878332D02*
Y875792D01*
X494030D01*
Y878332D01*
X496570D01*
Y883412D01*
X494030D01*
Y885952D01*
X488950D01*
Y883412D01*
X486410D01*
Y878332D01*
X488950D01*
X476250Y891032D02*
Y888492D01*
X481330D01*
Y891032D01*
X483870D01*
Y896112D01*
X481330D01*
Y898652D01*
X476250D01*
Y896112D01*
X473710D01*
Y891032D01*
X476250D01*
Y878332D02*
Y875792D01*
X481330D01*
Y878332D01*
X483870D01*
Y883412D01*
X481330D01*
Y885952D01*
X476250D01*
Y883412D01*
X473710D01*
Y878332D01*
X476250D01*
X463550Y891032D02*
Y888492D01*
X468630D01*
Y891032D01*
X471170D01*
Y896112D01*
X468630D01*
Y898652D01*
X463550D01*
Y896112D01*
X461010D01*
Y891032D01*
X463550D01*
Y878332D02*
Y875792D01*
X468630D01*
Y878332D01*
X471170D01*
Y883412D01*
X468630D01*
Y885952D01*
X463550D01*
Y883412D01*
X461010D01*
Y878332D01*
X463550D01*
X450850Y891032D02*
Y888492D01*
X455930D01*
Y891032D01*
X458470D01*
Y896112D01*
X455930D01*
Y898652D01*
X450850D01*
Y896112D01*
X448310D01*
Y891032D01*
X450850D01*
X438150D02*
Y888492D01*
X443230D01*
Y891032D01*
X445770D01*
Y896112D01*
X443230D01*
Y898652D01*
X438150D01*
Y896112D01*
X435610D01*
Y891032D01*
X438150D01*
Y878332D02*
Y875792D01*
X443230D01*
Y878332D01*
X445770D01*
Y883412D01*
X443230D01*
Y885952D01*
X438150D01*
Y883412D01*
X435610D01*
Y878332D01*
X438150D01*
X425450Y891032D02*
Y888492D01*
X430530D01*
Y891032D01*
X433070D01*
Y896112D01*
X430530D01*
Y898652D01*
X425450D01*
Y896112D01*
X422910D01*
Y891032D01*
X425450D01*
Y878332D02*
Y875792D01*
X430530D01*
Y878332D01*
X433070D01*
Y883412D01*
X430530D01*
Y885952D01*
X425450D01*
Y883412D01*
X422910D01*
Y878332D01*
X425450D01*
X412750Y891032D02*
Y888492D01*
X417830D01*
Y891032D01*
X420370D01*
Y896112D01*
X417830D01*
Y898652D01*
X412750D01*
Y896112D01*
X410210D01*
Y891032D01*
X412750D01*
Y878332D02*
Y875792D01*
X417830D01*
Y878332D01*
X420370D01*
Y883412D01*
X417830D01*
Y885952D01*
X412750D01*
Y883412D01*
X410210D01*
Y878332D01*
X412750D01*
X400050D02*
Y875792D01*
X405130D01*
Y878332D01*
X407670D01*
Y883412D01*
X405130D01*
Y885952D01*
X400050D01*
Y883412D01*
X397510D01*
Y878332D01*
X400050D01*
X387350D02*
Y875792D01*
X392430D01*
Y878332D01*
X394970D01*
Y883412D01*
X392430D01*
Y885952D01*
X387350D01*
Y883412D01*
X384810D01*
Y878332D01*
X387350D01*
X374650D02*
Y875792D01*
X379730D01*
Y878332D01*
X382270D01*
Y883412D01*
X379730D01*
Y885952D01*
X374650D01*
Y883412D01*
X372110D01*
Y878332D01*
X374650D01*
X361950Y891032D02*
Y888492D01*
X367030D01*
Y891032D01*
X369570D01*
Y896112D01*
X367030D01*
Y898652D01*
X361950D01*
Y896112D01*
X359410D01*
Y891032D01*
X361950D01*
Y878332D02*
Y875792D01*
X367030D01*
Y878332D01*
X369570D01*
Y883412D01*
X367030D01*
Y885952D01*
X361950D01*
Y883412D01*
X359410D01*
Y878332D01*
X361950D01*
X349250Y891032D02*
Y888492D01*
X354330D01*
Y891032D01*
X356870D01*
Y896112D01*
X354330D01*
Y898652D01*
X349250D01*
Y896112D01*
X346710D01*
Y891032D01*
X349250D01*
Y878332D02*
Y875792D01*
X354330D01*
Y878332D01*
X356870D01*
Y883412D01*
X354330D01*
Y885952D01*
X349250D01*
Y883412D01*
X346710D01*
Y878332D01*
X349250D01*
X336550Y891032D02*
Y888492D01*
X341630D01*
Y891032D01*
X344170D01*
Y896112D01*
X341630D01*
Y898652D01*
X336550D01*
Y896112D01*
X334010D01*
Y891032D01*
X336550D01*
Y878332D02*
Y875792D01*
X341630D01*
Y878332D01*
X344170D01*
Y883412D01*
X341630D01*
Y885952D01*
X336550D01*
Y883412D01*
X334010D01*
Y878332D01*
X336550D01*
X323850Y891032D02*
Y888492D01*
X328930D01*
Y891032D01*
X331470D01*
Y896112D01*
X328930D01*
Y898652D01*
X323850D01*
Y896112D01*
X321310D01*
Y891032D01*
X323850D01*
Y878332D02*
Y875792D01*
X328930D01*
Y878332D01*
X331470D01*
Y883412D01*
X328930D01*
Y885952D01*
X323850D01*
Y883412D01*
X321310D01*
Y878332D01*
X323850D01*
X311150Y891032D02*
Y888492D01*
X316230D01*
Y891032D01*
X318770D01*
Y896112D01*
X316230D01*
Y898652D01*
X311150D01*
Y896112D01*
X308610D01*
Y891032D01*
X311150D01*
Y878332D02*
Y875792D01*
X316230D01*
Y878332D01*
X318770D01*
Y883412D01*
X316230D01*
Y885952D01*
X311150D01*
Y883412D01*
X308610D01*
Y878332D01*
X311150D01*
X488950Y865632D02*
Y863092D01*
X494030D01*
Y865632D01*
X496570D01*
Y870712D01*
X494030D01*
Y873252D01*
X488950D01*
Y870712D01*
X486410D01*
Y865632D01*
X488950D01*
X476250D02*
Y863092D01*
X481330D01*
Y865632D01*
X483870D01*
Y870712D01*
X481330D01*
Y873252D01*
X476250D01*
Y870712D01*
X473710D01*
Y865632D01*
X476250D01*
X463550D02*
Y863092D01*
X468630D01*
Y865632D01*
X471170D01*
Y870712D01*
X468630D01*
Y873252D01*
X463550D01*
Y870712D01*
X461010D01*
Y865632D01*
X463550D01*
X450850Y878332D02*
Y875792D01*
X455930D01*
Y878332D01*
X458470D01*
Y883412D01*
X455930D01*
Y885952D01*
X450850D01*
Y883412D01*
X448310D01*
Y878332D01*
X450850D01*
X501650Y865632D02*
Y863092D01*
X506730D01*
Y865632D01*
X509270D01*
Y870712D01*
X506730D01*
Y873252D01*
X501650D01*
Y870712D01*
X499110D01*
Y865632D01*
X501650D01*
X622554Y864616D02*
Y862076D01*
X627634D01*
Y864616D01*
X630174D01*
Y869696D01*
X627634D01*
Y872236D01*
X622554D01*
Y869696D01*
X620014D01*
Y864616D01*
X622554D01*
X609854D02*
Y862076D01*
X614934D01*
Y864616D01*
X617474D01*
Y869696D01*
X614934D01*
Y872236D01*
X609854D01*
Y869696D01*
X607314D01*
Y864616D01*
X609854D01*
Y877316D02*
Y874776D01*
X614934D01*
Y877316D01*
X617474D01*
Y882396D01*
X614934D01*
Y884936D01*
X609854D01*
Y882396D01*
X607314D01*
Y877316D01*
X609854D01*
X597154Y864616D02*
Y862076D01*
X602234D01*
Y864616D01*
X604774D01*
Y869696D01*
X602234D01*
Y872236D01*
X597154D01*
Y869696D01*
X594614D01*
Y864616D01*
X597154D01*
Y877316D02*
Y874776D01*
X602234D01*
Y877316D01*
X604774D01*
Y882396D01*
X602234D01*
Y884936D01*
X597154D01*
Y882396D01*
X594614D01*
Y877316D01*
X597154D01*
X584454D02*
Y874776D01*
X589534D01*
Y877316D01*
X592074D01*
Y882396D01*
X589534D01*
Y884936D01*
X584454D01*
Y882396D01*
X581914D01*
Y877316D01*
X584454D01*
Y864616D02*
Y862076D01*
X589534D01*
Y864616D01*
X592074D01*
Y869696D01*
X589534D01*
Y872236D01*
X584454D01*
Y869696D01*
X581914D01*
Y864616D01*
X584454D01*
X723138Y665734D02*
Y663194D01*
X728218D01*
Y665734D01*
X730758D01*
Y670814D01*
X728218D01*
Y673354D01*
X723138D01*
Y670814D01*
X720598D01*
Y665734D01*
X723138D01*
X763063Y664464D02*
Y661924D01*
X768143D01*
Y664464D01*
X770683D01*
Y669544D01*
X768143D01*
Y672084D01*
X763063D01*
Y669544D01*
X760523D01*
Y664464D01*
X763063D01*
X797560Y661162D02*
Y658622D01*
X802640D01*
Y661162D01*
X805180D01*
Y666242D01*
X802640D01*
Y668782D01*
X797560D01*
Y666242D01*
X795020D01*
Y661162D01*
X797560D01*
X660654Y776732D02*
Y774192D01*
X665734D01*
Y776732D01*
X668274D01*
Y781812D01*
X665734D01*
Y784352D01*
X660654D01*
Y781812D01*
X658114D01*
Y776732D01*
X660654D01*
X682498Y658876D02*
Y656336D01*
X687578D01*
Y658876D01*
X690118D01*
Y663956D01*
X687578D01*
Y666496D01*
X682498D01*
Y663956D01*
X679958D01*
Y658876D01*
X682498D01*
X768096Y657606D02*
Y655066D01*
X773176D01*
Y657606D01*
X775716D01*
Y662686D01*
X773176D01*
Y665226D01*
X768096D01*
Y662686D01*
X765556D01*
Y657606D01*
X768096D01*
X817118Y636778D02*
Y634238D01*
X822198D01*
Y636778D01*
X824738D01*
Y641858D01*
X822198D01*
Y644398D01*
X817118D01*
Y641858D01*
X814578D01*
Y636778D01*
X817118D01*
X693928Y635000D02*
Y632460D01*
X699008D01*
Y635000D01*
X701548D01*
Y640080D01*
X699008D01*
Y642620D01*
X693928D01*
Y640080D01*
X691388D01*
Y635000D01*
X693928D01*
X761746Y634238D02*
Y631698D01*
X766826D01*
Y634238D01*
X769366D01*
Y639318D01*
X766826D01*
Y641858D01*
X761746D01*
Y639318D01*
X759206D01*
Y634238D01*
X761746D01*
X766318Y626364D02*
Y623824D01*
X771398D01*
Y626364D01*
X773938D01*
Y631444D01*
X771398D01*
Y633984D01*
X766318D01*
Y631444D01*
X763778D01*
Y626364D01*
X766318D01*
X754888Y557276D02*
Y554736D01*
X759968D01*
Y557276D01*
X762508D01*
Y562356D01*
X759968D01*
Y564896D01*
X754888D01*
Y562356D01*
X752348D01*
Y557276D01*
X754888D01*
X631952Y760222D02*
Y757682D01*
X637032D01*
Y760222D01*
X639572D01*
Y765302D01*
X637032D01*
Y767842D01*
X631952D01*
Y765302D01*
X629412D01*
Y760222D01*
X631952D01*
X673354Y776732D02*
Y774192D01*
X678434D01*
Y776732D01*
X680974D01*
Y781812D01*
X678434D01*
Y784352D01*
X673354D01*
Y781812D01*
X670814D01*
Y776732D01*
X673354D01*
X613664Y709422D02*
Y706882D01*
X618744D01*
Y709422D01*
X621284D01*
Y714502D01*
X618744D01*
Y717042D01*
X613664D01*
Y714502D01*
X611124D01*
Y709422D01*
X613664D01*
X669036Y678180D02*
Y675640D01*
X674116D01*
Y678180D01*
X676656D01*
Y683260D01*
X674116D01*
Y685800D01*
X669036D01*
Y683260D01*
X666496D01*
Y678180D01*
X669036D01*
X627380Y672592D02*
Y670052D01*
X632460D01*
Y672592D01*
X635000D01*
Y677672D01*
X632460D01*
Y680212D01*
X627380D01*
Y677672D01*
X624840D01*
Y672592D01*
X627380D01*
X693674Y776732D02*
Y774192D01*
X698754D01*
Y776732D01*
X701294D01*
Y781812D01*
X698754D01*
Y784352D01*
X693674D01*
Y781812D01*
X691134D01*
Y776732D01*
X693674D01*
X767080Y768858D02*
Y766318D01*
X772160D01*
Y768858D01*
X774700D01*
Y773938D01*
X772160D01*
Y776478D01*
X767080D01*
Y773938D01*
X764540D01*
Y768858D01*
X767080D01*
X739394Y762254D02*
Y759714D01*
X744474D01*
Y762254D01*
X747014D01*
Y767334D01*
X744474D01*
Y769874D01*
X739394D01*
Y767334D01*
X736854D01*
Y762254D01*
X739394D01*
X811784Y759968D02*
Y757428D01*
X816864D01*
Y759968D01*
X819404D01*
Y765048D01*
X816864D01*
Y767588D01*
X811784D01*
Y765048D01*
X809244D01*
Y759968D01*
X811784D01*
X706374Y776732D02*
Y774192D01*
X711454D01*
Y776732D01*
X713994D01*
Y781812D01*
X711454D01*
Y784352D01*
X706374D01*
Y781812D01*
X703834D01*
Y776732D01*
X706374D01*
X806196Y737108D02*
Y734568D01*
X811276D01*
Y737108D01*
X813816D01*
Y742188D01*
X811276D01*
Y744728D01*
X806196D01*
Y742188D01*
X803656D01*
Y737108D01*
X806196D01*
X819912Y706120D02*
Y703580D01*
X824992D01*
Y706120D01*
X827532D01*
Y711200D01*
X824992D01*
Y713740D01*
X819912D01*
Y711200D01*
X817372D01*
Y706120D01*
X819912D01*
X722884Y679196D02*
Y676656D01*
X727964D01*
Y679196D01*
X730504D01*
Y684276D01*
X727964D01*
Y686816D01*
X722884D01*
Y684276D01*
X720344D01*
Y679196D01*
X722884D01*
X46736Y592836D02*
Y590296D01*
X51816D01*
Y592836D01*
X54356D01*
Y597916D01*
X51816D01*
Y600456D01*
X46736D01*
Y597916D01*
X44196D01*
Y592836D01*
X46736D01*
X46990Y612902D02*
Y610362D01*
X52070D01*
Y612902D01*
X54610D01*
Y617982D01*
X52070D01*
Y620522D01*
X46990D01*
Y617982D01*
X44450D01*
Y612902D01*
X46990D01*
X46228Y549910D02*
Y547370D01*
X51308D01*
Y549910D01*
X53848D01*
Y554990D01*
X51308D01*
Y557530D01*
X46228D01*
Y554990D01*
X43688D01*
Y549910D01*
X46228D01*
Y568960D02*
Y566420D01*
X51308D01*
Y568960D01*
X53848D01*
Y574040D01*
X51308D01*
Y576580D01*
X46228D01*
Y574040D01*
X43688D01*
Y568960D01*
X46228D01*
X104140Y472186D02*
Y469646D01*
X109220D01*
Y472186D01*
X111760D01*
Y477266D01*
X109220D01*
Y479806D01*
X104140D01*
Y477266D01*
X101600D01*
Y472186D01*
X104140D01*
X191516Y487426D02*
X194056Y492506D01*
X191516Y497586D01*
X196596Y495046D01*
X201676Y497586D01*
X199136Y492506D01*
X201676Y487426D01*
X196596Y489966D01*
X191516Y487426D01*
Y463550D02*
X194056Y468630D01*
X191516Y473710D01*
X196596Y471170D01*
X201676Y473710D01*
X199136Y468630D01*
X201676Y463550D01*
X196596Y466090D01*
X191516Y463550D01*
Y475996D02*
X194056Y481076D01*
X191516Y486156D01*
X196596Y483616D01*
X201676Y486156D01*
X199136Y481076D01*
X201676Y475996D01*
X196596Y478536D01*
X191516Y475996D01*
X104394Y459486D02*
Y456946D01*
X109474D01*
Y459486D01*
X112014D01*
Y464566D01*
X109474D01*
Y467106D01*
X104394D01*
Y464566D01*
X101854D01*
Y459486D01*
X104394D01*
X159004Y424942D02*
X161544Y430022D01*
X159004Y435102D01*
X164084Y432562D01*
X169164Y435102D01*
X166624Y430022D01*
X169164Y424942D01*
X164084Y427482D01*
X159004Y424942D01*
X111506Y479044D02*
Y476504D01*
X116586D01*
Y479044D01*
X119126D01*
Y484124D01*
X116586D01*
Y486664D01*
X111506D01*
Y484124D01*
X108966D01*
Y479044D01*
X111506D01*
X150368Y506476D02*
Y503936D01*
X155448D01*
Y506476D01*
X157988D01*
Y511556D01*
X155448D01*
Y514096D01*
X150368D01*
Y511556D01*
X147828D01*
Y506476D01*
X150368D01*
X150114Y404114D02*
Y401574D01*
X155194D01*
Y404114D01*
X157734D01*
Y409194D01*
X155194D01*
Y411734D01*
X150114D01*
Y409194D01*
X147574D01*
Y404114D01*
X150114D01*
X361442Y537210D02*
Y534670D01*
X366522D01*
Y537210D01*
X369062D01*
Y542290D01*
X366522D01*
Y544830D01*
X361442D01*
Y542290D01*
X358902D01*
Y537210D01*
X361442D01*
X755396Y645160D02*
Y642620D01*
X760476D01*
Y645160D01*
X763016D01*
Y650240D01*
X760476D01*
Y652780D01*
X755396D01*
Y650240D01*
X752856D01*
Y645160D01*
X755396D01*
X100330Y1004570D02*
Y1002030D01*
X105410D01*
Y1004570D01*
X107950D01*
Y1009650D01*
X105410D01*
Y1012190D01*
X100330D01*
Y1009650D01*
X97790D01*
Y1004570D01*
X100330D01*
X87630D02*
Y1002030D01*
X92710D01*
Y1004570D01*
X95250D01*
Y1009650D01*
X92710D01*
Y1012190D01*
X87630D01*
Y1009650D01*
X85090D01*
Y1004570D01*
X87630D01*
X74930D02*
Y1002030D01*
X80010D01*
Y1004570D01*
X82550D01*
Y1009650D01*
X80010D01*
Y1012190D01*
X74930D01*
Y1009650D01*
X72390D01*
Y1004570D01*
X74930D01*
X62230D02*
Y1002030D01*
X67310D01*
Y1004570D01*
X69850D01*
Y1009650D01*
X67310D01*
Y1012190D01*
X62230D01*
Y1009650D01*
X59690D01*
Y1004570D01*
X62230D01*
X311150Y903732D02*
Y901192D01*
X316230D01*
Y903732D01*
X318770D01*
Y908812D01*
X316230D01*
Y911352D01*
X311150D01*
Y908812D01*
X308610D01*
Y903732D01*
X311150D01*
X323850D02*
Y901192D01*
X328930D01*
Y903732D01*
X331470D01*
Y908812D01*
X328930D01*
Y911352D01*
X323850D01*
Y908812D01*
X321310D01*
Y903732D01*
X323850D01*
X336550D02*
Y901192D01*
X341630D01*
Y903732D01*
X344170D01*
Y908812D01*
X341630D01*
Y911352D01*
X336550D01*
Y908812D01*
X334010D01*
Y903732D01*
X336550D01*
X349250D02*
Y901192D01*
X354330D01*
Y903732D01*
X356870D01*
Y908812D01*
X354330D01*
Y911352D01*
X349250D01*
Y908812D01*
X346710D01*
Y903732D01*
X349250D01*
X361950D02*
Y901192D01*
X367030D01*
Y903732D01*
X369570D01*
Y908812D01*
X367030D01*
Y911352D01*
X361950D01*
Y908812D01*
X359410D01*
Y903732D01*
X361950D01*
X374650D02*
Y901192D01*
X379730D01*
Y903732D01*
X382270D01*
Y908812D01*
X379730D01*
Y911352D01*
X374650D01*
Y908812D01*
X372110D01*
Y903732D01*
X374650D01*
X387350D02*
Y901192D01*
X392430D01*
Y903732D01*
X394970D01*
Y908812D01*
X392430D01*
Y911352D01*
X387350D01*
Y908812D01*
X384810D01*
Y903732D01*
X387350D01*
X400050D02*
Y901192D01*
X405130D01*
Y903732D01*
X407670D01*
Y908812D01*
X405130D01*
Y911352D01*
X400050D01*
Y908812D01*
X397510D01*
Y903732D01*
X400050D01*
X412750D02*
Y901192D01*
X417830D01*
Y903732D01*
X420370D01*
Y908812D01*
X417830D01*
Y911352D01*
X412750D01*
Y908812D01*
X410210D01*
Y903732D01*
X412750D01*
X425450D02*
Y901192D01*
X430530D01*
Y903732D01*
X433070D01*
Y908812D01*
X430530D01*
Y911352D01*
X425450D01*
Y908812D01*
X422910D01*
Y903732D01*
X425450D01*
X438150D02*
Y901192D01*
X443230D01*
Y903732D01*
X445770D01*
Y908812D01*
X443230D01*
Y911352D01*
X438150D01*
Y908812D01*
X435610D01*
Y903732D01*
X438150D01*
X450850D02*
Y901192D01*
X455930D01*
Y903732D01*
X458470D01*
Y908812D01*
X455930D01*
Y911352D01*
X450850D01*
Y908812D01*
X448310D01*
Y903732D01*
X450850D01*
X463550D02*
Y901192D01*
X468630D01*
Y903732D01*
X471170D01*
Y908812D01*
X468630D01*
Y911352D01*
X463550D01*
Y908812D01*
X461010D01*
Y903732D01*
X463550D01*
X476250D02*
Y901192D01*
X481330D01*
Y903732D01*
X483870D01*
Y908812D01*
X481330D01*
Y911352D01*
X476250D01*
Y908812D01*
X473710D01*
Y903732D01*
X476250D01*
X488950D02*
Y901192D01*
X494030D01*
Y903732D01*
X496570D01*
Y908812D01*
X494030D01*
Y911352D01*
X488950D01*
Y908812D01*
X486410D01*
Y903732D01*
X488950D01*
X501650D02*
Y901192D01*
X506730D01*
Y903732D01*
X509270D01*
Y908812D01*
X506730D01*
Y911352D01*
X501650D01*
Y908812D01*
X499110D01*
Y903732D01*
X501650D01*
X62230Y903986D02*
Y901446D01*
X67310D01*
Y903986D01*
X69850D01*
Y909066D01*
X67310D01*
Y911606D01*
X62230D01*
Y909066D01*
X59690D01*
Y903986D01*
X62230D01*
Y916686D02*
Y914146D01*
X67310D01*
Y916686D01*
X69850D01*
Y921766D01*
X67310D01*
Y924306D01*
X62230D01*
Y921766D01*
X59690D01*
Y916686D01*
X62230D01*
Y929386D02*
Y926846D01*
X67310D01*
Y929386D01*
X69850D01*
Y934466D01*
X67310D01*
Y937006D01*
X62230D01*
Y934466D01*
X59690D01*
Y929386D01*
X62230D01*
Y967486D02*
Y964946D01*
X67310D01*
Y967486D01*
X69850D01*
Y972566D01*
X67310D01*
Y975106D01*
X62230D01*
Y972566D01*
X59690D01*
Y967486D01*
X62230D01*
Y992886D02*
Y990346D01*
X67310D01*
Y992886D01*
X69850D01*
Y997966D01*
X67310D01*
Y1000506D01*
X62230D01*
Y997966D01*
X59690D01*
Y992886D01*
X62230D01*
Y980186D02*
Y977646D01*
X67310D01*
Y980186D01*
X69850D01*
Y985266D01*
X67310D01*
Y987806D01*
X62230D01*
Y985266D01*
X59690D01*
Y980186D01*
X62230D01*
Y954786D02*
Y952246D01*
X67310D01*
Y954786D01*
X69850D01*
Y959866D01*
X67310D01*
Y962406D01*
X62230D01*
Y959866D01*
X59690D01*
Y954786D01*
X62230D01*
Y942086D02*
Y939546D01*
X67310D01*
Y942086D01*
X69850D01*
Y947166D01*
X67310D01*
Y949706D01*
X62230D01*
Y947166D01*
X59690D01*
Y942086D01*
X62230D01*
X74930Y916686D02*
Y914146D01*
X80010D01*
Y916686D01*
X82550D01*
Y921766D01*
X80010D01*
Y924306D01*
X74930D01*
Y921766D01*
X72390D01*
Y916686D01*
X74930D01*
Y929386D02*
Y926846D01*
X80010D01*
Y929386D01*
X82550D01*
Y934466D01*
X80010D01*
Y937006D01*
X74930D01*
Y934466D01*
X72390D01*
Y929386D01*
X74930D01*
Y992886D02*
Y990346D01*
X80010D01*
Y992886D01*
X82550D01*
Y997966D01*
X80010D01*
Y1000506D01*
X74930D01*
Y997966D01*
X72390D01*
Y992886D01*
X74930D01*
Y980186D02*
Y977646D01*
X80010D01*
Y980186D01*
X82550D01*
Y985266D01*
X80010D01*
Y987806D01*
X74930D01*
Y985266D01*
X72390D01*
Y980186D01*
X74930D01*
Y967486D02*
Y964946D01*
X80010D01*
Y967486D01*
X82550D01*
Y972566D01*
X80010D01*
Y975106D01*
X74930D01*
Y972566D01*
X72390D01*
Y967486D01*
X74930D01*
Y954786D02*
Y952246D01*
X80010D01*
Y954786D01*
X82550D01*
Y959866D01*
X80010D01*
Y962406D01*
X74930D01*
Y959866D01*
X72390D01*
Y954786D01*
X74930D01*
Y942086D02*
Y939546D01*
X80010D01*
Y942086D01*
X82550D01*
Y947166D01*
X80010D01*
Y949706D01*
X74930D01*
Y947166D01*
X72390D01*
Y942086D01*
X74930D01*
X87630Y903986D02*
Y901446D01*
X92710D01*
Y903986D01*
X95250D01*
Y909066D01*
X92710D01*
Y911606D01*
X87630D01*
Y909066D01*
X85090D01*
Y903986D01*
X87630D01*
X74930D02*
Y901446D01*
X80010D01*
Y903986D01*
X82550D01*
Y909066D01*
X80010D01*
Y911606D01*
X74930D01*
Y909066D01*
X72390D01*
Y903986D01*
X74930D01*
X100330D02*
Y901446D01*
X105410D01*
Y903986D01*
X107950D01*
Y909066D01*
X105410D01*
Y911606D01*
X100330D01*
Y909066D01*
X97790D01*
Y903986D01*
X100330D01*
X113030D02*
Y901446D01*
X118110D01*
Y903986D01*
X120650D01*
Y909066D01*
X118110D01*
Y911606D01*
X113030D01*
Y909066D01*
X110490D01*
Y903986D01*
X113030D01*
X119888D02*
Y901446D01*
X124968D01*
Y903986D01*
X127508D01*
Y909066D01*
X124968D01*
Y911606D01*
X119888D01*
Y909066D01*
X117348D01*
Y903986D01*
X119888D01*
X127508D02*
Y901446D01*
X132588D01*
Y903986D01*
X135128D01*
Y909066D01*
X132588D01*
Y911606D01*
X127508D01*
Y909066D01*
X124968D01*
Y903986D01*
X127508D01*
X171450Y903732D02*
Y901192D01*
X176530D01*
Y903732D01*
X179070D01*
Y908812D01*
X176530D01*
Y911352D01*
X171450D01*
Y908812D01*
X168910D01*
Y903732D01*
X171450D01*
X184150D02*
Y901192D01*
X189230D01*
Y903732D01*
X191770D01*
Y908812D01*
X189230D01*
Y911352D01*
X184150D01*
Y908812D01*
X181610D01*
Y903732D01*
X184150D01*
X196850D02*
Y901192D01*
X201930D01*
Y903732D01*
X204470D01*
Y908812D01*
X201930D01*
Y911352D01*
X196850D01*
Y908812D01*
X194310D01*
Y903732D01*
X196850D01*
X209550D02*
Y901192D01*
X214630D01*
Y903732D01*
X217170D01*
Y908812D01*
X214630D01*
Y911352D01*
X209550D01*
Y908812D01*
X207010D01*
Y903732D01*
X209550D01*
X222250D02*
Y901192D01*
X227330D01*
Y903732D01*
X229870D01*
Y908812D01*
X227330D01*
Y911352D01*
X222250D01*
Y908812D01*
X219710D01*
Y903732D01*
X222250D01*
X234950D02*
Y901192D01*
X240030D01*
Y903732D01*
X242570D01*
Y908812D01*
X240030D01*
Y911352D01*
X234950D01*
Y908812D01*
X232410D01*
Y903732D01*
X234950D01*
X247650D02*
Y901192D01*
X252730D01*
Y903732D01*
X255270D01*
Y908812D01*
X252730D01*
Y911352D01*
X247650D01*
Y908812D01*
X245110D01*
Y903732D01*
X247650D01*
X260350D02*
Y901192D01*
X265430D01*
Y903732D01*
X267970D01*
Y908812D01*
X265430D01*
Y911352D01*
X260350D01*
Y908812D01*
X257810D01*
Y903732D01*
X260350D01*
X273050D02*
Y901192D01*
X278130D01*
Y903732D01*
X280670D01*
Y908812D01*
X278130D01*
Y911352D01*
X273050D01*
Y908812D01*
X270510D01*
Y903732D01*
X273050D01*
X285750D02*
Y901192D01*
X290830D01*
Y903732D01*
X293370D01*
Y908812D01*
X290830D01*
Y911352D01*
X285750D01*
Y908812D01*
X283210D01*
Y903732D01*
X285750D01*
X298450D02*
Y901192D01*
X303530D01*
Y903732D01*
X306070D01*
Y908812D01*
X303530D01*
Y911352D01*
X298450D01*
Y908812D01*
X295910D01*
Y903732D01*
X298450D01*
X87630Y916686D02*
Y914146D01*
X92710D01*
Y916686D01*
X95250D01*
Y921766D01*
X92710D01*
Y924306D01*
X87630D01*
Y921766D01*
X85090D01*
Y916686D01*
X87630D01*
Y929386D02*
Y926846D01*
X92710D01*
Y929386D01*
X95250D01*
Y934466D01*
X92710D01*
Y937006D01*
X87630D01*
Y934466D01*
X85090D01*
Y929386D01*
X87630D01*
Y992886D02*
Y990346D01*
X92710D01*
Y992886D01*
X95250D01*
Y997966D01*
X92710D01*
Y1000506D01*
X87630D01*
Y997966D01*
X85090D01*
Y992886D01*
X87630D01*
Y942086D02*
Y939546D01*
X92710D01*
Y942086D01*
X95250D01*
Y947166D01*
X92710D01*
Y949706D01*
X87630D01*
Y947166D01*
X85090D01*
Y942086D01*
X87630D01*
Y967486D02*
Y964946D01*
X92710D01*
Y967486D01*
X95250D01*
Y972566D01*
X92710D01*
Y975106D01*
X87630D01*
Y972566D01*
X85090D01*
Y967486D01*
X87630D01*
Y954786D02*
Y952246D01*
X92710D01*
Y954786D01*
X95250D01*
Y959866D01*
X92710D01*
Y962406D01*
X87630D01*
Y959866D01*
X85090D01*
Y954786D01*
X87630D01*
Y980186D02*
Y977646D01*
X92710D01*
Y980186D01*
X95250D01*
Y985266D01*
X92710D01*
Y987806D01*
X87630D01*
Y985266D01*
X85090D01*
Y980186D01*
X87630D01*
X100330Y916686D02*
Y914146D01*
X105410D01*
Y916686D01*
X107950D01*
Y921766D01*
X105410D01*
Y924306D01*
X100330D01*
Y921766D01*
X97790D01*
Y916686D01*
X100330D01*
Y929386D02*
Y926846D01*
X105410D01*
Y929386D01*
X107950D01*
Y934466D01*
X105410D01*
Y937006D01*
X100330D01*
Y934466D01*
X97790D01*
Y929386D01*
X100330D01*
Y942086D02*
Y939546D01*
X105410D01*
Y942086D01*
X107950D01*
Y947166D01*
X105410D01*
Y949706D01*
X100330D01*
Y947166D01*
X97790D01*
Y942086D01*
X100330D01*
Y954786D02*
Y952246D01*
X105410D01*
Y954786D01*
X107950D01*
Y959866D01*
X105410D01*
Y962406D01*
X100330D01*
Y959866D01*
X97790D01*
Y954786D01*
X100330D01*
Y967486D02*
Y964946D01*
X105410D01*
Y967486D01*
X107950D01*
Y972566D01*
X105410D01*
Y975106D01*
X100330D01*
Y972566D01*
X97790D01*
Y967486D01*
X100330D01*
Y980186D02*
Y977646D01*
X105410D01*
Y980186D01*
X107950D01*
Y985266D01*
X105410D01*
Y987806D01*
X100330D01*
Y985266D01*
X97790D01*
Y980186D01*
X100330D01*
Y992886D02*
Y990346D01*
X105410D01*
Y992886D01*
X107950D01*
Y997966D01*
X105410D01*
Y1000506D01*
X100330D01*
Y997966D01*
X97790D01*
Y992886D01*
X100330D01*
X138430Y903986D02*
Y901446D01*
X143510D01*
Y903986D01*
X146050D01*
Y909066D01*
X143510D01*
Y911606D01*
X138430D01*
Y909066D01*
X135890D01*
Y903986D01*
X138430D01*
X151130D02*
Y901446D01*
X156210D01*
Y903986D01*
X158750D01*
Y909066D01*
X156210D01*
Y911606D01*
X151130D01*
Y909066D01*
X148590D01*
Y903986D01*
X151130D01*
X684196Y704916D02*
X686736Y707456D01*
X689276D01*
X686736Y709996D01*
X689276Y712536D01*
X686736D01*
X684196Y715076D01*
X681656Y712536D01*
X679116D01*
X681656Y709996D01*
X679116Y707456D01*
X681656D01*
X684196Y704916D01*
X690696Y711416D02*
X693236Y713956D01*
X695776D01*
X693236Y716496D01*
X695776Y719036D01*
X693236D01*
X690696Y721576D01*
X688156Y719036D01*
X685616D01*
X688156Y716496D01*
X685616Y713956D01*
X688156D01*
X690696Y711416D01*
X684196Y717916D02*
X686736Y720456D01*
X689276D01*
X686736Y722996D01*
X689276Y725536D01*
X686736D01*
X684196Y728076D01*
X681656Y725536D01*
X679116D01*
X681656Y722996D01*
X679116Y720456D01*
X681656D01*
X684196Y717916D01*
X677696Y711416D02*
X680236Y713956D01*
X682776D01*
X680236Y716496D01*
X682776Y719036D01*
X680236D01*
X677696Y721576D01*
X675156Y719036D01*
X672616D01*
X675156Y716496D01*
X672616Y713956D01*
X675156D01*
X677696Y711416D01*
X693674Y751332D02*
Y748792D01*
X698754D01*
Y751332D01*
X701294D01*
Y756412D01*
X698754D01*
Y758952D01*
X693674D01*
Y756412D01*
X691134D01*
Y751332D01*
X693674D01*
X673354D02*
Y748792D01*
X678434D01*
Y751332D01*
X680974D01*
Y756412D01*
X678434D01*
Y758952D01*
X673354D01*
Y756412D01*
X670814D01*
Y751332D01*
X673354D01*
Y764032D02*
Y761492D01*
X678434D01*
Y764032D01*
X680974D01*
Y769112D01*
X678434D01*
Y771652D01*
X673354D01*
Y769112D01*
X670814D01*
Y764032D01*
X673354D01*
X806958Y613410D02*
Y610870D01*
X812038D01*
Y613410D01*
X814578D01*
Y618490D01*
X812038D01*
Y621030D01*
X806958D01*
Y618490D01*
X804418D01*
Y613410D01*
X806958D01*
X774446Y645160D02*
Y642620D01*
X779526D01*
Y645160D01*
X782066D01*
Y650240D01*
X779526D01*
Y652780D01*
X774446D01*
Y650240D01*
X771906D01*
Y645160D01*
X774446D01*
X597154Y979170D02*
Y976630D01*
X602234D01*
Y979170D01*
X604774D01*
Y984250D01*
X602234D01*
Y986790D01*
X597154D01*
Y984250D01*
X594614D01*
Y979170D01*
X597154D01*
Y991870D02*
Y989330D01*
X602234D01*
Y991870D01*
X604774D01*
Y996950D01*
X602234D01*
Y999490D01*
X597154D01*
Y996950D01*
X594614D01*
Y991870D01*
X597154D01*
X584454D02*
Y989330D01*
X589534D01*
Y991870D01*
X592074D01*
Y996950D01*
X589534D01*
Y999490D01*
X584454D01*
Y996950D01*
X581914D01*
Y991870D01*
X584454D01*
X609854D02*
Y989330D01*
X614934D01*
Y991870D01*
X617474D01*
Y996950D01*
X614934D01*
Y999490D01*
X609854D01*
Y996950D01*
X607314D01*
Y991870D01*
X609854D01*
Y979170D02*
Y976630D01*
X614934D01*
Y979170D01*
X617474D01*
Y984250D01*
X614934D01*
Y986790D01*
X609854D01*
Y984250D01*
X607314D01*
Y979170D01*
X609854D01*
X622554Y991870D02*
Y989330D01*
X627634D01*
Y991870D01*
X630174D01*
Y996950D01*
X627634D01*
Y999490D01*
X622554D01*
Y996950D01*
X620014D01*
Y991870D01*
X622554D01*
Y979170D02*
Y976630D01*
X627634D01*
Y979170D01*
X630174D01*
Y984250D01*
X627634D01*
Y986790D01*
X622554D01*
Y984250D01*
X620014D01*
Y979170D01*
X622554D01*
X584454D02*
Y976630D01*
X589534D01*
Y979170D01*
X592074D01*
Y984250D01*
X589534D01*
Y986790D01*
X584454D01*
Y984250D01*
X581914D01*
Y979170D01*
X584454D01*
X635254Y902970D02*
Y900430D01*
X640334D01*
Y902970D01*
X642874D01*
Y908050D01*
X640334D01*
Y910590D01*
X635254D01*
Y908050D01*
X632714D01*
Y902970D01*
X635254D01*
X584454D02*
Y900430D01*
X589534D01*
Y902970D01*
X592074D01*
Y908050D01*
X589534D01*
Y910590D01*
X584454D01*
Y908050D01*
X581914D01*
Y902970D01*
X584454D01*
Y915670D02*
Y913130D01*
X589534D01*
Y915670D01*
X592074D01*
Y920750D01*
X589534D01*
Y923290D01*
X584454D01*
Y920750D01*
X581914D01*
Y915670D01*
X584454D01*
X597154Y902970D02*
Y900430D01*
X602234D01*
Y902970D01*
X604774D01*
Y908050D01*
X602234D01*
Y910590D01*
X597154D01*
Y908050D01*
X594614D01*
Y902970D01*
X597154D01*
X609854D02*
Y900430D01*
X614934D01*
Y902970D01*
X617474D01*
Y908050D01*
X614934D01*
Y910590D01*
X609854D01*
Y908050D01*
X607314D01*
Y902970D01*
X609854D01*
X622554D02*
Y900430D01*
X627634D01*
Y902970D01*
X630174D01*
Y908050D01*
X627634D01*
Y910590D01*
X622554D01*
Y908050D01*
X620014D01*
Y902970D01*
X622554D01*
X642112D02*
Y900430D01*
X647192D01*
Y902970D01*
X649732D01*
Y908050D01*
X647192D01*
Y910590D01*
X642112D01*
Y908050D01*
X639572D01*
Y902970D01*
X642112D01*
X584454Y966470D02*
Y963930D01*
X589534D01*
Y966470D01*
X592074D01*
Y971550D01*
X589534D01*
Y974090D01*
X584454D01*
Y971550D01*
X581914D01*
Y966470D01*
X584454D01*
Y928370D02*
Y925830D01*
X589534D01*
Y928370D01*
X592074D01*
Y933450D01*
X589534D01*
Y935990D01*
X584454D01*
Y933450D01*
X581914D01*
Y928370D01*
X584454D01*
Y941070D02*
Y938530D01*
X589534D01*
Y941070D01*
X592074D01*
Y946150D01*
X589534D01*
Y948690D01*
X584454D01*
Y946150D01*
X581914D01*
Y941070D01*
X584454D01*
Y953770D02*
Y951230D01*
X589534D01*
Y953770D01*
X592074D01*
Y958850D01*
X589534D01*
Y961390D01*
X584454D01*
Y958850D01*
X581914D01*
Y953770D01*
X584454D01*
X597154Y966470D02*
Y963930D01*
X602234D01*
Y966470D01*
X604774D01*
Y971550D01*
X602234D01*
Y974090D01*
X597154D01*
Y971550D01*
X594614D01*
Y966470D01*
X597154D01*
X609854Y915670D02*
Y913130D01*
X614934D01*
Y915670D01*
X617474D01*
Y920750D01*
X614934D01*
Y923290D01*
X609854D01*
Y920750D01*
X607314D01*
Y915670D01*
X609854D01*
Y928370D02*
Y925830D01*
X614934D01*
Y928370D01*
X617474D01*
Y933450D01*
X614934D01*
Y935990D01*
X609854D01*
Y933450D01*
X607314D01*
Y928370D01*
X609854D01*
Y941070D02*
Y938530D01*
X614934D01*
Y941070D01*
X617474D01*
Y946150D01*
X614934D01*
Y948690D01*
X609854D01*
Y946150D01*
X607314D01*
Y941070D01*
X609854D01*
Y953770D02*
Y951230D01*
X614934D01*
Y953770D01*
X617474D01*
Y958850D01*
X614934D01*
Y961390D01*
X609854D01*
Y958850D01*
X607314D01*
Y953770D01*
X609854D01*
Y966470D02*
Y963930D01*
X614934D01*
Y966470D01*
X617474D01*
Y971550D01*
X614934D01*
Y974090D01*
X609854D01*
Y971550D01*
X607314D01*
Y966470D01*
X609854D01*
X622554Y928370D02*
Y925830D01*
X627634D01*
Y928370D01*
X630174D01*
Y933450D01*
X627634D01*
Y935990D01*
X622554D01*
Y933450D01*
X620014D01*
Y928370D01*
X622554D01*
Y941070D02*
Y938530D01*
X627634D01*
Y941070D01*
X630174D01*
Y946150D01*
X627634D01*
Y948690D01*
X622554D01*
Y946150D01*
X620014D01*
Y941070D01*
X622554D01*
Y966470D02*
Y963930D01*
X627634D01*
Y966470D01*
X630174D01*
Y971550D01*
X627634D01*
Y974090D01*
X622554D01*
Y971550D01*
X620014D01*
Y966470D01*
X622554D01*
Y915670D02*
Y913130D01*
X627634D01*
Y915670D01*
X630174D01*
Y920750D01*
X627634D01*
Y923290D01*
X622554D01*
Y920750D01*
X620014D01*
Y915670D01*
X622554D01*
X597154D02*
Y913130D01*
X602234D01*
Y915670D01*
X604774D01*
Y920750D01*
X602234D01*
Y923290D01*
X597154D01*
Y920750D01*
X594614D01*
Y915670D01*
X597154D01*
Y928370D02*
Y925830D01*
X602234D01*
Y928370D01*
X604774D01*
Y933450D01*
X602234D01*
Y935990D01*
X597154D01*
Y933450D01*
X594614D01*
Y928370D01*
X597154D01*
Y941070D02*
Y938530D01*
X602234D01*
Y941070D01*
X604774D01*
Y946150D01*
X602234D01*
Y948690D01*
X597154D01*
Y946150D01*
X594614D01*
Y941070D01*
X597154D01*
Y953770D02*
Y951230D01*
X602234D01*
Y953770D01*
X604774D01*
Y958850D01*
X602234D01*
Y961390D01*
X597154D01*
Y958850D01*
X594614D01*
Y953770D01*
X597154D01*
X622554D02*
Y951230D01*
X627634D01*
Y953770D01*
X630174D01*
Y958850D01*
X627634D01*
Y961390D01*
X622554D01*
Y958850D01*
X620014D01*
Y953770D01*
X622554D01*
X795274Y902716D02*
Y900176D01*
X800354D01*
Y902716D01*
X802894D01*
Y907796D01*
X800354D01*
Y910336D01*
X795274D01*
Y907796D01*
X792734D01*
Y902716D01*
X795274D01*
X807974D02*
Y900176D01*
X813054D01*
Y902716D01*
X815594D01*
Y907796D01*
X813054D01*
Y910336D01*
X807974D01*
Y907796D01*
X805434D01*
Y902716D01*
X807974D01*
X820674D02*
Y900176D01*
X825754D01*
Y902716D01*
X828294D01*
Y907796D01*
X825754D01*
Y910336D01*
X820674D01*
Y907796D01*
X818134D01*
Y902716D01*
X820674D01*
X833374D02*
Y900176D01*
X838454D01*
Y902716D01*
X840994D01*
Y907796D01*
X838454D01*
Y910336D01*
X833374D01*
Y907796D01*
X830834D01*
Y902716D01*
X833374D01*
X846074D02*
Y900176D01*
X851154D01*
Y902716D01*
X853694D01*
Y907796D01*
X851154D01*
Y910336D01*
X846074D01*
Y907796D01*
X843534D01*
Y902716D01*
X846074D01*
X858774D02*
Y900176D01*
X863854D01*
Y902716D01*
X866394D01*
Y907796D01*
X863854D01*
Y910336D01*
X858774D01*
Y907796D01*
X856234D01*
Y902716D01*
X858774D01*
X896874D02*
Y900176D01*
X901954D01*
Y902716D01*
X904494D01*
Y907796D01*
X901954D01*
Y910336D01*
X896874D01*
Y907796D01*
X894334D01*
Y902716D01*
X896874D01*
X871474D02*
Y900176D01*
X876554D01*
Y902716D01*
X879094D01*
Y907796D01*
X876554D01*
Y910336D01*
X871474D01*
Y907796D01*
X868934D01*
Y902716D01*
X871474D01*
X884174D02*
Y900176D01*
X889254D01*
Y902716D01*
X891794D01*
Y907796D01*
X889254D01*
Y910336D01*
X884174D01*
Y907796D01*
X881634D01*
Y902716D01*
X884174D01*
X909574D02*
Y900176D01*
X914654D01*
Y902716D01*
X917194D01*
Y907796D01*
X914654D01*
Y910336D01*
X909574D01*
Y907796D01*
X907034D01*
Y902716D01*
X909574D01*
X706374D02*
Y900176D01*
X711454D01*
Y902716D01*
X713994D01*
Y907796D01*
X711454D01*
Y910336D01*
X706374D01*
Y907796D01*
X703834D01*
Y902716D01*
X706374D01*
X584454Y1001522D02*
Y998982D01*
X589534D01*
Y1001522D01*
X592074D01*
Y1006602D01*
X589534D01*
Y1009142D01*
X584454D01*
Y1006602D01*
X581914D01*
Y1001522D01*
X584454D01*
X597154D02*
Y998982D01*
X602234D01*
Y1001522D01*
X604774D01*
Y1006602D01*
X602234D01*
Y1009142D01*
X597154D01*
Y1006602D01*
X594614D01*
Y1001522D01*
X597154D01*
X609854D02*
Y998982D01*
X614934D01*
Y1001522D01*
X617474D01*
Y1006602D01*
X614934D01*
Y1009142D01*
X609854D01*
Y1006602D01*
X607314D01*
Y1001522D01*
X609854D01*
X622808D02*
Y998982D01*
X627888D01*
Y1001522D01*
X630428D01*
Y1006602D01*
X627888D01*
Y1009142D01*
X622808D01*
Y1006602D01*
X620268D01*
Y1001522D01*
X622808D01*
X693674Y902716D02*
Y900176D01*
X698754D01*
Y902716D01*
X701294D01*
Y907796D01*
X698754D01*
Y910336D01*
X693674D01*
Y907796D01*
X691134D01*
Y902716D01*
X693674D01*
X757174D02*
Y900176D01*
X762254D01*
Y902716D01*
X764794D01*
Y907796D01*
X762254D01*
Y910336D01*
X757174D01*
Y907796D01*
X754634D01*
Y902716D01*
X757174D01*
X731774D02*
Y900176D01*
X736854D01*
Y902716D01*
X739394D01*
Y907796D01*
X736854D01*
Y910336D01*
X731774D01*
Y907796D01*
X729234D01*
Y902716D01*
X731774D01*
X719074D02*
Y900176D01*
X724154D01*
Y902716D01*
X726694D01*
Y907796D01*
X724154D01*
Y910336D01*
X719074D01*
Y907796D01*
X716534D01*
Y902716D01*
X719074D01*
X744474D02*
Y900176D01*
X749554D01*
Y902716D01*
X752094D01*
Y907796D01*
X749554D01*
Y910336D01*
X744474D01*
Y907796D01*
X741934D01*
Y902716D01*
X744474D01*
X769874D02*
Y900176D01*
X774954D01*
Y902716D01*
X777494D01*
Y907796D01*
X774954D01*
Y910336D01*
X769874D01*
Y907796D01*
X767334D01*
Y902716D01*
X769874D01*
X782574D02*
Y900176D01*
X787654D01*
Y902716D01*
X790194D01*
Y907796D01*
X787654D01*
Y910336D01*
X782574D01*
Y907796D01*
X780034D01*
Y902716D01*
X782574D01*
X673354Y902970D02*
Y900430D01*
X678434D01*
Y902970D01*
X680974D01*
Y908050D01*
X678434D01*
Y910590D01*
X673354D01*
Y908050D01*
X670814D01*
Y902970D01*
X673354D01*
X660654D02*
Y900430D01*
X665734D01*
Y902970D01*
X668274D01*
Y908050D01*
X665734D01*
Y910590D01*
X660654D01*
Y908050D01*
X658114D01*
Y902970D01*
X660654D01*
X649732D02*
Y900430D01*
X654812D01*
Y902970D01*
X657352D01*
Y908050D01*
X654812D01*
Y910590D01*
X649732D01*
Y908050D01*
X647192D01*
Y902970D01*
X649732D01*
X184150Y647192D02*
Y644652D01*
X189230D01*
Y647192D01*
X191770D01*
Y652272D01*
X189230D01*
Y654812D01*
X184150D01*
Y652272D01*
X181610D01*
Y647192D01*
X184150D01*
X139014D02*
Y644652D01*
X144094D01*
Y647192D01*
X146634D01*
Y652272D01*
X144094D01*
Y654812D01*
X139014D01*
Y652272D01*
X136474D01*
Y647192D01*
X139014D01*
X171450Y621792D02*
Y619252D01*
X176530D01*
Y621792D01*
X179070D01*
Y626872D01*
X176530D01*
Y629412D01*
X171450D01*
Y626872D01*
X168910D01*
Y621792D01*
X171450D01*
X264668Y145796D02*
Y143256D01*
X269748D01*
Y145796D01*
X272288D01*
Y150876D01*
X269748D01*
Y153416D01*
X264668D01*
Y150876D01*
X262128D01*
Y145796D01*
X264668D01*
X26924Y135890D02*
Y133350D01*
X32004D01*
Y135890D01*
X34544D01*
Y140970D01*
X32004D01*
Y143510D01*
X26924D01*
Y140970D01*
X24384D01*
Y135890D01*
X26924D01*
X415798Y134112D02*
Y131572D01*
X420878D01*
Y134112D01*
X423418D01*
Y139192D01*
X420878D01*
Y141732D01*
X415798D01*
Y139192D01*
X413258D01*
Y134112D01*
X415798D01*
X304292Y310642D02*
X306832Y315722D01*
X304292Y320802D01*
X309372Y318262D01*
X314452Y320802D01*
X311912Y315722D01*
X314452Y310642D01*
X309372Y313182D01*
X304292Y310642D01*
X166078Y578622D02*
X168618Y581162D01*
X171158D01*
X168618Y583702D01*
X171158Y586242D01*
X168618D01*
X166078Y588782D01*
X163538Y586242D01*
X160998D01*
X163538Y583702D01*
X160998Y581162D01*
X163538D01*
X166078Y578622D01*
X172578Y585122D02*
X175118Y587662D01*
X177658D01*
X175118Y590202D01*
X177658Y592742D01*
X175118D01*
X172578Y595282D01*
X170038Y592742D01*
X167498D01*
X170038Y590202D01*
X167498Y587662D01*
X170038D01*
X172578Y585122D01*
X166078Y591622D02*
X168618Y594162D01*
X171158D01*
X168618Y596702D01*
X171158Y599242D01*
X168618D01*
X166078Y601782D01*
X163538Y599242D01*
X160998D01*
X163538Y596702D01*
X160998Y594162D01*
X163538D01*
X166078Y591622D01*
X159578Y585122D02*
X162118Y587662D01*
X164658D01*
X162118Y590202D01*
X164658Y592742D01*
X162118D01*
X159578Y595282D01*
X157038Y592742D01*
X154498D01*
X157038Y590202D01*
X154498Y587662D01*
X157038D01*
X159578Y585122D01*
X256540Y239910D02*
X259080Y242450D01*
X261620D01*
X259080Y244990D01*
X261620Y247530D01*
X259080D01*
X256540Y250070D01*
X254000Y247530D01*
X251460D01*
X254000Y244990D01*
X251460Y242450D01*
X254000D01*
X256540Y239910D01*
X248790Y247660D02*
X251330Y250200D01*
X253870D01*
X251330Y252740D01*
X253870Y255280D01*
X251330D01*
X248790Y257820D01*
X246250Y255280D01*
X243710D01*
X246250Y252740D01*
X243710Y250200D01*
X246250D01*
X248790Y247660D01*
X256540Y255410D02*
X259080Y257950D01*
X261620D01*
X259080Y260490D01*
X261620Y263030D01*
X259080D01*
X256540Y265570D01*
X254000Y263030D01*
X251460D01*
X254000Y260490D01*
X251460Y257950D01*
X254000D01*
X256540Y255410D01*
X264290Y247660D02*
X266830Y250200D01*
X269370D01*
X266830Y252740D01*
X269370Y255280D01*
X266830D01*
X264290Y257820D01*
X261750Y255280D01*
X259210D01*
X261750Y252740D01*
X259210Y250200D01*
X261750D01*
X264290Y247660D01*
X256540D02*
X259080Y250200D01*
X261620D01*
X259080Y252740D01*
X261620Y255280D01*
X259080D01*
X256540Y257820D01*
X254000Y255280D01*
X251460D01*
X254000Y252740D01*
X251460Y250200D01*
X254000D01*
X256540Y247660D01*
D167*
X52832Y698144D02*
G03*
X52832Y698144I-3048J0D01*
G01*
X60452D02*
G03*
X60452Y698144I-3048J0D01*
G01*
D170*
X212832Y73180D02*
G03*
X212832Y73180I-5080J0D01*
G01*
Y35180D02*
G03*
X212832Y35180I-5080J0D01*
G01*
X299232D02*
G03*
X299232Y35180I-5080J0D01*
G01*
Y73180D02*
G03*
X299232Y73180I-5080J0D01*
G01*
X54864Y698144D02*
G03*
X54864Y698144I-5080J0D01*
G01*
X62484D02*
G03*
X62484Y698144I-5080J0D01*
G01*
M02*
