G04*
G04 #@! TF.GenerationSoftware,Altium Limited,Altium Designer,24.10.1 (45)*
G04*
G04 Layer_Color=8388736*
%FSLAX44Y44*%
%MOMM*%
G71*
G04*
G04 #@! TF.SameCoordinates,58AE560C-37F5-4C9B-8F18-908462E99DB1*
G04*
G04*
G04 #@! TF.FilePolarity,Negative*
G04*
G01*
G75*
%ADD28C,1.0000*%
G04:AMPARAMS|DCode=30|XSize=0.6mm|YSize=0.7mm|CornerRadius=0.15mm|HoleSize=0mm|Usage=FLASHONLY|Rotation=0.000|XOffset=0mm|YOffset=0mm|HoleType=Round|Shape=RoundedRectangle|*
%AMROUNDEDRECTD30*
21,1,0.6000,0.4000,0,0,0.0*
21,1,0.3000,0.7000,0,0,0.0*
1,1,0.3000,0.1500,-0.2000*
1,1,0.3000,-0.1500,-0.2000*
1,1,0.3000,-0.1500,0.2000*
1,1,0.3000,0.1500,0.2000*
%
%ADD30ROUNDEDRECTD30*%
%ADD47R,0.6000X0.7000*%
%ADD48R,1.0414X0.6604*%
G04:AMPARAMS|DCode=49|XSize=0.6mm|YSize=0.7mm|CornerRadius=0.15mm|HoleSize=0mm|Usage=FLASHONLY|Rotation=90.000|XOffset=0mm|YOffset=0mm|HoleType=Round|Shape=RoundedRectangle|*
%AMROUNDEDRECTD49*
21,1,0.6000,0.4000,0,0,90.0*
21,1,0.3000,0.7000,0,0,90.0*
1,1,0.3000,0.2000,0.1500*
1,1,0.3000,0.2000,-0.1500*
1,1,0.3000,-0.2000,-0.1500*
1,1,0.3000,-0.2000,0.1500*
%
%ADD49ROUNDEDRECTD49*%
G04:AMPARAMS|DCode=77|XSize=0.39mm|YSize=0.64mm|CornerRadius=0.1325mm|HoleSize=0mm|Usage=FLASHONLY|Rotation=0.000|XOffset=0mm|YOffset=0mm|HoleType=Round|Shape=RoundedRectangle|*
%AMROUNDEDRECTD77*
21,1,0.3900,0.3750,0,0,0.0*
21,1,0.1250,0.6400,0,0,0.0*
1,1,0.2650,0.0625,-0.1875*
1,1,0.2650,-0.0625,-0.1875*
1,1,0.2650,-0.0625,0.1875*
1,1,0.2650,0.0625,0.1875*
%
%ADD77ROUNDEDRECTD77*%
%ADD78R,1.4900X0.7900*%
%ADD79C,1.2032*%
G04:AMPARAMS|DCode=80|XSize=1.5032mm|YSize=0.8032mm|CornerRadius=0.1766mm|HoleSize=0mm|Usage=FLASHONLY|Rotation=0.000|XOffset=0mm|YOffset=0mm|HoleType=Round|Shape=RoundedRectangle|*
%AMROUNDEDRECTD80*
21,1,1.5032,0.4500,0,0,0.0*
21,1,1.1500,0.8032,0,0,0.0*
1,1,0.3532,0.5750,-0.2250*
1,1,0.3532,-0.5750,-0.2250*
1,1,0.3532,-0.5750,0.2250*
1,1,0.3532,0.5750,0.2250*
%
%ADD80ROUNDEDRECTD80*%
G04:AMPARAMS|DCode=81|XSize=0.9032mm|YSize=1.2032mm|CornerRadius=0.2766mm|HoleSize=0mm|Usage=FLASHONLY|Rotation=90.000|XOffset=0mm|YOffset=0mm|HoleType=Round|Shape=RoundedRectangle|*
%AMROUNDEDRECTD81*
21,1,0.9032,0.6500,0,0,90.0*
21,1,0.3500,1.2032,0,0,90.0*
1,1,0.5532,0.3250,0.1750*
1,1,0.5532,0.3250,-0.1750*
1,1,0.5532,-0.3250,-0.1750*
1,1,0.5532,-0.3250,0.1750*
%
%ADD81ROUNDEDRECTD81*%
%ADD82R,0.4532X0.7032*%
G04:AMPARAMS|DCode=83|XSize=0.7032mm|YSize=0.4532mm|CornerRadius=0.1641mm|HoleSize=0mm|Usage=FLASHONLY|Rotation=270.000|XOffset=0mm|YOffset=0mm|HoleType=Round|Shape=RoundedRectangle|*
%AMROUNDEDRECTD83*
21,1,0.7032,0.1250,0,0,270.0*
21,1,0.3750,0.4532,0,0,270.0*
1,1,0.3282,-0.0625,-0.1875*
1,1,0.3282,-0.0625,0.1875*
1,1,0.3282,0.0625,0.1875*
1,1,0.3282,0.0625,-0.1875*
%
%ADD83ROUNDEDRECTD83*%
%ADD84R,2.2032X1.4032*%
G04:AMPARAMS|DCode=85|XSize=1.4032mm|YSize=1.2032mm|CornerRadius=0.3516mm|HoleSize=0mm|Usage=FLASHONLY|Rotation=90.000|XOffset=0mm|YOffset=0mm|HoleType=Round|Shape=RoundedRectangle|*
%AMROUNDEDRECTD85*
21,1,1.4032,0.5000,0,0,90.0*
21,1,0.7000,1.2032,0,0,90.0*
1,1,0.7032,0.2500,0.3500*
1,1,0.7032,0.2500,-0.3500*
1,1,0.7032,-0.2500,-0.3500*
1,1,0.7032,-0.2500,0.3500*
%
%ADD85ROUNDEDRECTD85*%
G04:AMPARAMS|DCode=86|XSize=1.4032mm|YSize=1.2032mm|CornerRadius=0.3516mm|HoleSize=0mm|Usage=FLASHONLY|Rotation=180.000|XOffset=0mm|YOffset=0mm|HoleType=Round|Shape=RoundedRectangle|*
%AMROUNDEDRECTD86*
21,1,1.4032,0.5000,0,0,180.0*
21,1,0.7000,1.2032,0,0,180.0*
1,1,0.7032,-0.3500,0.2500*
1,1,0.7032,0.3500,0.2500*
1,1,0.7032,0.3500,-0.2500*
1,1,0.7032,-0.3500,-0.2500*
%
%ADD86ROUNDEDRECTD86*%
G04:AMPARAMS|DCode=87|XSize=1.1032mm|YSize=1.1032mm|CornerRadius=0.3266mm|HoleSize=0mm|Usage=FLASHONLY|Rotation=90.000|XOffset=0mm|YOffset=0mm|HoleType=Round|Shape=RoundedRectangle|*
%AMROUNDEDRECTD87*
21,1,1.1032,0.4500,0,0,90.0*
21,1,0.4500,1.1032,0,0,90.0*
1,1,0.6532,0.2250,0.2250*
1,1,0.6532,0.2250,-0.2250*
1,1,0.6532,-0.2250,-0.2250*
1,1,0.6532,-0.2250,0.2250*
%
%ADD87ROUNDEDRECTD87*%
G04:AMPARAMS|DCode=88|XSize=1.1032mm|YSize=1.1032mm|CornerRadius=0.3266mm|HoleSize=0mm|Usage=FLASHONLY|Rotation=0.000|XOffset=0mm|YOffset=0mm|HoleType=Round|Shape=RoundedRectangle|*
%AMROUNDEDRECTD88*
21,1,1.1032,0.4500,0,0,0.0*
21,1,0.4500,1.1032,0,0,0.0*
1,1,0.6532,0.2250,-0.2250*
1,1,0.6532,-0.2250,-0.2250*
1,1,0.6532,-0.2250,0.2250*
1,1,0.6532,0.2250,0.2250*
%
%ADD88ROUNDEDRECTD88*%
G04:AMPARAMS|DCode=89|XSize=0.34mm|YSize=0.88mm|CornerRadius=0.115mm|HoleSize=0mm|Usage=FLASHONLY|Rotation=180.000|XOffset=0mm|YOffset=0mm|HoleType=Round|Shape=RoundedRectangle|*
%AMROUNDEDRECTD89*
21,1,0.3400,0.6500,0,0,180.0*
21,1,0.1100,0.8800,0,0,180.0*
1,1,0.2300,-0.0550,0.3250*
1,1,0.2300,0.0550,0.3250*
1,1,0.2300,0.0550,-0.3250*
1,1,0.2300,-0.0550,-0.3250*
%
%ADD89ROUNDEDRECTD89*%
%ADD90R,0.3400X0.8800*%
G04:AMPARAMS|DCode=91|XSize=0.34mm|YSize=0.88mm|CornerRadius=0.115mm|HoleSize=0mm|Usage=FLASHONLY|Rotation=270.000|XOffset=0mm|YOffset=0mm|HoleType=Round|Shape=RoundedRectangle|*
%AMROUNDEDRECTD91*
21,1,0.3400,0.6500,0,0,270.0*
21,1,0.1100,0.8800,0,0,270.0*
1,1,0.2300,-0.3250,-0.0550*
1,1,0.2300,-0.3250,0.0550*
1,1,0.2300,0.3250,0.0550*
1,1,0.2300,0.3250,-0.0550*
%
%ADD91ROUNDEDRECTD91*%
%ADD92R,0.8800X0.3400*%
%ADD93R,3.0032X3.0032*%
%ADD94R,1.0032X1.0032*%
G04:AMPARAMS|DCode=95|XSize=1.0032mm|YSize=1.0032mm|CornerRadius=0.3016mm|HoleSize=0mm|Usage=FLASHONLY|Rotation=270.000|XOffset=0mm|YOffset=0mm|HoleType=Round|Shape=RoundedRectangle|*
%AMROUNDEDRECTD95*
21,1,1.0032,0.4000,0,0,270.0*
21,1,0.4000,1.0032,0,0,270.0*
1,1,0.6032,-0.2000,-0.2000*
1,1,0.6032,-0.2000,0.2000*
1,1,0.6032,0.2000,0.2000*
1,1,0.6032,0.2000,-0.2000*
%
%ADD95ROUNDEDRECTD95*%
G04:AMPARAMS|DCode=96|XSize=0.9032mm|YSize=1.2032mm|CornerRadius=0.2766mm|HoleSize=0mm|Usage=FLASHONLY|Rotation=0.000|XOffset=0mm|YOffset=0mm|HoleType=Round|Shape=RoundedRectangle|*
%AMROUNDEDRECTD96*
21,1,0.9032,0.6500,0,0,0.0*
21,1,0.3500,1.2032,0,0,0.0*
1,1,0.5532,0.1750,-0.3250*
1,1,0.5532,-0.1750,-0.3250*
1,1,0.5532,-0.1750,0.3250*
1,1,0.5532,0.1750,0.3250*
%
%ADD96ROUNDEDRECTD96*%
%ADD97R,1.7032X1.0032*%
G04:AMPARAMS|DCode=98|XSize=1.0532mm|YSize=1.1532mm|CornerRadius=0.3141mm|HoleSize=0mm|Usage=FLASHONLY|Rotation=140.000|XOffset=0mm|YOffset=0mm|HoleType=Round|Shape=RoundedRectangle|*
%AMROUNDEDRECTD98*
21,1,1.0532,0.5250,0,0,140.0*
21,1,0.4250,1.1532,0,0,140.0*
1,1,0.6282,0.0060,0.3377*
1,1,0.6282,0.3315,0.0645*
1,1,0.6282,-0.0060,-0.3377*
1,1,0.6282,-0.3315,-0.0645*
%
%ADD98ROUNDEDRECTD98*%
G04:AMPARAMS|DCode=99|XSize=1.0532mm|YSize=1.1532mm|CornerRadius=0mm|HoleSize=0mm|Usage=FLASHONLY|Rotation=140.000|XOffset=0mm|YOffset=0mm|HoleType=Round|Shape=Rectangle|*
%AMROTATEDRECTD99*
4,1,4,0.7740,0.1032,0.0328,-0.7802,-0.7740,-0.1032,-0.0328,0.7802,0.7740,0.1032,0.0*
%
%ADD99ROTATEDRECTD99*%

G04:AMPARAMS|DCode=100|XSize=2.8956mm|YSize=0.8382mm|CornerRadius=0.235mm|HoleSize=0mm|Usage=FLASHONLY|Rotation=270.000|XOffset=0mm|YOffset=0mm|HoleType=Round|Shape=RoundedRectangle|*
%AMROUNDEDRECTD100*
21,1,2.8956,0.3683,0,0,270.0*
21,1,2.4257,0.8382,0,0,270.0*
1,1,0.4699,-0.1842,-1.2129*
1,1,0.4699,-0.1842,1.2129*
1,1,0.4699,0.1842,1.2129*
1,1,0.4699,0.1842,-1.2129*
%
%ADD100ROUNDEDRECTD100*%
%ADD101R,0.9016X1.3016*%
%ADD102R,0.8616X1.3016*%
%ADD103R,0.8016X1.3016*%
G04:AMPARAMS|DCode=104|XSize=0.74mm|YSize=0.38mm|CornerRadius=0.1mm|HoleSize=0mm|Usage=FLASHONLY|Rotation=180.000|XOffset=0mm|YOffset=0mm|HoleType=Round|Shape=RoundedRectangle|*
%AMROUNDEDRECTD104*
21,1,0.7400,0.1800,0,0,180.0*
21,1,0.5400,0.3800,0,0,180.0*
1,1,0.2000,-0.2700,0.0900*
1,1,0.2000,0.2700,0.0900*
1,1,0.2000,0.2700,-0.0900*
1,1,0.2000,-0.2700,-0.0900*
%
%ADD104ROUNDEDRECTD104*%
G04:AMPARAMS|DCode=105|XSize=0.74mm|YSize=0.38mm|CornerRadius=0.1mm|HoleSize=0mm|Usage=FLASHONLY|Rotation=90.000|XOffset=0mm|YOffset=0mm|HoleType=Round|Shape=RoundedRectangle|*
%AMROUNDEDRECTD105*
21,1,0.7400,0.1800,0,0,90.0*
21,1,0.5400,0.3800,0,0,90.0*
1,1,0.2000,0.0900,0.2700*
1,1,0.2000,0.0900,-0.2700*
1,1,0.2000,-0.0900,-0.2700*
1,1,0.2000,-0.0900,0.2700*
%
%ADD105ROUNDEDRECTD105*%
%ADD106R,0.3800X0.7400*%
%ADD107R,2.1900X2.1900*%
%ADD108R,1.3508X2.0508*%
%ADD109R,1.0508X0.3508*%
%ADD110R,2.8532X1.9532*%
%ADD111R,2.0066X1.3208*%
G04:AMPARAMS|DCode=112|XSize=0.4mm|YSize=0.4249mm|CornerRadius=0.125mm|HoleSize=0mm|Usage=FLASHONLY|Rotation=180.000|XOffset=0mm|YOffset=0mm|HoleType=Round|Shape=RoundedRectangle|*
%AMROUNDEDRECTD112*
21,1,0.4000,0.1749,0,0,180.0*
21,1,0.1500,0.4249,0,0,180.0*
1,1,0.2500,-0.0750,0.0874*
1,1,0.2500,0.0750,0.0874*
1,1,0.2500,0.0750,-0.0874*
1,1,0.2500,-0.0750,-0.0874*
%
%ADD112ROUNDEDRECTD112*%
G04:AMPARAMS|DCode=113|XSize=0.4mm|YSize=0.4249mm|CornerRadius=0.125mm|HoleSize=0mm|Usage=FLASHONLY|Rotation=270.000|XOffset=0mm|YOffset=0mm|HoleType=Round|Shape=RoundedRectangle|*
%AMROUNDEDRECTD113*
21,1,0.4000,0.1749,0,0,270.0*
21,1,0.1500,0.4249,0,0,270.0*
1,1,0.2500,-0.0874,-0.0750*
1,1,0.2500,-0.0874,0.0750*
1,1,0.2500,0.0874,0.0750*
1,1,0.2500,0.0874,-0.0750*
%
%ADD113ROUNDEDRECTD113*%
%ADD114R,0.4249X0.4000*%
%ADD115R,1.7032X1.4032*%
%ADD116R,1.0032X1.0032*%
G04:AMPARAMS|DCode=117|XSize=1.0032mm|YSize=1.0032mm|CornerRadius=0.3016mm|HoleSize=0mm|Usage=FLASHONLY|Rotation=0.000|XOffset=0mm|YOffset=0mm|HoleType=Round|Shape=RoundedRectangle|*
%AMROUNDEDRECTD117*
21,1,1.0032,0.4000,0,0,0.0*
21,1,0.4000,1.0032,0,0,0.0*
1,1,0.6032,0.2000,-0.2000*
1,1,0.6032,-0.2000,-0.2000*
1,1,0.6032,-0.2000,0.2000*
1,1,0.6032,0.2000,0.2000*
%
%ADD117ROUNDEDRECTD117*%
%ADD118R,1.1032X1.1532*%
%ADD119R,0.8532X1.3532*%
%ADD120R,0.8032X0.9032*%
G04:AMPARAMS|DCode=121|XSize=0.6782mm|YSize=0.4532mm|CornerRadius=0.1641mm|HoleSize=0mm|Usage=FLASHONLY|Rotation=180.000|XOffset=0mm|YOffset=0mm|HoleType=Round|Shape=RoundedRectangle|*
%AMROUNDEDRECTD121*
21,1,0.6782,0.1250,0,0,180.0*
21,1,0.3500,0.4532,0,0,180.0*
1,1,0.3282,-0.1750,0.0625*
1,1,0.3282,0.1750,0.0625*
1,1,0.3282,0.1750,-0.0625*
1,1,0.3282,-0.1750,-0.0625*
%
%ADD121ROUNDEDRECTD121*%
G04:AMPARAMS|DCode=122|XSize=0.6782mm|YSize=0.4532mm|CornerRadius=0.1641mm|HoleSize=0mm|Usage=FLASHONLY|Rotation=90.000|XOffset=0mm|YOffset=0mm|HoleType=Round|Shape=RoundedRectangle|*
%AMROUNDEDRECTD122*
21,1,0.6782,0.1250,0,0,90.0*
21,1,0.3500,0.4532,0,0,90.0*
1,1,0.3282,0.0625,0.1750*
1,1,0.3282,0.0625,-0.1750*
1,1,0.3282,-0.0625,-0.1750*
1,1,0.3282,-0.0625,0.1750*
%
%ADD122ROUNDEDRECTD122*%
G04:AMPARAMS|DCode=123|XSize=0.6782mm|YSize=0.4532mm|CornerRadius=0.1641mm|HoleSize=0mm|Usage=FLASHONLY|Rotation=90.000|XOffset=0mm|YOffset=0mm|HoleType=Round|Shape=RoundedRectangle|*
%AMROUNDEDRECTD123*
21,1,0.6782,0.1250,0,0,90.0*
21,1,0.3500,0.4532,0,0,90.0*
1,1,0.3282,0.0625,0.1750*
1,1,0.3282,0.0625,-0.1750*
1,1,0.3282,-0.0625,-0.1750*
1,1,0.3282,-0.0625,0.1750*
%
%ADD123ROUNDEDRECTD123*%
%ADD124R,0.4532X0.6782*%
%ADD125R,1.1532X1.1032*%
%ADD126C,4.7752*%
%ADD127R,1.5712X1.5712*%
%ADD128C,1.5712*%
%ADD129R,1.7112X1.7112*%
%ADD130C,1.7112*%
%ADD131C,1.8032*%
%ADD132R,1.8032X1.8032*%
%ADD133R,1.7112X1.7112*%
%ADD134C,0.8382*%
%ADD135C,0.4532*%
%ADD136C,0.4572*%
G36*
X208092Y44670D02*
X208432Y44640D01*
X208772Y44600D01*
X209102Y44540D01*
X209432Y44460D01*
X209762Y44360D01*
X210082Y44250D01*
X210392Y44120D01*
X210702Y43970D01*
X211002Y43810D01*
X211292Y43630D01*
X211572Y43440D01*
X211842Y43230D01*
X212102Y43010D01*
X212352Y42780D01*
X212582Y42530D01*
X212802Y42270D01*
X213012Y42000D01*
X213202Y41720D01*
X213382Y41430D01*
X213542Y41130D01*
X213692Y40820D01*
X213822Y40510D01*
X213932Y40190D01*
X214032Y39860D01*
X214112Y39530D01*
X214172Y39200D01*
X214212Y38860D01*
X214242Y38520D01*
X214252Y38180D01*
Y32180D01*
X214242Y31840D01*
X214212Y31500D01*
X214172Y31160D01*
X214112Y30830D01*
X214032Y30500D01*
X213932Y30170D01*
X213822Y29850D01*
X213692Y29540D01*
X213542Y29230D01*
X213382Y28930D01*
X213202Y28640D01*
X213012Y28360D01*
X212802Y28090D01*
X212582Y27830D01*
X212352Y27580D01*
X212102Y27350D01*
X211842Y27130D01*
X211572Y26920D01*
X211292Y26730D01*
X211002Y26550D01*
X210702Y26390D01*
X210392Y26240D01*
X210082Y26110D01*
X209762Y26000D01*
X209432Y25900D01*
X209102Y25820D01*
X208772Y25760D01*
X208432Y25720D01*
X208092Y25690D01*
X207752Y25680D01*
X207412Y25690D01*
X207072Y25720D01*
X206732Y25760D01*
X206402Y25820D01*
X206072Y25900D01*
X205742Y26000D01*
X205422Y26110D01*
X205112Y26240D01*
X204802Y26390D01*
X204502Y26550D01*
X204212Y26730D01*
X203932Y26920D01*
X203662Y27130D01*
X203402Y27350D01*
X203152Y27580D01*
X202922Y27830D01*
X202702Y28090D01*
X202492Y28360D01*
X202302Y28640D01*
X202122Y28930D01*
X201962Y29230D01*
X201812Y29540D01*
X201682Y29850D01*
X201572Y30170D01*
X201472Y30500D01*
X201392Y30830D01*
X201332Y31160D01*
X201292Y31500D01*
X201262Y31840D01*
X201252Y32180D01*
Y38180D01*
X201262Y38520D01*
X201292Y38860D01*
X201332Y39200D01*
X201392Y39530D01*
X201472Y39860D01*
X201572Y40190D01*
X201682Y40510D01*
X201812Y40820D01*
X201962Y41130D01*
X202122Y41430D01*
X202302Y41720D01*
X202492Y42000D01*
X202702Y42270D01*
X202922Y42530D01*
X203152Y42780D01*
X203402Y43010D01*
X203662Y43230D01*
X203932Y43440D01*
X204212Y43630D01*
X204502Y43810D01*
X204802Y43970D01*
X205112Y44120D01*
X205422Y44250D01*
X205742Y44360D01*
X206072Y44460D01*
X206402Y44540D01*
X206732Y44600D01*
X207072Y44640D01*
X207412Y44670D01*
X207752Y44680D01*
X208092Y44670D01*
D02*
G37*
G36*
Y82670D02*
X208432Y82640D01*
X208772Y82600D01*
X209102Y82540D01*
X209432Y82460D01*
X209762Y82360D01*
X210082Y82250D01*
X210392Y82120D01*
X210702Y81970D01*
X211002Y81810D01*
X211292Y81630D01*
X211572Y81440D01*
X211842Y81230D01*
X212102Y81010D01*
X212352Y80780D01*
X212582Y80530D01*
X212802Y80270D01*
X213012Y80000D01*
X213202Y79720D01*
X213382Y79430D01*
X213542Y79130D01*
X213692Y78820D01*
X213822Y78510D01*
X213932Y78190D01*
X214032Y77860D01*
X214112Y77530D01*
X214172Y77200D01*
X214212Y76860D01*
X214242Y76520D01*
X214252Y76180D01*
Y70180D01*
X214242Y69840D01*
X214212Y69500D01*
X214172Y69160D01*
X214112Y68830D01*
X214032Y68500D01*
X213932Y68170D01*
X213822Y67850D01*
X213692Y67540D01*
X213542Y67230D01*
X213382Y66930D01*
X213202Y66640D01*
X213012Y66360D01*
X212802Y66090D01*
X212582Y65830D01*
X212352Y65580D01*
X212102Y65350D01*
X211842Y65130D01*
X211572Y64920D01*
X211292Y64730D01*
X211002Y64550D01*
X210702Y64390D01*
X210392Y64240D01*
X210082Y64110D01*
X209762Y64000D01*
X209432Y63900D01*
X209102Y63820D01*
X208772Y63760D01*
X208432Y63720D01*
X208092Y63690D01*
X207752Y63680D01*
X207412Y63690D01*
X207072Y63720D01*
X206732Y63760D01*
X206402Y63820D01*
X206072Y63900D01*
X205742Y64000D01*
X205422Y64110D01*
X205112Y64240D01*
X204802Y64390D01*
X204502Y64550D01*
X204212Y64730D01*
X203932Y64920D01*
X203662Y65130D01*
X203402Y65350D01*
X203152Y65580D01*
X202922Y65830D01*
X202702Y66090D01*
X202492Y66360D01*
X202302Y66640D01*
X202122Y66930D01*
X201962Y67230D01*
X201812Y67540D01*
X201682Y67850D01*
X201572Y68170D01*
X201472Y68500D01*
X201392Y68830D01*
X201332Y69160D01*
X201292Y69500D01*
X201262Y69840D01*
X201252Y70180D01*
Y76180D01*
X201262Y76520D01*
X201292Y76860D01*
X201332Y77200D01*
X201392Y77530D01*
X201472Y77860D01*
X201572Y78190D01*
X201682Y78510D01*
X201812Y78820D01*
X201962Y79130D01*
X202122Y79430D01*
X202302Y79720D01*
X202492Y80000D01*
X202702Y80270D01*
X202922Y80530D01*
X203152Y80780D01*
X203402Y81010D01*
X203662Y81230D01*
X203932Y81440D01*
X204212Y81630D01*
X204502Y81810D01*
X204802Y81970D01*
X205112Y82120D01*
X205422Y82250D01*
X205742Y82360D01*
X206072Y82460D01*
X206402Y82540D01*
X206732Y82600D01*
X207072Y82640D01*
X207412Y82670D01*
X207752Y82680D01*
X208092Y82670D01*
D02*
G37*
G36*
X294492Y44670D02*
X294832Y44640D01*
X295172Y44600D01*
X295502Y44540D01*
X295832Y44460D01*
X296162Y44360D01*
X296482Y44250D01*
X296792Y44120D01*
X297102Y43970D01*
X297402Y43810D01*
X297692Y43630D01*
X297972Y43440D01*
X298242Y43230D01*
X298502Y43010D01*
X298752Y42780D01*
X298982Y42530D01*
X299202Y42270D01*
X299412Y42000D01*
X299602Y41720D01*
X299782Y41430D01*
X299942Y41130D01*
X300092Y40820D01*
X300222Y40510D01*
X300332Y40190D01*
X300432Y39860D01*
X300512Y39530D01*
X300572Y39200D01*
X300612Y38860D01*
X300642Y38520D01*
X300652Y38180D01*
Y32180D01*
X300642Y31840D01*
X300612Y31500D01*
X300572Y31160D01*
X300512Y30830D01*
X300432Y30500D01*
X300332Y30170D01*
X300222Y29850D01*
X300092Y29540D01*
X299942Y29230D01*
X299782Y28930D01*
X299602Y28640D01*
X299412Y28360D01*
X299202Y28090D01*
X298982Y27830D01*
X298752Y27580D01*
X298502Y27350D01*
X298242Y27130D01*
X297972Y26920D01*
X297692Y26730D01*
X297402Y26550D01*
X297102Y26390D01*
X296792Y26240D01*
X296482Y26110D01*
X296162Y26000D01*
X295832Y25900D01*
X295502Y25820D01*
X295172Y25760D01*
X294832Y25720D01*
X294492Y25690D01*
X294152Y25680D01*
X293812Y25690D01*
X293472Y25720D01*
X293132Y25760D01*
X292802Y25820D01*
X292472Y25900D01*
X292142Y26000D01*
X291822Y26110D01*
X291512Y26240D01*
X291202Y26390D01*
X290902Y26550D01*
X290612Y26730D01*
X290332Y26920D01*
X290062Y27130D01*
X289802Y27350D01*
X289552Y27580D01*
X289322Y27830D01*
X289102Y28090D01*
X288892Y28360D01*
X288702Y28640D01*
X288522Y28930D01*
X288362Y29230D01*
X288212Y29540D01*
X288082Y29850D01*
X287972Y30170D01*
X287872Y30500D01*
X287792Y30830D01*
X287732Y31160D01*
X287692Y31500D01*
X287662Y31840D01*
X287652Y32180D01*
Y38180D01*
X287662Y38520D01*
X287692Y38860D01*
X287732Y39200D01*
X287792Y39530D01*
X287872Y39860D01*
X287972Y40190D01*
X288082Y40510D01*
X288212Y40820D01*
X288362Y41130D01*
X288522Y41430D01*
X288702Y41720D01*
X288892Y42000D01*
X289102Y42270D01*
X289322Y42530D01*
X289552Y42780D01*
X289802Y43010D01*
X290062Y43230D01*
X290332Y43440D01*
X290612Y43630D01*
X290902Y43810D01*
X291202Y43970D01*
X291512Y44120D01*
X291822Y44250D01*
X292142Y44360D01*
X292472Y44460D01*
X292802Y44540D01*
X293132Y44600D01*
X293472Y44640D01*
X293812Y44670D01*
X294152Y44680D01*
X294492Y44670D01*
D02*
G37*
G36*
Y82670D02*
X294832Y82640D01*
X295172Y82600D01*
X295502Y82540D01*
X295832Y82460D01*
X296162Y82360D01*
X296482Y82250D01*
X296792Y82120D01*
X297102Y81970D01*
X297402Y81810D01*
X297692Y81630D01*
X297972Y81440D01*
X298242Y81230D01*
X298502Y81010D01*
X298752Y80780D01*
X298982Y80530D01*
X299202Y80270D01*
X299412Y80000D01*
X299602Y79720D01*
X299782Y79430D01*
X299942Y79130D01*
X300092Y78820D01*
X300222Y78510D01*
X300332Y78190D01*
X300432Y77860D01*
X300512Y77530D01*
X300572Y77200D01*
X300612Y76860D01*
X300642Y76520D01*
X300652Y76180D01*
Y70180D01*
X300642Y69840D01*
X300612Y69500D01*
X300572Y69160D01*
X300512Y68830D01*
X300432Y68500D01*
X300332Y68170D01*
X300222Y67850D01*
X300092Y67540D01*
X299942Y67230D01*
X299782Y66930D01*
X299602Y66640D01*
X299412Y66360D01*
X299202Y66090D01*
X298982Y65830D01*
X298752Y65580D01*
X298502Y65350D01*
X298242Y65130D01*
X297972Y64920D01*
X297692Y64730D01*
X297402Y64550D01*
X297102Y64390D01*
X296792Y64240D01*
X296482Y64110D01*
X296162Y64000D01*
X295832Y63900D01*
X295502Y63820D01*
X295172Y63760D01*
X294832Y63720D01*
X294492Y63690D01*
X294152Y63680D01*
X293812Y63690D01*
X293472Y63720D01*
X293132Y63760D01*
X292802Y63820D01*
X292472Y63900D01*
X292142Y64000D01*
X291822Y64110D01*
X291512Y64240D01*
X291202Y64390D01*
X290902Y64550D01*
X290612Y64730D01*
X290332Y64920D01*
X290062Y65130D01*
X289802Y65350D01*
X289552Y65580D01*
X289322Y65830D01*
X289102Y66090D01*
X288892Y66360D01*
X288702Y66640D01*
X288522Y66930D01*
X288362Y67230D01*
X288212Y67540D01*
X288082Y67850D01*
X287972Y68170D01*
X287872Y68500D01*
X287792Y68830D01*
X287732Y69160D01*
X287692Y69500D01*
X287662Y69840D01*
X287652Y70180D01*
Y76180D01*
X287662Y76520D01*
X287692Y76860D01*
X287732Y77200D01*
X287792Y77530D01*
X287872Y77860D01*
X287972Y78190D01*
X288082Y78510D01*
X288212Y78820D01*
X288362Y79130D01*
X288522Y79430D01*
X288702Y79720D01*
X288892Y80000D01*
X289102Y80270D01*
X289322Y80530D01*
X289552Y80780D01*
X289802Y81010D01*
X290062Y81230D01*
X290332Y81440D01*
X290612Y81630D01*
X290902Y81810D01*
X291202Y81970D01*
X291512Y82120D01*
X291822Y82250D01*
X292142Y82360D01*
X292472Y82460D01*
X292802Y82540D01*
X293132Y82600D01*
X293472Y82640D01*
X293812Y82670D01*
X294152Y82680D01*
X294492Y82670D01*
D02*
G37*
G36*
X180477Y200510D02*
X186427Y194710D01*
X197113D01*
X203063Y200510D01*
X212220D01*
Y190201D01*
X206140Y184010D01*
X177400D01*
X171320Y190201D01*
Y200510D01*
X180477D01*
D02*
G37*
G36*
X177400Y230010D02*
X206140D01*
X212220Y223819D01*
Y213510D01*
X203063D01*
X197113Y219310D01*
X186427D01*
X180477Y213510D01*
X171320D01*
Y223819D01*
X177400Y230010D01*
D02*
G37*
G36*
X231656Y334017D02*
X231578Y325339D01*
X224289Y318050D01*
X217814Y324525D01*
X217708Y332833D01*
X210151Y340390D01*
X201843Y340496D01*
X195368Y346970D01*
X202657Y354260D01*
X211335Y354338D01*
X231656Y334017D01*
D02*
G37*
G36*
X192650Y331303D02*
X192756Y322995D01*
X200313Y315438D01*
X208621Y315332D01*
X215096Y308857D01*
X207807Y301568D01*
X199129Y301490D01*
X178808Y321811D01*
X178886Y330489D01*
X186175Y337778D01*
X192650Y331303D01*
D02*
G37*
D28*
X543564Y610434D02*
D03*
Y622880D02*
D03*
Y635072D02*
D03*
X543814Y823468D02*
D03*
Y835660D02*
D03*
Y811022D02*
D03*
X516890Y211074D02*
D03*
Y198882D02*
D03*
Y186436D02*
D03*
X544830Y186690D02*
D03*
Y199136D02*
D03*
Y211328D02*
D03*
X516890Y424434D02*
D03*
Y412242D02*
D03*
Y399796D02*
D03*
X544830Y400050D02*
D03*
Y412496D02*
D03*
Y424688D02*
D03*
X516640Y633294D02*
D03*
Y621102D02*
D03*
Y608656D02*
D03*
X516890Y809244D02*
D03*
Y821690D02*
D03*
Y833882D02*
D03*
D30*
X695626Y842264D02*
D03*
X685626D02*
D03*
X695880Y802894D02*
D03*
X685880D02*
D03*
X163656Y828040D02*
D03*
X173656D02*
D03*
X163656Y777240D02*
D03*
X173656D02*
D03*
D47*
X696134Y765556D02*
D03*
X686134D02*
D03*
D48*
X781636Y784180D02*
D03*
Y762680D02*
D03*
X823136Y784180D02*
D03*
Y762680D02*
D03*
X317168Y637712D02*
D03*
Y659212D02*
D03*
X275668Y637712D02*
D03*
Y659212D02*
D03*
D49*
X685800Y828214D02*
D03*
Y818214D02*
D03*
X686054Y789606D02*
D03*
Y779606D02*
D03*
X163830Y808148D02*
D03*
Y798148D02*
D03*
Y856154D02*
D03*
Y846154D02*
D03*
D77*
X60094Y707644D02*
D03*
X53594D02*
D03*
X47094D02*
D03*
X60094Y688644D02*
D03*
X53594D02*
D03*
X47094D02*
D03*
D78*
X53594Y698144D02*
D03*
D79*
X417830Y676910D02*
D03*
X322580Y503682D02*
D03*
X857250Y675386D02*
D03*
X865886Y632714D02*
D03*
X322326Y516128D02*
D03*
X56134Y399796D02*
D03*
X29718Y478028D02*
D03*
X43180Y493268D02*
D03*
X243840Y371856D02*
D03*
X427228Y37338D02*
D03*
X324358Y36830D02*
D03*
X322326Y491236D02*
D03*
X435951Y676910D02*
D03*
D80*
X800522Y710286D02*
D03*
Y691286D02*
D03*
X821522Y700786D02*
D03*
D81*
X355346Y596250D02*
D03*
Y610250D02*
D03*
X808370Y663560D02*
D03*
Y677560D02*
D03*
X684926Y668386D02*
D03*
Y682386D02*
D03*
X653796Y635112D02*
D03*
Y649112D02*
D03*
X658876Y669656D02*
D03*
Y683656D02*
D03*
X645414Y669148D02*
D03*
Y683148D02*
D03*
X828040Y639684D02*
D03*
Y653684D02*
D03*
X696214Y641462D02*
D03*
Y655462D02*
D03*
X800242Y725028D02*
D03*
Y739028D02*
D03*
X621172Y681848D02*
D03*
Y695848D02*
D03*
X195834Y123302D02*
D03*
Y137302D02*
D03*
X331216Y643270D02*
D03*
Y629270D02*
D03*
X355346Y620380D02*
D03*
Y634380D02*
D03*
X155448Y535036D02*
D03*
Y549036D02*
D03*
X167894Y535036D02*
D03*
Y549036D02*
D03*
X140970Y535290D02*
D03*
Y549290D02*
D03*
X127254Y535290D02*
D03*
Y549290D02*
D03*
X73406Y408320D02*
D03*
Y394320D02*
D03*
X90170Y267574D02*
D03*
Y281574D02*
D03*
X28448Y91298D02*
D03*
Y105298D02*
D03*
X396494Y143652D02*
D03*
Y129652D02*
D03*
D82*
X313784Y576904D02*
D03*
D83*
X308784D02*
D03*
X303784D02*
D03*
X298784D02*
D03*
X293784D02*
D03*
Y553904D02*
D03*
X298784D02*
D03*
X303784D02*
D03*
X308784D02*
D03*
X313784D02*
D03*
D84*
X303784Y565404D02*
D03*
D85*
X313784Y536702D02*
D03*
X293784D02*
D03*
X313784Y595376D02*
D03*
X293784D02*
D03*
X323690Y199390D02*
D03*
X303690D02*
D03*
X231046Y200660D02*
D03*
X251046D02*
D03*
X250792Y182372D02*
D03*
X230792D02*
D03*
D86*
X331216Y550512D02*
D03*
Y530512D02*
D03*
X271272Y314358D02*
D03*
Y334358D02*
D03*
X246888Y314612D02*
D03*
Y334612D02*
D03*
X203200Y267810D02*
D03*
Y247810D02*
D03*
X294640Y231300D02*
D03*
Y251300D02*
D03*
D87*
X325246Y612394D02*
D03*
X309246D02*
D03*
X769492Y758952D02*
D03*
X753492D02*
D03*
X421768Y278384D02*
D03*
X437768D02*
D03*
X436244Y392938D02*
D03*
X420244D02*
D03*
X61594Y766572D02*
D03*
X45594D02*
D03*
X45086Y748284D02*
D03*
X61086D02*
D03*
X252604Y301752D02*
D03*
X268604D02*
D03*
X309500Y292354D02*
D03*
X325500D02*
D03*
X309500Y307086D02*
D03*
X325500D02*
D03*
X265304Y288798D02*
D03*
X281304D02*
D03*
X244728Y637032D02*
D03*
X228728D02*
D03*
X228728Y92202D02*
D03*
X244728D02*
D03*
X229744Y103632D02*
D03*
X245744D02*
D03*
X337694Y68580D02*
D03*
X353694D02*
D03*
X309500Y222250D02*
D03*
X325500D02*
D03*
X309500Y245110D02*
D03*
X325500D02*
D03*
X325500Y275590D02*
D03*
X309500D02*
D03*
X119254Y377698D02*
D03*
X135254D02*
D03*
X65152Y318770D02*
D03*
X81152D02*
D03*
X73658Y219456D02*
D03*
X57658D02*
D03*
X73786Y233426D02*
D03*
X57786D02*
D03*
D88*
X343154Y612268D02*
D03*
Y628268D02*
D03*
X75438Y736980D02*
D03*
Y720980D02*
D03*
X295148Y301372D02*
D03*
Y317372D02*
D03*
X281432Y198754D02*
D03*
Y182754D02*
D03*
X98044Y393826D02*
D03*
Y377826D02*
D03*
X65786Y269368D02*
D03*
Y285368D02*
D03*
D89*
X698196Y696646D02*
D03*
X670196D02*
D03*
Y736346D02*
D03*
X698196D02*
D03*
X180078Y570352D02*
D03*
X152078D02*
D03*
Y610052D02*
D03*
X180078D02*
D03*
D90*
X694196Y696646D02*
D03*
X690196D02*
D03*
X686196D02*
D03*
X682196D02*
D03*
X678196D02*
D03*
X674196D02*
D03*
Y736346D02*
D03*
X678196D02*
D03*
X682196D02*
D03*
X686196D02*
D03*
X690196D02*
D03*
X694196D02*
D03*
X176078Y570352D02*
D03*
X172078D02*
D03*
X168078D02*
D03*
X164078D02*
D03*
X160078D02*
D03*
X156078D02*
D03*
Y610052D02*
D03*
X160078D02*
D03*
X164078D02*
D03*
X168078D02*
D03*
X172078D02*
D03*
X176078D02*
D03*
D91*
X664346Y702496D02*
D03*
Y730496D02*
D03*
X704046D02*
D03*
Y702496D02*
D03*
X146228Y576202D02*
D03*
Y604202D02*
D03*
X185928D02*
D03*
Y576202D02*
D03*
D92*
X664346Y706496D02*
D03*
Y714496D02*
D03*
Y718496D02*
D03*
Y722496D02*
D03*
Y726496D02*
D03*
X704046D02*
D03*
Y722496D02*
D03*
Y718496D02*
D03*
Y714496D02*
D03*
Y710496D02*
D03*
Y706496D02*
D03*
X664346Y710496D02*
D03*
X146228Y580202D02*
D03*
Y588202D02*
D03*
Y592202D02*
D03*
Y596202D02*
D03*
Y600202D02*
D03*
X185928D02*
D03*
Y596202D02*
D03*
Y592202D02*
D03*
Y588202D02*
D03*
Y584202D02*
D03*
Y580202D02*
D03*
X146228Y584202D02*
D03*
D93*
X684196Y716496D02*
D03*
X166078Y590202D02*
D03*
D94*
X794780Y677672D02*
D03*
D95*
X778780D02*
D03*
D96*
X718596Y681736D02*
D03*
X704596D02*
D03*
X636016Y695706D02*
D03*
X650016D02*
D03*
X708772Y749046D02*
D03*
X722772D02*
D03*
X733186Y765302D02*
D03*
X719186D02*
D03*
X726044Y783336D02*
D03*
X740044D02*
D03*
X750936Y779018D02*
D03*
X764936D02*
D03*
X718596Y667766D02*
D03*
X704596D02*
D03*
X624952Y711962D02*
D03*
X638952D02*
D03*
X647812Y749554D02*
D03*
X661812D02*
D03*
X650128Y774192D02*
D03*
X636128D02*
D03*
X642986Y762508D02*
D03*
X656986D02*
D03*
X356504Y192532D02*
D03*
X342504D02*
D03*
X436738Y202184D02*
D03*
X450738D02*
D03*
X210342Y639318D02*
D03*
X196342D02*
D03*
X206756Y653796D02*
D03*
X220756D02*
D03*
X202326Y622300D02*
D03*
X188326D02*
D03*
X251094Y652272D02*
D03*
X237094D02*
D03*
X61072Y252984D02*
D03*
X75072D02*
D03*
X106060Y361696D02*
D03*
X92060D02*
D03*
X118222Y562356D02*
D03*
X132222D02*
D03*
X105014Y576580D02*
D03*
X119014D02*
D03*
X121524Y623570D02*
D03*
X135524D02*
D03*
X126177Y654307D02*
D03*
X112177D02*
D03*
X122174Y637286D02*
D03*
X136174D02*
D03*
X104790Y620268D02*
D03*
X90790D02*
D03*
X96408Y633222D02*
D03*
X82408D02*
D03*
X88788Y706120D02*
D03*
X74788D02*
D03*
X281066Y371348D02*
D03*
X267066D02*
D03*
D97*
X741060Y686174D02*
D03*
Y701174D02*
D03*
X207010Y542410D02*
D03*
Y557410D02*
D03*
D98*
X740156Y734822D02*
D03*
X749476Y745930D02*
D03*
X758286Y738538D02*
D03*
X246047Y609934D02*
D03*
X237237Y617326D02*
D03*
X227917Y606218D02*
D03*
D99*
X748966Y727430D02*
D03*
X236727Y598826D02*
D03*
D100*
X747776Y588772D02*
D03*
Y548132D02*
D03*
X735076Y588772D02*
D03*
Y548132D02*
D03*
X722376Y588772D02*
D03*
Y548132D02*
D03*
X709676Y588772D02*
D03*
Y548132D02*
D03*
X696976Y588772D02*
D03*
Y548132D02*
D03*
D101*
X223452Y73980D02*
D03*
X278452D02*
D03*
D102*
X235752D02*
D03*
X266152D02*
D03*
D103*
X245952D02*
D03*
X255952D02*
D03*
D104*
X273040Y242740D02*
D03*
Y247740D02*
D03*
Y252740D02*
D03*
Y257740D02*
D03*
Y262740D02*
D03*
X240040D02*
D03*
Y257740D02*
D03*
Y252740D02*
D03*
Y247740D02*
D03*
Y242740D02*
D03*
D105*
X266540Y269240D02*
D03*
X261540D02*
D03*
X256540D02*
D03*
X251540D02*
D03*
X246540D02*
D03*
X251540Y236240D02*
D03*
X256540D02*
D03*
X261540D02*
D03*
X266540D02*
D03*
D106*
X246540D02*
D03*
D107*
X256540Y252740D02*
D03*
D108*
X412964Y636304D02*
D03*
Y545304D02*
D03*
D109*
X385964Y613304D02*
D03*
Y608304D02*
D03*
Y603304D02*
D03*
Y598304D02*
D03*
Y593304D02*
D03*
Y588304D02*
D03*
Y583304D02*
D03*
Y578304D02*
D03*
Y573304D02*
D03*
Y568304D02*
D03*
D110*
X389292Y88392D02*
D03*
X346292D02*
D03*
D111*
X176530Y247904D02*
D03*
Y277876D02*
D03*
D112*
X90424Y257810D02*
D03*
X100424D02*
D03*
X95424D02*
D03*
X100424Y242310D02*
D03*
X95424D02*
D03*
X90424D02*
D03*
D113*
X102924Y247560D02*
D03*
X87924D02*
D03*
X102924Y252560D02*
D03*
D114*
X87924D02*
D03*
D115*
X94468Y119620D02*
D03*
X28468Y149620D02*
D03*
Y119620D02*
D03*
X94468Y149620D02*
D03*
X285730Y119620D02*
D03*
X219730Y149620D02*
D03*
Y119620D02*
D03*
X285730Y149620D02*
D03*
X484358Y119620D02*
D03*
X418358Y149620D02*
D03*
Y119620D02*
D03*
X484358Y149620D02*
D03*
D116*
X81788Y665352D02*
D03*
X298958Y354966D02*
D03*
D117*
X81788Y649352D02*
D03*
X298958Y370966D02*
D03*
D118*
X138428Y137160D02*
D03*
X169928D02*
D03*
D119*
X388874Y31954D02*
D03*
X379374Y57454D02*
D03*
X398374D02*
D03*
D120*
X336194Y52164D02*
D03*
X355194D02*
D03*
X345694Y32164D02*
D03*
D121*
X75419Y372538D02*
D03*
Y362538D02*
D03*
Y367538D02*
D03*
X57169Y372538D02*
D03*
Y362538D02*
D03*
Y367538D02*
D03*
D122*
X58794Y379163D02*
D03*
D123*
X73794D02*
D03*
X68794D02*
D03*
X63794D02*
D03*
X73794Y355913D02*
D03*
X68794D02*
D03*
X63794D02*
D03*
D124*
X58794D02*
D03*
D125*
X149860Y297940D02*
D03*
Y329440D02*
D03*
D126*
X38354Y842772D02*
D03*
X578358Y786384D02*
D03*
X895096Y714248D02*
D03*
X481076Y534416D02*
D03*
X141478Y83566D02*
D03*
D127*
X464980Y43600D02*
D03*
X29624Y40298D02*
D03*
D128*
X484980Y43600D02*
D03*
X49624Y40298D02*
D03*
D129*
X888854Y599694D02*
D03*
D130*
X863854D02*
D03*
X838854D02*
D03*
X442552Y329184D02*
D03*
Y304184D02*
D03*
X442044Y448056D02*
D03*
Y423056D02*
D03*
D131*
X358140Y152146D02*
D03*
D132*
X332740D02*
D03*
D133*
X442552Y354184D02*
D03*
X442044Y473056D02*
D03*
D134*
X53594Y713486D02*
D03*
X267208Y148336D02*
D03*
X29464Y138430D02*
D03*
X309372Y315722D02*
D03*
D135*
X49784Y698144D02*
D03*
X57404D02*
D03*
D136*
X684196Y709996D02*
D03*
X690696Y716496D02*
D03*
X684196Y722996D02*
D03*
X677696Y716496D02*
D03*
X166078Y583702D02*
D03*
X172578Y590202D02*
D03*
X166078Y596702D02*
D03*
X159578Y590202D02*
D03*
X256540Y244990D02*
D03*
X248790Y252740D02*
D03*
X256540Y260490D02*
D03*
X264290Y252740D02*
D03*
X256540D02*
D03*
M02*
