G04*
G04 #@! TF.GenerationSoftware,Altium Limited,Altium Designer,24.10.1 (45)*
G04*
G04 Layer_Physical_Order=1*
G04 Layer_Color=255*
%FSLAX44Y44*%
%MOMM*%
G71*
G04*
G04 #@! TF.SameCoordinates,58AE560C-37F5-4C9B-8F18-908462E99DB1*
G04*
G04*
G04 #@! TF.FilePolarity,Positive*
G04*
G01*
G75*
%ADD15C,0.1524*%
%ADD17C,0.2540*%
%ADD18C,0.5080*%
G04:AMPARAMS|DCode=26|XSize=0.25mm|YSize=0.5mm|CornerRadius=0.0625mm|HoleSize=0mm|Usage=FLASHONLY|Rotation=0.000|XOffset=0mm|YOffset=0mm|HoleType=Round|Shape=RoundedRectangle|*
%AMROUNDEDRECTD26*
21,1,0.2500,0.3750,0,0,0.0*
21,1,0.1250,0.5000,0,0,0.0*
1,1,0.1250,0.0625,-0.1875*
1,1,0.1250,-0.0625,-0.1875*
1,1,0.1250,-0.0625,0.1875*
1,1,0.1250,0.0625,0.1875*
%
%ADD26ROUNDEDRECTD26*%
%ADD27R,1.3500X0.6500*%
%ADD28C,1.0000*%
G04:AMPARAMS|DCode=29|XSize=1.3mm|YSize=0.6mm|CornerRadius=0.075mm|HoleSize=0mm|Usage=FLASHONLY|Rotation=0.000|XOffset=0mm|YOffset=0mm|HoleType=Round|Shape=RoundedRectangle|*
%AMROUNDEDRECTD29*
21,1,1.3000,0.4500,0,0,0.0*
21,1,1.1500,0.6000,0,0,0.0*
1,1,0.1500,0.5750,-0.2250*
1,1,0.1500,-0.5750,-0.2250*
1,1,0.1500,-0.5750,0.2250*
1,1,0.1500,0.5750,0.2250*
%
%ADD29ROUNDEDRECTD29*%
G04:AMPARAMS|DCode=30|XSize=0.6mm|YSize=0.7mm|CornerRadius=0.15mm|HoleSize=0mm|Usage=FLASHONLY|Rotation=0.000|XOffset=0mm|YOffset=0mm|HoleType=Round|Shape=RoundedRectangle|*
%AMROUNDEDRECTD30*
21,1,0.6000,0.4000,0,0,0.0*
21,1,0.3000,0.7000,0,0,0.0*
1,1,0.3000,0.1500,-0.2000*
1,1,0.3000,-0.1500,-0.2000*
1,1,0.3000,-0.1500,0.2000*
1,1,0.3000,0.1500,0.2000*
%
%ADD30ROUNDEDRECTD30*%
G04:AMPARAMS|DCode=31|XSize=0.7mm|YSize=1mm|CornerRadius=0.175mm|HoleSize=0mm|Usage=FLASHONLY|Rotation=90.000|XOffset=0mm|YOffset=0mm|HoleType=Round|Shape=RoundedRectangle|*
%AMROUNDEDRECTD31*
21,1,0.7000,0.6500,0,0,90.0*
21,1,0.3500,1.0000,0,0,90.0*
1,1,0.3500,0.3250,0.1750*
1,1,0.3500,0.3250,-0.1750*
1,1,0.3500,-0.3250,-0.1750*
1,1,0.3500,-0.3250,0.1750*
%
%ADD31ROUNDEDRECTD31*%
%ADD32R,0.2500X0.5000*%
G04:AMPARAMS|DCode=33|XSize=0.5mm|YSize=0.25mm|CornerRadius=0.0625mm|HoleSize=0mm|Usage=FLASHONLY|Rotation=270.000|XOffset=0mm|YOffset=0mm|HoleType=Round|Shape=RoundedRectangle|*
%AMROUNDEDRECTD33*
21,1,0.5000,0.1250,0,0,270.0*
21,1,0.3750,0.2500,0,0,270.0*
1,1,0.1250,-0.0625,-0.1875*
1,1,0.1250,-0.0625,0.1875*
1,1,0.1250,0.0625,0.1875*
1,1,0.1250,0.0625,-0.1875*
%
%ADD33ROUNDEDRECTD33*%
%ADD34R,2.0000X1.2000*%
G04:AMPARAMS|DCode=35|XSize=1.2mm|YSize=1mm|CornerRadius=0.25mm|HoleSize=0mm|Usage=FLASHONLY|Rotation=90.000|XOffset=0mm|YOffset=0mm|HoleType=Round|Shape=RoundedRectangle|*
%AMROUNDEDRECTD35*
21,1,1.2000,0.5000,0,0,90.0*
21,1,0.7000,1.0000,0,0,90.0*
1,1,0.5000,0.2500,0.3500*
1,1,0.5000,0.2500,-0.3500*
1,1,0.5000,-0.2500,-0.3500*
1,1,0.5000,-0.2500,0.3500*
%
%ADD35ROUNDEDRECTD35*%
G04:AMPARAMS|DCode=36|XSize=1.2mm|YSize=1mm|CornerRadius=0.25mm|HoleSize=0mm|Usage=FLASHONLY|Rotation=180.000|XOffset=0mm|YOffset=0mm|HoleType=Round|Shape=RoundedRectangle|*
%AMROUNDEDRECTD36*
21,1,1.2000,0.5000,0,0,180.0*
21,1,0.7000,1.0000,0,0,180.0*
1,1,0.5000,-0.3500,0.2500*
1,1,0.5000,0.3500,0.2500*
1,1,0.5000,0.3500,-0.2500*
1,1,0.5000,-0.3500,-0.2500*
%
%ADD36ROUNDEDRECTD36*%
G04:AMPARAMS|DCode=37|XSize=0.9mm|YSize=0.9mm|CornerRadius=0.225mm|HoleSize=0mm|Usage=FLASHONLY|Rotation=90.000|XOffset=0mm|YOffset=0mm|HoleType=Round|Shape=RoundedRectangle|*
%AMROUNDEDRECTD37*
21,1,0.9000,0.4500,0,0,90.0*
21,1,0.4500,0.9000,0,0,90.0*
1,1,0.4500,0.2250,0.2250*
1,1,0.4500,0.2250,-0.2250*
1,1,0.4500,-0.2250,-0.2250*
1,1,0.4500,-0.2250,0.2250*
%
%ADD37ROUNDEDRECTD37*%
G04:AMPARAMS|DCode=38|XSize=0.9mm|YSize=0.9mm|CornerRadius=0.225mm|HoleSize=0mm|Usage=FLASHONLY|Rotation=0.000|XOffset=0mm|YOffset=0mm|HoleType=Round|Shape=RoundedRectangle|*
%AMROUNDEDRECTD38*
21,1,0.9000,0.4500,0,0,0.0*
21,1,0.4500,0.9000,0,0,0.0*
1,1,0.4500,0.2250,-0.2250*
1,1,0.4500,-0.2250,-0.2250*
1,1,0.4500,-0.2250,0.2250*
1,1,0.4500,0.2250,0.2250*
%
%ADD38ROUNDEDRECTD38*%
G04:AMPARAMS|DCode=39|XSize=0.22mm|YSize=0.76mm|CornerRadius=0.055mm|HoleSize=0mm|Usage=FLASHONLY|Rotation=180.000|XOffset=0mm|YOffset=0mm|HoleType=Round|Shape=RoundedRectangle|*
%AMROUNDEDRECTD39*
21,1,0.2200,0.6500,0,0,180.0*
21,1,0.1100,0.7600,0,0,180.0*
1,1,0.1100,-0.0550,0.3250*
1,1,0.1100,0.0550,0.3250*
1,1,0.1100,0.0550,-0.3250*
1,1,0.1100,-0.0550,-0.3250*
%
%ADD39ROUNDEDRECTD39*%
%ADD40R,0.2200X0.7600*%
G04:AMPARAMS|DCode=41|XSize=0.22mm|YSize=0.76mm|CornerRadius=0.055mm|HoleSize=0mm|Usage=FLASHONLY|Rotation=270.000|XOffset=0mm|YOffset=0mm|HoleType=Round|Shape=RoundedRectangle|*
%AMROUNDEDRECTD41*
21,1,0.2200,0.6500,0,0,270.0*
21,1,0.1100,0.7600,0,0,270.0*
1,1,0.1100,-0.3250,-0.0550*
1,1,0.1100,-0.3250,0.0550*
1,1,0.1100,0.3250,0.0550*
1,1,0.1100,0.3250,-0.0550*
%
%ADD41ROUNDEDRECTD41*%
%ADD42R,0.7600X0.2200*%
%ADD43R,0.8000X0.8000*%
G04:AMPARAMS|DCode=44|XSize=0.8mm|YSize=0.8mm|CornerRadius=0.2mm|HoleSize=0mm|Usage=FLASHONLY|Rotation=270.000|XOffset=0mm|YOffset=0mm|HoleType=Round|Shape=RoundedRectangle|*
%AMROUNDEDRECTD44*
21,1,0.8000,0.4000,0,0,270.0*
21,1,0.4000,0.8000,0,0,270.0*
1,1,0.4000,-0.2000,-0.2000*
1,1,0.4000,-0.2000,0.2000*
1,1,0.4000,0.2000,0.2000*
1,1,0.4000,0.2000,-0.2000*
%
%ADD44ROUNDEDRECTD44*%
G04:AMPARAMS|DCode=45|XSize=0.7mm|YSize=1mm|CornerRadius=0.175mm|HoleSize=0mm|Usage=FLASHONLY|Rotation=0.000|XOffset=0mm|YOffset=0mm|HoleType=Round|Shape=RoundedRectangle|*
%AMROUNDEDRECTD45*
21,1,0.7000,0.6500,0,0,0.0*
21,1,0.3500,1.0000,0,0,0.0*
1,1,0.3500,0.1750,-0.3250*
1,1,0.3500,-0.1750,-0.3250*
1,1,0.3500,-0.1750,0.3250*
1,1,0.3500,0.1750,0.3250*
%
%ADD45ROUNDEDRECTD45*%
%ADD46R,1.5000X0.8000*%
%ADD47R,0.6000X0.7000*%
%ADD48R,1.0414X0.6604*%
G04:AMPARAMS|DCode=49|XSize=0.6mm|YSize=0.7mm|CornerRadius=0.15mm|HoleSize=0mm|Usage=FLASHONLY|Rotation=90.000|XOffset=0mm|YOffset=0mm|HoleType=Round|Shape=RoundedRectangle|*
%AMROUNDEDRECTD49*
21,1,0.6000,0.4000,0,0,90.0*
21,1,0.3000,0.7000,0,0,90.0*
1,1,0.3000,0.2000,0.1500*
1,1,0.3000,0.2000,-0.1500*
1,1,0.3000,-0.2000,-0.1500*
1,1,0.3000,-0.2000,0.1500*
%
%ADD49ROUNDEDRECTD49*%
G04:AMPARAMS|DCode=50|XSize=0.85mm|YSize=0.95mm|CornerRadius=0.2125mm|HoleSize=0mm|Usage=FLASHONLY|Rotation=140.000|XOffset=0mm|YOffset=0mm|HoleType=Round|Shape=RoundedRectangle|*
%AMROUNDEDRECTD50*
21,1,0.8500,0.5250,0,0,140.0*
21,1,0.4250,0.9500,0,0,140.0*
1,1,0.4250,0.0060,0.3377*
1,1,0.4250,0.3315,0.0645*
1,1,0.4250,-0.0060,-0.3377*
1,1,0.4250,-0.3315,-0.0645*
%
%ADD50ROUNDEDRECTD50*%
G04:AMPARAMS|DCode=51|XSize=0.85mm|YSize=0.95mm|CornerRadius=0mm|HoleSize=0mm|Usage=FLASHONLY|Rotation=140.000|XOffset=0mm|YOffset=0mm|HoleType=Round|Shape=Rectangle|*
%AMROTATEDRECTD51*
4,1,4,0.6309,0.0907,0.0202,-0.6371,-0.6309,-0.0907,-0.0202,0.6371,0.6309,0.0907,0.0*
%
%ADD51ROTATEDRECTD51*%

G04:AMPARAMS|DCode=52|XSize=2.794mm|YSize=0.7366mm|CornerRadius=0.1842mm|HoleSize=0mm|Usage=FLASHONLY|Rotation=270.000|XOffset=0mm|YOffset=0mm|HoleType=Round|Shape=RoundedRectangle|*
%AMROUNDEDRECTD52*
21,1,2.7940,0.3683,0,0,270.0*
21,1,2.4257,0.7366,0,0,270.0*
1,1,0.3683,-0.1842,-1.2129*
1,1,0.3683,-0.1842,1.2129*
1,1,0.3683,0.1842,1.2129*
1,1,0.3683,0.1842,-1.2129*
%
%ADD52ROUNDEDRECTD52*%
%ADD53R,0.8000X1.2000*%
%ADD54R,0.7600X1.2000*%
%ADD55R,0.7000X1.2000*%
G04:AMPARAMS|DCode=56|XSize=0.6mm|YSize=0.24mm|CornerRadius=0.03mm|HoleSize=0mm|Usage=FLASHONLY|Rotation=180.000|XOffset=0mm|YOffset=0mm|HoleType=Round|Shape=RoundedRectangle|*
%AMROUNDEDRECTD56*
21,1,0.6000,0.1800,0,0,180.0*
21,1,0.5400,0.2400,0,0,180.0*
1,1,0.0600,-0.2700,0.0900*
1,1,0.0600,0.2700,0.0900*
1,1,0.0600,0.2700,-0.0900*
1,1,0.0600,-0.2700,-0.0900*
%
%ADD56ROUNDEDRECTD56*%
G04:AMPARAMS|DCode=57|XSize=0.6mm|YSize=0.24mm|CornerRadius=0.03mm|HoleSize=0mm|Usage=FLASHONLY|Rotation=90.000|XOffset=0mm|YOffset=0mm|HoleType=Round|Shape=RoundedRectangle|*
%AMROUNDEDRECTD57*
21,1,0.6000,0.1800,0,0,90.0*
21,1,0.5400,0.2400,0,0,90.0*
1,1,0.0600,0.0900,0.2700*
1,1,0.0600,0.0900,-0.2700*
1,1,0.0600,-0.0900,-0.2700*
1,1,0.0600,-0.0900,0.2700*
%
%ADD57ROUNDEDRECTD57*%
%ADD58R,0.2400X0.6000*%
%ADD59R,1.3000X2.0000*%
%ADD60R,1.0000X0.3000*%
%ADD61R,2.6500X1.7500*%
%ADD62R,1.8034X1.1176*%
G04:AMPARAMS|DCode=63|XSize=0.3mm|YSize=0.3249mm|CornerRadius=0.075mm|HoleSize=0mm|Usage=FLASHONLY|Rotation=180.000|XOffset=0mm|YOffset=0mm|HoleType=Round|Shape=RoundedRectangle|*
%AMROUNDEDRECTD63*
21,1,0.3000,0.1749,0,0,180.0*
21,1,0.1500,0.3249,0,0,180.0*
1,1,0.1500,-0.0750,0.0874*
1,1,0.1500,0.0750,0.0874*
1,1,0.1500,0.0750,-0.0874*
1,1,0.1500,-0.0750,-0.0874*
%
%ADD63ROUNDEDRECTD63*%
G04:AMPARAMS|DCode=64|XSize=0.3mm|YSize=0.3249mm|CornerRadius=0.075mm|HoleSize=0mm|Usage=FLASHONLY|Rotation=270.000|XOffset=0mm|YOffset=0mm|HoleType=Round|Shape=RoundedRectangle|*
%AMROUNDEDRECTD64*
21,1,0.3000,0.1749,0,0,270.0*
21,1,0.1500,0.3249,0,0,270.0*
1,1,0.1500,-0.0874,-0.0750*
1,1,0.1500,-0.0874,0.0750*
1,1,0.1500,0.0874,0.0750*
1,1,0.1500,0.0874,-0.0750*
%
%ADD64ROUNDEDRECTD64*%
%ADD65R,0.3249X0.3000*%
%ADD66R,1.5000X1.2000*%
%ADD67R,0.8000X0.8000*%
G04:AMPARAMS|DCode=68|XSize=0.8mm|YSize=0.8mm|CornerRadius=0.2mm|HoleSize=0mm|Usage=FLASHONLY|Rotation=0.000|XOffset=0mm|YOffset=0mm|HoleType=Round|Shape=RoundedRectangle|*
%AMROUNDEDRECTD68*
21,1,0.8000,0.4000,0,0,0.0*
21,1,0.4000,0.8000,0,0,0.0*
1,1,0.4000,0.2000,-0.2000*
1,1,0.4000,-0.2000,-0.2000*
1,1,0.4000,-0.2000,0.2000*
1,1,0.4000,0.2000,0.2000*
%
%ADD68ROUNDEDRECTD68*%
%ADD69R,0.9000X0.9500*%
%ADD70R,0.6500X1.1500*%
G04:AMPARAMS|DCode=72|XSize=0.475mm|YSize=0.25mm|CornerRadius=0.0625mm|HoleSize=0mm|Usage=FLASHONLY|Rotation=180.000|XOffset=0mm|YOffset=0mm|HoleType=Round|Shape=RoundedRectangle|*
%AMROUNDEDRECTD72*
21,1,0.4750,0.1250,0,0,180.0*
21,1,0.3500,0.2500,0,0,180.0*
1,1,0.1250,-0.1750,0.0625*
1,1,0.1250,0.1750,0.0625*
1,1,0.1250,0.1750,-0.0625*
1,1,0.1250,-0.1750,-0.0625*
%
%ADD72ROUNDEDRECTD72*%
G04:AMPARAMS|DCode=73|XSize=0.475mm|YSize=0.25mm|CornerRadius=0.0625mm|HoleSize=0mm|Usage=FLASHONLY|Rotation=90.000|XOffset=0mm|YOffset=0mm|HoleType=Round|Shape=RoundedRectangle|*
%AMROUNDEDRECTD73*
21,1,0.4750,0.1250,0,0,90.0*
21,1,0.3500,0.2500,0,0,90.0*
1,1,0.1250,0.0625,0.1750*
1,1,0.1250,0.0625,-0.1750*
1,1,0.1250,-0.0625,-0.1750*
1,1,0.1250,-0.0625,0.1750*
%
%ADD73ROUNDEDRECTD73*%
G04:AMPARAMS|DCode=74|XSize=0.475mm|YSize=0.25mm|CornerRadius=0.0625mm|HoleSize=0mm|Usage=FLASHONLY|Rotation=90.000|XOffset=0mm|YOffset=0mm|HoleType=Round|Shape=RoundedRectangle|*
%AMROUNDEDRECTD74*
21,1,0.4750,0.1250,0,0,90.0*
21,1,0.3500,0.2500,0,0,90.0*
1,1,0.1250,0.0625,0.1750*
1,1,0.1250,0.0625,-0.1750*
1,1,0.1250,-0.0625,-0.1750*
1,1,0.1250,-0.0625,0.1750*
%
%ADD74ROUNDEDRECTD74*%
%ADD75R,0.2500X0.4750*%
%ADD76R,0.9500X0.9000*%
G04:AMPARAMS|DCode=137|XSize=0.5mm|YSize=2.5mm|CornerRadius=0mm|HoleSize=0mm|Usage=FLASHONLY|Rotation=45.000|XOffset=0mm|YOffset=0mm|HoleType=Round|Shape=Rectangle|*
%AMROTATEDRECTD137*
4,1,4,0.7071,-1.0607,-1.0607,0.7071,-0.7071,1.0607,1.0607,-0.7071,0.7071,-1.0607,0.0*
%
%ADD137ROTATEDRECTD137*%

%ADD138R,19.8628X0.9906*%
%ADD139R,1.0160X8.4074*%
%ADD140R,2.8000X2.8000*%
%ADD141R,2.0500X2.0500*%
%ADD142R,2.5000X0.5000*%
%ADD143C,0.7000*%
%ADD144C,0.2200*%
%ADD145C,4.5720*%
%ADD146R,1.3680X1.3680*%
%ADD147C,1.3680*%
%ADD148R,1.5080X1.5080*%
%ADD149C,1.5080*%
%ADD150O,1.0000X1.6000*%
%ADD151C,1.6000*%
%ADD152R,1.6000X1.6000*%
%ADD153R,1.5080X1.5080*%
%ADD154C,0.6350*%
%ADD155C,0.2500*%
%ADD156C,0.2540*%
G36*
X508000Y909574D02*
Y864960D01*
X191479Y864960D01*
X190410Y864960D01*
X190246Y865124D01*
X189992Y864870D01*
X189992Y863609D01*
Y646176D01*
X179070Y635254D01*
Y621030D01*
X170434D01*
Y769910D01*
X171958Y771160D01*
X172156Y771121D01*
X172386D01*
Y777240D01*
Y783359D01*
X172156D01*
X171958Y783320D01*
X170434Y784570D01*
Y820710D01*
X171958Y821960D01*
X172156Y821921D01*
X172386D01*
Y828040D01*
Y834159D01*
X172156D01*
X171958Y834120D01*
X170434Y835370D01*
Y910082D01*
Y910844D01*
X171196Y911606D01*
X508000D01*
Y909574D01*
D02*
G37*
G36*
X915924Y863854D02*
X915670Y863600D01*
X712216D01*
Y775462D01*
X703326Y766572D01*
Y745941D01*
X703183Y745799D01*
X695452D01*
X695452Y745799D01*
X694436Y745597D01*
X694346Y745592D01*
X692912Y746446D01*
Y759516D01*
X694864D01*
Y765556D01*
Y771596D01*
X692912D01*
Y775462D01*
Y795866D01*
X694090Y796833D01*
X694380Y796775D01*
X694610D01*
Y802894D01*
Y809013D01*
X694380D01*
X694090Y808956D01*
X692912Y809922D01*
Y835185D01*
X694090Y836152D01*
X694126Y836145D01*
X694356D01*
Y842264D01*
Y848383D01*
X694126D01*
X694090Y848376D01*
X692912Y849343D01*
Y909066D01*
X694436Y910590D01*
X915924D01*
Y863854D01*
D02*
G37*
G36*
X632968Y910590D02*
X677926D01*
X679196Y909320D01*
Y745281D01*
X667766D01*
Y763016D01*
X659892Y770890D01*
Y775970D01*
Y863854D01*
X583692D01*
Y1010970D01*
X632968D01*
Y910590D01*
D02*
G37*
G36*
X110744Y911606D02*
X156464D01*
X157226Y910844D01*
Y910082D01*
Y623524D01*
X155702Y622864D01*
X155268Y623154D01*
X154178Y623371D01*
X154178Y623371D01*
X148336D01*
Y635000D01*
X137922Y645414D01*
X137922Y864870D01*
X61468D01*
X61214Y864975D01*
Y1010412D01*
X110744D01*
Y911606D01*
D02*
G37*
G36*
X238506Y342392D02*
X280670D01*
Y324384D01*
X279591Y323308D01*
X238506Y323442D01*
Y305941D01*
X254043Y287861D01*
X253735Y279873D01*
X253691Y279654D01*
X253691Y279654D01*
Y278743D01*
X253431Y271986D01*
X252790Y266446D01*
X250190D01*
Y276610D01*
X223944Y308879D01*
X214329Y318494D01*
X194564Y340868D01*
X188795Y340745D01*
X187706Y341811D01*
Y361188D01*
X219710D01*
X238506Y342392D01*
D02*
G37*
G36*
X219078Y305940D02*
X238841Y282143D01*
X238491Y277679D01*
X240086Y274469D01*
X240618Y273182D01*
X240830Y272971D01*
X242757Y269091D01*
X243078Y262382D01*
X236982Y261874D01*
X236093Y266700D01*
Y267127D01*
X235951Y267468D01*
X235204Y271526D01*
X224889Y271935D01*
X205232Y291592D01*
X166624D01*
Y338836D01*
X186182D01*
X219078Y305940D01*
D02*
G37*
G36*
X228854Y249936D02*
X230619Y249812D01*
X230788Y249700D01*
X232076Y249443D01*
X235875D01*
X243332Y248920D01*
Y246634D01*
X234188D01*
X226568Y239014D01*
X164084D01*
X163322Y239330D01*
Y256286D01*
X220218D01*
X228854Y249936D01*
D02*
G37*
G36*
X242691Y244094D02*
X242959Y231783D01*
X225552Y214376D01*
X149860D01*
Y235458D01*
X226568D01*
X235204Y244094D01*
X242691Y244094D01*
D02*
G37*
G36*
X252730Y216916D02*
X242824Y207010D01*
Y174244D01*
X212090D01*
X198882Y161036D01*
X150368D01*
Y211046D01*
X226735Y211495D01*
X246888Y231648D01*
X248666D01*
X248680Y231716D01*
X249264D01*
Y234638D01*
X250190Y239268D01*
X252730D01*
Y216916D01*
D02*
G37*
%LPC*%
G36*
X175156Y834159D02*
X174926D01*
Y829310D01*
X179275D01*
Y830040D01*
X178962Y831616D01*
X178069Y832953D01*
X176732Y833846D01*
X175156Y834159D01*
D02*
G37*
G36*
X179275Y826770D02*
X174926D01*
Y821921D01*
X175156D01*
X176732Y822234D01*
X178069Y823127D01*
X178962Y824464D01*
X179275Y826040D01*
Y826770D01*
D02*
G37*
G36*
X175156Y783359D02*
X174926D01*
Y778510D01*
X179275D01*
Y779240D01*
X178962Y780816D01*
X178069Y782153D01*
X176732Y783046D01*
X175156Y783359D01*
D02*
G37*
G36*
X179275Y775970D02*
X174926D01*
Y771121D01*
X175156D01*
X176732Y771434D01*
X178069Y772327D01*
X178962Y773664D01*
X179275Y775240D01*
Y775970D01*
D02*
G37*
G36*
X697126Y848383D02*
X696896D01*
Y843534D01*
X701245D01*
Y844264D01*
X700932Y845840D01*
X700039Y847177D01*
X698702Y848070D01*
X697126Y848383D01*
D02*
G37*
G36*
X701245Y840994D02*
X696896D01*
Y836145D01*
X697126D01*
X698702Y836458D01*
X700039Y837351D01*
X700932Y838688D01*
X701245Y840264D01*
Y840994D01*
D02*
G37*
G36*
X697380Y809013D02*
X697150D01*
Y804164D01*
X701499D01*
Y804894D01*
X701186Y806470D01*
X700293Y807807D01*
X698956Y808700D01*
X697380Y809013D01*
D02*
G37*
G36*
X701499Y801624D02*
X697150D01*
Y796775D01*
X697380D01*
X698956Y797088D01*
X700293Y797981D01*
X701186Y799318D01*
X701499Y800894D01*
Y801624D01*
D02*
G37*
G36*
X701674Y771596D02*
X697404D01*
Y766826D01*
X701674D01*
Y771596D01*
D02*
G37*
G36*
Y764286D02*
X697404D01*
Y759516D01*
X701674D01*
Y764286D01*
D02*
G37*
%LPD*%
D15*
X252094Y92921D02*
Y97282D01*
X245744Y103632D02*
X252094Y97282D01*
Y92921D02*
X255952Y89063D01*
X244728Y75204D02*
Y92202D01*
Y75204D02*
X245952Y73980D01*
X255952D02*
Y89063D01*
X244094Y69342D02*
X245952Y71200D01*
Y73980D01*
X40691Y696296D02*
Y716434D01*
X36586Y561838D02*
Y716639D01*
X51872Y727615D02*
Y760294D01*
X36586Y716639D02*
X44832Y724885D01*
X40691Y716434D02*
X51872Y727615D01*
X44832Y724885D02*
Y748030D01*
X40691Y696296D02*
X47094Y689894D01*
X751327Y531876D02*
X774807Y555356D01*
X753237Y607876D02*
X753745Y607368D01*
X769112Y585990D02*
Y628650D01*
X774807Y555356D02*
Y632222D01*
X768858Y628904D02*
X769112Y628650D01*
X783336Y578997D02*
Y635682D01*
X753745Y574934D02*
Y607368D01*
X769327Y637701D02*
X774807Y632222D01*
X783336Y578997D02*
X784229Y578104D01*
X889887D01*
X751327Y572516D02*
X753745Y574934D01*
X776779Y642239D02*
X783336Y635682D01*
X889887Y578104D02*
X913384Y601601D01*
X752590Y569468D02*
X769112Y585990D01*
X735934Y569468D02*
X752590D01*
X810514Y574040D02*
X893318D01*
X683006Y526034D02*
X762508D01*
X810514Y574040D01*
X29972Y230267D02*
Y554736D01*
Y230267D02*
X53411Y206828D01*
X29972Y554736D02*
X36830Y561594D01*
X29718Y478028D02*
X29972Y478282D01*
X60094Y688644D02*
X68020D01*
X82224Y702848D01*
Y725109D01*
X78353Y728980D02*
X82224Y725109D01*
X72523Y728980D02*
X78353D01*
X68652Y732851D02*
X72523Y728980D01*
X68652Y732851D02*
Y770429D01*
X65723Y773358D02*
X68652Y770429D01*
X41465Y773358D02*
X65723D01*
X38808Y770701D02*
X41465Y773358D01*
X38808Y762443D02*
Y770701D01*
Y762443D02*
X45086Y756165D01*
Y748284D02*
Y756165D01*
X42926Y683226D02*
X47094Y687394D01*
X42926Y367792D02*
Y683226D01*
X47094Y688644D02*
Y689894D01*
X45594Y766572D02*
X51872Y760294D01*
X36586Y561838D02*
X36830Y561594D01*
X417830Y674616D02*
Y676910D01*
Y674616D02*
X421750Y670696D01*
X341630Y502666D02*
X374794Y535830D01*
X270129Y538607D02*
X306070Y502666D01*
X341630D01*
X270713Y530300D02*
X310285Y490728D01*
X336459D02*
X381726Y535995D01*
X310285Y490728D02*
X336459D01*
X275641Y540817D02*
X301093Y515366D01*
X348234D01*
X371746Y538878D01*
X164078Y564576D02*
X184912Y543742D01*
X164078Y564576D02*
Y570352D01*
X694534Y742032D02*
X695452Y742950D01*
X704363D02*
X706644Y745231D01*
X695452Y742950D02*
X704363D01*
X694534Y736684D02*
Y742032D01*
X726186Y771008D02*
Y783336D01*
X718678Y765314D02*
X721849Y768485D01*
X718678Y760476D02*
Y765314D01*
X272227Y482340D02*
X361629Y392938D01*
X420244D01*
X442044Y398738D02*
Y423056D01*
X436244Y392938D02*
X442044Y398738D01*
X437768Y278914D02*
X442552Y283698D01*
Y304184D01*
X421640Y277622D02*
Y325223D01*
X607949Y753237D02*
X621754D01*
X626110Y748792D02*
Y748881D01*
X621754Y753237D02*
X626110Y748881D01*
X659386Y722834D02*
X664008D01*
X640361Y741859D02*
X659386Y722834D01*
X638100Y736397D02*
X656001Y718496D01*
X628904Y737870D02*
X656278Y710496D01*
X604520Y726440D02*
X619939Y741859D01*
X656278Y710496D02*
X664346D01*
X619939Y741859D02*
X640361D01*
X630301Y756285D02*
X659752Y726834D01*
X607244Y747776D02*
X617982D01*
X598424Y743712D02*
X607949Y753237D01*
X595376Y744982D02*
X606679Y756285D01*
X630301D01*
X601472Y742004D02*
X607244Y747776D01*
X604520Y658106D02*
Y726440D01*
X725678Y722630D02*
X744166D01*
X748966Y727430D01*
X287230Y119620D02*
X316422Y148812D01*
Y164950D02*
X342504Y191032D01*
Y192532D01*
X316422Y148812D02*
Y164950D01*
X285730Y119620D02*
X287230D01*
X226834Y453348D02*
X229453Y450729D01*
X230759D01*
X209296Y468630D02*
X224578Y453348D01*
X196596Y468630D02*
X209296D01*
X224578Y453348D02*
X226834D01*
X98679Y581648D02*
X104025Y586994D01*
X123618D02*
X126410Y584202D01*
X98679Y482727D02*
X106680Y474726D01*
X104025Y586994D02*
X123618D01*
X126410Y584202D02*
X146228D01*
X98679Y482727D02*
Y581648D01*
X88900Y561340D02*
Y576180D01*
X102762Y590042D01*
X124881D02*
X126721Y588202D01*
X102762Y590042D02*
X124881D01*
X126721Y588202D02*
X146228D01*
X122436Y583866D02*
X126100Y580202D01*
X115592Y583866D02*
X122436D01*
X127031Y592202D02*
X146228D01*
X126079Y593154D02*
X127031Y592202D01*
X98500Y593154D02*
X126079D01*
X104790Y619303D02*
X107955Y616138D01*
X153803D01*
X155464Y614156D02*
Y614477D01*
X153803Y616138D02*
X155464Y614477D01*
X155740Y610390D02*
Y613880D01*
X155464Y614156D02*
X155740Y613880D01*
X138187Y620522D02*
X154178D01*
X159740Y610390D02*
Y614960D01*
X154178Y620522D02*
X159740Y614960D01*
X135524Y623185D02*
X138187Y620522D01*
X135524Y623185D02*
Y623570D01*
X659752Y726834D02*
X664008D01*
X627075Y731976D02*
X639803Y719248D01*
X642700D01*
X620664Y737870D02*
X628904D01*
X642700Y719248D02*
X655452Y706496D01*
X656001Y718496D02*
X664346D01*
X698196Y736346D02*
X720852D01*
X742696Y758190D02*
X750316D01*
X720852Y736346D02*
X742696Y758190D01*
X748529Y744982D02*
X749476Y745930D01*
X736600Y744982D02*
X748529D01*
X704046Y730496D02*
X722114D01*
X736600Y744982D01*
X607568Y659368D02*
X660130Y606806D01*
X601472Y656829D02*
X685785Y572516D01*
X598424Y655566D02*
Y743712D01*
X595376Y654304D02*
X683260Y566420D01*
X598424Y655566D02*
X684522Y569468D01*
X592328Y616712D02*
Y746245D01*
X595376Y654304D02*
Y744982D01*
X592328Y616712D02*
X683006Y526034D01*
X635508Y653649D02*
Y681512D01*
X607568Y724774D02*
X620664Y737870D01*
X592328Y746245D02*
X620530Y774446D01*
X604520Y658106D02*
X674870Y587756D01*
X607568Y659368D02*
Y724774D01*
X601472Y656829D02*
Y742004D01*
X640187Y648970D02*
X655154D01*
X635508Y653649D02*
X640187Y648970D01*
X740156Y782574D02*
Y788894D01*
X620530Y774446D02*
X636524D01*
X723663Y768485D02*
X726186Y771008D01*
X721849Y768485D02*
X723663D01*
X681582Y740375D02*
X681858Y740098D01*
X663252Y743335D02*
X664155Y742432D01*
X680243D02*
X681582Y741093D01*
X661812Y749554D02*
X663252Y748113D01*
X681582Y740375D02*
Y741093D01*
X664155Y742432D02*
X680243D01*
X663252Y743335D02*
Y748113D01*
X706644Y745231D02*
Y746918D01*
X694196Y736346D02*
X694534Y736684D01*
X792956Y727731D02*
Y728450D01*
X829000Y730306D02*
X856742Y702564D01*
X805671Y730306D02*
X829000D01*
X786982Y721757D02*
X792956Y727731D01*
Y728450D02*
X795320Y730814D01*
X805163D01*
X805671Y730306D01*
X856742Y674370D02*
Y702564D01*
X913384Y601601D02*
Y651764D01*
X814070Y751078D02*
X913384Y651764D01*
X837184Y732274D02*
Y781812D01*
X757428Y751078D02*
X814070D01*
X837184Y732274D02*
X917448Y652010D01*
Y598170D02*
Y652010D01*
X893318Y574040D02*
X917448Y598170D01*
X176416Y610390D02*
Y614312D01*
X171958Y610052D02*
X172040Y610134D01*
X181710Y619606D02*
X185663D01*
X176416Y614312D02*
X181710Y619606D01*
X172040Y610134D02*
Y617490D01*
X172002Y617528D02*
X172040Y617490D01*
X104790Y620268D02*
Y621768D01*
Y619303D02*
Y620268D01*
X274830Y262730D02*
X275278Y263178D01*
X274707Y262730D02*
X274830D01*
X275278Y264463D02*
X280565Y269750D01*
X280672D01*
X275278Y263178D02*
Y264463D01*
X280672Y269750D02*
X293298Y282376D01*
X318714D01*
X292233Y309372D02*
X300482D01*
X287528Y314077D02*
X292233Y309372D01*
X287528Y314077D02*
Y326763D01*
X291909Y331144D01*
X301934Y297243D02*
Y307920D01*
X300482Y309372D02*
X301934Y307920D01*
X281304Y288798D02*
X293489D01*
X301934Y297243D01*
X301355Y292354D02*
X310134D01*
X275336Y269240D02*
X291520Y285424D01*
X294425D01*
X301355Y292354D01*
X261540Y269240D02*
X261978Y269678D01*
Y272392D02*
X272288Y282702D01*
X261978Y269678D02*
Y272392D01*
X272288Y282702D02*
Y292729D01*
X268604Y296413D02*
X272288Y292729D01*
X268604Y296413D02*
Y303022D01*
X123444Y256532D02*
Y256794D01*
X105906Y299732D02*
X123825Y281813D01*
X123444Y256794D02*
X123825Y257175D01*
X110916Y244004D02*
X123444Y256532D01*
X123825Y257175D02*
Y281813D01*
X108036Y244004D02*
X110916D01*
X101316Y237284D02*
X108036Y244004D01*
X95424Y237284D02*
X101316D01*
X356504Y192532D02*
Y277389D01*
X348488Y285405D02*
X356504Y277389D01*
X235702Y634248D02*
X259334Y610616D01*
Y605947D02*
Y610616D01*
X250571Y595504D02*
X259334Y605947D01*
X250571Y459359D02*
Y595504D01*
X230978Y634782D02*
X231511Y634248D01*
X235702D01*
X250571Y459359D02*
X250952Y458978D01*
X228728Y637032D02*
X230978Y634782D01*
X176416Y566203D02*
X198117Y544502D01*
X176416Y566203D02*
Y570014D01*
X172416Y565881D02*
X195326Y542971D01*
X172416Y565881D02*
Y570014D01*
X172078Y570352D02*
X172416Y570014D01*
X168416Y565571D02*
X189738Y544249D01*
X168416Y565571D02*
Y570014D01*
X374396Y68834D02*
X382016D01*
X388408Y62442D02*
X395886D01*
X382016Y68834D02*
X388408Y62442D01*
X355194Y52164D02*
X357055Y54025D01*
X359587D01*
X374396Y68834D01*
X333495Y686562D02*
X426299D01*
X294640Y647707D02*
X309675Y662742D01*
Y663461D02*
X311014Y664800D01*
X309675Y662742D02*
Y663461D01*
X426299Y686562D02*
X435204Y677657D01*
X311733Y664800D02*
X333495Y686562D01*
X311014Y664800D02*
X311733D01*
X261493Y440206D02*
Y562888D01*
X273748Y575144D01*
X221591Y400304D02*
X261493Y440206D01*
X222854Y397256D02*
X264668Y439071D01*
Y559538D02*
X276796Y571666D01*
X264668Y439071D02*
Y559538D01*
X195326Y535178D02*
X230759Y499745D01*
Y482431D02*
Y499745D01*
X234938Y444627D02*
X236220Y445909D01*
X220400Y596202D02*
X239395Y577207D01*
Y445492D02*
Y577207D01*
X239268Y445365D02*
X239395Y445492D01*
X236220Y445909D02*
Y568657D01*
X212675Y592202D02*
X236220Y568657D01*
X239268Y444647D02*
Y445365D01*
X185928Y592202D02*
X212675D01*
X121419Y397256D02*
X222854D01*
X64516Y454160D02*
X121419Y397256D01*
X64516Y454160D02*
Y609862D01*
X224897Y430276D02*
X239268Y444647D01*
X189103Y444627D02*
X234938D01*
X205548Y588202D02*
X230759Y562991D01*
Y557328D02*
Y562991D01*
X216796Y546282D02*
Y562357D01*
Y546282D02*
X230515Y532562D01*
X191516Y430276D02*
X224897D01*
X206756Y481076D02*
X225490Y462341D01*
X230100Y458809D02*
X230759D01*
X230515Y532562D02*
X230759D01*
X204978Y492506D02*
X230759Y466725D01*
X225490Y462341D02*
X226568D01*
X219964Y551307D02*
Y563499D01*
X226568Y462341D02*
X230100Y458809D01*
X230759Y466683D02*
Y466725D01*
X189738Y515578D02*
X230759Y474557D01*
X224219Y555689D02*
Y565221D01*
X219964Y551307D02*
X230759Y540512D01*
X189738Y515578D02*
Y544249D01*
X224219Y555689D02*
X230759Y549149D01*
X203327Y580136D02*
X219964Y563499D01*
X212155Y566998D02*
X216796Y562357D01*
X298784Y576904D02*
Y587608D01*
X295632Y612267D02*
X301244Y606655D01*
X298784Y587608D02*
X301244Y590068D01*
Y606655D01*
X174498Y430022D02*
X189103Y444627D01*
X190754Y431038D02*
X191516Y430276D01*
X111252Y484890D02*
Y579526D01*
X114046Y481584D02*
Y482096D01*
X111252Y484890D02*
X114046Y482096D01*
X270129Y538607D02*
Y557276D01*
X205238Y584202D02*
X224219Y565221D01*
X283811Y557623D02*
Y604970D01*
X291108Y612267D02*
X295632D01*
X275590Y549402D02*
X283811Y557623D01*
Y604970D02*
X291108Y612267D01*
X272433Y474430D02*
X421640Y325223D01*
X310640Y428500D02*
X354076Y385064D01*
X310640Y428500D02*
X310640D01*
X354076Y286346D02*
Y385064D01*
X272542Y466598D02*
X310640Y428500D01*
X271728Y474430D02*
X272433D01*
X195326Y535178D02*
Y542971D01*
X196596Y492506D02*
X204978D01*
X196596Y481076D02*
X206756D01*
X348488Y285405D02*
Y376682D01*
X273304Y451866D02*
X348488Y376682D01*
X276796Y571666D02*
Y604456D01*
X273748Y575144D02*
Y608521D01*
X185928Y596202D02*
X220400D01*
X47094Y687394D02*
Y688644D01*
X44832Y748030D02*
X45086Y748284D01*
X73542Y235991D02*
X76231D01*
X70161Y230706D02*
X73542Y234088D01*
X164084Y430022D02*
X174498D01*
X332716Y628769D02*
X342653D01*
X113030Y468376D02*
X113792Y467614D01*
X81534Y486664D02*
X99822Y468376D01*
X113030D01*
X81534Y486664D02*
Y576188D01*
X95504Y461772D02*
X106426D01*
X76073Y481203D02*
X95504Y461772D01*
X184912Y524002D02*
Y543742D01*
X156972Y496062D02*
X184912Y524002D01*
X156972Y411988D02*
Y496062D01*
Y411988D02*
X162306Y406654D01*
X138302Y196533D02*
Y365124D01*
X159512Y386334D01*
X70612Y474585D02*
X89521Y455676D01*
X113284D01*
X70612Y474585D02*
Y583946D01*
X374794Y535830D02*
Y569202D01*
X371746Y538878D02*
Y571556D01*
X313784Y593435D02*
Y595376D01*
X309246Y605312D02*
Y612394D01*
X308784Y588435D02*
X313784Y593435D01*
X308784Y576904D02*
Y588435D01*
X313784Y576904D02*
Y593435D01*
X309246Y605312D02*
X310896Y603662D01*
Y598264D02*
Y603662D01*
Y598264D02*
X313784Y595376D01*
X371746Y571556D02*
X378494Y578304D01*
X378896Y573304D02*
X385964D01*
X374794Y569202D02*
X378896Y573304D01*
X378494Y578304D02*
X385964D01*
X381726Y535995D02*
Y567566D01*
X342653Y628769D02*
X343154Y628268D01*
X385964Y578304D02*
X386702Y579042D01*
X382464Y568304D02*
X385964D01*
X381726Y567566D02*
X382464Y568304D01*
X354076Y286346D02*
X436738Y203684D01*
Y202184D02*
Y203684D01*
X337058Y222893D02*
Y324977D01*
X329629Y215464D02*
X337058Y222893D01*
X330891Y331144D02*
X337058Y324977D01*
X332716Y629270D02*
X380356Y676910D01*
X417830D01*
X331216Y629270D02*
X332716D01*
X322238Y621792D02*
X329716Y629270D01*
X331216D01*
X294132Y621792D02*
X322238D01*
X435951Y676910D02*
Y677657D01*
Y628558D02*
Y676910D01*
X435204Y677657D02*
X435951D01*
X294640Y629412D02*
Y647707D01*
X90536Y620522D02*
X90790Y620268D01*
X75176Y620522D02*
X90536D01*
X76073Y481203D02*
Y583819D01*
X88456Y596202D01*
X185928Y588202D02*
X205548D01*
X69016Y610052D02*
X152078D01*
X75489Y604540D02*
X145890D01*
X75438Y604591D02*
X75489Y604540D01*
X67564Y608600D02*
X69016Y610052D01*
X145890Y604540D02*
X146228Y604202D01*
X86868Y600202D02*
X146228D01*
X70612Y583946D02*
X86868Y600202D01*
X42926Y221623D02*
Y367792D01*
X43180Y367538D01*
X42926Y221623D02*
X54673Y209876D01*
X43180Y367538D02*
X57169D01*
X896325Y588852D02*
X899696Y592223D01*
Y631416D01*
X827857Y639501D02*
X828040Y639684D01*
X766318Y715010D02*
X778780Y702548D01*
X800664Y691540D02*
Y696826D01*
X786982Y710508D02*
X800664Y696826D01*
X778780Y677672D02*
Y702548D01*
X856742Y674370D02*
X899696Y631416D01*
X849696Y588852D02*
X896325D01*
X838854Y599694D02*
X849696Y588852D01*
X786982Y718566D02*
Y721757D01*
Y710508D02*
Y718566D01*
X771398Y660908D02*
Y689879D01*
X770636Y660146D02*
X771398Y660908D01*
X753237Y640310D02*
X755166Y642239D01*
X776779D01*
X753237Y607876D02*
Y640310D01*
X764286Y636778D02*
X765209Y637701D01*
X769327D01*
X779829Y784180D02*
X781636D01*
X777289Y786720D02*
X779829Y784180D01*
X740156Y788894D02*
X748822Y797560D01*
X752137Y783125D02*
X758444Y789432D01*
X777289Y786720D02*
Y788527D01*
X776384Y789432D02*
X777289Y788527D01*
X758444Y789432D02*
X776384D01*
X748822Y797560D02*
X821436D01*
X830629Y788367D02*
X837184Y781812D01*
X821436Y797560D02*
X829228Y789768D01*
X754564Y775390D02*
X766673Y763281D01*
X829228Y789768D02*
X829290D01*
X830629Y788367D02*
Y788429D01*
X829290Y789768D02*
X830629Y788429D01*
X766673Y761199D02*
X769366Y758505D01*
X766673Y761199D02*
Y763281D01*
X750316Y758190D02*
X753872D01*
X753599Y775390D02*
X754564D01*
X752206Y776783D02*
X753599Y775390D01*
X752137Y777679D02*
Y783125D01*
X752206Y776783D02*
Y777748D01*
X750936Y779018D02*
X752206Y777748D01*
X717070Y718566D02*
X786982D01*
X750316Y758190D02*
X757428Y751078D01*
X721812Y726496D02*
X725678Y722630D01*
X713770Y715010D02*
X766318D01*
X730777Y707460D02*
X749507D01*
X765302Y691665D01*
X741060Y701174D02*
X744560D01*
X737560D02*
X741060D01*
X706644Y746918D02*
X708772Y749046D01*
X695344Y689412D02*
X737822D01*
X698196Y696646D02*
X733032D01*
X737560Y701174D01*
X704046Y702496D02*
X725813D01*
X730777Y707460D01*
X704046Y706496D02*
X725503D01*
X729515Y710508D01*
X710284Y718496D02*
X713770Y715010D01*
X704046Y718496D02*
X710284D01*
X713140Y722496D02*
X717070Y718566D01*
X704046Y726496D02*
X721812D01*
X690196Y723496D02*
Y736346D01*
Y723496D02*
X690696Y722996D01*
X704046Y722496D02*
X713140D01*
X765302Y667305D02*
X765603Y667004D01*
X737822Y689412D02*
X741060Y686174D01*
X765302Y667305D02*
Y691665D01*
X750769Y710508D02*
X771398Y689879D01*
X729515Y710508D02*
X750769D01*
X694196Y690560D02*
X695344Y689412D01*
X690196Y736346D02*
X690534Y736684D01*
X685887Y789773D02*
X686054Y789606D01*
X685713Y802807D02*
X685880Y802640D01*
X654858Y764636D02*
Y767962D01*
X650128Y772692D02*
X654858Y767962D01*
X650128Y772692D02*
Y774192D01*
X654858Y764636D02*
X656986Y762508D01*
X657098D01*
Y761431D02*
Y762508D01*
Y761431D02*
X660726Y757802D01*
X685720Y842010D02*
X685760Y841970D01*
X675600Y816864D02*
X675767Y816697D01*
X675854Y829310D02*
X675894Y829350D01*
X685760Y828254D02*
X685800Y828214D01*
X675894Y841970D02*
X675934Y842010D01*
X661812Y749554D02*
Y756840D01*
X660850Y757802D02*
X661812Y756840D01*
X660726Y757802D02*
X660850D01*
X676402Y766398D02*
X676736Y766064D01*
X695666Y802640D02*
X695833Y802473D01*
X708772Y749046D02*
Y750570D01*
X718678Y760476D01*
X620918Y681594D02*
X621172Y681848D01*
X664008Y726834D02*
X664346Y726496D01*
X664008Y722834D02*
X664346Y722496D01*
X621172Y695848D02*
X635508Y681512D01*
X635874Y695848D02*
X636016Y695706D01*
X621172Y695848D02*
X635874D01*
X638952Y711962D02*
X645239D01*
X654705Y702496D01*
X655452Y706496D02*
X664346D01*
X654705Y702496D02*
X664346D01*
X664089Y702753D02*
X664346Y702496D01*
X653542Y634858D02*
X653796Y635112D01*
X655154Y648970D02*
X662198Y656014D01*
X650016Y695706D02*
X650956Y696646D01*
X681858Y736684D02*
Y740098D01*
X694196Y690560D02*
Y696646D01*
X672499Y681643D02*
Y684978D01*
X671576Y680720D02*
X672499Y681643D01*
X662198Y656014D02*
X674685D01*
X672499Y684978D02*
X678196Y690674D01*
Y696646D01*
X681858Y736684D02*
X682196Y736346D01*
X650956Y696646D02*
X670196D01*
X735076Y578485D02*
Y588772D01*
X722122D02*
Y601599D01*
X716915Y606806D02*
X722122Y601599D01*
X674685Y656014D02*
X677560Y658888D01*
X660130Y606806D02*
X716915D01*
X678196Y696646D02*
Y710496D01*
X684196Y716496D01*
X709676Y579069D02*
Y588772D01*
X695960Y587756D02*
X696976Y588772D01*
X677560Y658888D02*
Y685728D01*
X682196Y690364D01*
Y696646D01*
X674870Y587756D02*
X695960D01*
X702945Y531876D02*
X751327D01*
X734822Y550672D02*
Y560959D01*
X747776Y548132D02*
Y556818D01*
X750615Y559657D01*
X683260Y566420D02*
X703961D01*
X717562Y569468D02*
X726313D01*
X714514Y572516D02*
X717562Y569468D01*
X732886Y572516D02*
X735934Y569468D01*
X726313D02*
X734822Y560959D01*
X716661Y566420D02*
X722122Y560959D01*
X684522Y569468D02*
X713252D01*
X703961Y566420D02*
X709422Y560959D01*
X713252Y569468D02*
X716300Y566420D01*
X716661D01*
X685785Y572516D02*
X714514D01*
X735076Y578485D02*
X741045Y572516D01*
X709676Y579069D02*
X712515Y576230D01*
X715110D01*
X718825Y572516D01*
X732886D01*
X741045D02*
X751327D01*
X750615Y559657D02*
X757269D01*
X757428Y559816D01*
X722122Y550672D02*
Y560959D01*
X696976Y537845D02*
Y548132D01*
X709422Y550672D02*
Y560959D01*
X696976Y537845D02*
X702945Y531876D01*
X176078Y610052D02*
X176416Y610390D01*
X136230Y623570D02*
Y637230D01*
X188326Y622300D02*
Y623800D01*
X196342Y631816D01*
Y639318D01*
X188326Y622269D02*
Y622300D01*
X185663Y619606D02*
X188326Y622269D01*
X225909Y634212D02*
X228728Y637032D01*
X180078Y610052D02*
X203906D01*
X225909Y632055D02*
Y634212D01*
X203906Y610052D02*
X225909Y632055D01*
X159740Y610390D02*
X160078Y610052D01*
X126177Y647283D02*
X132546Y640914D01*
X136174Y637286D02*
Y638251D01*
X126177Y647283D02*
Y654307D01*
X132546Y640914D02*
X133511D01*
X136174Y638251D01*
Y637286D02*
X136230Y637230D01*
X98536Y628022D02*
X104790Y621768D01*
X98536Y628022D02*
Y631094D01*
X96408Y633222D02*
X98536Y631094D01*
X155740Y610390D02*
X156078Y610052D01*
X28448Y119600D02*
X28468Y119620D01*
X337694Y68580D02*
X345217Y76103D01*
X372503D01*
X384792Y88392D01*
X389292D01*
X337694Y53664D02*
Y68580D01*
X336194Y52164D02*
X337694Y53664D01*
X353694Y53664D02*
Y68580D01*
Y53664D02*
X355194Y52164D01*
X395886Y62442D02*
X398374Y59954D01*
Y57454D02*
Y59954D01*
X266540Y269240D02*
X275336D01*
X273040Y252730D02*
X278991D01*
X301851Y275590D02*
X309500D01*
X278302Y247730D02*
X289158Y258586D01*
X278991Y252730D02*
X301851Y275590D01*
X289158Y258586D02*
X300122D01*
X273040Y247730D02*
X278302D01*
X310134Y292354D02*
X324866Y307086D01*
X325500D01*
X295148Y317372D02*
X295838Y318062D01*
Y324158D01*
X299776Y328096D01*
X269429Y302197D02*
X294323D01*
X268604Y303022D02*
X269429Y302197D01*
X294323D02*
X295148Y301372D01*
X256540Y269240D02*
Y279654D01*
Y269230D02*
Y269240D01*
X122682Y400304D02*
X221591D01*
X67564Y455422D02*
X122682Y400304D01*
X198117Y544502D02*
X202377D01*
X207518Y539362D01*
X111252Y579526D02*
X115592Y583866D01*
X64516Y609862D02*
X75176Y620522D01*
X166078Y590202D02*
X168078Y592202D01*
X256540Y279654D02*
X265430Y288544D01*
X261540Y236230D02*
X261643Y236127D01*
Y232134D02*
Y236127D01*
Y232134D02*
X273709Y220067D01*
X291299D01*
X246540Y242359D02*
X247052Y242871D01*
X250930Y247130D02*
X250940D01*
X246540Y236240D02*
Y242359D01*
X247052Y242871D02*
Y243252D01*
X250930Y247130D01*
X332286Y271461D02*
Y325439D01*
X329629Y268804D02*
X332286Y271461D01*
X329629Y328096D02*
X332286Y325439D01*
X321371Y215464D02*
X329629D01*
X291909Y331144D02*
X330891D01*
X316286Y268804D02*
X329629D01*
X309500Y275590D02*
X316286Y268804D01*
X316286Y220549D02*
X321371Y215464D01*
X316286Y220549D02*
Y226379D01*
X298651Y244014D02*
X316286Y226379D01*
X94468Y119620D02*
X99706Y124858D01*
X105015D01*
X108204Y128047D02*
Y166435D01*
X105015Y124858D02*
X108204Y128047D01*
X231435Y594931D02*
X235330Y598826D01*
X222396Y600202D02*
X227667Y594931D01*
X235330Y598826D02*
X236727D01*
X227667Y594931D02*
X231435D01*
X185928Y600202D02*
X222396D01*
X239757Y655900D02*
X240722D01*
X249540Y664718D02*
X270002D01*
X237094Y652272D02*
Y653237D01*
X240722Y655900D02*
X249540Y664718D01*
X237094Y653237D02*
X239757Y655900D01*
X237094Y651307D02*
Y652272D01*
X244728Y637032D02*
Y643818D01*
X239902Y648644D02*
X244728Y643818D01*
X273748Y608521D02*
X294640Y629412D01*
X276796Y604456D02*
X294132Y621792D01*
X185928Y584202D02*
X205238D01*
X188966Y580136D02*
X203327D01*
X190684Y566998D02*
X212155D01*
X185928Y580202D02*
X188966Y580136D01*
X108204Y166435D02*
X138302Y196533D01*
X421750Y619357D02*
Y670696D01*
X391435Y589042D02*
X421750Y619357D01*
X386702Y589042D02*
X391435D01*
X385964Y588304D02*
X386702Y589042D01*
X391435Y584042D02*
X435951Y628558D01*
X386702Y584042D02*
X391435D01*
X385964Y583304D02*
X386702Y584042D01*
X67564Y455422D02*
Y608600D01*
X81534Y576188D02*
X98500Y593154D01*
X126100Y580202D02*
X146228D01*
X88456Y596202D02*
X146228D01*
X73542Y234088D02*
Y235991D01*
X66481Y230706D02*
X70161D01*
X65588Y229814D02*
X66481Y230706D01*
X76231Y235991D02*
X87800Y247560D01*
X168078Y570352D02*
X168416Y570014D01*
X163790Y798108D02*
X163830Y798148D01*
X73658Y212088D02*
Y219456D01*
X68398Y206828D02*
X73658Y212088D01*
X53411Y206828D02*
X68398D01*
X58675Y216789D02*
Y234823D01*
X65588Y212533D02*
Y229814D01*
X198041Y643382D02*
X198140Y643481D01*
X196342Y643382D02*
X198041D01*
X198140Y643481D02*
Y645180D01*
X206756Y653796D01*
X163750Y620856D02*
X164078Y620528D01*
X163750Y829310D02*
X163790Y829350D01*
Y846114D02*
X163830Y846154D01*
X163790Y808188D02*
X163830Y808148D01*
X163750Y829310D02*
X163790Y829270D01*
X298651Y244014D02*
Y247289D01*
X294640Y251300D02*
X298651Y247289D01*
X299776Y328096D02*
X329629D01*
X318714Y282376D02*
X324865Y276225D01*
Y292100D01*
X275175Y229269D02*
X276098Y228346D01*
X266540Y234430D02*
Y236230D01*
Y234430D02*
X271701Y229269D01*
X275175D01*
X238240Y242730D02*
X240040D01*
X168078Y610052D02*
X171958D01*
X270002Y664718D02*
X271223Y663497D01*
Y661752D02*
Y663497D01*
X273763Y659212D02*
X275668D01*
X271223Y661752D02*
X273763Y659212D01*
X201168Y560712D02*
X207518Y554362D01*
X281066Y371348D02*
X281448Y370966D01*
X298958D01*
X47752Y350266D02*
X72898Y325120D01*
Y306578D02*
X79745Y299732D01*
X72898Y306578D02*
Y325120D01*
X47752Y350266D02*
Y354246D01*
X56044Y362538D01*
X79745Y299732D02*
X105906D01*
X48260Y380322D02*
Y391922D01*
X56134Y399796D01*
X48260Y380322D02*
X56044Y372538D01*
X57169D01*
X61246Y372050D02*
X70758Y362538D01*
X57657Y372050D02*
X61246D01*
X57169Y372538D02*
X57657Y372050D01*
X70758Y362538D02*
X75419D01*
X76544D02*
X77386Y361696D01*
X75419Y362538D02*
X76544D01*
X77386Y361696D02*
X92060D01*
X98044Y369180D02*
Y377826D01*
X92060Y363196D02*
X98044Y369180D01*
X92060Y361696D02*
Y363196D01*
X56044Y362538D02*
X57169D01*
X54673Y209876D02*
X62931D01*
X65588Y212533D01*
X72409Y256612D02*
X75072Y253949D01*
X65786Y262582D02*
X71756Y256612D01*
X65786Y262582D02*
Y269368D01*
X75072Y252984D02*
Y253949D01*
X71756Y256612D02*
X72409D01*
X58675Y216789D02*
X58802Y216662D01*
X58548Y234950D02*
X58675Y234823D01*
X74802Y216662D02*
X95424Y237284D01*
Y242310D01*
X87800Y247560D02*
X87924D01*
X58548Y234955D02*
X75072Y251479D01*
Y252984D01*
X58548Y234950D02*
Y234955D01*
X75496Y252560D02*
X87924D01*
X75072Y252984D02*
X75496Y252560D01*
X185928Y604202D02*
X203374D01*
X236916Y617005D02*
X237237Y617326D01*
X216177Y617005D02*
X236916D01*
X203374Y604202D02*
X216177Y617005D01*
X188416Y569266D02*
X190684Y566998D01*
X185928Y576202D02*
X188078D01*
X188416Y575864D01*
Y569266D02*
Y575864D01*
X180078Y567652D02*
X187018Y560712D01*
X180078Y567652D02*
Y570352D01*
X187018Y560712D02*
X201168D01*
X119392Y576202D02*
X146228D01*
X119014Y576580D02*
X119392Y576202D01*
X181770Y189360D02*
X191770D01*
X82098Y633532D02*
Y649042D01*
Y633532D02*
X82408Y633222D01*
X81788Y649352D02*
X82098Y649042D01*
X237094Y651307D02*
X239757Y648644D01*
X239902D01*
X176078Y570352D02*
X176416Y570014D01*
X309500Y261110D02*
X325500Y245110D01*
X309500Y261110D02*
Y275590D01*
X324865Y276225D02*
X325500Y275590D01*
X293640Y251300D02*
X294640D01*
X273040Y242730D02*
X285070D01*
X293640Y251300D01*
X300122Y258586D02*
X306812Y251896D01*
Y247798D02*
X309500Y245110D01*
X306812Y247798D02*
Y251896D01*
X309500Y238250D02*
X325500Y222250D01*
X309500Y238250D02*
Y245110D01*
X303690Y199390D02*
Y207676D01*
X291299Y220067D02*
X303690Y207676D01*
X256540Y223900D02*
X281940Y198500D01*
X256540Y223900D02*
Y236230D01*
X176530Y247904D02*
X176624Y247810D01*
X208280D02*
X208360Y247730D01*
X207752Y73180D02*
X222652D01*
X223452Y73980D01*
X279252Y73180D02*
X294152D01*
X278452Y73980D02*
X279252Y73180D01*
D17*
X267970Y96048D02*
X269458Y97536D01*
X332648D02*
X341792Y88392D01*
X267970Y75798D02*
Y96048D01*
X269458Y97536D02*
X332648D01*
X238282Y64734D02*
X239770Y63246D01*
X263622Y64734D02*
Y71450D01*
X239770Y63246D02*
X262134D01*
X263622Y64734D01*
X238282D02*
Y71450D01*
X263622D02*
X267970Y75798D01*
X235752Y73980D02*
X238282Y71450D01*
X220472Y92202D02*
X228728D01*
X267462Y695960D02*
X448854D01*
X450342Y694472D01*
X395224Y552185D02*
X450342Y607303D01*
Y694472D01*
X53594Y707644D02*
Y713486D01*
X59944Y707334D02*
X73716D01*
X60131Y747329D02*
X61086Y748284D01*
X60131Y707521D02*
Y747329D01*
X73716Y707334D02*
X74788Y708406D01*
X75113Y708731D01*
X46990Y715010D02*
X47074Y714926D01*
Y708874D02*
Y714926D01*
X696214Y655462D02*
X696356Y655604D01*
X696214Y655462D02*
X705893D01*
X707672Y653684D01*
X704596Y656760D02*
X705893Y655462D01*
X696356Y655604D02*
Y672456D01*
X747776Y588772D02*
Y653684D01*
X680433Y653695D02*
X694447D01*
X696214Y655462D01*
X232123Y261653D02*
X236036Y257740D01*
X240040D01*
X232123Y261653D02*
Y265463D01*
X232076Y252810D02*
X239970D01*
X197612Y287274D02*
X232076Y252810D01*
X160776Y287274D02*
X197612D01*
X436244Y392938D02*
Y392938D01*
X437768Y278384D02*
Y278914D01*
X442552Y354184D02*
X443460Y355092D01*
X350266Y168162D02*
Y187344D01*
X350210Y197664D02*
X350266Y197720D01*
X348756Y168162D02*
X350266D01*
X342900Y279066D02*
X350266Y271700D01*
Y197720D02*
Y271700D01*
X350210Y187400D02*
Y197664D01*
Y187400D02*
X350266Y187344D01*
Y168162D02*
X418098D01*
X48768Y552450D02*
Y571500D01*
X647812Y747986D02*
Y749554D01*
Y747986D02*
X654304Y741494D01*
Y741426D02*
Y741494D01*
X668761Y642366D02*
X679360Y652966D01*
X611124Y673005D02*
X641762Y642366D01*
X668761D01*
X643016Y685341D02*
Y700132D01*
X639648Y703500D02*
X643016Y700132D01*
X645209Y683148D02*
X645414D01*
X643016Y685341D02*
X645209Y683148D01*
X611124Y699008D02*
X615616Y703500D01*
X639648D01*
X611124Y673005D02*
Y699008D01*
X733694Y764794D02*
X741934D01*
X733186Y765302D02*
X733694Y764794D01*
X722772Y750286D02*
X726391Y753905D01*
X722772Y749046D02*
Y750286D01*
X726391Y753905D02*
X729013D01*
X729742Y754634D01*
X837946Y662090D02*
Y714756D01*
X800369Y724901D02*
X827801D01*
X837946Y714756D01*
X275706Y258746D02*
X277284D01*
X274770Y257810D02*
X275706Y258746D01*
X277284D02*
X282827Y264289D01*
X117729Y255846D02*
Y260790D01*
X105088Y273431D02*
X117729Y260790D01*
X97527Y273431D02*
X105088D01*
X109443Y247560D02*
X117729Y255846D01*
X91670Y267574D02*
X97527Y273431D01*
X90170Y267574D02*
X91670D01*
X102924Y247560D02*
X109443D01*
X100678Y258064D02*
X111506D01*
X111760Y258318D01*
X100424Y257810D02*
X100678Y258064D01*
X342900Y279066D02*
Y372110D01*
X170840Y547105D02*
X173746D01*
X180514Y540338D01*
X168910Y549036D02*
X170840Y547105D01*
X256032Y462339D02*
X256921Y461450D01*
X256032Y462339D02*
Y490728D01*
X256921Y456506D02*
Y461450D01*
X254889Y454474D02*
X256921Y456506D01*
X244856Y522732D02*
X245110Y522478D01*
X244856Y522732D02*
Y565658D01*
X245110Y565912D01*
X244983Y443611D02*
Y490474D01*
X256413Y522605D02*
Y565531D01*
X256032Y522224D02*
X256413Y522605D01*
X254889Y443103D02*
Y454474D01*
X153670Y392303D02*
X223393D01*
X256413Y565531D02*
X256794Y565912D01*
X153162Y391795D02*
X153670Y392303D01*
X298784Y546274D02*
X303530Y541528D01*
X298784Y546274D02*
Y553904D01*
X303530Y533469D02*
Y541528D01*
X288257Y543895D02*
Y547657D01*
X287528Y548386D02*
X288257Y547657D01*
X293784Y536702D02*
Y538368D01*
X288257Y543895D02*
X293784Y538368D01*
X148336Y570230D02*
X152078D01*
X155424Y549290D02*
X167335D01*
X140970Y548894D02*
X141814D01*
X152654Y509270D02*
X158809D01*
X152654Y406654D02*
Y509270D01*
X429806Y475704D02*
X471424D01*
X379984Y525526D02*
X429806Y475704D01*
X49403Y595503D02*
Y615315D01*
X49530Y615442D01*
X49276Y595376D02*
X49403Y595503D01*
X56388Y671394D02*
X60634Y675640D01*
X56388Y456564D02*
X134274Y378678D01*
X56388Y456564D02*
Y671394D01*
X284084Y388366D02*
X326644D01*
X342900Y372110D01*
X158809Y509270D02*
X180514Y530975D01*
Y540338D01*
X115570Y532071D02*
Y538571D01*
Y532071D02*
X138371Y509270D01*
X152654D01*
X167894Y526796D02*
X168402Y527304D01*
X166370Y535290D02*
X168402Y533258D01*
Y527304D02*
Y533258D01*
X153924Y535290D02*
X155321Y533893D01*
X155194Y526796D02*
X155321Y526923D01*
Y533893D01*
X144404Y552328D02*
X156078Y564002D01*
Y570352D01*
X315103Y539021D02*
X363253D01*
X313784Y537702D02*
X315103Y539021D01*
X379984Y525526D02*
X395224Y540766D01*
Y552185D01*
X355473Y588391D02*
Y596123D01*
X355346Y596250D02*
X355473Y596123D01*
Y588391D02*
X355600Y588264D01*
X303784Y547702D02*
Y553904D01*
X355227Y610369D02*
X355346Y610250D01*
X355227Y610369D02*
X355346Y610488D01*
X293784Y576904D02*
X293804Y576884D01*
X313784Y552694D02*
X313804Y552674D01*
X329054D01*
X303784Y565404D02*
Y576904D01*
X293784Y536702D02*
Y553904D01*
X313784Y552694D02*
Y553904D01*
X303784Y547702D02*
X305728Y545758D01*
X293784Y576904D02*
Y595376D01*
X293577Y595583D02*
X293784Y595376D01*
X293577Y595583D02*
Y606599D01*
X293370Y606806D02*
X293577Y606599D01*
X303530Y533469D02*
X309091Y527908D01*
X318477D01*
X321081Y530512D01*
X331216D01*
X329054Y552674D02*
X331216Y550512D01*
X293784Y553904D02*
X293804Y553924D01*
Y571384D02*
Y576884D01*
Y553924D02*
Y559424D01*
X299784Y565404D01*
X293804Y571384D02*
X299784Y565404D01*
X308784Y548814D02*
Y553904D01*
X313784Y537702D02*
Y537702D01*
X305728Y545758D02*
X308784Y548814D01*
X305728Y545758D02*
X313784Y537702D01*
X299784Y565404D02*
X303784D01*
X342003Y610369D02*
X355227D01*
X329564Y611378D02*
X330009Y610933D01*
X341439D01*
X341884Y610488D02*
X342003Y610369D01*
X341439Y610933D02*
X341884Y610488D01*
X377753Y618015D02*
X382464Y613304D01*
X374617Y618015D02*
X377753D01*
X373888Y618236D02*
Y618744D01*
X382464Y613304D02*
X385964D01*
X373888Y618744D02*
X374617Y618015D01*
X385964Y608304D02*
Y613304D01*
X471424Y475704D02*
X486918Y460210D01*
X331216Y643270D02*
Y651510D01*
X488188Y267646D02*
Y347472D01*
X443738Y223196D02*
X488188Y267646D01*
X480568Y355092D02*
X488188Y347472D01*
X443738Y193802D02*
Y223196D01*
X418098Y168162D02*
X443738Y193802D01*
X332740Y152146D02*
X348756Y168162D01*
X270694Y374976D02*
X284084Y388366D01*
X269729Y374976D02*
X270694D01*
X267066Y372313D02*
X269729Y374976D01*
X140970Y528066D02*
Y535290D01*
X127254D02*
X127635Y534909D01*
Y528447D02*
Y534909D01*
Y528447D02*
X128016Y528066D01*
X862213Y615950D02*
X878468Y599694D01*
X888854D01*
X757936Y647700D02*
X776986D01*
X747776Y653684D02*
X829540D01*
X866218Y631620D02*
X888282Y609556D01*
X844154Y653684D02*
X866218Y631620D01*
X829540Y653684D02*
X844154D01*
X865026Y632714D02*
X865886D01*
X829540Y653684D02*
X837946Y662090D01*
X794780Y677672D02*
X794892Y677560D01*
X808370D01*
X800242Y710962D02*
X800664Y710540D01*
X800242Y739028D02*
X800313Y738957D01*
X888282Y600266D02*
Y609556D01*
Y600266D02*
X888854Y599694D01*
X809498Y615950D02*
X862213D01*
X800242Y710962D02*
Y725028D01*
X800369Y724901D01*
X686196Y736346D02*
Y752046D01*
X693896Y656670D02*
Y657296D01*
X707672Y653684D02*
X747776D01*
X686426Y682386D02*
X696356Y672456D01*
X704596Y656760D02*
Y667766D01*
Y681736D01*
X634492Y762762D02*
X634619Y762635D01*
X642859D02*
X642986Y762508D01*
X634619Y762635D02*
X642859D01*
X685974Y752268D02*
X686196Y752046D01*
X645414Y683148D02*
X645668Y683402D01*
X645414Y669148D02*
X645668Y668894D01*
Y661416D02*
X645922Y661162D01*
X645668Y661416D02*
Y668894D01*
X616204Y711962D02*
X624952D01*
X659909Y683991D02*
X666070D01*
X658622Y683402D02*
X658876Y683656D01*
X659003Y661543D02*
X659130Y661416D01*
X659003Y661543D02*
Y669529D01*
X658876Y669656D02*
X659003Y669529D01*
X645668Y683402D02*
X658622D01*
X690196Y689166D02*
Y696646D01*
Y689166D02*
X697626Y681736D01*
X674196Y692117D02*
Y696646D01*
X666070Y683991D02*
X674196Y692117D01*
X697626Y681736D02*
X704596D01*
X686196Y683656D02*
Y696646D01*
X684926Y682386D02*
X686426D01*
X684926D02*
X686196Y683656D01*
X679704Y652966D02*
X680433Y653695D01*
X679360Y652966D02*
X679704D01*
X202326Y623727D02*
X204333Y625734D01*
X208143D02*
X210043Y627634D01*
X211074D01*
X204333Y625734D02*
X208143D01*
X202326Y622300D02*
Y623727D01*
X114775Y623603D02*
X121237D01*
X114046Y624332D02*
X114775Y623603D01*
X121237D02*
X122032Y622808D01*
X227073Y655571D02*
X267462Y695960D01*
X133518Y371136D02*
Y375962D01*
X81152Y318770D02*
X133518Y371136D01*
X132222Y562356D02*
Y564388D01*
Y553293D02*
Y562356D01*
X127254Y549290D02*
X140970D01*
X125754D02*
X127254D01*
X60634Y675640D02*
X111760D01*
X112177Y654307D02*
Y715101D01*
X341792Y88392D02*
X346292D01*
X267208Y148336D02*
X284446D01*
X285730Y149620D01*
X94234Y149386D02*
X94468Y149620D01*
X94234Y138430D02*
Y149386D01*
X29464Y138430D02*
Y148624D01*
X28468Y149620D02*
X29464Y148624D01*
X418338Y136652D02*
Y149600D01*
X418358Y149620D01*
X484358D02*
X485140Y148838D01*
Y137414D02*
Y148838D01*
X219730Y149620D02*
X220760Y148590D01*
X236220D01*
X246470Y270970D02*
X246540Y270900D01*
X244602Y274813D02*
X246470Y272945D01*
Y270970D02*
Y272945D01*
X244602Y274813D02*
Y275844D01*
X246540Y269240D02*
Y270900D01*
X231394Y266192D02*
X232123Y265463D01*
X239970Y252810D02*
X240040Y252740D01*
X150110Y297940D02*
X160776Y287274D01*
X309500Y307086D02*
X309690Y307276D01*
X223393Y392303D02*
X243840Y371856D01*
X135254Y377698D02*
X149616Y392060D01*
X130251Y551322D02*
X132222Y553293D01*
X153924Y549290D02*
X155424D01*
X220756Y654611D02*
X221716Y655571D01*
X220756Y653796D02*
Y654611D01*
X221716Y655571D02*
X227073D01*
X140462Y562356D02*
X148336Y570230D01*
X141814Y548894D02*
X144404Y551483D01*
Y552328D01*
X132222Y562356D02*
X140462D01*
X115570Y538571D02*
X124794Y547795D01*
Y548330D02*
X125754Y549290D01*
X124794Y547795D02*
Y548330D01*
X90654Y256662D02*
Y257456D01*
X90404D02*
X90654D01*
X100424Y242310D02*
Y246892D01*
X99526Y247790D02*
X100424Y246892D01*
X99526Y247790D02*
X102694D01*
X102924Y247560D01*
X58794Y352655D02*
Y355913D01*
Y352655D02*
X64008Y347441D01*
X243840Y371856D02*
X266558D01*
X480568Y355092D02*
X481076D01*
X443460D02*
X480568D01*
X267066Y335232D02*
Y371348D01*
X90298Y736980D02*
X112177Y715101D01*
X75438Y736980D02*
X90298D01*
X481076Y355092D02*
X486918Y360934D01*
Y460210D01*
X355346Y610504D02*
X367386D01*
X374586Y603304D02*
X384488D01*
X367386Y610504D02*
X374586Y603304D01*
X355346Y634380D02*
Y642620D01*
Y610742D02*
Y620380D01*
X385964Y593304D02*
Y598304D01*
Y603304D01*
X155424Y549290D02*
X160078Y553944D01*
Y570352D01*
X61086Y748284D02*
X61340Y748538D01*
Y766318D02*
X61594Y766572D01*
X61340Y748538D02*
Y766318D01*
X75113Y720655D02*
X75438Y720980D01*
X75113Y708731D02*
Y720655D01*
X104830Y392122D02*
X119254Y377698D01*
X98044Y393826D02*
X99748Y392122D01*
X104830D01*
X65152Y300482D02*
Y318770D01*
Y300482D02*
X65215Y300419D01*
X73653Y394073D02*
X73794Y393932D01*
X73653Y394073D02*
X97797D01*
X98044Y393826D01*
X73406Y394320D02*
X73653Y394073D01*
X75419Y367538D02*
X80264D01*
X86614Y373888D01*
X76544Y372538D02*
X81373Y377367D01*
Y380839D01*
X82296Y381762D01*
X75419Y372538D02*
X76544D01*
X64008Y347218D02*
Y347441D01*
X73350Y394264D02*
X73406Y394320D01*
X73794Y379163D02*
Y393932D01*
X83820Y233680D02*
X87682Y237542D01*
X90424Y242186D02*
Y242310D01*
X87682Y239443D02*
X90424Y242186D01*
X87682Y237542D02*
Y239443D01*
X95424Y261286D02*
X101600Y267462D01*
X95424Y257810D02*
Y261286D01*
X65215Y285939D02*
X65786Y285368D01*
X65215Y285939D02*
Y300419D01*
X89205Y267574D02*
X90170D01*
X65786Y285368D02*
X72376D01*
X86542Y271202D01*
Y270237D02*
Y271202D01*
Y270237D02*
X89205Y267574D01*
X90170D02*
X90424Y267320D01*
Y257810D02*
Y267320D01*
D18*
X221234Y104140D02*
X229187D01*
X229236Y104091D01*
X256716Y294629D02*
Y297640D01*
Y294629D02*
X256959Y294386D01*
X252730Y301626D02*
X256716Y297640D01*
X757621Y738947D02*
X763778Y732790D01*
X739789Y735636D02*
X740174D01*
X733552Y729742D02*
X733896D01*
X739789Y735636D01*
X307340Y48514D02*
X313944Y41910D01*
X73261Y48514D02*
X307340D01*
X52941Y28194D02*
X73261Y48514D01*
X313944Y27686D02*
Y41910D01*
Y27686D02*
X318262Y23368D01*
X356409D01*
X377745Y44704D01*
X378664Y54244D02*
X379374Y54954D01*
X345694Y32164D02*
X354084D01*
X376164Y54244D01*
X378664D01*
X379374Y54954D02*
Y57454D01*
X401777Y104445D02*
X414020Y92202D01*
X361208Y104445D02*
X401777D01*
X414020Y47680D02*
Y92202D01*
X245936Y607142D02*
X246047Y609934D01*
X245110Y604126D02*
X245936Y607142D01*
X22301Y28194D02*
X52941D01*
X15240Y35255D02*
X22301Y28194D01*
X358140Y105664D02*
Y152146D01*
X258500Y105664D02*
X359271D01*
X482858Y119620D02*
X484358D01*
X450738Y161579D02*
X479398Y132919D01*
X450738Y161579D02*
Y202184D01*
X479398Y123080D02*
X482858Y119620D01*
X479398Y123080D02*
Y132919D01*
X377745Y44704D02*
X411044D01*
X15240Y35255D02*
Y79590D01*
X317500Y56388D02*
X324358Y49530D01*
X204216Y56388D02*
X317500D01*
X324358Y36830D02*
Y49530D01*
X195324Y65280D02*
X204216Y56388D01*
X819658Y639318D02*
X819841Y639501D01*
X827857D01*
X800171Y663631D02*
X808299D01*
X808370Y663560D01*
X800100Y663702D02*
X800171Y663631D01*
X808493Y739405D02*
X808736Y739648D01*
X800384Y738886D02*
X800903Y739405D01*
X808493D01*
X821749Y701040D02*
X822209Y701500D01*
Y708417D01*
X822452Y708660D01*
X821664Y701040D02*
X821749D01*
X823050Y762594D02*
X823136Y762680D01*
X814324Y762508D02*
X814410Y762594D01*
X823050D01*
X765896Y776558D02*
X769377Y773077D01*
X765373Y776558D02*
X765896D01*
X769377Y771641D02*
Y773077D01*
Y771641D02*
X769620Y771398D01*
X718596Y667766D02*
X718861Y668031D01*
X718596Y681736D02*
X718596Y681736D01*
X725435Y668031D02*
X725678Y668274D01*
X718861Y668031D02*
X725435D01*
X718596Y681736D02*
X725424D01*
X620918Y681594D02*
X621624Y680888D01*
X624164D01*
X629920Y675132D01*
X629920D01*
X653542Y634858D02*
X653796Y634604D01*
Y628142D02*
Y634604D01*
X696412Y637596D02*
X696468Y637540D01*
X696412Y637596D02*
Y644200D01*
X696356Y644256D02*
X696412Y644200D01*
X684982Y661472D02*
Y668330D01*
Y661472D02*
X685038Y661416D01*
X684926Y668386D02*
X684982Y668330D01*
X25988Y90338D02*
X27488D01*
X15240Y79590D02*
X25988Y90338D01*
X27488D02*
X28448Y91298D01*
Y105298D02*
Y119600D01*
X195834Y137160D02*
X216254D01*
X149610Y297940D02*
X150110D01*
X144272Y160782D02*
Y292602D01*
X149610Y297940D01*
X114471Y130981D02*
X144272Y160782D01*
X309436Y307530D02*
X309690Y307276D01*
X89494Y705347D02*
Y707633D01*
X118131Y553585D02*
Y563605D01*
X191596Y267890D02*
X203374D01*
X203454Y267810D01*
X191516Y267970D02*
X191596Y267890D01*
X81788Y665352D02*
X81852Y665416D01*
X91630D01*
X91694Y665480D01*
X316821Y638059D02*
X317168Y637712D01*
X306059Y638059D02*
X316821D01*
X305816Y638302D02*
X306059Y638059D01*
X427176Y37338D02*
X458718D01*
X464980Y43600D01*
X421792Y31954D02*
X427176Y37338D01*
X388874Y31954D02*
X421792D01*
X411044Y44704D02*
X414020Y47680D01*
X195834Y123302D02*
X197869D01*
X201551Y119620D02*
X219730D01*
X197869Y123302D02*
X201551Y119620D01*
X324358Y36830D02*
X341528D01*
X345694Y32664D01*
Y32164D02*
Y32664D01*
X255524Y108640D02*
Y130120D01*
Y108640D02*
X258500Y105664D01*
X220318Y133096D02*
X252548D01*
X255524Y130120D01*
X216254Y137160D02*
X220318Y133096D01*
X138302Y128650D02*
Y137034D01*
X40528Y51202D02*
X54250D01*
X195324Y65280D02*
Y91950D01*
X114471Y111423D02*
Y130981D01*
X138176Y128524D02*
X138302Y128650D01*
X29624Y40298D02*
X40528Y51202D01*
X54250D02*
X114471Y111423D01*
X386500Y152146D02*
X394994Y143652D01*
X358140Y152146D02*
X386500D01*
X189992Y157474D02*
Y162814D01*
X169928Y137160D02*
Y137410D01*
X189992Y157474D01*
X309372Y315722D02*
X309436Y315658D01*
Y307530D02*
Y315658D01*
X280935Y314971D02*
X281178Y315214D01*
X271780Y314866D02*
X271885Y314971D01*
X280935D01*
X256968Y314532D02*
X257048Y314452D01*
X246968Y314532D02*
X256968D01*
X246888Y314612D02*
X246968Y314532D01*
X394994Y143652D02*
X396494D01*
X408026Y119620D02*
X418358D01*
X397994Y129652D02*
X408026Y119620D01*
X396494Y129652D02*
X397994D01*
X209296Y331978D02*
X217712Y340394D01*
X223662Y346344D01*
X223916D01*
X89494Y705347D02*
X89748Y705093D01*
X97293D02*
X97536Y704850D01*
X89748Y705093D02*
X97293D01*
X118110Y563626D02*
X118131Y563605D01*
X118040Y553495D02*
X118131Y553585D01*
X104140Y566674D02*
X104383Y566917D01*
Y575949D02*
X105014Y576580D01*
X104383Y566917D02*
Y575949D01*
X210342Y639318D02*
X219202D01*
X251221Y652145D02*
X259969D01*
X260096Y652018D01*
X51562Y252984D02*
X61072D01*
X161290Y277114D02*
X161533Y277357D01*
X176011D01*
X176530Y277876D01*
X309500Y222250D02*
X309563Y222187D01*
Y211391D02*
X309626Y211328D01*
X309563Y211391D02*
Y222187D01*
X250792Y182372D02*
X250919Y182245D01*
X262001D02*
X262128Y182118D01*
X250919Y182245D02*
X262001D01*
X251819Y199887D02*
X261885D01*
X262128Y199644D01*
X298958Y354966D02*
X299021Y355029D01*
X311849D01*
X311912Y355092D01*
X138302Y137034D02*
X138428Y137160D01*
X323643Y189531D02*
Y199343D01*
X323690Y199390D01*
X323596Y189484D02*
X323643Y189531D01*
X281940Y182500D02*
X282331Y182891D01*
X289571D02*
X289814Y183134D01*
X282331Y182891D02*
X289571D01*
X251046Y200660D02*
X251819Y199887D01*
X285231Y233691D02*
X292249D01*
X294640Y231300D01*
X284988Y233934D02*
X285231Y233691D01*
X90170Y281574D02*
X90297Y281701D01*
Y288417D02*
X90424Y288544D01*
X90297Y281701D02*
Y288417D01*
X149860Y329440D02*
Y337820D01*
X106060Y361696D02*
X113030D01*
X73604Y408122D02*
X81844D01*
X82042Y407924D01*
X73406Y408320D02*
X73604Y408122D01*
X251094Y652272D02*
X251221Y652145D01*
X114300Y637540D02*
X121920D01*
X122174Y637286D02*
X122428Y637540D01*
X121920D02*
X122174Y637286D01*
X169418Y117856D02*
Y136650D01*
X169928Y137160D01*
X169418Y117856D02*
X195324Y91950D01*
X218476Y608838D02*
X220572Y606742D01*
X217170Y608838D02*
X218476D01*
X227393Y606742D02*
X227917Y606218D01*
X220572Y606742D02*
X227393D01*
D26*
X60094Y707644D02*
D03*
X53594D02*
D03*
X47094D02*
D03*
X60094Y688644D02*
D03*
X53594D02*
D03*
X47094D02*
D03*
D27*
X53594Y698144D02*
D03*
D28*
X417830Y676910D02*
D03*
X322580Y503682D02*
D03*
X857250Y675386D02*
D03*
X865886Y632714D02*
D03*
X322326Y516128D02*
D03*
X56134Y399796D02*
D03*
X29718Y478028D02*
D03*
X43180Y493268D02*
D03*
X243840Y371856D02*
D03*
X427228Y37338D02*
D03*
X324358Y36830D02*
D03*
X322326Y491236D02*
D03*
X435951Y676910D02*
D03*
X543564Y610434D02*
D03*
Y622880D02*
D03*
Y635072D02*
D03*
X543814Y823468D02*
D03*
Y835660D02*
D03*
Y811022D02*
D03*
X516890Y211074D02*
D03*
Y198882D02*
D03*
Y186436D02*
D03*
X544830Y186690D02*
D03*
Y199136D02*
D03*
Y211328D02*
D03*
X516890Y424434D02*
D03*
Y412242D02*
D03*
Y399796D02*
D03*
X544830Y400050D02*
D03*
Y412496D02*
D03*
Y424688D02*
D03*
X516640Y633294D02*
D03*
Y621102D02*
D03*
Y608656D02*
D03*
X516890Y809244D02*
D03*
Y821690D02*
D03*
Y833882D02*
D03*
D29*
X800522Y710286D02*
D03*
Y691286D02*
D03*
X821522Y700786D02*
D03*
D30*
X695626Y842264D02*
D03*
X685626D02*
D03*
X695880Y802894D02*
D03*
X685880D02*
D03*
X163656Y828040D02*
D03*
X173656D02*
D03*
X163656Y777240D02*
D03*
X173656D02*
D03*
D31*
X355346Y596250D02*
D03*
Y610250D02*
D03*
X808370Y663560D02*
D03*
Y677560D02*
D03*
X684926Y668386D02*
D03*
Y682386D02*
D03*
X653796Y635112D02*
D03*
Y649112D02*
D03*
X658876Y669656D02*
D03*
Y683656D02*
D03*
X645414Y669148D02*
D03*
Y683148D02*
D03*
X828040Y639684D02*
D03*
Y653684D02*
D03*
X696214Y641462D02*
D03*
Y655462D02*
D03*
X800242Y725028D02*
D03*
Y739028D02*
D03*
X621172Y681848D02*
D03*
Y695848D02*
D03*
X195834Y123302D02*
D03*
Y137302D02*
D03*
X331216Y643270D02*
D03*
Y629270D02*
D03*
X355346Y620380D02*
D03*
Y634380D02*
D03*
X155448Y535036D02*
D03*
Y549036D02*
D03*
X167894Y535036D02*
D03*
Y549036D02*
D03*
X140970Y535290D02*
D03*
Y549290D02*
D03*
X127254Y535290D02*
D03*
Y549290D02*
D03*
X73406Y408320D02*
D03*
Y394320D02*
D03*
X90170Y267574D02*
D03*
Y281574D02*
D03*
X28448Y91298D02*
D03*
Y105298D02*
D03*
X396494Y143652D02*
D03*
Y129652D02*
D03*
D32*
X313784Y576904D02*
D03*
D33*
X308784D02*
D03*
X303784D02*
D03*
X298784D02*
D03*
X293784D02*
D03*
Y553904D02*
D03*
X298784D02*
D03*
X303784D02*
D03*
X308784D02*
D03*
X313784D02*
D03*
D34*
X303784Y565404D02*
D03*
D35*
X313784Y536702D02*
D03*
X293784D02*
D03*
X313784Y595376D02*
D03*
X293784D02*
D03*
X323690Y199390D02*
D03*
X303690D02*
D03*
X231046Y200660D02*
D03*
X251046D02*
D03*
X250792Y182372D02*
D03*
X230792D02*
D03*
D36*
X331216Y550512D02*
D03*
Y530512D02*
D03*
X271272Y314358D02*
D03*
Y334358D02*
D03*
X246888Y314612D02*
D03*
Y334612D02*
D03*
X203200Y267810D02*
D03*
Y247810D02*
D03*
X294640Y231300D02*
D03*
Y251300D02*
D03*
D37*
X325246Y612394D02*
D03*
X309246D02*
D03*
X769492Y758952D02*
D03*
X753492D02*
D03*
X421768Y278384D02*
D03*
X437768D02*
D03*
X436244Y392938D02*
D03*
X420244D02*
D03*
X61594Y766572D02*
D03*
X45594D02*
D03*
X45086Y748284D02*
D03*
X61086D02*
D03*
X252604Y301752D02*
D03*
X268604D02*
D03*
X309500Y292354D02*
D03*
X325500D02*
D03*
X309500Y307086D02*
D03*
X325500D02*
D03*
X265304Y288798D02*
D03*
X281304D02*
D03*
X244728Y637032D02*
D03*
X228728D02*
D03*
X228728Y92202D02*
D03*
X244728D02*
D03*
X229744Y103632D02*
D03*
X245744D02*
D03*
X337694Y68580D02*
D03*
X353694D02*
D03*
X309500Y222250D02*
D03*
X325500D02*
D03*
X309500Y245110D02*
D03*
X325500D02*
D03*
X325500Y275590D02*
D03*
X309500D02*
D03*
X119254Y377698D02*
D03*
X135254D02*
D03*
X65152Y318770D02*
D03*
X81152D02*
D03*
X73658Y219456D02*
D03*
X57658D02*
D03*
X73786Y233426D02*
D03*
X57786D02*
D03*
D38*
X343154Y612268D02*
D03*
Y628268D02*
D03*
X75438Y736980D02*
D03*
Y720980D02*
D03*
X295148Y301372D02*
D03*
Y317372D02*
D03*
X281432Y198754D02*
D03*
Y182754D02*
D03*
X98044Y393826D02*
D03*
Y377826D02*
D03*
X65786Y269368D02*
D03*
Y285368D02*
D03*
D39*
X698196Y696646D02*
D03*
X670196D02*
D03*
Y736346D02*
D03*
X698196D02*
D03*
X180078Y570352D02*
D03*
X152078D02*
D03*
Y610052D02*
D03*
X180078D02*
D03*
D40*
X694196Y696646D02*
D03*
X690196D02*
D03*
X686196D02*
D03*
X682196D02*
D03*
X678196D02*
D03*
X674196D02*
D03*
Y736346D02*
D03*
X678196D02*
D03*
X682196D02*
D03*
X686196D02*
D03*
X690196D02*
D03*
X694196D02*
D03*
X176078Y570352D02*
D03*
X172078D02*
D03*
X168078D02*
D03*
X164078D02*
D03*
X160078D02*
D03*
X156078D02*
D03*
Y610052D02*
D03*
X160078D02*
D03*
X164078D02*
D03*
X168078D02*
D03*
X172078D02*
D03*
X176078D02*
D03*
D41*
X664346Y702496D02*
D03*
Y730496D02*
D03*
X704046D02*
D03*
Y702496D02*
D03*
X146228Y576202D02*
D03*
Y604202D02*
D03*
X185928D02*
D03*
Y576202D02*
D03*
D42*
X664346Y706496D02*
D03*
Y714496D02*
D03*
Y718496D02*
D03*
Y722496D02*
D03*
Y726496D02*
D03*
X704046D02*
D03*
Y722496D02*
D03*
Y718496D02*
D03*
Y714496D02*
D03*
Y710496D02*
D03*
Y706496D02*
D03*
X664346Y710496D02*
D03*
X146228Y580202D02*
D03*
Y588202D02*
D03*
Y592202D02*
D03*
Y596202D02*
D03*
Y600202D02*
D03*
X185928D02*
D03*
Y596202D02*
D03*
Y592202D02*
D03*
Y588202D02*
D03*
Y584202D02*
D03*
Y580202D02*
D03*
X146228Y584202D02*
D03*
D43*
X794780Y677672D02*
D03*
D44*
X778780D02*
D03*
D45*
X718596Y681736D02*
D03*
X704596D02*
D03*
X636016Y695706D02*
D03*
X650016D02*
D03*
X708772Y749046D02*
D03*
X722772D02*
D03*
X733186Y765302D02*
D03*
X719186D02*
D03*
X726044Y783336D02*
D03*
X740044D02*
D03*
X750936Y779018D02*
D03*
X764936D02*
D03*
X718596Y667766D02*
D03*
X704596D02*
D03*
X624952Y711962D02*
D03*
X638952D02*
D03*
X647812Y749554D02*
D03*
X661812D02*
D03*
X650128Y774192D02*
D03*
X636128D02*
D03*
X642986Y762508D02*
D03*
X656986D02*
D03*
X356504Y192532D02*
D03*
X342504D02*
D03*
X436738Y202184D02*
D03*
X450738D02*
D03*
X210342Y639318D02*
D03*
X196342D02*
D03*
X206756Y653796D02*
D03*
X220756D02*
D03*
X202326Y622300D02*
D03*
X188326D02*
D03*
X251094Y652272D02*
D03*
X237094D02*
D03*
X61072Y252984D02*
D03*
X75072D02*
D03*
X106060Y361696D02*
D03*
X92060D02*
D03*
X118222Y562356D02*
D03*
X132222D02*
D03*
X105014Y576580D02*
D03*
X119014D02*
D03*
X121524Y623570D02*
D03*
X135524D02*
D03*
X126177Y654307D02*
D03*
X112177D02*
D03*
X122174Y637286D02*
D03*
X136174D02*
D03*
X104790Y620268D02*
D03*
X90790D02*
D03*
X96408Y633222D02*
D03*
X82408D02*
D03*
X88788Y706120D02*
D03*
X74788D02*
D03*
X281066Y371348D02*
D03*
X267066D02*
D03*
D46*
X741060Y686174D02*
D03*
Y701174D02*
D03*
X207010Y542410D02*
D03*
Y557410D02*
D03*
D47*
X696134Y765556D02*
D03*
X686134D02*
D03*
X336194Y52164D02*
D03*
X355194D02*
D03*
X345694Y32164D02*
D03*
D48*
X781636Y784180D02*
D03*
Y762680D02*
D03*
X823136Y784180D02*
D03*
Y762680D02*
D03*
X317168Y637712D02*
D03*
Y659212D02*
D03*
X275668Y637712D02*
D03*
Y659212D02*
D03*
D49*
X685800Y828214D02*
D03*
Y818214D02*
D03*
X686054Y789606D02*
D03*
Y779606D02*
D03*
X163830Y808148D02*
D03*
Y798148D02*
D03*
Y856154D02*
D03*
Y846154D02*
D03*
D50*
X740156Y734822D02*
D03*
X749476Y745930D02*
D03*
X758286Y738538D02*
D03*
X246047Y609934D02*
D03*
X237237Y617326D02*
D03*
X227917Y606218D02*
D03*
D51*
X748966Y727430D02*
D03*
X236727Y598826D02*
D03*
D52*
X747776Y588772D02*
D03*
Y548132D02*
D03*
X735076Y588772D02*
D03*
Y548132D02*
D03*
X722376Y588772D02*
D03*
Y548132D02*
D03*
X709676Y588772D02*
D03*
Y548132D02*
D03*
X696976Y588772D02*
D03*
Y548132D02*
D03*
D53*
X223452Y73980D02*
D03*
X278452D02*
D03*
D54*
X235752D02*
D03*
X266152D02*
D03*
D55*
X245952D02*
D03*
X255952D02*
D03*
D56*
X273040Y242740D02*
D03*
Y247740D02*
D03*
Y252740D02*
D03*
Y257740D02*
D03*
Y262740D02*
D03*
X240040D02*
D03*
Y257740D02*
D03*
Y252740D02*
D03*
Y247740D02*
D03*
Y242740D02*
D03*
D57*
X266540Y269240D02*
D03*
X261540D02*
D03*
X256540D02*
D03*
X251540D02*
D03*
X246540D02*
D03*
X251540Y236240D02*
D03*
X256540D02*
D03*
X261540D02*
D03*
X266540D02*
D03*
D58*
X246540D02*
D03*
D59*
X412964Y636304D02*
D03*
Y545304D02*
D03*
D60*
X385964Y613304D02*
D03*
Y608304D02*
D03*
Y603304D02*
D03*
Y598304D02*
D03*
Y593304D02*
D03*
Y588304D02*
D03*
Y583304D02*
D03*
Y578304D02*
D03*
Y573304D02*
D03*
Y568304D02*
D03*
D61*
X389292Y88392D02*
D03*
X346292D02*
D03*
D62*
X176530Y247904D02*
D03*
Y277876D02*
D03*
D63*
X90424Y257810D02*
D03*
X100424D02*
D03*
X95424D02*
D03*
X100424Y242310D02*
D03*
X95424D02*
D03*
X90424D02*
D03*
D64*
X102924Y247560D02*
D03*
X87924D02*
D03*
X102924Y252560D02*
D03*
D65*
X87924D02*
D03*
D66*
X94468Y119620D02*
D03*
X28468Y149620D02*
D03*
Y119620D02*
D03*
X94468Y149620D02*
D03*
X285730Y119620D02*
D03*
X219730Y149620D02*
D03*
Y119620D02*
D03*
X285730Y149620D02*
D03*
X484358Y119620D02*
D03*
X418358Y149620D02*
D03*
Y119620D02*
D03*
X484358Y149620D02*
D03*
D67*
X81788Y665352D02*
D03*
X298958Y354966D02*
D03*
D68*
X81788Y649352D02*
D03*
X298958Y370966D02*
D03*
D69*
X138428Y137160D02*
D03*
X169928D02*
D03*
D70*
X388874Y31954D02*
D03*
X379374Y57454D02*
D03*
X398374D02*
D03*
D72*
X75419Y372538D02*
D03*
Y362538D02*
D03*
Y367538D02*
D03*
X57169Y372538D02*
D03*
Y362538D02*
D03*
Y367538D02*
D03*
D73*
X58794Y379163D02*
D03*
D74*
X73794D02*
D03*
X68794D02*
D03*
X63794D02*
D03*
X73794Y355913D02*
D03*
X68794D02*
D03*
X63794D02*
D03*
D75*
X58794D02*
D03*
D76*
X149860Y297940D02*
D03*
Y329440D02*
D03*
D137*
X217712Y340394D02*
D03*
X192752Y315434D02*
D03*
D138*
X220218Y999617D02*
D03*
X742442Y998601D02*
D03*
D139*
X163830Y953643D02*
D03*
X125984D02*
D03*
X648208Y952627D02*
D03*
X686054D02*
D03*
D140*
X684196Y716496D02*
D03*
X166078Y590202D02*
D03*
D141*
X256540Y252740D02*
D03*
D142*
X191770Y224660D02*
D03*
Y189360D02*
D03*
D143*
X685720Y842010D02*
Y951912D01*
X685887Y789773D02*
Y803743D01*
X685800Y803990D02*
Y818214D01*
X686054Y766746D02*
Y779606D01*
X685760Y828254D02*
Y841970D01*
X685974Y752268D02*
Y766064D01*
X163656Y777240D02*
Y797974D01*
X163750Y620856D02*
Y775716D01*
X163830Y856234D02*
Y953643D01*
X163790Y829350D02*
Y846114D01*
Y808188D02*
Y829270D01*
D144*
X163750Y620856D02*
X164078Y610052D01*
D145*
X38354Y842772D02*
D03*
X578358Y786384D02*
D03*
X895096Y714248D02*
D03*
X481076Y534416D02*
D03*
X141478Y83566D02*
D03*
D146*
X464980Y43600D02*
D03*
X29624Y40298D02*
D03*
D147*
X484980Y43600D02*
D03*
X49624Y40298D02*
D03*
D148*
X888854Y599694D02*
D03*
D149*
X863854D02*
D03*
X838854D02*
D03*
X442552Y329184D02*
D03*
Y304184D02*
D03*
X442044Y448056D02*
D03*
Y423056D02*
D03*
D150*
X207752Y73180D02*
D03*
Y35180D02*
D03*
X294152D02*
D03*
Y73180D02*
D03*
D151*
X358140Y152146D02*
D03*
D152*
X332740D02*
D03*
D153*
X442552Y354184D02*
D03*
X442044Y473056D02*
D03*
D154*
X220472Y92202D02*
D03*
X221234Y104140D02*
D03*
X53594Y713486D02*
D03*
X46990Y715010D02*
D03*
X256959Y294386D02*
D03*
X626110Y748792D02*
D03*
X638100Y736397D02*
D03*
X617982Y747776D02*
D03*
X36830Y561594D02*
D03*
X88900Y561340D02*
D03*
X153670Y625983D02*
D03*
X654304Y741426D02*
D03*
X627075Y731976D02*
D03*
X763778Y732790D02*
D03*
X733552Y729742D02*
D03*
X729742Y754634D02*
D03*
X172002Y617528D02*
D03*
X282827Y264289D02*
D03*
X111760Y258318D02*
D03*
X245110Y522478D02*
D03*
X244983Y490474D02*
D03*
X245110Y565912D02*
D03*
X256032Y490728D02*
D03*
X256032Y522224D02*
D03*
X250952Y458978D02*
D03*
X254889Y443103D02*
D03*
X153162Y391795D02*
D03*
X230759Y549149D02*
D03*
Y474557D02*
D03*
Y532562D02*
D03*
Y466683D02*
D03*
Y450729D02*
D03*
Y557328D02*
D03*
Y458809D02*
D03*
Y482431D02*
D03*
Y540512D02*
D03*
X190754Y431038D02*
D03*
X275641Y540817D02*
D03*
X270713Y530300D02*
D03*
X287528Y548386D02*
D03*
X256794Y565912D02*
D03*
X275590Y549402D02*
D03*
X271728Y474430D02*
D03*
X272227Y482340D02*
D03*
X272542Y466598D02*
D03*
X273304Y451866D02*
D03*
X270129Y557276D02*
D03*
X245110Y604126D02*
D03*
Y443484D02*
D03*
X141554Y789432D02*
D03*
X153670Y776732D02*
D03*
X659130Y661416D02*
D03*
X645922Y661162D02*
D03*
X260096Y652018D02*
D03*
X331216Y651510D02*
D03*
X355346Y642620D02*
D03*
X305816Y638302D02*
D03*
X653796Y628142D02*
D03*
X373888Y618744D02*
D03*
X293370Y606806D02*
D03*
X355600Y588264D02*
D03*
X379984Y525526D02*
D03*
X485140Y137414D02*
D03*
X311912Y355092D02*
D03*
X281178Y315214D02*
D03*
X257048Y314452D02*
D03*
X309626Y211328D02*
D03*
X262128Y199644D02*
D03*
X323596Y189484D02*
D03*
X289814Y183134D02*
D03*
X262128Y182118D02*
D03*
X284988Y233934D02*
D03*
X276098Y228346D02*
D03*
X186690Y776732D02*
D03*
X173990Y764032D02*
D03*
X186690D02*
D03*
Y751332D02*
D03*
X173990D02*
D03*
Y738632D02*
D03*
X186690D02*
D03*
Y725932D02*
D03*
X173990D02*
D03*
Y713232D02*
D03*
X186690D02*
D03*
Y700532D02*
D03*
X173990D02*
D03*
X153670D02*
D03*
X186690Y687832D02*
D03*
X173990D02*
D03*
Y675132D02*
D03*
X186690Y662432D02*
D03*
X173990D02*
D03*
X153670D02*
D03*
X173990Y649732D02*
D03*
X219202Y639318D02*
D03*
X173990Y637032D02*
D03*
X211074Y627634D02*
D03*
X217170Y608838D02*
D03*
X186690Y675132D02*
D03*
X141554Y776732D02*
D03*
X153670Y764032D02*
D03*
X141554D02*
D03*
X153670Y751332D02*
D03*
X141554D02*
D03*
X153670Y738632D02*
D03*
X141554D02*
D03*
X153670Y725932D02*
D03*
X141554D02*
D03*
Y713232D02*
D03*
X97536Y704850D02*
D03*
X141554Y700532D02*
D03*
X153670Y713232D02*
D03*
Y687832D02*
D03*
X141554D02*
D03*
X153670Y675132D02*
D03*
X141554D02*
D03*
X91694Y665480D02*
D03*
X141554Y662432D02*
D03*
X153670Y649732D02*
D03*
X114300Y637540D02*
D03*
X153670Y637032D02*
D03*
X114046Y624332D02*
D03*
X42926Y605536D02*
D03*
X75438Y604591D02*
D03*
X155194Y526796D02*
D03*
X167894D02*
D03*
X162306Y406654D02*
D03*
X159512Y386334D02*
D03*
X161290Y277114D02*
D03*
X244602Y275844D02*
D03*
X191516Y267970D02*
D03*
X231394Y266192D02*
D03*
X236220Y148590D02*
D03*
X113030Y361696D02*
D03*
X64008Y347218D02*
D03*
X149860Y337820D02*
D03*
X90424Y288544D02*
D03*
X101600Y267462D02*
D03*
X51562Y252984D02*
D03*
X83820Y233680D02*
D03*
X94234Y138430D02*
D03*
X138176Y128524D02*
D03*
X82296Y381762D02*
D03*
X86614Y373888D02*
D03*
X104140Y566674D02*
D03*
X118040Y553495D02*
D03*
X128016Y528066D02*
D03*
X113792Y467614D02*
D03*
X113284Y455676D02*
D03*
X82042Y407924D02*
D03*
X140970Y528066D02*
D03*
X262890Y893572D02*
D03*
X250190D02*
D03*
X237490D02*
D03*
X224790D02*
D03*
X212090D02*
D03*
X199390D02*
D03*
X186690D02*
D03*
X173990D02*
D03*
X153670D02*
D03*
X140970D02*
D03*
X128270D02*
D03*
X115570D02*
D03*
X102870D02*
D03*
X90170D02*
D03*
X313690Y868172D02*
D03*
X300990Y893572D02*
D03*
Y880872D02*
D03*
Y868172D02*
D03*
X288290Y880872D02*
D03*
Y868172D02*
D03*
X275590Y880872D02*
D03*
Y868172D02*
D03*
X262890Y880872D02*
D03*
Y868172D02*
D03*
X250190Y880872D02*
D03*
Y868172D02*
D03*
X237490Y880872D02*
D03*
Y868172D02*
D03*
X224790Y880872D02*
D03*
Y868172D02*
D03*
X212090Y880872D02*
D03*
Y868172D02*
D03*
X199390Y880872D02*
D03*
X186690D02*
D03*
X173990D02*
D03*
X153670D02*
D03*
X140970D02*
D03*
X128270D02*
D03*
X115570D02*
D03*
X102870D02*
D03*
X90170D02*
D03*
X77470Y893572D02*
D03*
Y880872D02*
D03*
Y868172D02*
D03*
X64770Y893572D02*
D03*
Y880872D02*
D03*
X199390Y868172D02*
D03*
X186690D02*
D03*
Y855472D02*
D03*
Y840232D02*
D03*
Y802132D02*
D03*
Y814832D02*
D03*
Y827532D02*
D03*
Y789432D02*
D03*
X173990Y868172D02*
D03*
Y855472D02*
D03*
Y840232D02*
D03*
Y814832D02*
D03*
Y789432D02*
D03*
Y802132D02*
D03*
X153670Y868172D02*
D03*
Y855472D02*
D03*
Y840232D02*
D03*
Y827532D02*
D03*
Y814832D02*
D03*
Y789432D02*
D03*
Y802132D02*
D03*
X141554Y868172D02*
D03*
Y855472D02*
D03*
Y840232D02*
D03*
Y802132D02*
D03*
Y814832D02*
D03*
Y827532D02*
D03*
X128270Y868172D02*
D03*
X115570D02*
D03*
X102870D02*
D03*
X90170D02*
D03*
X64770D02*
D03*
X899414Y892556D02*
D03*
X912114D02*
D03*
X886714D02*
D03*
X874014D02*
D03*
X861314D02*
D03*
X848614D02*
D03*
X835914D02*
D03*
X823214D02*
D03*
X810514D02*
D03*
X912114Y879856D02*
D03*
X899414D02*
D03*
X886714D02*
D03*
X874014D02*
D03*
X861314D02*
D03*
X848614D02*
D03*
X835914D02*
D03*
X823214D02*
D03*
X797814Y892556D02*
D03*
X785114D02*
D03*
X772414D02*
D03*
X675894D02*
D03*
X759714D02*
D03*
X663194D02*
D03*
X650494D02*
D03*
X747014D02*
D03*
X721614D02*
D03*
X708914D02*
D03*
X734314D02*
D03*
X696214D02*
D03*
X810514Y879856D02*
D03*
X797814D02*
D03*
X785114D02*
D03*
X772414D02*
D03*
X650494D02*
D03*
X734314D02*
D03*
X721614D02*
D03*
X675894D02*
D03*
X759714D02*
D03*
X747014D02*
D03*
X708914D02*
D03*
X696214D02*
D03*
X708914Y867664D02*
D03*
X835914Y867156D02*
D03*
X848614D02*
D03*
X785114D02*
D03*
X899414D02*
D03*
X797814D02*
D03*
X912114D02*
D03*
X772414D02*
D03*
X823214D02*
D03*
X861314D02*
D03*
X874014D02*
D03*
X810514D02*
D03*
X747014D02*
D03*
X759714D02*
D03*
X886714D02*
D03*
X734314D02*
D03*
X721614D02*
D03*
X696214D02*
D03*
X708914Y855472D02*
D03*
X696214D02*
D03*
X708914Y842772D02*
D03*
Y830072D02*
D03*
X696214D02*
D03*
X708914Y817372D02*
D03*
X696214D02*
D03*
X708914Y804672D02*
D03*
Y791972D02*
D03*
X696214D02*
D03*
X675894Y817372D02*
D03*
Y842772D02*
D03*
Y791972D02*
D03*
Y867156D02*
D03*
Y804672D02*
D03*
Y830072D02*
D03*
Y855472D02*
D03*
X663194Y879856D02*
D03*
Y804672D02*
D03*
Y817372D02*
D03*
Y867156D02*
D03*
Y791972D02*
D03*
Y830072D02*
D03*
Y855472D02*
D03*
Y842772D02*
D03*
X650494Y867156D02*
D03*
X453390Y868172D02*
D03*
X440690D02*
D03*
X427990D02*
D03*
X415290D02*
D03*
X402590D02*
D03*
X389890D02*
D03*
X377190D02*
D03*
X364490D02*
D03*
X351790D02*
D03*
X339090D02*
D03*
X326390D02*
D03*
X625094Y879856D02*
D03*
X637794D02*
D03*
Y867156D02*
D03*
X504190Y893572D02*
D03*
X402590D02*
D03*
X389890D02*
D03*
X377190D02*
D03*
X288290D02*
D03*
X275590D02*
D03*
X637794Y892556D02*
D03*
X625094D02*
D03*
X612394D02*
D03*
X599694D02*
D03*
X586994D02*
D03*
X504190Y880872D02*
D03*
X491490Y893572D02*
D03*
Y880872D02*
D03*
X478790Y893572D02*
D03*
Y880872D02*
D03*
X466090Y893572D02*
D03*
Y880872D02*
D03*
X453390Y893572D02*
D03*
X440690D02*
D03*
Y880872D02*
D03*
X427990Y893572D02*
D03*
Y880872D02*
D03*
X415290Y893572D02*
D03*
Y880872D02*
D03*
X402590D02*
D03*
X389890D02*
D03*
X377190D02*
D03*
X364490Y893572D02*
D03*
Y880872D02*
D03*
X351790Y893572D02*
D03*
Y880872D02*
D03*
X339090Y893572D02*
D03*
Y880872D02*
D03*
X326390Y893572D02*
D03*
Y880872D02*
D03*
X313690Y893572D02*
D03*
Y880872D02*
D03*
X491490Y868172D02*
D03*
X478790D02*
D03*
X466090D02*
D03*
X453390Y880872D02*
D03*
X504190Y868172D02*
D03*
X625094Y867156D02*
D03*
X612394D02*
D03*
Y879856D02*
D03*
X599694Y867156D02*
D03*
Y879856D02*
D03*
X586994D02*
D03*
Y867156D02*
D03*
X725678Y668274D02*
D03*
X765603Y667004D02*
D03*
X800100Y663702D02*
D03*
X663194Y779272D02*
D03*
X685038Y661416D02*
D03*
X770636Y660146D02*
D03*
X819658Y639318D02*
D03*
X696468Y637540D02*
D03*
X764286Y636778D02*
D03*
X768858Y628904D02*
D03*
X757428Y559816D02*
D03*
X634492Y762762D02*
D03*
X675894Y779272D02*
D03*
X616204Y711962D02*
D03*
X671576Y680720D02*
D03*
X629920Y675132D02*
D03*
X696214Y779272D02*
D03*
X769620Y771398D02*
D03*
X741934Y764794D02*
D03*
X814324Y762508D02*
D03*
X708914Y779272D02*
D03*
X808736Y739648D02*
D03*
X822452Y708660D02*
D03*
X725424Y681736D02*
D03*
X49276Y595376D02*
D03*
X49530Y615442D02*
D03*
X48768Y552450D02*
D03*
Y571500D02*
D03*
X106680Y474726D02*
D03*
X196596Y492506D02*
D03*
Y468630D02*
D03*
Y481076D02*
D03*
X106934Y462026D02*
D03*
X164084Y430022D02*
D03*
X114046Y481584D02*
D03*
X152908Y509016D02*
D03*
X152654Y406654D02*
D03*
X363982Y539750D02*
D03*
X757936Y647700D02*
D03*
X102870Y1007110D02*
D03*
X90170D02*
D03*
X77470D02*
D03*
X64770D02*
D03*
X313690Y906272D02*
D03*
X326390D02*
D03*
X339090D02*
D03*
X351790D02*
D03*
X364490D02*
D03*
X377190D02*
D03*
X389890D02*
D03*
X402590D02*
D03*
X415290D02*
D03*
X427990D02*
D03*
X440690D02*
D03*
X453390D02*
D03*
X466090D02*
D03*
X478790D02*
D03*
X491490D02*
D03*
X504190D02*
D03*
X64770Y906526D02*
D03*
Y919226D02*
D03*
Y931926D02*
D03*
Y970026D02*
D03*
Y995426D02*
D03*
Y982726D02*
D03*
Y957326D02*
D03*
Y944626D02*
D03*
X77470Y919226D02*
D03*
Y931926D02*
D03*
Y995426D02*
D03*
Y982726D02*
D03*
Y970026D02*
D03*
Y957326D02*
D03*
Y944626D02*
D03*
X90170Y906526D02*
D03*
X77470D02*
D03*
X102870D02*
D03*
X115570D02*
D03*
X122428D02*
D03*
X130048D02*
D03*
X173990Y906272D02*
D03*
X186690D02*
D03*
X199390D02*
D03*
X212090D02*
D03*
X224790D02*
D03*
X237490D02*
D03*
X250190D02*
D03*
X262890D02*
D03*
X275590D02*
D03*
X288290D02*
D03*
X300990D02*
D03*
X90170Y919226D02*
D03*
Y931926D02*
D03*
Y995426D02*
D03*
Y944626D02*
D03*
Y970026D02*
D03*
Y957326D02*
D03*
Y982726D02*
D03*
X102870Y919226D02*
D03*
Y931926D02*
D03*
Y944626D02*
D03*
Y957326D02*
D03*
Y970026D02*
D03*
Y982726D02*
D03*
Y995426D02*
D03*
X140970Y906526D02*
D03*
X153670D02*
D03*
X696214Y753872D02*
D03*
X675894D02*
D03*
Y766572D02*
D03*
X809498Y615950D02*
D03*
X776986Y647700D02*
D03*
X599694Y981710D02*
D03*
Y994410D02*
D03*
X586994D02*
D03*
X612394D02*
D03*
Y981710D02*
D03*
X625094Y994410D02*
D03*
Y981710D02*
D03*
X586994D02*
D03*
X637794Y905510D02*
D03*
X586994D02*
D03*
Y918210D02*
D03*
X599694Y905510D02*
D03*
X612394D02*
D03*
X625094D02*
D03*
X644652D02*
D03*
X586994Y969010D02*
D03*
Y930910D02*
D03*
Y943610D02*
D03*
Y956310D02*
D03*
X599694Y969010D02*
D03*
X612394Y918210D02*
D03*
Y930910D02*
D03*
Y943610D02*
D03*
Y956310D02*
D03*
Y969010D02*
D03*
X625094Y930910D02*
D03*
Y943610D02*
D03*
Y969010D02*
D03*
Y918210D02*
D03*
X599694D02*
D03*
Y930910D02*
D03*
Y943610D02*
D03*
Y956310D02*
D03*
X625094D02*
D03*
X797814Y905256D02*
D03*
X810514D02*
D03*
X823214D02*
D03*
X835914D02*
D03*
X848614D02*
D03*
X861314D02*
D03*
X899414D02*
D03*
X874014D02*
D03*
X886714D02*
D03*
X912114D02*
D03*
X708914D02*
D03*
X586994Y1004062D02*
D03*
X599694D02*
D03*
X612394D02*
D03*
X625348D02*
D03*
X696214Y905256D02*
D03*
X759714D02*
D03*
X734314D02*
D03*
X721614D02*
D03*
X747014D02*
D03*
X772414D02*
D03*
X785114D02*
D03*
X675894Y905510D02*
D03*
X663194D02*
D03*
X652272D02*
D03*
X186690Y649732D02*
D03*
X141554D02*
D03*
X173990Y624332D02*
D03*
X267208Y148336D02*
D03*
X29464Y138430D02*
D03*
X418338Y136652D02*
D03*
X309372Y315722D02*
D03*
D155*
X49784Y698144D02*
D03*
X57404D02*
D03*
D156*
X684196Y709996D02*
D03*
X690696Y716496D02*
D03*
X684196Y722996D02*
D03*
X677696Y716496D02*
D03*
X166078Y583702D02*
D03*
X172578Y590202D02*
D03*
X166078Y596702D02*
D03*
X159578Y590202D02*
D03*
X256540Y244990D02*
D03*
X248790Y252740D02*
D03*
X256540Y260490D02*
D03*
X264290Y252740D02*
D03*
X256540D02*
D03*
M02*
