G04*
G04 #@! TF.GenerationSoftware,Altium Limited,Altium Designer,24.10.1 (45)*
G04*
G04 Layer_Color=32896*
%FSLAX44Y44*%
%MOMM*%
G71*
G04*
G04 #@! TF.SameCoordinates,58AE560C-37F5-4C9B-8F18-908462E99DB1*
G04*
G04*
G04 #@! TF.FilePolarity,Positive*
G04*
G01*
G75*
%ADD11C,0.2000*%
%ADD14C,0.3000*%
%ADD17C,0.2540*%
%ADD19C,0.1270*%
%ADD23C,0.1778*%
D11*
X922354Y599694D02*
G03*
X922354Y599694I-1000J0D01*
G01*
X443552Y386684D02*
G03*
X443552Y386684I-1000J0D01*
G01*
X443044Y505556D02*
G03*
X443044Y505556I-1000J0D01*
G01*
X318140Y139700D02*
X372740D01*
X318140Y164592D02*
X372740D01*
X318140Y139700D02*
Y164592D01*
X372740Y139700D02*
Y164592D01*
D14*
X198253Y499463D02*
G03*
X198122Y499457I-131J1494D01*
G01*
D17*
X116586Y431546D02*
Y505206D01*
Y431546D02*
X192786D01*
Y505206D01*
X116586D02*
X192786D01*
D19*
X579374Y529934D02*
X791474D01*
X579374Y646220D02*
Y664450D01*
X791474Y646220D02*
Y664450D01*
X579374D02*
X608083Y694635D01*
X611764Y691134D01*
X759084D01*
X762765Y694635D01*
X791474Y664450D01*
Y529934D02*
Y588220D01*
X579374Y529934D02*
Y588220D01*
X814354Y565694D02*
Y623194D01*
X913354D01*
Y565694D02*
Y623194D01*
X814354Y565694D02*
X913354D01*
X419052Y279684D02*
X476552D01*
X419052D02*
Y378684D01*
X476552D01*
Y279684D02*
Y378684D01*
X418544Y398556D02*
X476044D01*
X418544D02*
Y497556D01*
X476044D01*
Y398556D02*
Y497556D01*
D23*
X802640Y733296D02*
Y726948D01*
X799466D01*
X798408Y728006D01*
Y729064D01*
X799466Y730122D01*
X802640D01*
X799466D01*
X798408Y731180D01*
Y732238D01*
X799466Y733296D01*
X802640D01*
X796292D02*
X792060D01*
X794176D01*
Y726948D01*
X789944D02*
X787828D01*
X788886D01*
Y733296D01*
X789944Y732238D01*
X426254Y502686D02*
X424138D01*
X425196D01*
Y507976D01*
X424138Y509034D01*
X423080D01*
X422022Y507976D01*
X431544Y509034D02*
Y502686D01*
X428370Y505860D01*
X432602D01*
X423968Y388386D02*
X421852D01*
X422910D01*
Y393676D01*
X421852Y394734D01*
X420794D01*
X419736Y393676D01*
X426084Y389444D02*
X427142Y388386D01*
X429258D01*
X430316Y389444D01*
Y390502D01*
X429258Y391560D01*
X428200D01*
X429258D01*
X430316Y392618D01*
Y393676D01*
X429258Y394734D01*
X427142D01*
X426084Y393676D01*
X872278Y555116D02*
X874394D01*
X873336D01*
Y549826D01*
X874394Y548768D01*
X875452D01*
X876510Y549826D01*
X865930Y548768D02*
X870162D01*
X865930Y553000D01*
Y554058D01*
X866988Y555116D01*
X869104D01*
X870162Y554058D01*
X140080Y415842D02*
X133732D01*
X136906D01*
Y420074D01*
X140080D01*
X133732D01*
X139022Y422190D02*
X140080Y423248D01*
Y425364D01*
X139022Y426422D01*
X137964D01*
X136906Y425364D01*
Y424306D01*
Y425364D01*
X135848Y426422D01*
X134790D01*
X133732Y425364D01*
Y423248D01*
X134790Y422190D01*
M02*
