M48
;Layer_Color=9474304
;FILE_FORMAT=4:4
METRIC,LZ
;TYPE=PLATED
T01F00S00C0.1500
T02F00S00C0.1524
T03F00S00C0.3048
T04F00S00C0.3302
T06F00S00C0.8600
T07F00S00C1.0000
T08F00S00C1.0200
T09F00S00C3.5560
;TYPE=NON_PLATED
T10F00S00C1.0000
%
T01
X00049784Y00698144
X00057404
T02
X0025654Y0024499
Y0025274
X0024879
X0025654Y0026049
X0026429Y0025274
X00166078Y00583702
X00172578Y00590202
X00166078Y00596702
X00159578Y00590202
X00684196Y00709996
X00690696Y00716496
X00684196Y00722996
X00677696Y00716496
T03
X00164084Y00430022
X00190754Y00431038
X00196596Y0046863
Y00481076
Y00492506
X00309372Y00315722
T04
X00029464Y0013843
X00094234
X00138176Y00128524
X00221234Y0010414
X00220472Y00092202
X0023622Y0014859
X00267208Y00148336
X00418338Y00136652
X0048514Y00137414
X00323596Y00189484
X00309626Y00211328
X00284988Y00233934
X00276098Y00228346
X00282827Y00264289
X00244602Y00275844
X00231394Y00266192
X00191516Y0026797
X0016129Y00277114
X0014986Y0033782
X00153162Y00391795
X00159512Y00386334
X00162306Y00406654
X00152654
X00152908Y00509016
X00155194Y00526796
X00167894
X00230759Y00532562
Y00540512
X0024511Y00522478
X00256032Y00522224
X00270713Y005303
X00275641Y00540817
X00272227Y0048234
X00271728Y0047443
X00272542Y00466598
X00273304Y00451866
X00254889Y00443103
X0024511Y00443484
X00250952Y00458978
X00230759Y00458809
Y00466683
Y00474557
Y00482431
X00244983Y00490474
X00256032Y00490728
X00230759Y00450729
X00257048Y00314452
X00256959Y00294386
X00281178Y00315214
X00311912Y00355092
X00289814Y00183134
X00262128Y00182118
Y00199644
X00363982Y0053975
X00379984Y00525526
X0014097Y00528066
X00128016
X00114046Y00481584
X00113792Y00467614
X00113284Y00455676
X00106934Y00462026
X0010668Y00474726
X00082042Y00407924
X00082296Y00381762
X00086614Y00373888
X0011303Y00361696
X00064008Y00347218
X00090424Y00288544
X001016Y00267462
X0011176Y00258318
X0008382Y0023368
X00051562Y00252984
X00048768Y0055245
Y005715
X0003683Y00561594
X00049276Y00595376
X00042926Y00605536
X0004953Y00615442
X00075438Y00604591
X000889Y0056134
X0010414Y00566674
X0011804Y00553495
X00114046Y00624332
X001143Y0063754
X00141554Y00649732
Y00662432
Y00675132
Y00687832
Y00700532
Y00713232
Y00725932
Y00738632
Y00751332
Y00764032
Y00776732
Y00789432
Y00802132
Y00814832
Y00827532
Y00840232
Y00855472
Y00868172
X0014097Y00880872
Y00893572
X0012827
X0011557
X0010287
X0009017
Y00880872
X0010287
X0011557
X0012827
Y00868172
X0011557
X0010287
X0009017
X0007747
Y00880872
Y00893572
X0006477
Y00880872
Y00868172
Y00906526
Y00919226
Y00931926
X0007747
Y00919226
Y00906526
X0009017
X0010287
X0011557
X00122428
X00130048
X0014097
X0010287Y00919226
X0009017
Y00931926
X0010287
X00097536Y0070485
X00091694Y0066548
X00053594Y00713486
X0004699Y0071501
X0015367Y00713232
Y00700532
Y00687832
Y00675132
Y00662432
Y00649732
Y00637032
Y00625983
X0017399Y00624332
X00172002Y00617528
X0017399Y00637032
Y00649732
Y00662432
Y00675132
Y00687832
Y00700532
Y00713232
Y00725932
Y00738632
Y00751332
Y00764032
X0018669
Y00776732
Y00789432
Y00802132
Y00814832
Y00827532
Y00840232
X0017399
Y00855472
X0018669
Y00868172
Y00880872
Y00893572
X0019939
X0021209
X0022479
X0023749
X0025019
X0026289
Y00880872
X0027559
X0028829
X0030099
Y00893572
X0028829
X0027559
Y00906272
X0026289
X0025019
X0023749
X0022479
X0021209
X0019939
X0018669
X0017399
Y00893572
Y00880872
Y00868172
X0015367
Y00880872
Y00893572
Y00906526
Y00855472
Y00840232
Y00827532
Y00814832
Y00802132
Y00789432
Y00776732
Y00764032
Y00751332
Y00738632
Y00725932
X0018669
Y00738632
Y00751332
Y00713232
Y00700532
Y00687832
Y00675132
Y00662432
Y00649732
X00219202Y00639318
X00211074Y00627634
X0021717Y00608838
X0024511Y00604126
Y00565912
X00256794
X00270129Y00557276
X0027559Y00549402
X00287528Y00548386
X00230759Y00549149
Y00557328
X0029337Y00606806
X00305816Y00638302
X00331216Y0065151
X00355346Y0064262
X00373888Y00618744
X003556Y00588264
X00260096Y00652018
X0026289Y00868172
X0027559
X0028829
X0030099
X0031369
X0032639
X0033909
X0035179
X0036449
X0037719
X0038989
X0040259
X0041529
X0042799
X0044069
X0045339
X0046609
Y00880872
X0047879
X0049149
X0050419
Y00893572
X0049149
X0047879
X0046609
X0045339
X0044069
Y00880872
X0042799
Y00893572
X0041529
X0040259
X0038989
X0037719
Y00880872
X0038989
X0040259
X0041529
Y00906272
X0040259
X0038989
X0037719
X0036449
Y00893572
Y00880872
X0035179
Y00893572
X0033909
Y00880872
X0032639
Y00893572
X0031369
Y00880872
Y00906272
X0032639
X0033909
X0035179
X0030099
X0028829
X0025019Y00880872
Y00868172
X0023749
Y00880872
X0022479
Y00868172
X0021209
Y00880872
X0019939
Y00868172
X0017399Y00814832
Y00802132
Y00789432
X0045339Y00880872
Y00906272
X0044069
X0042799
X0046609
X0047879
X0049149
X0050419
Y00868172
X0049149
X0047879
X00586994Y00867156
X00599694
X00612394
X00625094
Y00879856
X00637794
X00650494
Y00892556
X00663194
X00675894
Y00879856
Y00867156
Y00855472
Y00842772
Y00830072
Y00817372
Y00804672
Y00791972
X00663194
Y00804672
Y00817372
Y00830072
Y00842772
Y00855472
Y00867156
Y00879856
X00650494Y00867156
X00637794
Y00892556
X00625094
X00612394
X00599694
X00586994
Y00879856
X00599694
X00612394
Y0090551
X00599694
X00586994
Y0091821
Y0093091
Y0094361
X00599694
X00612394
Y0093091
Y0091821
X00625094
Y0090551
X00637794
X00644652
X00652272
X00663194
X00675894
X00696214Y00905256
Y00892556
X00708914
X00721614
X00734314
X00747014
X00759714
X00772414
X00785114
X00797814
X00810514
X00823214
X00835914
X00848614
X00861314
X00874014
X00886714
X00899414
X00912114
Y00879856
X00899414
X00886714
X00874014
X00861314
X00848614
X00835914
X00823214
X00810514
X00797814
X00785114
X00772414
X00759714
X00747014
X00734314
X00721614
X00708914
Y00867664
Y00855472
X00696214
Y00867156
Y00879856
X00721614Y00867156
X00734314
X00747014
X00759714
X00772414
X00785114
X00797814
X00810514
X00823214
X00835914
X00848614
X00861314
X00874014
X00886714
X00899414
X00912114
Y00905256
X00899414
X00886714
X00874014
X00861314
X00848614
X00835914
X00823214
X00810514
X00797814
X00785114
X00772414
X00759714
X00747014
X00734314
X00721614
X00708914
Y00842772
Y00830072
X00696214
Y00817372
X00708914
Y00804672
Y00791972
X00696214
Y00779272
X00708914
X00675894
X00663194
X00675894Y00766572
Y00753872
X00696214
X00729742Y00754634
X00741934Y00764794
X0076962Y00771398
X00763778Y0073279
X00733552Y00729742
X00725424Y00681736
X00725678Y00668274
X00765603Y00667004
X00770636Y00660146
X00776986Y006477
X00757936
X00764286Y00636778
X00768858Y00628904
X00809498Y0061595
X00819658Y00639318
X008001Y00663702
X00822452Y0070866
X00808736Y00739648
X00814324Y00762508
X00634492Y00762762
X0062611Y00748792
X00617982Y00747776
X00627075Y00731976
X006381Y00736397
X00654304Y00741426
X00616204Y00711962
X0062992Y00675132
X00645922Y00661162
X0065913Y00661416
X00685038
X00671576Y0068072
X00696468Y0063754
X00653796Y00628142
X00757428Y00559816
X00625094Y0093091
Y0094361
X00599694Y0093091
Y0091821
Y0095631
X00586994
Y0096901
Y0098171
X00599694
Y0099441
Y01004062
X00586994
Y0099441
X00612394
Y01004062
X00625348
X00625094Y0099441
Y0098171
X00612394
Y0096901
X00599694
X00612394Y0095631
X00625094
Y0096901
X0010287Y00970026
X0009017
X0007747
X0006477
Y00982726
Y00995426
Y0100711
X0007747
Y00995426
Y00982726
X0009017
Y00995426
Y0100711
X0010287
Y00995426
Y00982726
Y00957326
X0009017
X0007747
X0006477
Y00944626
X0007747
X0009017
X0010287
T06
X00029624Y00040298
X00049624
X0046498Y000436
X0048498
T07
X00442552Y00304184
Y00329184
Y00354184
X00442044Y00423056
Y00448056
Y00473056
X00838854Y00599694
X00863854
X00888854
T08
X0033274Y00152146
X0035814
T09
X00141478Y00083566
X00481076Y00534416
X00038354Y00842772
X00578358Y00786384
X00895096Y00714248
T10
X0054483Y0018669
Y00199136
Y00211328
Y0040005
Y00412496
Y00424688
X0051689Y00424434
Y00412242
Y00399796
Y00211074
Y00198882
Y00186436
X0051664Y00608656
Y00621102
Y00633294
X0051689Y00809244
Y0082169
Y00833882
X00543814Y0083566
Y00823468
Y00811022
X00543564Y00635072
Y0062288
Y00610434
M30
