G04*
G04 #@! TF.GenerationSoftware,Altium Limited,Altium Designer,24.10.1 (45)*
G04*
G04 Layer_Color=32768*
%FSLAX44Y44*%
%MOMM*%
G71*
G04*
G04 #@! TF.SameCoordinates,58AE560C-37F5-4C9B-8F18-908462E99DB1*
G04*
G04*
G04 #@! TF.FilePolarity,Positive*
G04*
G01*
G75*
%ADD10C,0.1000*%
%ADD15C,0.1524*%
%ADD19C,0.1270*%
%ADD164C,0.0500*%
%ADD168C,0.0508*%
G36*
X323010Y629920D02*
X269826D01*
Y667004D01*
X323010D01*
Y629920D01*
D02*
G37*
G36*
X371264Y656004D02*
Y525604D01*
X449664D01*
Y656004D01*
X371264D01*
D02*
G37*
G36*
X828978Y754888D02*
X775794D01*
Y791972D01*
X828978D01*
Y754888D01*
D02*
G37*
D10*
X427990Y676910D02*
G03*
X427990Y676910I-10160J0D01*
G01*
X333502Y503682D02*
G03*
X333502Y503682I-10160J0D01*
G01*
X867410Y675386D02*
G03*
X867410Y675386I-10160J0D01*
G01*
X876046Y632714D02*
G03*
X876046Y632714I-10160J0D01*
G01*
X332486Y517398D02*
G03*
X332486Y517398I-10160J0D01*
G01*
X66294Y399796D02*
G03*
X66294Y399796I-10160J0D01*
G01*
X39878Y478028D02*
G03*
X39878Y478028I-10160J0D01*
G01*
X53340Y493268D02*
G03*
X53340Y493268I-10160J0D01*
G01*
X254000Y371856D02*
G03*
X254000Y371856I-10160J0D01*
G01*
X437388Y37338D02*
G03*
X437388Y37338I-10160J0D01*
G01*
X334518Y36830D02*
G03*
X334518Y36830I-10160J0D01*
G01*
X332486Y492252D02*
G03*
X332486Y492252I-10160J0D01*
G01*
X446111Y677657D02*
G03*
X446111Y677657I-10160J0D01*
G01*
X53594Y693144D02*
Y703144D01*
X48594Y698144D02*
X58594D01*
X303784Y531702D02*
Y541702D01*
X298784Y536702D02*
X308784D01*
X326216Y540512D02*
X336216D01*
X331216Y535512D02*
Y545512D01*
X317246Y607894D02*
Y616894D01*
X312746Y612394D02*
X321746D01*
X303784Y590376D02*
Y600376D01*
X298784Y595376D02*
X308784D01*
X338654Y620268D02*
X347654D01*
X343154Y615768D02*
Y624768D01*
X684196Y711496D02*
Y721496D01*
X679196Y716496D02*
X689196D01*
X781780Y677672D02*
X791780D01*
X786780Y672672D02*
Y682672D01*
X761492Y754452D02*
Y763452D01*
X756992Y758952D02*
X765992D01*
X166078Y585202D02*
Y595202D01*
X161078Y590202D02*
X171078D01*
X429768Y273884D02*
Y282884D01*
X425268Y278384D02*
X434268D01*
X428244Y388438D02*
Y397438D01*
X423744Y392938D02*
X432744D01*
X340440Y152146D02*
X350440D01*
X345440Y147146D02*
Y157146D01*
X75438Y724480D02*
Y733480D01*
X70938Y728980D02*
X79938D01*
X53594Y762072D02*
Y771072D01*
X49094Y766572D02*
X58094D01*
X48586Y748284D02*
X57586D01*
X53086Y743784D02*
Y752784D01*
X271272Y319358D02*
Y329358D01*
X266272Y324358D02*
X276272D01*
X246888Y319612D02*
Y329612D01*
X241888Y324612D02*
X251888D01*
X260604Y297252D02*
Y306252D01*
X256104Y301752D02*
X265104D01*
X317500Y287854D02*
Y296854D01*
X313000Y292354D02*
X322000D01*
X317500Y302586D02*
Y311586D01*
X313000Y307086D02*
X322000D01*
X290648Y309372D02*
X299648D01*
X295148Y304872D02*
Y313872D01*
X273304Y284298D02*
Y293298D01*
X268804Y288798D02*
X277804D01*
X236728Y632532D02*
Y641532D01*
X232228Y637032D02*
X241228D01*
X236728Y87702D02*
Y96702D01*
X232228Y92202D02*
X241228D01*
X237744Y99132D02*
Y108132D01*
X233244Y103632D02*
X242244D01*
X345694Y64080D02*
Y73080D01*
X341194Y68580D02*
X350194D01*
X203200Y252810D02*
Y262810D01*
X198200Y257810D02*
X208200D01*
X276932Y190754D02*
X285932D01*
X281432Y186254D02*
Y195254D01*
X294640Y236300D02*
Y246300D01*
X289640Y241300D02*
X299640D01*
X317500Y217750D02*
Y226750D01*
X313000Y222250D02*
X322000D01*
X317500Y240610D02*
Y249610D01*
X313000Y245110D02*
X322000D01*
X317500Y271090D02*
Y280090D01*
X313000Y275590D02*
X322000D01*
X308690Y199390D02*
X318690D01*
X313690Y194390D02*
Y204390D01*
X98044Y381326D02*
Y390326D01*
X93544Y385826D02*
X102544D01*
X127254Y373198D02*
Y382198D01*
X122754Y377698D02*
X131754D01*
X73152Y314270D02*
Y323270D01*
X68652Y318770D02*
X77652D01*
X61286Y277368D02*
X70286D01*
X65786Y272868D02*
Y281868D01*
X65658Y214956D02*
Y223956D01*
X61158Y219456D02*
X70158D01*
X65786Y228926D02*
Y237926D01*
X61286Y233426D02*
X70286D01*
X81788Y652352D02*
Y662352D01*
X76788Y657352D02*
X86788D01*
X298958Y357966D02*
Y367966D01*
X293958Y362966D02*
X303958D01*
X241046Y195660D02*
Y205660D01*
X236046Y200660D02*
X246046D01*
X235792Y182372D02*
X245792D01*
X240792Y177372D02*
Y187372D01*
X383874Y44704D02*
X393874D01*
X388874Y39704D02*
Y49704D01*
X343194Y42164D02*
X348194D01*
X345694Y39664D02*
Y44664D01*
D15*
X775794Y754888D02*
Y791972D01*
X828978D01*
Y754888D02*
Y791972D01*
X775794Y754888D02*
X828978D01*
X269826Y629920D02*
X323010D01*
Y667004D01*
X269826D02*
X323010D01*
X269826Y629920D02*
Y667004D01*
D19*
X371264Y525604D02*
Y656004D01*
X449664D01*
Y525604D02*
Y656004D01*
X371264Y525604D02*
X449664D01*
X371264D02*
Y656004D01*
X449664D01*
Y525604D02*
Y656004D01*
X371264Y525604D02*
X449664D01*
X327792Y70892D02*
X407792D01*
X327792D02*
Y105892D01*
X407792D01*
Y70892D02*
Y105892D01*
D164*
X40094Y714194D02*
X67094D01*
X40094Y682094D02*
X67094D01*
Y714194D01*
X40094Y682094D02*
Y714194D01*
X791772Y683686D02*
Y717886D01*
Y683686D02*
X830272D01*
Y717886D01*
X791772D02*
X830272D01*
X163923Y325040D02*
X202897Y286066D01*
X246541Y329710D01*
X207567Y368684D02*
X246541Y329710D01*
X163923Y325040D02*
X207567Y368684D01*
X506980Y13100D02*
Y63100D01*
X442980Y13100D02*
X506980D01*
X442980D02*
Y63100D01*
X506980D01*
X566724Y589320D02*
X576874D01*
X566724D02*
Y645120D01*
X576874D01*
X793974Y589320D02*
X804124D01*
Y645120D01*
X793974D02*
X804124D01*
X576874Y719720D02*
X793974D01*
X576874Y645120D02*
Y719720D01*
Y514720D02*
Y589320D01*
Y514720D02*
X793974D01*
Y589320D01*
Y645120D02*
Y719720D01*
X286004Y546354D02*
Y584454D01*
X321564Y546354D02*
Y584454D01*
X286004Y546354D02*
X321564D01*
X286004Y584454D02*
X321564D01*
X286004Y528202D02*
X321564D01*
X286004Y545202D02*
X321564D01*
Y528202D02*
Y545202D01*
X286004Y528202D02*
Y545202D01*
X339716Y522732D02*
Y558292D01*
X322716Y522732D02*
Y558292D01*
X339716D01*
X322716Y522732D02*
X339716D01*
X302246Y605394D02*
X332246D01*
X302246D02*
Y619394D01*
X332246Y605394D02*
Y619394D01*
X302246D02*
X332246D01*
X286004Y586876D02*
X321564D01*
X286004Y603876D02*
X321564D01*
Y586876D02*
Y603876D01*
X286004Y586876D02*
Y603876D01*
X336154Y605268D02*
Y635268D01*
X350154D01*
X336154Y605268D02*
X350154D01*
Y635268D01*
X658196Y742496D02*
X710196D01*
X658196Y690496D02*
X710196D01*
X658196D02*
Y742496D01*
X710196Y690496D02*
Y742496D01*
X811854Y563194D02*
Y625694D01*
X915854D01*
Y563194D02*
Y625694D01*
X811854Y563194D02*
X915854D01*
X800760Y655480D02*
Y685640D01*
Y655480D02*
X815980D01*
X800760Y685640D02*
X815980D01*
Y655480D02*
Y685640D01*
X800030Y671672D02*
Y683672D01*
X773530Y671672D02*
Y683672D01*
Y671672D02*
X800030D01*
X773530Y683672D02*
X800030D01*
X731060Y679674D02*
X751060D01*
Y707674D01*
X731060D02*
X751060D01*
X731060Y679674D02*
Y707674D01*
X657866Y688356D02*
Y703056D01*
X628166D02*
X657866D01*
X628166Y688356D02*
Y703056D01*
Y688356D02*
X657866D01*
X746492Y751952D02*
X776492D01*
X746492D02*
Y765952D01*
X776492Y751952D02*
Y765952D01*
X746492D02*
X776492D01*
X747894Y775986D02*
Y790686D01*
X718194D02*
X747894D01*
X718194Y775986D02*
Y790686D01*
Y775986D02*
X747894D01*
X628278Y766842D02*
Y781542D01*
Y766842D02*
X657978D01*
Y781542D01*
X628278D02*
X657978D01*
X730968Y734373D02*
X750119Y718303D01*
X767474Y738987D01*
X748323Y755056D02*
X767474Y738987D01*
X730968Y734373D02*
X748323Y755056D01*
X199452Y86680D02*
X302452D01*
Y6680D02*
Y86680D01*
X199452Y6680D02*
X302452D01*
X199452D02*
Y86680D01*
X188224Y115222D02*
Y145382D01*
Y115222D02*
X203444D01*
X188224Y145382D02*
X203444D01*
Y115222D02*
Y145382D01*
X140078Y616202D02*
X192078D01*
X140078Y564202D02*
X192078D01*
X140078D02*
Y616202D01*
X192078Y564202D02*
Y616202D01*
X232690Y276590D02*
X280390D01*
X232690Y228890D02*
X280390D01*
X232690D02*
Y276590D01*
X280390Y228890D02*
Y276590D01*
X169770Y182510D02*
X213770D01*
Y231510D01*
X169770D02*
X213770D01*
X169770Y182510D02*
Y231510D01*
X414768Y285384D02*
X444768D01*
Y271384D02*
Y285384D01*
X414768Y271384D02*
Y285384D01*
Y271384D02*
X444768D01*
X413244Y385938D02*
X443244D01*
X413244D02*
Y399938D01*
X443244Y385938D02*
Y399938D01*
X413244D02*
X443244D01*
X334424Y184922D02*
X364584D01*
Y200142D01*
X334424Y184922D02*
Y200142D01*
X364584D01*
X428658Y209794D02*
X458818D01*
X428658Y194574D02*
Y209794D01*
X458818Y194574D02*
Y209794D01*
X428658Y194574D02*
X458818D01*
X315890Y137446D02*
X374990D01*
X315890Y166846D02*
X374990D01*
X315890Y137446D02*
Y166846D01*
X374990Y137446D02*
Y166846D01*
X217010Y535910D02*
Y563910D01*
X197010Y535910D02*
X217010D01*
X197010D02*
Y563910D01*
X217010D01*
X416552Y277184D02*
X479052D01*
X416552D02*
Y381184D01*
X479052D01*
Y277184D02*
Y381184D01*
X416044Y396056D02*
X478544D01*
X416044D02*
Y500056D01*
X478544D01*
Y396056D02*
Y500056D01*
X82438Y713980D02*
Y743980D01*
X68438Y713980D02*
X82438D01*
X68438Y743980D02*
X82438D01*
X68438Y713980D02*
Y743980D01*
X38594Y759572D02*
X68594D01*
X38594D02*
Y773572D01*
X68594Y759572D02*
Y773572D01*
X38594D02*
X68594D01*
X38086Y755284D02*
X68086D01*
Y741284D02*
Y755284D01*
X38086Y741284D02*
Y755284D01*
Y741284D02*
X68086D01*
X262772Y306578D02*
X279772D01*
X262772Y342138D02*
X279772D01*
X262772Y306578D02*
Y342138D01*
X279772Y306578D02*
Y342138D01*
X238388Y306832D02*
X255388D01*
X238388Y342392D02*
X255388D01*
X238388Y306832D02*
Y342392D01*
X255388Y306832D02*
Y342392D01*
X245604Y308752D02*
X275604D01*
Y294752D02*
Y308752D01*
X245604Y294752D02*
Y308752D01*
Y294752D02*
X275604D01*
X302500Y299354D02*
X332500D01*
Y285354D02*
Y299354D01*
X302500Y285354D02*
Y299354D01*
Y285354D02*
X332500D01*
X302500Y314086D02*
X332500D01*
Y300086D02*
Y314086D01*
X302500Y300086D02*
Y314086D01*
Y300086D02*
X332500D01*
X288148Y294372D02*
Y324372D01*
X302148D01*
X288148Y294372D02*
X302148D01*
Y324372D01*
X258304Y295798D02*
X288304D01*
Y281798D02*
Y295798D01*
X258304Y281798D02*
Y295798D01*
Y281798D02*
X288304D01*
X228606Y646446D02*
Y661146D01*
X198906D02*
X228606D01*
X198906Y646446D02*
Y661146D01*
Y646446D02*
X228606D01*
X221728Y630032D02*
X251728D01*
X221728D02*
Y644032D01*
X251728Y630032D02*
Y644032D01*
X221728D02*
X251728D01*
X218729Y605769D02*
X236084Y626452D01*
X255235Y610383D01*
X237880Y589700D02*
X255235Y610383D01*
X218729Y605769D02*
X237880Y589700D01*
X221728Y99202D02*
X251728D01*
Y85202D02*
Y99202D01*
X221728Y85202D02*
Y99202D01*
Y85202D02*
X251728D01*
X222744Y110632D02*
X252744D01*
Y96632D02*
Y110632D01*
X222744Y96632D02*
Y110632D01*
Y96632D02*
X252744D01*
X71624Y9798D02*
Y59798D01*
X7624Y9798D02*
X71624D01*
X7624D02*
Y59798D01*
X71624D01*
X330694Y75580D02*
X360694D01*
Y61580D02*
Y75580D01*
X330694Y61580D02*
Y75580D01*
Y61580D02*
X360694D01*
X194700Y275590D02*
X211700D01*
X194700Y240030D02*
X211700D01*
Y275590D01*
X194700Y240030D02*
Y275590D01*
X288432Y175754D02*
Y205754D01*
X274432Y175754D02*
X288432D01*
X274432Y205754D02*
X288432D01*
X274432Y175754D02*
Y205754D01*
X286140Y223520D02*
X303140D01*
X286140Y259080D02*
X303140D01*
X286140Y223520D02*
Y259080D01*
X303140Y223520D02*
Y259080D01*
X302500Y229250D02*
X332500D01*
Y215250D02*
Y229250D01*
X302500Y215250D02*
Y229250D01*
Y215250D02*
X332500D01*
X302500Y252110D02*
X332500D01*
Y238110D02*
Y252110D01*
X302500Y238110D02*
Y252110D01*
Y238110D02*
X332500D01*
X302500Y268590D02*
X332500D01*
X302500D02*
Y282590D01*
X332500Y268590D02*
Y282590D01*
X302500D02*
X332500D01*
X331470Y190890D02*
Y207890D01*
X295910Y190890D02*
Y207890D01*
Y190890D02*
X331470D01*
X295910Y207890D02*
X331470D01*
X105044Y370826D02*
Y400826D01*
X91044Y370826D02*
X105044D01*
X91044Y400826D02*
X105044D01*
X91044Y370826D02*
Y400826D01*
X112254Y384698D02*
X142254D01*
Y370698D02*
Y384698D01*
X112254Y370698D02*
Y384698D01*
Y370698D02*
X142254D01*
X58152Y325770D02*
X88152D01*
Y311770D02*
Y325770D01*
X58152Y311770D02*
Y325770D01*
Y311770D02*
X88152D01*
X58786Y262368D02*
Y292368D01*
X72786D01*
X58786Y262368D02*
X72786D01*
Y292368D01*
X82924Y237560D02*
Y262560D01*
X107924D01*
Y237560D02*
Y262560D01*
X82924Y237560D02*
X107924D01*
X50658Y212456D02*
X80658D01*
X50658D02*
Y226456D01*
X80658Y212456D02*
Y226456D01*
X50658D02*
X80658D01*
X20838Y83218D02*
Y113378D01*
Y83218D02*
X36058D01*
X20838Y113378D02*
X36058D01*
Y83218D02*
Y113378D01*
X50786Y226426D02*
X80786D01*
X50786D02*
Y240426D01*
X80786Y226426D02*
Y240426D01*
X50786D02*
X80786D01*
X104327Y646957D02*
Y661657D01*
Y646957D02*
X134027D01*
Y661657D01*
X104327D02*
X134027D01*
X82710Y612658D02*
X112870D01*
Y627878D01*
X82710Y612658D02*
Y627878D01*
X112870D01*
X74328Y625612D02*
X104488D01*
Y640832D01*
X74328Y625612D02*
Y640832D01*
X104488D01*
X75788Y670602D02*
X87788D01*
X75788Y644102D02*
X87788D01*
Y670602D01*
X75788Y644102D02*
Y670602D01*
X179528Y126910D02*
Y147410D01*
X128828D02*
X179528D01*
X128828Y126910D02*
Y147410D01*
Y126910D02*
X179528D01*
X292958Y349716D02*
X304958D01*
X292958Y376216D02*
X304958D01*
X292958Y349716D02*
Y376216D01*
X304958Y349716D02*
Y376216D01*
X258986Y363738D02*
X289146D01*
Y378958D01*
X258986Y363738D02*
Y378958D01*
X289146D01*
X223266Y209160D02*
X258826D01*
X223266Y192160D02*
X258826D01*
X223266D02*
Y209160D01*
X258826Y192160D02*
Y209160D01*
X258572Y173872D02*
Y190872D01*
X223012Y173872D02*
Y190872D01*
Y173872D02*
X258572D01*
X223012Y190872D02*
X258572D01*
X404104Y121572D02*
Y151732D01*
X388884D02*
X404104D01*
X388884Y121572D02*
X404104D01*
X388884D02*
Y151732D01*
X368874Y21204D02*
Y68204D01*
X408874Y21204D02*
Y68204D01*
X368874Y21204D02*
X408874D01*
X368874Y68204D02*
X408874D01*
X330194Y56664D02*
X361194D01*
Y27664D02*
Y56664D01*
X330194Y27664D02*
Y56664D01*
Y27664D02*
X361194D01*
X51294Y350038D02*
X81294D01*
Y385038D01*
X51294D02*
X81294D01*
X51294Y350038D02*
Y385038D01*
X139610Y288340D02*
Y339040D01*
X160110D01*
Y288340D02*
Y339040D01*
X139610Y288340D02*
X160110D01*
D168*
X347516Y586520D02*
Y619980D01*
X363176D01*
Y586520D02*
Y619980D01*
X347516Y586520D02*
X363176D01*
X694866Y673906D02*
Y689566D01*
Y673906D02*
X728326D01*
Y689566D01*
X694866D02*
X728326D01*
X677096Y692116D02*
X692756D01*
X677096Y658656D02*
Y692116D01*
Y658656D02*
X692756D01*
Y692116D01*
X645966Y658842D02*
X661626D01*
X645966Y625382D02*
Y658842D01*
Y625382D02*
X661626D01*
Y658842D01*
X651046Y693386D02*
X666706D01*
X651046Y659926D02*
Y693386D01*
Y659926D02*
X666706D01*
Y693386D01*
X637584Y692878D02*
X653244D01*
X637584Y659418D02*
Y692878D01*
Y659418D02*
X653244D01*
Y692878D01*
X820210Y663414D02*
X835870D01*
X820210Y629954D02*
Y663414D01*
Y629954D02*
X835870D01*
Y663414D01*
X699042Y756876D02*
X732502D01*
Y741216D02*
Y756876D01*
X699042Y741216D02*
X732502D01*
X699042D02*
Y756876D01*
X709456Y757472D02*
Y773132D01*
Y757472D02*
X742916D01*
Y773132D01*
X709456D02*
X742916D01*
X741206Y786848D02*
X774666D01*
Y771188D02*
Y786848D01*
X741206Y771188D02*
X774666D01*
X741206D02*
Y786848D01*
X694866Y659936D02*
Y675596D01*
Y659936D02*
X728326D01*
Y675596D01*
X694866D02*
X728326D01*
X688384Y665192D02*
X704044D01*
X688384Y631732D02*
Y665192D01*
Y631732D02*
X704044D01*
Y665192D01*
X648682Y704132D02*
Y719792D01*
X615222D02*
X648682D01*
X615222Y704132D02*
Y719792D01*
Y704132D02*
X648682D01*
X671542Y741724D02*
Y757384D01*
X638082D02*
X671542D01*
X638082Y741724D02*
Y757384D01*
Y741724D02*
X671542D01*
X666716Y754678D02*
Y770338D01*
X633256D02*
X666716D01*
X633256Y754678D02*
Y770338D01*
Y754678D02*
X666716D01*
X792412Y748758D02*
X808072D01*
X792412Y715298D02*
Y748758D01*
Y715298D02*
X808072D01*
Y748758D01*
X613342Y705578D02*
X629002D01*
X613342Y672118D02*
Y705578D01*
Y672118D02*
X629002D01*
Y705578D01*
X339046Y619540D02*
Y653000D01*
X323386Y619540D02*
X339046D01*
X323386D02*
Y653000D01*
X339046D01*
X347516Y644110D02*
X363176D01*
X347516Y610650D02*
Y644110D01*
Y610650D02*
X363176D01*
Y644110D01*
X147618Y558766D02*
X163278D01*
X147618Y525306D02*
Y558766D01*
Y525306D02*
X163278D01*
Y558766D01*
X160064D02*
X175724D01*
X160064Y525306D02*
Y558766D01*
Y525306D02*
X175724D01*
Y558766D01*
X133140Y559020D02*
X148800D01*
X133140Y525560D02*
Y559020D01*
Y525560D02*
X148800D01*
Y559020D01*
X119424D02*
X135084D01*
X119424Y525560D02*
Y559020D01*
Y525560D02*
X135084D01*
Y559020D01*
X186612Y631488D02*
Y647148D01*
Y631488D02*
X220072D01*
Y647148D01*
X186612D02*
X220072D01*
X178596Y614470D02*
Y630130D01*
Y614470D02*
X212056D01*
Y630130D01*
X178596D02*
X212056D01*
X227364Y644442D02*
Y660102D01*
Y644442D02*
X260824D01*
Y660102D01*
X227364D02*
X260824D01*
X84802Y245154D02*
Y260814D01*
X51342D02*
X84802D01*
X51342Y245154D02*
Y260814D01*
Y245154D02*
X84802D01*
X65576Y384590D02*
X81236D01*
Y418050D01*
X65576D02*
X81236D01*
X65576Y384590D02*
Y418050D01*
X82330Y353866D02*
X115790D01*
X82330D02*
Y369526D01*
X115790D01*
Y353866D02*
Y369526D01*
X82340Y291304D02*
X98000D01*
X82340Y257844D02*
Y291304D01*
Y257844D02*
X98000D01*
Y291304D01*
X141952Y554526D02*
Y570186D01*
X108492D02*
X141952D01*
X108492Y554526D02*
Y570186D01*
Y554526D02*
X141952D01*
X128744Y568750D02*
Y584410D01*
X95284D02*
X128744D01*
X95284Y568750D02*
Y584410D01*
Y568750D02*
X128744D01*
X145254Y615740D02*
Y631400D01*
X111794D02*
X145254D01*
X111794Y615740D02*
Y631400D01*
Y615740D02*
X145254D01*
X145904Y629456D02*
Y645116D01*
X112444D02*
X145904D01*
X112444Y629456D02*
Y645116D01*
Y629456D02*
X145904D01*
X65058Y698290D02*
X98518D01*
X65058D02*
Y713950D01*
X98518D01*
Y698290D02*
Y713950D01*
M02*
